<svg xmlns="http://www.w3.org/2000/svg" xmlns:xlink="http://www.w3.org/1999/xlink" width="1600" viewBox="0 0 1200 241.499998" height="322" preserveAspectRatio="xMidYMid meet"><defs><g></g></defs><g fill="#f76a05" fill-opacity="1"><g transform="translate(281.197522, 229.33145)"><g><path d="M 198.859375 -159.15625 C 198.859375 -145.695312 194.535156 -134.109375 185.890625 -124.390625 C 177.242188 -114.679688 165.554688 -108.015625 150.828125 -104.390625 L 194.046875 -33.625 C 199.597656 -24.445312 204.773438 -17.5625 209.578125 -12.96875 C 214.378906 -8.375 219.238281 -5.972656 224.15625 -5.765625 L 224.15625 0 L 159.15625 0 L 97.984375 -100.234375 L 88.0625 -100.234375 L 88.0625 -33.296875 C 88.0625 -24.972656 89.179688 -18.890625 91.421875 -15.046875 C 93.660156 -11.203125 96.914062 -8.742188 101.1875 -7.671875 C 105.457031 -6.609375 111.863281 -5.972656 120.40625 -5.765625 L 120.40625 0 L 6.078125 0 L 6.078125 -5.765625 C 14.191406 -5.972656 20.328125 -6.664062 24.484375 -7.84375 C 28.648438 -9.019531 31.75 -11.582031 33.78125 -15.53125 C 35.8125 -19.476562 36.828125 -25.398438 36.828125 -33.296875 L 36.828125 -189.5625 C 36.828125 -199.175781 34.425781 -205.6875 29.625 -209.09375 C 24.820312 -212.507812 16.972656 -214.21875 6.078125 -214.21875 L 6.078125 -219.984375 L 119.125 -219.984375 C 142.820312 -219.984375 162.035156 -214.644531 176.765625 -203.96875 C 191.492188 -193.300781 198.859375 -178.363281 198.859375 -159.15625 Z M 105.359375 -112.078125 C 116.023438 -112.078125 125.628906 -115.4375 134.171875 -122.15625 C 142.710938 -128.882812 146.984375 -141.535156 146.984375 -160.109375 C 146.984375 -192.128906 131.503906 -208.140625 100.546875 -208.140625 L 88.0625 -208.140625 L 88.0625 -112.078125 Z M 105.359375 -112.078125 "></path></g></g></g><g fill="#f76a05" fill-opacity="1"><g transform="translate(511.410154, 229.33145)"><g><path d="M 118.15625 -214.21875 C 110.050781 -214.007812 103.96875 -213.367188 99.90625 -212.296875 C 95.851562 -211.234375 92.757812 -208.78125 90.625 -204.9375 C 88.488281 -201.09375 87.421875 -194.90625 87.421875 -186.375 L 87.421875 -33.296875 C 87.421875 -24.972656 88.429688 -18.890625 90.453125 -15.046875 C 92.484375 -11.203125 95.523438 -8.742188 99.578125 -7.671875 C 103.640625 -6.609375 109.832031 -5.972656 118.15625 -5.765625 L 118.15625 0 L 5.4375 0 L 5.4375 -5.765625 C 13.550781 -5.765625 19.632812 -6.296875 23.6875 -7.359375 C 27.75 -8.429688 30.847656 -10.941406 32.984375 -14.890625 C 35.117188 -18.835938 36.1875 -24.972656 36.1875 -33.296875 L 36.1875 -186.375 C 36.1875 -194.695312 35.117188 -200.832031 32.984375 -204.78125 C 30.847656 -208.726562 27.695312 -211.234375 23.53125 -212.296875 C 19.375 -213.367188 13.34375 -214.007812 5.4375 -214.21875 L 5.4375 -219.984375 L 118.15625 -219.984375 Z M 118.15625 -214.21875 "></path></g></g></g><g fill="#f76a05" fill-opacity="1"><g transform="translate(634.681105, 229.33145)"><g><path d="M 204.625 -162.34375 L 198.859375 -162.34375 C 197.359375 -177.507812 192.601562 -188.929688 184.59375 -196.609375 C 176.59375 -204.296875 167.472656 -208.140625 157.234375 -208.140625 L 132.25 -208.140625 L 132.25 -34.578125 C 132.25 -26.679688 133.316406 -20.703125 135.453125 -16.640625 C 137.585938 -12.585938 140.894531 -9.8125 145.375 -8.3125 C 149.863281 -6.820312 156.160156 -5.972656 164.265625 -5.765625 L 164.265625 0 L 49 0 L 49 -5.765625 C 57.101562 -5.765625 63.34375 -6.347656 67.71875 -7.515625 C 72.101562 -8.691406 75.414062 -11.304688 77.65625 -15.359375 C 79.894531 -19.421875 81.015625 -25.613281 81.015625 -33.9375 L 81.015625 -208.140625 L 53.46875 -208.140625 C 43.863281 -208.140625 35.328125 -203.921875 27.859375 -195.484375 C 20.390625 -187.054688 15.90625 -176.007812 14.40625 -162.34375 L 8.640625 -162.34375 L 8.640625 -219.984375 L 204.625 -219.984375 Z M 204.625 -162.34375 "></path></g></g></g></svg>