<svg xmlns="http://www.w3.org/2000/svg" xmlns:xlink="http://www.w3.org/1999/xlink" width="1600" viewBox="0 0 1200 241.499998" height="322" preserveAspectRatio="xMidYMid meet"><path stroke-linecap="butt" transform="matrix(8.431865, 0, 0, 8.424459, 29.303319, 23.072373)" fill-opacity="1" fill="#ffffff" fill-rule="nonzero" stroke-linejoin="miter" d="M 2.899784 2.30007 L 21.300035 2.30007 L 21.300035 20.900116 L 2.899784 20.900116 Z M 2.899784 2.30007 " stroke="#231f20" stroke-width="1" stroke-opacity="1" stroke-miterlimit="4"></path><path fill="#57068c" d="M 273.828125 98.890625 L 282.257812 98.890625 L 303.339844 125.851562 L 303.339844 98.050781 L 313.457031 98.050781 L 313.457031 142.699219 L 305.023438 142.699219 L 282.257812 114.898438 L 282.257812 142.699219 L 273.828125 142.699219 L 273.828125 98.050781 M 330.320312 98.890625 L 364.046875 98.890625 L 364.046875 107.316406 L 339.597656 107.316406 L 339.597656 115.742188 L 360.675781 115.742188 L 360.675781 124.164062 L 339.597656 124.164062 L 339.597656 134.273438 L 364.046875 134.273438 L 364.046875 142.699219 L 330.320312 142.699219 L 330.320312 98.050781 M 375.011719 98.890625 L 385.972656 98.890625 L 394.402344 128.378906 L 404.519531 98.050781 L 412.953125 98.050781 L 423.070312 128.378906 L 432.347656 98.050781 L 442.464844 98.050781 L 427.289062 142.699219 L 418.855469 142.699219 L 408.738281 114.054688 L 398.617188 142.699219 L 390.1875 142.699219 L 375.011719 98.890625 M 493.054688 125.007812 L 476.191406 98.890625 L 487.996094 98.890625 L 498.957031 117.425781 L 509.078125 98.890625 L 520.882812 98.890625 L 504.015625 125.851562 L 504.015625 142.699219 L 493.054688 142.699219 L 493.054688 125.851562 M 526.785156 120.796875 C 526.785156 108.160156 536.058594 98.050781 549.550781 98.050781 C 563.039062 98.050781 573.160156 108.160156 573.160156 120.796875 C 573.160156 133.433594 563.039062 143.542969 549.550781 143.542969 C 536.058594 143.542969 526.785156 132.589844 526.785156 120.796875 M 563.882812 120.796875 C 563.882812 112.371094 557.980469 106.472656 550.394531 106.472656 C 541.960938 106.472656 536.902344 113.214844 536.902344 120.796875 C 536.902344 128.378906 542.804688 134.273438 550.394531 134.273438 C 558.824219 134.273438 563.882812 128.378906 563.882812 120.796875 Z M 588.335938 98.890625 L 608.574219 98.890625 C 614.476562 98.890625 618.691406 99.734375 621.21875 103.105469 C 623.75 105.632812 625.4375 109 625.4375 113.214844 C 625.4375 119.953125 621.21875 125.007812 615.316406 126.691406 L 626.28125 142.699219 L 615.316406 142.699219 L 605.199219 128.378906 L 597.609375 128.378906 L 597.609375 142.699219 L 588.335938 142.699219 L 588.335938 98.050781 M 607.730469 119.953125 C 612.789062 119.953125 615.316406 117.425781 615.316406 114.054688 C 615.316406 109 611.945312 107.316406 606.886719 107.316406 L 598.453125 107.316406 L 598.453125 119.953125 Z M 640.613281 98.890625 L 649.886719 98.890625 L 649.886719 117.425781 L 667.59375 98.890625 L 679.398438 98.890625 L 661.691406 117.425781 L 680.242188 142.699219 L 668.4375 142.699219 L 654.949219 124.164062 L 649.886719 129.21875 L 649.886719 142.699219 L 640.613281 142.699219 L 640.613281 98.050781 M 717.34375 124.164062 L 717.34375 98.890625 L 726.617188 98.890625 L 726.617188 124.164062 C 726.617188 130.90625 730.835938 134.273438 736.738281 134.273438 C 742.640625 134.273438 746.011719 130.90625 746.011719 124.164062 L 746.011719 98.890625 L 756.128906 98.890625 L 756.128906 124.164062 C 756.128906 136.800781 747.699219 143.542969 736.738281 143.542969 C 724.933594 143.542969 717.34375 136.800781 717.34375 123.324219 M 771.308594 98.890625 L 781.425781 98.890625 L 801.664062 125.851562 L 801.664062 98.050781 L 811.78125 98.050781 L 811.78125 142.699219 L 803.347656 142.699219 L 781.425781 114.898438 L 781.425781 142.699219 L 772.152344 142.699219 L 772.152344 98.050781 M 828.644531 98.050781 L 838.761719 98.050781 L 838.761719 141.855469 L 828.644531 141.855469 Z M 852.253906 98.890625 L 863.214844 98.890625 L 874.175781 129.21875 L 885.980469 98.050781 L 896.097656 98.050781 L 879.234375 142.699219 L 870.804688 142.699219 L 851.410156 98.890625 M 909.589844 98.890625 L 943.316406 98.890625 L 943.316406 107.316406 L 919.707031 107.316406 L 919.707031 115.742188 L 939.945312 115.742188 L 939.945312 124.164062 L 919.707031 124.164062 L 919.707031 134.273438 L 943.316406 134.273438 L 943.316406 142.699219 L 909.589844 142.699219 L 909.589844 98.050781 M 958.496094 98.890625 L 978.730469 98.890625 C 983.789062 98.890625 988.851562 99.734375 991.378906 103.105469 C 993.910156 105.632812 995.59375 109 995.59375 113.214844 C 995.59375 119.953125 991.378906 125.007812 985.476562 126.691406 L 996.4375 142.699219 L 985.476562 142.699219 L 975.359375 128.378906 L 967.769531 128.378906 L 967.769531 142.699219 L 958.496094 142.699219 L 958.496094 98.050781 M 977.886719 119.953125 C 982.949219 119.953125 985.476562 117.425781 985.476562 114.054688 C 985.476562 109 982.105469 107.316406 977.046875 107.316406 L 968.613281 107.316406 L 968.613281 119.953125 Z M 1007.398438 135.960938 L 1013.300781 129.21875 C 1016.675781 132.589844 1021.734375 134.273438 1025.949219 134.273438 C 1030.164062 134.273438 1032.695312 133.433594 1032.695312 130.90625 C 1032.695312 127.535156 1031.007812 126.691406 1024.261719 125.007812 C 1014.988281 122.480469 1009.085938 119.953125 1009.085938 111.527344 C 1009.085938 103.105469 1015.832031 98.050781 1024.261719 98.050781 C 1027.285156 97.855469 1030.25 98.195312 1033.148438 99.0625 C 1036.050781 99.933594 1038.710938 101.28125 1041.128906 103.105469 L 1036.066406 111.527344 C 1031.851562 108.160156 1027.636719 106.472656 1024.261719 106.472656 C 1020.890625 106.472656 1018.359375 108.160156 1018.359375 109.84375 C 1018.359375 113.214844 1020.890625 114.054688 1028.480469 116.582031 C 1036.910156 118.269531 1041.96875 121.636719 1041.96875 129.21875 C 1041.96875 137.644531 1035.226562 143.542969 1025.949219 143.542969 C 1019.203125 143.542969 1012.457031 141.015625 1007.398438 135.960938 M 1057.992188 98.050781 L 1068.109375 98.050781 L 1068.109375 141.855469 L 1057.992188 141.855469 Z M 1095.089844 107.316406 L 1081.601562 107.316406 L 1081.601562 98.890625 L 1117.855469 98.890625 L 1117.855469 107.316406 L 1104.367188 107.316406 L 1104.367188 142.699219 L 1095.089844 142.699219 L 1095.089844 107.316406 M 1144.839844 125.007812 L 1127.976562 98.050781 L 1138.9375 98.050781 L 1149.054688 116.582031 L 1160.015625 98.050781 L 1170.976562 98.050781 L 1154.113281 125.007812 L 1154.113281 141.855469 L 1144.839844 141.855469 L 1144.839844 125.007812 M 224.078125 217.675781 L 29.304688 217.675781 L 29.304688 23.074219 L 224.078125 23.074219 Z M 96.757812 85.414062 C 88.328125 93.835938 84.953125 125.007812 119.523438 125.007812 C 99.289062 113.214844 101.816406 95.523438 110.25 83.726562 C 110.25 82.042969 104.347656 67.722656 104.347656 70.25 C 104.347656 76.144531 98.445312 83.726562 96.757812 85.414062 Z M 125.425781 124.164062 C 111.9375 98.890625 140.605469 81.199219 140.605469 77.832031 C 140.605469 69.40625 134.703125 52.558594 133.859375 54.242188 C 132.171875 62.667969 121.210938 73.617188 118.679688 76.144531 C 98.445312 98.890625 103.503906 115.742188 124.582031 124.164062 Z M 128.800781 124.164062 C 130.484375 98.050781 155.78125 94.679688 157.46875 90.46875 C 160.839844 82.042969 154.09375 65.195312 153.25 66.039062 C 150.722656 72.777344 145.664062 78.671875 145.664062 78.671875 C 124.582031 93.835938 120.367188 107.316406 128.800781 123.324219 Z M 131.328125 124.164062 C 171.800781 128.378906 170.117188 82.042969 170.117188 82.042969 C 167.585938 87.097656 161.683594 90.46875 161.683594 90.46875 C 156.625 97.207031 136.386719 98.890625 131.328125 124.164062 Z M 112.777344 135.960938 L 138.917969 135.960938 L 138.917969 127.535156 L 111.9375 127.535156 L 111.9375 135.960938 Z M 123.738281 192.402344 C 123.738281 194.089844 127.113281 194.929688 127.957031 192.402344 L 134.703125 139.328125 L 117.839844 139.328125 Z M 123.738281 192.402344 " fill-opacity="1" fill-rule="nonzero"></path></svg>