<svg xmlns="http://www.w3.org/2000/svg" xmlns:xlink="http://www.w3.org/1999/xlink" width="1600" viewBox="0 0 1200 241.499998" height="322" preserveAspectRatio="xMidYMid meet"><path fill="#a30046" d="M 939.847656 19.320312 C 926.3125 19.320312 908.289062 25.335938 908.289062 45.585938 C 908.289062 62.5 924.585938 65.949219 929.421875 66.949219 C 933.632812 67.839844 937.984375 68.390625 942.265625 68.945312 C 948.066406 69.726562 956.007812 70.730469 956.007812 76.964844 C 956.007812 82.414062 949.308594 86.085938 941.507812 86.085938 C 936.949219 86.085938 931.628906 85.089844 926.382812 82.304688 C 922.515625 80.191406 920.855469 78.40625 918.855469 76.179688 L 903.9375 85.640625 C 908.839844 91.316406 917.613281 101.550781 939.710938 101.550781 C 950.761719 101.550781 962.085938 99.214844 969.199219 90.984375 C 973.34375 86.203125 975.414062 79.964844 975.414062 74.289062 C 975.414062 65.386719 970.855469 58.382812 961.878906 55.046875 C 957.457031 53.488281 946.203125 51.363281 937.847656 50.363281 C 934.53125 49.917969 927.832031 49.03125 927.832031 43.019531 C 927.832031 39.238281 931.699219 34.789062 939.503906 34.789062 C 944.542969 34.789062 949.515625 36.683594 952.28125 38.242188 C 955.386719 40.023438 957.667969 42.140625 960.082031 44.585938 L 974.585938 34.234375 C 967.75 28.113281 957.941406 19.320312 939.847656 19.320312 Z M 622.980469 21.105469 L 622.980469 34.34375 L 639.878906 34.34375 L 639.878906 21.105469 Z M 60.414062 21.199219 C 58.886719 21.199219 58.328125 21.691406 59.105469 22.761719 C 59.105469 22.761719 61.949219 25.464844 67.117188 31.386719 C 74.28125 39.578125 71.488281 50.511719 71.488281 50.511719 L 33.128906 204.0625 L 88.941406 204.0625 L 96.964844 170.347656 L 150.839844 170.347656 L 159.230469 204.0625 L 232.710938 204.0625 C 262.882812 204.0625 287.414062 200.992188 299.503906 182.15625 C 308.550781 199.347656 328.027344 207.40625 362.390625 204.441406 C 374.359375 203.417969 386.070312 197.820312 391.09375 188.894531 L 393.46875 196.300781 C 395.441406 200.792969 399.546875 204.074219 405.386719 204.074219 L 461.527344 204.074219 C 463.050781 204.074219 463.542969 203.621094 462.769531 202.554688 C 462.769531 202.554688 459.757812 199.21875 454.785156 193.835938 C 448.625 187.207031 448.957031 180.1875 448.957031 180.1875 L 448.957031 21.191406 L 388.828125 21.195312 L 388.828125 148.351562 C 388.089844 160.394531 376.328125 163.449219 369.835938 163.234375 C 360.503906 162.953125 355.078125 157.6875 355.078125 148.71875 L 355.078125 21.1875 L 296.515625 21.191406 C 296.515625 21.191406 272.054688 21.21875 255.238281 21.21875 C 223.179688 21.21875 192.933594 26.160156 182.699219 52.855469 L 176.65625 29.207031 C 175.175781 24.511719 170.121094 21.191406 165.09375 21.191406 L 60.414062 21.191406 Z M 529.863281 21.210938 L 500.726562 99.777344 L 521.628906 99.769531 L 525.53125 87.199219 L 554.445312 87.199219 L 558.335938 99.769531 L 579.238281 99.769531 L 550.324219 21.203125 L 529.863281 21.207031 Z M 983.910156 24.882812 L 983.910156 42.914062 L 975.414062 42.914062 L 975.414062 53.371094 L 983.910156 53.371094 L 983.910156 81.414062 C 983.910156 86.984375 983.976562 91.101562 986.324219 94.550781 C 989.984375 99.890625 996.476562 100.214844 1002.347656 100.214844 C 1005.457031 100.214844 1007.664062 99.882812 1011.394531 99.324219 L 1011.394531 85.980469 L 1005.25 86.210938 C 1000.691406 86.210938 1000.691406 83.195312 1000.828125 79.636719 L 1000.828125 53.480469 L 1012.15625 53.480469 L 1012.15625 43.019531 L 1000.898438 43.019531 L 1000.898438 24.882812 Z M 1078.796875 24.882812 L 1078.796875 42.914062 L 1070.300781 42.914062 L 1070.300781 53.371094 L 1078.796875 53.371094 L 1078.796875 81.414062 C 1078.796875 86.984375 1078.867188 91.101562 1081.214844 94.550781 C 1084.875 99.890625 1091.367188 100.214844 1097.234375 100.214844 C 1100.34375 100.214844 1102.554688 99.882812 1106.214844 99.324219 L 1106.214844 85.980469 L 1100.136719 86.210938 C 1095.578125 86.210938 1095.578125 83.195312 1095.648438 79.636719 L 1095.648438 53.480469 L 1106.972656 53.480469 L 1106.972656 43.019531 L 1095.785156 43.019531 L 1095.785156 24.882812 Z M 1139.015625 39.796875 C 1116.160156 39.796875 1109.253906 57.824219 1109.253906 71.847656 C 1109.253906 90.878906 1121.335938 101.886719 1138.601562 101.886719 C 1147.925781 101.886719 1155.523438 98.328125 1160.496094 93.65625 C 1163.535156 90.875 1165.535156 87.984375 1167.539062 84.980469 L 1154.625 78.40625 C 1152.484375 82.527344 1149.238281 88.648438 1139.914062 88.648438 C 1130.730469 88.648438 1126.585938 81.414062 1126.722656 74.183594 L 1168.160156 74.183594 C 1167.953125 67.617188 1167.539062 56.269531 1159.941406 48.148438 C 1152.484375 40.136719 1142.46875 39.796875 1139.015625 39.796875 Z M 732.601562 39.863281 C 713.042969 40.46875 703.167969 53.925781 703.167969 70.621094 C 703.167969 92.097656 718.097656 101.445312 734.394531 101.445312 C 757.117188 101.445312 765.542969 85.3125 765.542969 70.621094 C 765.542969 60.046875 760.363281 41.238281 736.675781 39.902344 C 735.226562 39.828125 733.914062 39.824219 732.601562 39.863281 Z M 539.757812 39.902344 L 550 73.0625 L 530.089844 73.0625 C 531.871094 67.164062 534.867188 57.933594 536.53125 52.035156 C 537.644531 48.03125 538.757812 43.90625 539.757812 39.902344 Z M 856.5625 40.132812 C 849.726562 40.132812 842.890625 41.019531 837.503906 45.246094 C 832.324219 49.363281 831.769531 54.15625 831.425781 58.164062 L 848.550781 58.164062 C 848.964844 56.050781 850 51.375 857.53125 51.375 C 863.675781 51.375 863.882812 55.816406 864.089844 58.488281 L 864.089844 61.605469 C 856.90625 62.941406 845.859375 64.945312 841.164062 66.949219 C 836.398438 68.953125 828.9375 74.296875 828.9375 83.644531 C 828.9375 91.765625 834.601562 101.335938 848 101.335938 C 856.5625 101.335938 861.464844 97.652344 865.746094 94.425781 L 865.746094 99.773438 L 882.527344 99.773438 C 881.21875 97.769531 880.871094 96.878906 880.871094 90.644531 L 880.871094 56.828125 C 880.871094 41.804688 863.675781 40.132812 856.5625 40.132812 Z M 1042.539062 40.132812 C 1035.703125 40.132812 1028.796875 41.019531 1023.480469 45.246094 C 1018.230469 49.363281 1017.679688 54.15625 1017.402344 58.164062 L 1034.460938 58.164062 C 1034.945312 56.050781 1035.910156 51.375 1043.507812 51.375 C 1049.585938 51.375 1049.859375 55.816406 1050.066406 58.488281 L 1050.066406 61.605469 C 1042.816406 62.941406 1031.835938 64.945312 1027.140625 66.949219 C 1022.375 68.953125 1014.917969 74.296875 1014.917969 83.644531 C 1014.917969 91.765625 1020.578125 101.335938 1033.90625 101.335938 C 1042.472656 101.335938 1047.375 97.652344 1051.726562 94.425781 L 1051.726562 99.773438 L 1068.507812 99.773438 C 1067.195312 97.769531 1066.847656 96.878906 1066.847656 90.644531 L 1066.847656 56.828125 C 1066.847656 41.804688 1049.652344 40.132812 1042.539062 40.132812 Z M 804.90625 40.242188 C 800.832031 40.242188 797.03125 41.246094 794.339844 42.359375 C 791.371094 43.804688 790.265625 45.136719 788.609375 46.921875 L 788.609375 41.792969 L 771.34375 41.792969 L 771.34375 99.773438 L 788.46875 99.773438 L 788.46875 68.394531 C 788.46875 61.160156 788.46875 53.925781 797.449219 53.925781 C 800.832031 53.925781 803.800781 55.265625 805.183594 58.378906 C 805.804688 59.9375 805.941406 61.828125 805.941406 67.058594 L 805.941406 99.773438 L 822.929688 99.773438 L 822.929688 60.050781 C 822.929688 51.039062 821.410156 45.800781 815.265625 42.574219 C 812.296875 40.90625 808.359375 40.242188 804.90625 40.242188 Z M 617.089844 41.023438 C 608.1875 41.914062 604.074219 44.464844 600.296875 47.691406 L 600.296875 41.578125 L 583.609375 41.578125 L 583.609375 99.773438 L 600.738281 99.773438 L 600.738281 67.058594 C 600.738281 59.710938 603.183594 58.488281 611.40625 57.042969 L 617.089844 56.152344 Z M 622.980469 41.578125 L 622.980469 99.773438 L 639.878906 99.773438 L 639.878906 41.578125 Z M 650.335938 41.683594 L 650.335938 54.816406 L 678.367188 54.816406 L 647.007812 86.867188 L 647.007812 99.773438 L 700.050781 99.773438 L 700.050781 86.421875 L 669.140625 86.421875 L 700.050781 54.816406 L 700.050781 41.683594 Z M 1138.949219 52.035156 C 1141.917969 52.035156 1145.164062 53.144531 1147.304688 55.261719 C 1149.722656 57.816406 1150.203125 61.046875 1150.480469 63.492188 L 1126.792969 63.492188 C 1127.347656 61.046875 1127.898438 58.375 1130.246094 55.816406 C 1131.902344 54.039062 1134.804688 52.035156 1138.949219 52.035156 Z M 735.5 53.425781 C 737.847656 53.519531 740.75 54.203125 743.441406 56.707031 C 746.6875 59.820312 748.207031 64.839844 748.207031 71.292969 C 748.207031 80.417969 743.648438 87.867188 734.394531 87.867188 C 724.867188 87.867188 720.375 79.75 720.375 70.511719 C 720.375 66.503906 721.207031 62.5 723.277344 59.160156 C 725.625 55.492188 728.527344 53.816406 733.429688 53.480469 C 734.050781 53.425781 734.742188 53.394531 735.5 53.425781 Z M 123.929688 61.957031 L 142.574219 137.046875 L 105.34375 137.046875 Z M 864.109375 71.957031 C 864.042969 77.964844 863.765625 83.3125 858.101562 86.867188 C 856.308594 87.984375 854.304688 88.757812 852.234375 88.757812 C 848.226562 88.757812 845.742188 85.640625 845.742188 82.859375 C 845.742188 78.410156 850.230469 76.738281 853.128906 75.625 Z M 1050.089844 71.957031 C 1049.949219 77.964844 1049.742188 83.3125 1044.082031 86.867188 C 1042.285156 87.984375 1040.28125 88.757812 1038.210938 88.757812 C 1034.203125 88.757812 1031.71875 85.640625 1031.71875 82.859375 C 1031.71875 78.410156 1036.207031 76.738281 1039.109375 75.625 Z M 639.769531 125.429688 L 639.769531 138.683594 L 656.683594 138.683594 L 656.683594 125.429688 Z M 876.816406 125.429688 L 876.816406 138.683594 L 893.667969 138.683594 L 893.667969 125.429688 Z M 503.308594 125.546875 L 503.308594 169.382812 C 503.199219 180.066406 503.199219 193.871094 518.320312 201.667969 C 523.652344 204.445312 530.664062 205.886719 536.554688 205.886719 C 539.894531 205.886719 557.359375 205.210938 565.8125 191.640625 C 570.144531 184.515625 570.246094 176.949219 570.359375 169.382812 L 570.359375 125.546875 L 550.675781 125.546875 L 550.675781 174.386719 C 550.566406 180.507812 550.566406 189.636719 537.214844 189.636719 C 532.328125 189.636719 526.988281 188.414062 524.539062 184.292969 C 523.203125 181.847656 523.09375 178.519531 523.09375 174.511719 L 523.09375 125.546875 Z M 908.171875 129.214844 L 908.171875 147.25 L 899.675781 147.25 L 899.675781 157.691406 L 908.171875 157.691406 L 908.171875 185.738281 C 908.171875 191.308594 908.238281 195.417969 910.589844 198.867188 C 914.25 204.210938 920.738281 204.554688 926.609375 204.554688 C 929.71875 204.554688 931.925781 204.214844 935.585938 203.664062 L 935.585938 190.3125 L 929.511719 190.527344 C 924.953125 190.527344 924.953125 187.535156 925.089844 183.96875 L 925.089844 157.816406 L 936.417969 157.816406 L 936.417969 147.355469 L 925.160156 147.355469 L 925.160156 129.214844 Z M 746.777344 144.132812 C 723.851562 144.132812 716.945312 162.15625 716.945312 176.183594 C 716.945312 195.210938 729.097656 206.214844 746.292969 206.214844 C 755.6875 206.214844 763.214844 202.667969 768.257812 197.988281 C 771.226562 195.210938 773.226562 192.308594 775.230469 189.304688 L 762.316406 182.738281 C 760.246094 186.859375 757 192.972656 747.675781 192.972656 C 738.421875 192.972656 734.277344 185.730469 734.417969 178.503906 L 775.921875 178.503906 C 775.714844 171.941406 775.230469 160.59375 767.703125 152.476562 C 760.246094 144.460938 750.230469 144.132812 746.777344 144.132812 Z M 844.429688 144.132812 C 828.199219 144.132812 819.980469 154.035156 819.980469 163.605469 C 819.980469 167.945312 821.707031 171.953125 824.261719 174.511719 C 826.820312 177.066406 830.410156 178.511719 833.933594 179.519531 C 836.488281 180.292969 839.179688 180.855469 841.734375 181.296875 C 845.050781 181.855469 849.054688 182.1875 851.609375 183.527344 C 852.648438 184.082031 853.890625 184.855469 853.890625 186.859375 C 853.890625 191.199219 847.605469 192.523438 843.53125 192.523438 C 837.039062 192.523438 831.308594 189.089844 826.613281 184.523438 L 815.839844 194.308594 C 819.5 197.761719 827.855469 205.550781 843.945312 205.550781 C 857.621094 205.550781 871.429688 198.875 871.429688 185.1875 C 871.429688 171.386719 857.894531 168.269531 846.222656 166.15625 C 840.628906 165.15625 836.96875 164.492188 836.96875 161.148438 C 836.96875 159.480469 838.488281 156.8125 845.1875 156.8125 C 849.195312 156.8125 854.304688 158.367188 859.761719 162.589844 L 870.328125 152.804688 C 866.320312 150.027344 858.101562 144.132812 844.429688 144.132812 Z M 612.859375 144.578125 C 608.742188 144.578125 604.957031 145.570312 602.285156 146.683594 C 599.28125 148.128906 598.183594 149.460938 596.511719 151.246094 L 596.511719 146.132812 L 579.261719 146.132812 L 579.261719 204.105469 L 596.394531 204.105469 L 596.394531 172.726562 C 596.394531 165.492188 596.394531 158.257812 605.398438 158.257812 C 608.734375 158.257812 611.738281 159.597656 613.078125 162.714844 C 613.742188 164.277344 613.859375 166.164062 613.859375 171.394531 L 613.859375 204.105469 L 630.867188 204.105469 L 630.867188 164.375 C 630.867188 155.363281 629.308594 150.132812 623.1875 146.914062 C 620.191406 145.238281 616.3125 144.578125 612.859375 144.578125 Z M 816.253906 145.34375 C 807.34375 146.234375 803.269531 148.804688 799.472656 152.027344 L 799.472656 145.910156 L 782.828125 145.910156 L 782.828125 204.105469 L 799.953125 204.105469 L 799.953125 171.394531 C 799.953125 164.042969 802.371094 162.824219 810.589844 161.382812 L 816.253906 160.492188 Z M 639.769531 145.910156 L 639.769531 204.105469 L 656.683594 204.105469 L 656.683594 145.910156 Z M 876.816406 145.910156 L 876.816406 204.105469 L 893.667969 204.105469 L 893.667969 145.910156 Z M 661.691406 146.019531 L 680.472656 204.105469 L 698.386719 204.105469 L 717.152344 146.019531 L 699.605469 146.019531 L 696.039062 160.261719 C 692.59375 173.949219 692.269531 175.394531 689.929688 188.300781 C 688.042969 177.175781 686.8125 171.835938 679.695312 146.019531 Z M 940.421875 146.019531 L 957.753906 202.109375 C 958.101562 203.332031 958.515625 204.769531 958.515625 206.214844 C 958.515625 210.332031 954.164062 210.34375 951.402344 210.449219 L 945.394531 210.449219 L 945.394531 224.027344 L 957.753906 224.027344 C 962.175781 223.917969 966.113281 223.695312 970.117188 219.355469 C 973.019531 216.128906 974.191406 212.5625 975.574219 208.777344 L 996.015625 146.019531 L 977.78125 146.019531 L 968.183594 187.640625 L 958.652344 146.019531 Z M 746.640625 156.371094 C 749.679688 156.371094 752.855469 157.484375 754.996094 159.597656 C 757.414062 162.15625 757.898438 165.382812 758.242188 167.828125 L 734.554688 167.828125 C 735.105469 165.382812 735.660156 162.714844 738.007812 160.152344 C 739.664062 158.375 742.566406 156.371094 746.640625 156.371094 Z M 746.640625 156.371094 " fill-opacity="1" fill-rule="nonzero"></path><path fill="#ffc425" d="M 297.945312 33.519531 C 297.660156 33.550781 297.386719 33.699219 297.15625 33.980469 L 274.230469 62.359375 C 274.230469 62.359375 262.71875 57.480469 251.867188 57.394531 C 241.757812 57.3125 234.277344 59.117188 230.164062 63.144531 C 227.78125 65.484375 226.59375 68.488281 226.59375 72.105469 C 226.59375 77.039062 229.382812 81.117188 235.34375 84.894531 C 240.6875 88.234375 248.082031 91.074219 255.941406 94.039062 C 266.171875 97.933594 277.8125 102.328125 287.351562 108.90625 C 305.605469 121.496094 307.035156 137.300781 307.035156 137.300781 L 342.28125 145.253906 C 343.578125 145.542969 344.171875 143.691406 342.953125 143.160156 L 308.503906 128.109375 C 308.199219 127.980469 308.316406 127.515625 308.648438 127.53125 L 346.902344 129.988281 C 348.242188 130.074219 348.539062 128.144531 347.238281 127.8125 L 310.472656 118.394531 C 310.140625 118.3125 310.175781 117.835938 310.515625 117.800781 L 348.667969 114.234375 C 349.996094 114.117188 349.996094 112.191406 348.667969 112.066406 L 310.515625 108.5 C 310.175781 108.472656 310.148438 108.011719 310.472656 107.921875 L 347.238281 98.488281 C 348.53125 98.15625 348.242188 96.226562 346.902344 96.316406 L 308.648438 98.769531 C 308.316406 98.792969 308.199219 98.34375 308.503906 98.203125 L 342.953125 83.140625 C 344.171875 82.609375 343.578125 80.757812 342.28125 81.054688 L 304.914062 89.484375 C 304.589844 89.558594 304.402344 89.125 304.683594 88.945312 L 335.601562 68.796875 C 336.742188 68.054688 335.839844 66.304688 334.574219 66.8125 L 299.449219 80.929688 C 299.148438 81.054688 298.882812 80.648438 299.125 80.417969 L 325.644531 55.800781 C 326.660156 54.855469 325.457031 53.246094 324.269531 53.964844 L 292.414062 73.359375 C 292.128906 73.53125 291.828125 73.179688 292.019531 72.914062 L 313.429688 44.453125 C 314.269531 43.332031 312.785156 41.949219 311.730469 42.871094 L 284.023438 67.003906 C 283.773438 67.21875 283.414062 66.933594 283.566406 66.636719 L 299.152344 35.246094 C 299.628906 34.289062 298.78125 33.421875 297.945312 33.519531 Z M 170.273438 53.789062 C 169.488281 53.980469 168.988281 55.054688 169.75 55.761719 L 180.234375 65.492188 C 180.46875 63.929688 180.867188 61.714844 181.199219 60.066406 L 171.125 53.9375 C 170.832031 53.757812 170.535156 53.726562 170.273438 53.789062 Z M 159.96875 66.785156 C 159.238281 67.101562 158.949219 68.214844 159.796875 68.769531 L 180.066406 81.980469 C 179.824219 79.683594 179.722656 76.640625 179.726562 74.386719 L 160.820312 66.785156 C 160.507812 66.660156 160.210938 66.683594 159.96875 66.785156 Z M 153.160156 81.054688 C 151.855469 80.757812 151.261719 82.609375 152.484375 83.140625 L 184.410156 97.097656 C 183 94.34375 181.71875 90.6875 180.984375 87.34375 Z M 148.492188 96.316406 C 147.167969 96.234375 146.847656 98.140625 148.140625 98.472656 L 185.046875 107.933594 C 185.355469 108.015625 185.324219 108.464844 185.003906 108.5 L 146.710938 112.066406 C 145.398438 112.191406 145.398438 114.109375 146.710938 114.234375 L 184.921875 117.800781 C 185.253906 117.835938 185.289062 118.304688 184.964844 118.394531 L 148.140625 127.839844 C 146.855469 128.171875 147.167969 130.074219 148.492188 129.988281 L 186.800781 127.53125 C 187.132812 127.507812 187.242188 127.980469 186.929688 128.109375 L 152.484375 143.160156 C 151.261719 143.691406 151.855469 145.542969 153.160156 145.253906 L 190.382812 136.859375 C 190.742188 136.777344 190.945312 137.253906 190.648438 137.453125 L 159.796875 157.53125 C 158.664062 158.273438 159.5625 160.019531 160.820312 159.515625 L 195.859375 145.441406 C 196.199219 145.300781 196.476562 145.730469 196.214844 145.980469 L 169.722656 170.585938 C 168.714844 171.519531 169.90625 173.109375 171.082031 172.390625 L 202.808594 153.089844 C 203.140625 152.890625 203.5 153.296875 203.269531 153.609375 L 182.035156 181.828125 C 181.191406 182.953125 182.691406 184.328125 183.746094 183.402344 L 211.128906 159.558594 C 211.441406 159.289062 211.894531 159.632812 211.710938 160 L 196.28125 191.058594 C 195.648438 192.335938 197.378906 193.449219 198.277344 192.335938 L 220.804688 164.402344 C 220.804688 164.402344 227.199219 167.550781 233.292969 168.125 C 244.105469 169.15625 253.933594 166.777344 259.3125 161.878906 C 262.109375 159.335938 263.503906 156.246094 263.503906 152.757812 C 263.503906 139.671875 248.917969 134.625 231.945312 128.789062 C 214.515625 122.734375 194.667969 115.878906 185.261719 98.675781 Z M 307.34375 139.082031 C 308.046875 142.578125 307.980469 148.796875 307.980469 148.796875 L 334.574219 159.503906 C 335.84375 160.011719 336.742188 158.25 335.601562 157.503906 Z M 307.773438 153.917969 C 307.648438 156.710938 306.949219 161.808594 306.949219 161.808594 L 324.351562 172.390625 C 325.527344 173.109375 326.734375 171.519531 325.726562 170.585938 Z M 304.96875 170.613281 C 304.3125 172.78125 303.054688 175.871094 303.054688 175.871094 L 311.730469 183.445312 C 312.785156 184.363281 314.269531 182.976562 313.429688 181.855469 Z M 304.96875 170.613281 " fill-opacity="1" fill-rule="nonzero"></path></svg>