<svg xmlns="http://www.w3.org/2000/svg" xmlns:xlink="http://www.w3.org/1999/xlink" width="1600" viewBox="0 0 1200 241.499998" height="322" preserveAspectRatio="xMidYMid meet"><path fill="#cc0000" d="M 164.308594 12.945312 L 164.308594 77.777344 L 185.894531 77.777344 L 185.894531 185.574219 L 229.074219 228.527344 L 336.457031 228.527344 L 379.609375 185.574219 L 379.609375 77.777344 L 401.214844 77.777344 L 401.214844 12.945312 L 293.542969 12.945312 L 293.542969 77.777344 L 315.148438 77.777344 L 315.148438 163.6875 L 250.382812 163.6875 L 250.382812 77.777344 L 271.96875 77.777344 L 271.96875 12.945312 Z M 164.308594 12.945312 " fill-opacity="1" fill-rule="nonzero"></path><path fill="#000000" d="M 446.265625 15.515625 L 438.734375 15.71875 C 435.800781 15.816406 434.59375 16.074219 433.828125 17.1875 C 433.324219 17.945312 433.074219 18.546875 432.976562 18.957031 C 432.867188 19.359375 432.71875 19.5625 432.414062 19.5625 C 432.058594 19.5625 431.960938 19.3125 431.960938 18.753906 C 431.960938 17.945312 432.921875 13.335938 433.019531 12.933594 C 433.171875 12.277344 433.324219 11.972656 433.632812 11.972656 C 434.03125 11.972656 434.539062 12.480469 435.800781 12.578125 C 437.265625 12.730469 439.1875 12.835938 440.855469 12.835938 L 460.871094 12.835938 C 464.105469 12.835938 465.324219 12.328125 465.722656 12.328125 C 466.078125 12.328125 466.132812 12.632812 466.132812 13.390625 C 466.132812 14.449219 465.980469 17.945312 465.980469 19.261719 C 465.929688 19.765625 465.828125 20.070312 465.527344 20.070312 C 465.121094 20.070312 465.019531 19.8125 464.96875 19.054688 L 464.914062 18.503906 C 464.816406 17.1875 463.449219 15.765625 458.953125 15.667969 L 452.582031 15.515625 L 452.582031 36.269531 C 452.582031 40.921875 452.582031 44.914062 452.839844 47.09375 C 452.992188 48.507812 453.292969 49.621094 454.804688 49.824219 C 455.515625 49.933594 456.625 50.03125 457.382812 50.03125 C 457.941406 50.03125 458.199219 50.179688 458.199219 50.429688 C 458.199219 50.785156 457.789062 50.9375 457.230469 50.9375 C 453.898438 50.9375 450.710938 50.785156 449.296875 50.785156 C 448.132812 50.785156 444.953125 50.9375 442.933594 50.9375 C 442.277344 50.9375 441.921875 50.785156 441.921875 50.429688 C 441.921875 50.179688 442.117188 50.03125 442.722656 50.03125 C 443.484375 50.03125 444.089844 49.933594 444.542969 49.824219 C 445.554688 49.621094 445.859375 48.507812 446.007812 47.042969 C 446.265625 44.914062 446.265625 40.921875 446.265625 36.269531 Z M 446.265625 15.515625 " fill-opacity="1" fill-rule="nonzero"></path><path fill="#000000" d="M 503.886719 28.773438 C 504.039062 28.773438 504.1875 28.675781 504.1875 28.417969 L 504.1875 27.359375 C 504.1875 19.664062 504.1875 18.25 504.089844 16.632812 C 503.984375 14.90625 503.585938 14.097656 501.914062 13.742188 C 501.511719 13.644531 500.652344 13.589844 499.941406 13.589844 C 499.390625 13.589844 499.089844 13.492188 499.089844 13.136719 C 499.089844 12.78125 499.4375 12.683594 500.144531 12.683594 C 502.875 12.683594 506.0625 12.832031 507.421875 12.832031 C 508.640625 12.832031 511.820312 12.683594 513.792969 12.683594 C 514.503906 12.683594 514.859375 12.78125 514.859375 13.136719 C 514.859375 13.492188 514.546875 13.589844 513.945312 13.589844 C 513.542969 13.589844 513.082031 13.644531 512.476562 13.742188 C 511.117188 14 510.710938 14.851562 510.613281 16.632812 C 510.503906 18.25 510.503906 19.664062 510.503906 27.359375 L 510.503906 36.265625 C 510.503906 40.917969 510.503906 44.921875 510.761719 47.089844 C 510.914062 48.515625 511.214844 49.625 512.726562 49.832031 C 513.4375 49.929688 514.546875 50.027344 515.3125 50.027344 C 515.863281 50.027344 516.121094 50.179688 516.121094 50.4375 C 516.121094 50.792969 515.710938 50.941406 515.109375 50.941406 C 511.820312 50.941406 508.640625 50.792969 507.21875 50.792969 C 506.0625 50.792969 502.875 50.941406 500.902344 50.941406 C 500.199219 50.941406 499.84375 50.792969 499.84375 50.4375 C 499.84375 50.179688 500.046875 50.027344 500.652344 50.027344 C 501.40625 50.027344 502.011719 49.929688 502.472656 49.832031 C 503.476562 49.625 503.734375 48.515625 503.9375 47.046875 C 504.1875 44.921875 504.1875 40.917969 504.1875 36.265625 L 504.1875 31.808594 C 504.1875 31.605469 504.039062 31.507812 503.886719 31.507812 L 484.578125 31.507812 C 484.429688 31.507812 484.277344 31.558594 484.277344 31.808594 L 484.277344 36.265625 C 484.277344 40.917969 484.277344 44.921875 484.527344 47.089844 C 484.679688 48.515625 484.980469 49.625 486.5 49.832031 C 487.210938 49.929688 488.320312 50.027344 489.074219 50.027344 C 489.636719 50.027344 489.882812 50.179688 489.882812 50.4375 C 489.882812 50.792969 489.476562 50.941406 488.871094 50.941406 C 485.585938 50.941406 482.402344 50.792969 480.992188 50.792969 C 479.828125 50.792969 476.636719 50.941406 474.621094 50.941406 C 473.964844 50.941406 473.609375 50.792969 473.609375 50.4375 C 473.609375 50.179688 473.8125 50.027344 474.417969 50.027344 C 475.179688 50.027344 475.785156 49.929688 476.238281 49.832031 C 477.25 49.625 477.5 48.515625 477.703125 47.046875 C 477.953125 44.921875 477.953125 40.917969 477.953125 36.265625 L 477.953125 27.359375 C 477.953125 19.664062 477.953125 18.25 477.855469 16.632812 C 477.757812 14.90625 477.347656 14.097656 475.6875 13.742188 C 475.277344 13.644531 474.417969 13.589844 473.714844 13.589844 C 473.15625 13.589844 472.851562 13.492188 472.851562 13.136719 C 472.851562 12.78125 473.207031 12.683594 473.910156 12.683594 C 476.636719 12.683594 479.828125 12.832031 481.195312 12.832031 C 482.402344 12.832031 485.585938 12.683594 487.558594 12.683594 C 488.265625 12.683594 488.621094 12.78125 488.621094 13.136719 C 488.621094 13.492188 488.320312 13.589844 487.707031 13.589844 C 487.308594 13.589844 486.855469 13.644531 486.242188 13.742188 C 484.882812 14 484.472656 14.851562 484.375 16.632812 C 484.277344 18.25 484.277344 19.664062 484.277344 27.359375 L 484.277344 28.417969 C 484.277344 28.675781 484.429688 28.773438 484.578125 28.773438 Z M 503.886719 28.773438 " fill-opacity="1" fill-rule="nonzero"></path><path fill="#000000" d="M 529.613281 27.359375 C 529.613281 19.664062 529.613281 18.25 529.515625 16.628906 C 529.410156 14.902344 529.007812 14.09375 527.339844 13.738281 C 526.9375 13.640625 526.078125 13.585938 525.367188 13.585938 C 524.816406 13.585938 524.511719 13.488281 524.511719 13.132812 C 524.511719 12.785156 524.859375 12.679688 525.625 12.679688 C 528.296875 12.679688 531.488281 12.832031 532.898438 12.832031 C 534.515625 12.832031 544.574219 12.832031 545.535156 12.785156 C 546.492188 12.679688 547.300781 12.582031 547.710938 12.476562 C 547.960938 12.429688 548.261719 12.277344 548.519531 12.277344 C 548.769531 12.277344 548.820312 12.476562 548.820312 12.734375 C 548.820312 13.082031 548.570312 13.695312 548.421875 16.023438 C 548.367188 16.523438 548.261719 18.753906 548.164062 19.359375 C 548.109375 19.609375 548.011719 19.921875 547.65625 19.921875 C 547.300781 19.921875 547.203125 19.664062 547.203125 19.210938 C 547.203125 18.851562 547.152344 18 546.902344 17.386719 C 546.546875 16.476562 546.039062 15.863281 543.515625 15.5625 C 542.65625 15.464844 537.351562 15.367188 536.339844 15.367188 C 536.082031 15.367188 535.984375 15.515625 535.984375 15.863281 L 535.984375 28.675781 C 535.984375 29.03125 536.035156 29.234375 536.339844 29.234375 C 537.449219 29.234375 543.257812 29.234375 544.421875 29.128906 C 545.632812 29.03125 546.394531 28.878906 546.847656 28.371094 C 547.203125 27.960938 547.40625 27.714844 547.65625 27.714844 C 547.863281 27.714844 548.011719 27.8125 548.011719 28.113281 C 548.011719 28.417969 547.761719 29.234375 547.605469 31.804688 C 547.507812 32.820312 547.40625 34.847656 547.40625 35.203125 C 547.40625 35.605469 547.40625 36.164062 546.945312 36.164062 C 546.601562 36.164062 546.492188 35.960938 546.492188 35.710938 C 546.449219 35.203125 546.449219 34.546875 546.289062 33.886719 C 546.039062 32.875 545.332031 32.117188 543.464844 31.914062 C 542.503906 31.804688 537.5 31.761719 536.285156 31.761719 C 536.035156 31.761719 535.984375 31.964844 535.984375 32.269531 L 535.984375 36.261719 C 535.984375 37.988281 535.929688 42.640625 535.984375 44.109375 C 536.082031 47.605469 536.890625 48.359375 542.050781 48.359375 C 543.367188 48.359375 545.480469 48.359375 546.796875 47.753906 C 548.109375 47.140625 548.722656 46.082031 549.078125 44.011719 C 549.175781 43.449219 549.273438 43.246094 549.628906 43.246094 C 550.039062 43.246094 550.039062 43.65625 550.039062 44.160156 C 550.039062 45.328125 549.628906 48.761719 549.378906 49.773438 C 549.023438 51.089844 548.570312 51.089844 546.644531 51.089844 C 539.011719 51.089844 535.628906 50.789062 532.644531 50.789062 C 531.488281 50.789062 528.296875 50.941406 526.28125 50.941406 C 525.625 50.941406 525.269531 50.789062 525.269531 50.433594 C 525.269531 50.183594 525.472656 50.03125 526.078125 50.03125 C 526.832031 50.03125 527.4375 49.925781 527.898438 49.828125 C 528.902344 49.625 529.160156 48.511719 529.363281 47.042969 C 529.613281 44.917969 529.613281 40.921875 529.613281 36.261719 Z M 529.613281 27.359375 " fill-opacity="1" fill-rule="nonzero"></path><path fill="#000000" d="M 441.359375 100.300781 C 441.359375 87.144531 441.359375 84.785156 441.195312 82.082031 C 441.027344 79.214844 440.347656 77.859375 437.566406 77.277344 C 436.894531 77.105469 435.46875 77.023438 434.703125 77.023438 C 434.371094 77.023438 434.03125 76.855469 434.03125 76.515625 C 434.03125 76.007812 434.453125 75.839844 435.375 75.839844 C 439.167969 75.839844 444.308594 76.097656 445.070312 76.097656 C 445.828125 76.097656 450.882812 75.839844 453.40625 75.839844 C 454.335938 75.839844 454.757812 76.007812 454.757812 76.515625 C 454.757812 76.855469 454.417969 77.023438 454.078125 77.023438 C 453.496094 77.023438 452.992188 77.105469 451.976562 77.277344 C 449.703125 77.613281 449.03125 79.132812 448.855469 82.082031 C 448.691406 84.785156 448.691406 87.144531 448.691406 100.300781 L 448.691406 112.113281 C 448.691406 124.253906 451.386719 129.484375 455.007812 132.949219 C 459.132812 136.820312 462.925781 137.585938 467.734375 137.585938 C 472.871094 137.585938 477.925781 135.140625 480.957031 131.511719 C 484.832031 126.707031 485.84375 119.535156 485.84375 110.847656 L 485.84375 100.300781 C 485.84375 87.144531 485.84375 84.785156 485.671875 82.082031 C 485.503906 79.214844 484.832031 77.859375 482.050781 77.277344 C 481.378906 77.105469 479.945312 77.023438 479.1875 77.023438 C 478.847656 77.023438 478.515625 76.855469 478.515625 76.515625 C 478.515625 76.007812 478.929688 75.839844 479.859375 75.839844 C 483.652344 75.839844 488.285156 76.097656 488.792969 76.097656 C 489.382812 76.097656 493.339844 75.839844 495.867188 75.839844 C 496.792969 75.839844 497.21875 76.007812 497.21875 76.515625 C 497.21875 76.855469 496.878906 77.023438 496.539062 77.023438 C 495.957031 77.023438 495.449219 77.023438 494.4375 77.277344 C 492.164062 77.695312 491.488281 79.132812 491.316406 82.082031 C 491.148438 84.785156 491.148438 87.144531 491.148438 100.300781 L 491.148438 109.328125 C 491.148438 118.4375 490.136719 128.558594 483.398438 134.550781 C 477.328125 139.945312 471.011719 140.785156 466.046875 140.785156 C 463.183594 140.785156 454.675781 140.453125 448.691406 134.800781 C 444.566406 130.835938 441.359375 124.929688 441.359375 112.617188 Z M 441.359375 100.300781 " fill-opacity="1" fill-rule="nonzero"></path><path fill="#000000" d="M 522.65625 128.136719 C 522.824219 135.050781 523.667969 137.246094 525.941406 137.921875 C 527.539062 138.34375 529.394531 138.425781 530.152344 138.425781 C 530.574219 138.425781 530.824219 138.59375 530.824219 138.933594 C 530.824219 139.441406 530.324219 139.605469 529.3125 139.605469 C 524.507812 139.605469 521.136719 139.359375 520.382812 139.359375 C 519.625 139.359375 516.082031 139.605469 512.296875 139.605469 C 511.449219 139.605469 510.945312 139.523438 510.945312 138.933594 C 510.945312 138.59375 511.199219 138.425781 511.617188 138.425781 C 512.296875 138.425781 513.808594 138.34375 515.078125 137.921875 C 517.175781 137.328125 517.601562 134.886719 517.601562 127.207031 L 517.683594 78.875 C 517.683594 75.585938 517.941406 74.660156 518.613281 74.660156 C 519.285156 74.660156 520.722656 76.515625 521.558594 77.363281 C 522.824219 78.792969 535.375 92.375 548.347656 106.289062 C 556.691406 115.230469 565.871094 125.519531 568.570312 128.304688 L 567.640625 85.457031 C 567.554688 79.972656 566.964844 78.121094 564.359375 77.445312 C 562.839844 77.105469 560.90625 77.023438 560.226562 77.023438 C 559.636719 77.023438 559.554688 76.773438 559.554688 76.433594 C 559.554688 75.925781 560.226562 75.84375 561.238281 75.84375 C 565.03125 75.84375 569.074219 76.089844 569.996094 76.089844 C 570.925781 76.089844 573.707031 75.84375 577.160156 75.84375 C 578.089844 75.84375 578.679688 75.925781 578.679688 76.433594 C 578.679688 76.773438 578.339844 77.023438 577.75 77.023438 C 577.328125 77.023438 576.746094 77.023438 575.730469 77.273438 C 572.953125 77.863281 572.609375 79.722656 572.609375 84.785156 L 572.445312 134.210938 C 572.445312 139.78125 572.277344 140.199219 571.6875 140.199219 C 571.007812 140.199219 569.996094 139.273438 565.539062 134.804688 C 564.609375 133.957031 552.480469 121.554688 543.550781 111.945312 C 533.777344 101.398438 524.257812 90.769531 521.558594 87.734375 Z M 522.65625 128.136719 " fill-opacity="1" fill-rule="nonzero"></path><path fill="#000000" d="M 611.445312 115.148438 C 611.445312 123.246094 611.445312 129.910156 611.871094 133.449219 C 612.117188 135.894531 612.625 137.757812 615.15625 138.089844 C 616.335938 138.261719 618.1875 138.429688 618.941406 138.429688 C 619.449219 138.429688 619.613281 138.679688 619.613281 138.9375 C 619.613281 139.359375 619.199219 139.609375 618.269531 139.609375 C 613.636719 139.609375 608.332031 139.359375 607.910156 139.359375 C 607.488281 139.359375 602.183594 139.609375 599.652344 139.609375 C 598.730469 139.609375 598.304688 139.441406 598.304688 138.9375 C 598.304688 138.679688 598.472656 138.429688 598.976562 138.429688 C 599.742188 138.429688 600.746094 138.261719 601.5 138.089844 C 603.195312 137.757812 603.609375 135.894531 603.949219 133.449219 C 604.375 129.910156 604.375 123.246094 604.375 115.148438 L 604.375 100.304688 C 604.375 87.140625 604.375 84.78125 604.199219 82.085938 C 604.035156 79.21875 603.195312 77.78125 601.335938 77.359375 C 600.414062 77.109375 599.316406 77.023438 598.730469 77.023438 C 598.390625 77.023438 598.046875 76.851562 598.046875 76.519531 C 598.046875 76.011719 598.472656 75.835938 599.402344 75.835938 C 602.183594 75.835938 607.488281 76.09375 607.910156 76.09375 C 608.332031 76.09375 613.636719 75.835938 616.160156 75.835938 C 617.089844 75.835938 617.515625 76.011719 617.515625 76.519531 C 617.515625 76.851562 617.175781 77.023438 616.839844 77.023438 C 616.253906 77.023438 615.738281 77.109375 614.734375 77.273438 C 612.457031 77.699219 611.785156 79.128906 611.613281 82.085938 C 611.445312 84.78125 611.445312 87.140625 611.445312 100.304688 Z M 611.445312 115.148438 " fill-opacity="1" fill-rule="nonzero"></path><path fill="#000000" d="M 663.929688 129.320312 C 668.816406 118.015625 680.105469 88.578125 681.957031 82.5 C 682.382812 81.238281 682.714844 80.058594 682.714844 79.300781 C 682.714844 78.628906 682.457031 77.78125 681.617188 77.355469 C 680.605469 77.023438 679.34375 77.023438 678.414062 77.023438 C 677.914062 77.023438 677.492188 76.941406 677.492188 76.515625 C 677.492188 76.007812 678 75.84375 679.34375 75.84375 C 682.714844 75.84375 686.589844 76.09375 687.601562 76.09375 C 688.109375 76.09375 691.730469 75.84375 694.175781 75.84375 C 695.097656 75.84375 695.605469 76.007812 695.605469 76.433594 C 695.605469 76.855469 695.273438 77.023438 694.59375 77.023438 C 694.011719 77.023438 692.152344 77.023438 690.550781 78.035156 C 689.453125 78.792969 688.191406 80.222656 685.910156 85.964844 C 684.988281 88.328125 680.773438 98.441406 676.480469 108.824219 C 671.339844 121.140625 667.554688 130.25 665.613281 134.378906 C 663.257812 139.441406 662.925781 140.789062 662.078125 140.789062 C 661.066406 140.789062 660.640625 139.609375 659.046875 135.558594 L 638.402344 83.855469 C 636.550781 79.125 635.289062 78.203125 632.335938 77.355469 C 631.074219 77.023438 629.636719 77.023438 629.140625 77.023438 C 628.632812 77.023438 628.460938 76.765625 628.460938 76.433594 C 628.460938 75.925781 629.304688 75.84375 630.652344 75.84375 C 634.691406 75.84375 639.5 76.09375 640.511719 76.09375 C 641.351562 76.09375 645.144531 75.84375 648.339844 75.84375 C 649.859375 75.84375 650.613281 76.007812 650.613281 76.433594 C 650.613281 76.855469 650.363281 77.023438 649.777344 77.023438 C 648.847656 77.023438 647.328125 77.105469 646.570312 77.445312 C 645.648438 77.863281 645.476562 78.535156 645.476562 79.125 C 645.476562 80.222656 646.488281 82.839844 647.75 86.132812 Z M 663.929688 129.320312 " fill-opacity="1" fill-rule="nonzero"></path><path fill="#000000" d="M 712.367188 100.300781 C 712.367188 87.144531 712.367188 84.785156 712.203125 82.082031 C 712.035156 79.214844 711.355469 77.859375 708.582031 77.277344 C 707.902344 77.105469 706.472656 77.023438 705.710938 77.023438 C 705.371094 77.023438 705.039062 76.855469 705.039062 76.515625 C 705.039062 76.007812 705.460938 75.839844 706.382812 75.839844 C 710.175781 75.839844 715.488281 76.097656 715.910156 76.097656 C 716.5 76.097656 733.261719 76.097656 735.195312 76.007812 C 736.796875 75.925781 738.148438 75.757812 738.824219 75.589844 C 739.246094 75.5 739.578125 75.167969 740 75.167969 C 740.257812 75.167969 740.332031 75.5 740.332031 75.925781 C 740.332031 76.515625 739.910156 77.527344 739.667969 79.890625 C 739.578125 80.738281 739.410156 84.445312 739.246094 85.457031 C 739.15625 85.882812 738.988281 86.386719 738.65625 86.386719 C 738.148438 86.386719 737.976562 85.964844 737.976562 85.289062 C 737.976562 84.699219 737.894531 83.261719 737.46875 82.25 C 736.878906 80.902344 736.035156 79.890625 731.492188 79.382812 C 730.058594 79.214844 720.875 79.132812 719.953125 79.132812 C 719.613281 79.132812 719.441406 79.382812 719.441406 79.972656 L 719.441406 103.253906 C 719.441406 103.84375 719.53125 104.101562 719.953125 104.101562 C 721.050781 104.101562 731.402344 104.101562 733.34375 103.933594 C 735.371094 103.757812 736.546875 103.59375 737.304688 102.746094 C 737.894531 102.070312 738.234375 101.648438 738.566406 101.648438 C 738.824219 101.648438 738.988281 101.824219 738.988281 102.328125 C 738.988281 102.835938 738.566406 104.265625 738.316406 107.050781 C 738.148438 108.738281 737.976562 111.863281 737.976562 112.453125 C 737.976562 113.125 737.976562 114.050781 737.386719 114.050781 C 736.972656 114.050781 736.796875 113.714844 736.796875 113.292969 C 736.796875 112.453125 736.796875 111.605469 736.457031 110.507812 C 736.125 109.328125 735.371094 107.898438 732.082031 107.558594 C 729.808594 107.308594 721.464844 107.132812 720.039062 107.132812 C 719.613281 107.132812 719.441406 107.390625 719.441406 107.722656 L 719.441406 115.144531 C 719.441406 118.011719 719.363281 127.804688 719.441406 129.574219 C 719.699219 135.390625 720.960938 136.488281 729.21875 136.488281 C 731.402344 136.488281 735.113281 136.488281 737.304688 135.558594 C 739.496094 134.636719 740.507812 132.949219 741.097656 129.484375 C 741.261719 128.558594 741.429688 128.21875 741.851562 128.21875 C 742.359375 128.21875 742.359375 128.894531 742.359375 129.484375 C 742.359375 130.164062 741.6875 135.898438 741.261719 137.667969 C 740.671875 139.863281 740 139.863281 736.714844 139.863281 C 723.996094 139.863281 718.351562 139.355469 715.910156 139.355469 C 715.746094 139.355469 714.308594 139.441406 712.535156 139.441406 C 710.847656 139.523438 708.914062 139.605469 707.652344 139.605469 C 706.722656 139.605469 706.300781 139.441406 706.300781 138.933594 C 706.300781 138.683594 706.472656 138.425781 706.972656 138.425781 C 707.734375 138.425781 708.75 138.257812 709.503906 138.09375 C 711.1875 137.753906 711.613281 135.898438 711.945312 133.457031 C 712.367188 129.90625 712.367188 123.25 712.367188 115.144531 Z M 712.367188 100.300781 " fill-opacity="1" fill-rule="nonzero"></path><path fill="#000000" d="M 774.707031 107.640625 C 774.707031 108.0625 774.878906 108.394531 775.296875 108.652344 C 776.558594 109.410156 780.433594 110 784.144531 110 C 786.160156 110 788.519531 109.75 790.460938 108.394531 C 793.410156 106.375 795.601562 101.820312 795.601562 95.414062 C 795.601562 84.867188 790.039062 78.542969 781.03125 78.542969 C 778.5 78.542969 776.226562 78.792969 775.378906 79.046875 C 774.957031 79.214844 774.707031 79.554688 774.707031 80.0625 Z M 767.964844 100.300781 C 767.964844 87.144531 767.964844 84.785156 767.800781 82.082031 C 767.625 79.214844 766.953125 77.859375 764.171875 77.277344 C 763.5 77.105469 762.074219 77.019531 761.308594 77.019531 C 760.976562 77.019531 760.636719 76.855469 760.636719 76.515625 C 760.636719 76.007812 761.058594 75.839844 761.988281 75.839844 C 765.773438 75.839844 771.078125 76.097656 771.503906 76.097656 C 772.433594 76.097656 778.832031 75.839844 781.445312 75.839844 C 786.75 75.839844 792.394531 76.347656 796.863281 79.554688 C 798.96875 81.070312 802.679688 85.207031 802.679688 91.023438 C 802.679688 97.265625 800.058594 103.507812 792.488281 110.507812 C 799.394531 119.367188 805.121094 126.871094 810.011719 132.101562 C 814.550781 136.914062 818.179688 137.835938 820.285156 138.175781 C 821.882812 138.433594 823.058594 138.433594 823.574219 138.433594 C 823.988281 138.433594 824.328125 138.683594 824.328125 138.933594 C 824.328125 139.4375 823.816406 139.605469 822.304688 139.605469 L 816.320312 139.605469 C 811.605469 139.605469 809.496094 139.191406 807.3125 138.007812 C 803.691406 136.066406 800.738281 131.933594 795.941406 125.609375 C 792.394531 120.964844 788.4375 115.320312 786.75 113.125 C 786.417969 112.785156 786.160156 112.617188 785.664062 112.617188 L 775.296875 112.453125 C 774.878906 112.453125 774.707031 112.703125 774.707031 113.125 L 774.707031 115.144531 C 774.707031 123.25 774.707031 129.90625 775.128906 133.453125 C 775.378906 135.898438 775.894531 137.753906 778.410156 138.09375 C 779.59375 138.257812 781.445312 138.433594 782.210938 138.433594 C 782.707031 138.433594 782.875 138.683594 782.875 138.933594 C 782.875 139.355469 782.460938 139.605469 781.53125 139.605469 C 776.898438 139.605469 771.59375 139.355469 771.171875 139.355469 C 771.078125 139.355469 765.773438 139.605469 763.25 139.605469 C 762.320312 139.605469 761.898438 139.4375 761.898438 138.933594 C 761.898438 138.683594 762.074219 138.433594 762.578125 138.433594 C 763.335938 138.433594 764.347656 138.257812 765.101562 138.09375 C 766.789062 137.753906 767.210938 135.898438 767.542969 133.453125 C 767.964844 129.90625 767.964844 123.25 767.964844 115.144531 Z M 767.964844 100.300781 " fill-opacity="1" fill-rule="nonzero"></path><path fill="#000000" d="M 829.484375 138.511719 C 828.300781 137.921875 828.214844 137.582031 828.214844 135.304688 C 828.214844 131.089844 828.558594 127.714844 828.640625 126.363281 C 828.722656 125.4375 828.898438 125.015625 829.320312 125.015625 C 829.820312 125.015625 829.910156 125.273438 829.910156 125.945312 C 829.910156 126.703125 829.910156 127.882812 830.152344 129.0625 C 831.421875 135.304688 836.980469 137.664062 842.625 137.664062 C 850.710938 137.664062 854.671875 131.847656 854.671875 126.453125 C 854.671875 120.628906 852.230469 117.253906 844.984375 111.269531 L 841.199219 108.144531 C 832.265625 100.804688 830.242188 95.578125 830.242188 89.84375 C 830.242188 80.816406 836.980469 74.65625 847.683594 74.65625 C 850.96875 74.65625 853.410156 74.996094 855.519531 75.503906 C 857.121094 75.835938 857.785156 75.929688 858.464844 75.929688 C 859.136719 75.929688 859.304688 76.09375 859.304688 76.511719 C 859.304688 76.933594 858.972656 79.71875 858.972656 85.453125 C 858.972656 86.808594 858.796875 87.398438 858.382812 87.398438 C 857.875 87.398438 857.785156 86.972656 857.710938 86.300781 C 857.617188 85.289062 857.121094 83.011719 856.605469 82.078125 C 856.105469 81.15625 853.832031 77.617188 846.078125 77.617188 C 840.269531 77.617188 835.71875 81.238281 835.71875 87.398438 C 835.71875 92.203125 838.078125 95.070312 845.996094 101.570312 L 848.355469 103.421875 C 858.296875 111.269531 860.648438 116.496094 860.648438 123.246094 C 860.648438 126.703125 859.304688 133.109375 853.492188 137.25 C 849.867188 139.777344 845.324219 140.789062 840.773438 140.789062 C 836.816406 140.789062 832.9375 140.199219 829.484375 138.511719 " fill-opacity="1" fill-rule="nonzero"></path><path fill="#000000" d="M 894.183594 115.148438 C 894.183594 123.246094 894.183594 129.910156 894.605469 133.449219 C 894.855469 135.894531 895.363281 137.757812 897.886719 138.089844 C 899.070312 138.261719 900.921875 138.429688 901.6875 138.429688 C 902.183594 138.429688 902.359375 138.679688 902.359375 138.9375 C 902.359375 139.359375 901.933594 139.609375 901.007812 139.609375 C 896.375 139.609375 891.070312 139.359375 890.644531 139.359375 C 890.222656 139.359375 884.910156 139.609375 882.386719 139.609375 C 881.464844 139.609375 881.042969 139.441406 881.042969 138.9375 C 881.042969 138.679688 881.207031 138.429688 881.714844 138.429688 C 882.46875 138.429688 883.484375 138.261719 884.238281 138.089844 C 885.921875 137.757812 886.347656 135.894531 886.679688 133.449219 C 887.101562 129.910156 887.101562 123.246094 887.101562 115.148438 L 887.101562 100.304688 C 887.101562 87.140625 887.101562 84.78125 886.9375 82.085938 C 886.769531 79.21875 885.921875 77.78125 884.070312 77.359375 C 883.144531 77.109375 882.054688 77.023438 881.464844 77.023438 C 881.125 77.023438 880.785156 76.851562 880.785156 76.519531 C 880.785156 76.011719 881.207031 75.835938 882.136719 75.835938 C 884.910156 75.835938 890.222656 76.09375 890.644531 76.09375 C 891.070312 76.09375 896.375 75.835938 898.90625 75.835938 C 899.828125 75.835938 900.25 76.011719 900.25 76.519531 C 900.25 76.851562 899.917969 77.023438 899.570312 77.023438 C 898.988281 77.023438 898.480469 77.109375 897.46875 77.273438 C 895.195312 77.699219 894.523438 79.128906 894.355469 82.085938 C 894.183594 84.78125 894.183594 87.140625 894.183594 100.304688 Z M 894.183594 115.148438 " fill-opacity="1" fill-rule="nonzero"></path><path fill="#000000" d="M 946.328125 115.148438 C 946.328125 123.246094 946.328125 129.910156 946.753906 133.449219 C 946.992188 135.894531 947.507812 137.757812 950.039062 138.089844 C 951.21875 138.261719 953.070312 138.429688 953.824219 138.429688 C 954.332031 138.429688 954.503906 138.679688 954.503906 138.9375 C 954.503906 139.359375 954.082031 139.609375 953.152344 139.609375 C 948.519531 139.609375 943.207031 139.359375 942.785156 139.359375 C 942.363281 139.359375 937.058594 139.609375 934.535156 139.609375 C 933.605469 139.609375 933.1875 139.441406 933.1875 138.9375 C 933.1875 138.679688 933.355469 138.429688 933.859375 138.429688 C 934.617188 138.429688 935.628906 138.261719 936.386719 138.089844 C 938.070312 137.757812 938.492188 135.894531 938.824219 133.449219 C 939.25 129.910156 939.25 123.246094 939.25 115.148438 L 939.25 79.46875 L 926.78125 79.636719 C 921.558594 79.71875 919.542969 80.308594 918.1875 82.335938 C 917.265625 83.765625 917.011719 84.355469 916.753906 84.953125 C 916.503906 85.628906 916.253906 85.792969 915.914062 85.792969 C 915.664062 85.792969 915.492188 85.542969 915.492188 85.035156 C 915.492188 84.191406 917.175781 76.933594 917.34375 76.261719 C 917.515625 75.753906 917.847656 74.664062 918.1875 74.664062 C 918.777344 74.664062 919.617188 75.503906 921.898438 75.671875 C 924.339844 75.925781 927.542969 76.09375 928.554688 76.09375 L 960.140625 76.09375 C 962.839844 76.09375 964.773438 75.835938 966.125 75.671875 C 967.386719 75.421875 968.144531 75.253906 968.484375 75.253906 C 968.898438 75.253906 968.898438 75.753906 968.898438 76.261719 C 968.898438 78.796875 968.652344 84.613281 968.652344 85.542969 C 968.652344 86.300781 968.402344 86.640625 968.0625 86.640625 C 967.644531 86.640625 967.472656 86.382812 967.386719 85.203125 L 967.304688 84.273438 C 966.964844 81.746094 965.03125 79.800781 956.945312 79.636719 L 946.328125 79.46875 Z M 946.328125 115.148438 " fill-opacity="1" fill-rule="nonzero"></path><path fill="#000000" d="M 1002.011719 117.765625 C 1002.011719 113.210938 1001.164062 111.355469 1000.070312 108.902344 C 999.480469 107.558594 988.191406 89 985.25 84.617188 C 983.136719 81.492188 981.027344 79.382812 979.515625 78.367188 C 978.253906 77.527344 976.652344 77.023438 975.890625 77.023438 C 975.464844 77.023438 975.050781 76.855469 975.050781 76.429688 C 975.050781 76.089844 975.390625 75.839844 976.144531 75.839844 C 977.742188 75.839844 984.066406 76.089844 984.488281 76.089844 C 985.070312 76.089844 988.28125 75.839844 991.5625 75.839844 C 992.492188 75.839844 992.65625 76.089844 992.65625 76.429688 C 992.65625 76.773438 992.152344 76.855469 991.394531 77.1875 C 990.722656 77.527344 990.300781 78.035156 990.300781 78.707031 C 990.300781 79.722656 990.722656 80.738281 991.394531 82 C 992.738281 84.445312 1005.375 106.203125 1006.894531 108.65625 C 1008.496094 105.105469 1019.195312 86.636719 1020.878906 83.851562 C 1021.976562 82.082031 1022.308594 80.652344 1022.308594 79.546875 C 1022.308594 78.367188 1021.976562 77.445312 1020.964844 77.1875 C 1020.207031 76.9375 1019.703125 76.773438 1019.703125 76.347656 C 1019.703125 76.007812 1020.207031 75.839844 1021.046875 75.839844 C 1023.238281 75.839844 1025.933594 76.089844 1026.609375 76.089844 C 1027.113281 76.089844 1033.175781 75.839844 1034.785156 75.839844 C 1035.375 75.839844 1035.871094 76.007812 1035.871094 76.347656 C 1035.871094 76.773438 1035.449219 77.023438 1034.785156 77.023438 C 1033.855469 77.023438 1032.253906 77.363281 1030.90625 78.203125 C 1029.222656 79.214844 1028.292969 80.230469 1026.433594 82.507812 C 1023.660156 85.882812 1011.871094 105.695312 1010.355469 109.328125 C 1009.085938 112.363281 1009.085938 114.980469 1009.085938 117.765625 L 1009.085938 125.011719 C 1009.085938 126.367188 1009.085938 129.90625 1009.339844 133.449219 C 1009.507812 135.898438 1010.261719 137.753906 1012.792969 138.09375 C 1013.972656 138.257812 1015.824219 138.425781 1016.582031 138.425781 C 1017.09375 138.425781 1017.261719 138.683594 1017.261719 138.933594 C 1017.261719 139.355469 1016.835938 139.605469 1015.914062 139.605469 C 1011.277344 139.605469 1005.964844 139.355469 1005.539062 139.355469 C 1005.125 139.355469 999.8125 139.605469 997.289062 139.605469 C 996.367188 139.605469 995.945312 139.441406 995.945312 138.933594 C 995.945312 138.683594 996.109375 138.425781 996.617188 138.425781 C 997.371094 138.425781 998.386719 138.257812 999.148438 138.09375 C 1000.824219 137.753906 1001.589844 135.898438 1001.753906 133.449219 C 1002.011719 129.90625 1002.011719 126.367188 1002.011719 125.011719 Z M 1002.011719 117.765625 " fill-opacity="1" fill-rule="nonzero"></path><path fill="#000000" d="M 471.605469 226.148438 C 479.183594 226.148438 494.855469 221.761719 494.855469 197.21875 C 494.855469 176.972656 482.554688 166.09375 469.25 166.09375 C 455.179688 166.09375 444.644531 175.375 444.644531 193.84375 C 444.644531 213.5 456.441406 226.148438 471.605469 226.148438 M 469.835938 163.226562 C 488.789062 163.226562 502.941406 175.203125 502.941406 194.859375 C 502.941406 213.75 489.636719 229.359375 469.332031 229.359375 C 446.246094 229.359375 436.640625 211.390625 436.640625 196.203125 C 436.640625 182.539062 446.585938 163.226562 469.835938 163.226562 " fill-opacity="1" fill-rule="nonzero"></path><path fill="#000000" d="M 525.03125 188.867188 C 525.03125 175.710938 525.03125 173.351562 524.867188 170.648438 C 524.699219 167.78125 524.019531 166.433594 521.246094 165.84375 C 520.566406 165.671875 519.136719 165.585938 518.375 165.585938 C 518.042969 165.585938 517.703125 165.421875 517.703125 165.082031 C 517.703125 164.574219 518.125 164.40625 519.046875 164.40625 C 522.839844 164.40625 528.152344 164.664062 528.574219 164.664062 C 530.253906 164.664062 547.359375 164.664062 549.296875 164.574219 C 550.898438 164.492188 552.242188 164.492188 552.996094 164.242188 C 553.503906 164.066406 553.84375 163.734375 554.175781 163.734375 C 554.515625 163.734375 554.683594 164.066406 554.683594 164.492188 C 554.683594 165.082031 554.265625 166.09375 554.011719 168.457031 C 553.925781 169.300781 553.761719 173.007812 553.585938 174.023438 C 553.503906 174.449219 553.339844 174.945312 552.914062 174.945312 C 552.5 174.945312 552.324219 174.53125 552.324219 173.941406 C 552.324219 173.265625 552.074219 171.828125 551.570312 170.734375 C 551.0625 169.636719 549.128906 168.121094 545.84375 168.03125 L 532.867188 167.78125 C 532.363281 167.78125 532.113281 168.03125 532.113281 168.710938 L 532.113281 191.992188 C 532.113281 192.5 532.195312 192.75 532.703125 192.75 L 543.484375 192.664062 C 544.914062 192.664062 546.089844 192.664062 547.269531 192.582031 C 549.296875 192.410156 550.390625 192.160156 551.148438 191.0625 C 551.488281 190.636719 551.734375 190.214844 552.074219 190.214844 C 552.417969 190.214844 552.5 190.472656 552.5 190.894531 C 552.5 191.402344 552.074219 192.832031 551.828125 195.617188 C 551.652344 197.304688 551.488281 200.679688 551.488281 201.269531 C 551.488281 202.023438 551.488281 202.871094 550.898438 202.871094 C 550.472656 202.871094 550.308594 202.53125 550.308594 202.109375 C 550.21875 201.269531 550.132812 200.089844 549.800781 199.074219 C 549.378906 197.894531 548.035156 196.375 545.417969 196.039062 C 543.3125 195.78125 534.128906 195.78125 532.703125 195.78125 C 532.277344 195.78125 532.113281 195.957031 532.113281 196.546875 L 532.113281 203.710938 C 532.113281 211.816406 532.113281 218.472656 532.527344 222.015625 C 532.785156 224.464844 533.289062 226.320312 535.816406 226.660156 C 536.992188 226.824219 538.84375 226.992188 539.609375 226.992188 C 540.113281 226.992188 540.28125 227.25 540.28125 227.5 C 540.28125 227.921875 539.859375 228.171875 538.9375 228.171875 C 534.296875 228.171875 528.992188 227.921875 528.574219 227.921875 C 528.152344 227.921875 522.839844 228.171875 520.316406 228.171875 C 519.386719 228.171875 518.964844 228.007812 518.964844 227.5 C 518.964844 227.25 519.136719 226.992188 519.636719 226.992188 C 520.398438 226.992188 521.414062 226.824219 522.167969 226.660156 C 523.851562 226.320312 524.277344 224.464844 524.609375 222.015625 C 525.03125 218.472656 525.03125 211.816406 525.03125 203.710938 Z M 525.03125 188.867188 " fill-opacity="1" fill-rule="nonzero"></path><path fill="#000000" d="M 605.820312 188.867188 C 605.820312 175.710938 605.820312 173.351562 605.648438 170.648438 C 605.480469 167.78125 604.808594 166.433594 602.027344 165.84375 C 601.355469 165.671875 599.929688 165.585938 599.164062 165.585938 C 598.832031 165.585938 598.492188 165.421875 598.492188 165.082031 C 598.492188 164.574219 598.914062 164.40625 599.835938 164.40625 C 603.628906 164.40625 608.769531 164.664062 609.523438 164.664062 C 610.289062 164.664062 615.34375 164.40625 617.867188 164.40625 C 618.796875 164.40625 619.210938 164.574219 619.210938 165.082031 C 619.210938 165.421875 618.878906 165.585938 618.539062 165.585938 C 617.949219 165.585938 617.453125 165.671875 616.4375 165.84375 C 614.164062 166.179688 613.484375 167.699219 613.316406 170.648438 C 613.152344 173.351562 613.152344 175.710938 613.152344 188.867188 L 613.152344 200.679688 C 613.152344 212.820312 615.847656 218.050781 619.46875 221.507812 C 623.59375 225.386719 627.386719 226.152344 632.1875 226.152344 C 637.324219 226.152344 642.378906 223.707031 645.417969 220.078125 C 649.292969 215.273438 650.296875 208.101562 650.296875 199.414062 L 650.296875 188.867188 C 650.296875 175.710938 650.296875 173.351562 650.132812 170.648438 C 649.964844 167.78125 649.292969 166.433594 646.511719 165.84375 C 645.832031 165.671875 644.40625 165.585938 643.648438 165.585938 C 643.308594 165.585938 642.96875 165.421875 642.96875 165.082031 C 642.96875 164.574219 643.390625 164.40625 644.320312 164.40625 C 648.113281 164.40625 652.746094 164.664062 653.253906 164.664062 C 653.84375 164.664062 657.800781 164.40625 660.324219 164.40625 C 661.253906 164.40625 661.671875 164.574219 661.671875 165.082031 C 661.671875 165.421875 661.339844 165.585938 661 165.585938 C 660.410156 165.585938 659.902344 165.585938 658.898438 165.84375 C 656.625 166.261719 655.949219 167.699219 655.777344 170.648438 C 655.609375 173.351562 655.609375 175.710938 655.609375 188.867188 L 655.609375 197.894531 C 655.609375 207.003906 654.597656 217.125 647.859375 223.117188 C 641.789062 228.511719 635.472656 229.351562 630.507812 229.351562 C 627.644531 229.351562 619.136719 229.019531 613.152344 223.367188 C 609.019531 219.402344 605.820312 213.496094 605.820312 201.183594 Z M 605.820312 188.867188 " fill-opacity="1" fill-rule="nonzero"></path><path fill="#000000" d="M 702.785156 203.714844 C 702.785156 211.8125 702.785156 218.476562 703.207031 222.015625 C 703.457031 224.460938 703.964844 226.320312 706.496094 226.65625 C 707.671875 226.820312 709.523438 226.996094 710.28125 226.996094 C 710.792969 226.996094 710.960938 227.246094 710.960938 227.503906 C 710.960938 227.917969 710.535156 228.175781 709.609375 228.175781 C 704.976562 228.175781 699.664062 227.917969 699.242188 227.917969 C 698.816406 227.917969 693.511719 228.175781 690.988281 228.175781 C 690.066406 228.175781 689.644531 228.007812 689.644531 227.503906 C 689.644531 227.246094 689.808594 226.996094 690.316406 226.996094 C 691.070312 226.996094 692.085938 226.820312 692.839844 226.65625 C 694.523438 226.320312 694.949219 224.460938 695.28125 222.015625 C 695.703125 218.476562 695.703125 211.8125 695.703125 203.714844 L 695.703125 168.035156 L 683.234375 168.199219 C 678.015625 168.285156 675.996094 168.875 674.644531 170.902344 C 673.722656 172.332031 673.464844 172.921875 673.207031 173.519531 C 672.964844 174.191406 672.710938 174.359375 672.371094 174.359375 C 672.121094 174.359375 671.945312 174.109375 671.945312 173.601562 C 671.945312 172.753906 673.632812 165.5 673.796875 164.828125 C 673.972656 164.320312 674.3125 163.230469 674.644531 163.230469 C 675.234375 163.230469 676.074219 164.070312 678.355469 164.238281 C 680.796875 164.492188 684 164.660156 685.011719 164.660156 L 716.597656 164.660156 C 719.292969 164.660156 721.230469 164.402344 722.582031 164.238281 C 723.84375 163.988281 724.597656 163.820312 724.941406 163.820312 C 725.355469 163.820312 725.355469 164.320312 725.355469 164.828125 C 725.355469 167.359375 725.105469 173.179688 725.105469 174.109375 C 725.105469 174.867188 724.855469 175.207031 724.515625 175.207031 C 724.101562 175.207031 723.925781 174.949219 723.84375 173.769531 L 723.761719 172.839844 C 723.421875 170.3125 721.484375 168.367188 713.402344 168.199219 L 702.785156 168.035156 Z M 702.785156 203.714844 " fill-opacity="1" fill-rule="nonzero"></path><path fill="#000000" d="M 764.371094 200.253906 C 764.796875 200.253906 764.796875 200.003906 764.703125 199.664062 L 756.703125 176.890625 C 756.28125 175.628906 755.863281 175.628906 755.441406 176.890625 L 748.027344 199.664062 C 747.863281 200.089844 748.027344 200.253906 748.285156 200.253906 Z M 755.605469 166.519531 C 756.621094 163.734375 756.953125 163.226562 757.464844 163.226562 C 757.964844 163.226562 758.304688 163.652344 759.316406 166.261719 C 760.578125 169.46875 773.808594 204.300781 778.949219 217.125 C 781.980469 224.632812 784.417969 225.976562 786.1875 226.484375 C 787.449219 226.910156 788.71875 226.992188 789.566406 226.992188 C 790.0625 226.992188 790.402344 227.082031 790.402344 227.5 C 790.402344 228.007812 789.640625 228.171875 788.71875 228.171875 C 787.449219 228.171875 781.304688 228.171875 775.496094 228.007812 C 773.894531 227.921875 772.964844 227.921875 772.964844 227.414062 C 772.964844 227.082031 773.222656 226.910156 773.554688 226.824219 C 774.058594 226.660156 774.566406 225.894531 774.058594 224.546875 L 766.222656 203.796875 C 766.058594 203.460938 765.882812 203.296875 765.46875 203.296875 L 747.355469 203.296875 C 746.933594 203.296875 746.683594 203.546875 746.515625 203.96875 L 741.460938 218.898438 C 740.707031 221.007812 740.28125 223.027344 740.28125 224.546875 C 740.28125 226.234375 742.050781 226.992188 743.480469 226.992188 L 744.324219 226.992188 C 744.914062 226.992188 745.164062 227.167969 745.164062 227.5 C 745.164062 228.007812 744.65625 228.171875 743.902344 228.171875 C 741.882812 228.171875 738.25 227.921875 737.328125 227.921875 C 736.40625 227.921875 731.765625 228.171875 727.808594 228.171875 C 726.710938 228.171875 726.203125 228.007812 726.203125 227.5 C 726.203125 227.167969 726.546875 226.992188 726.96875 226.992188 C 727.558594 226.992188 728.738281 226.910156 729.410156 226.824219 C 733.285156 226.320312 734.96875 223.117188 736.488281 218.898438 Z M 755.605469 166.519531 " fill-opacity="1" fill-rule="nonzero"></path><path fill="#000000" d="M 857.546875 203.714844 C 857.546875 211.8125 857.546875 218.476562 857.96875 222.015625 C 858.21875 224.460938 858.726562 226.320312 861.25 226.65625 C 862.433594 226.820312 864.285156 226.996094 865.042969 226.996094 C 865.546875 226.996094 865.722656 227.246094 865.722656 227.503906 C 865.722656 227.917969 865.296875 228.175781 864.371094 228.175781 C 859.738281 228.175781 854.425781 227.917969 854.003906 227.917969 C 853.585938 227.917969 848.273438 228.175781 845.75 228.175781 C 844.820312 228.175781 844.40625 228.007812 844.40625 227.503906 C 844.40625 227.246094 844.570312 226.996094 845.078125 226.996094 C 845.832031 226.996094 846.847656 226.820312 847.601562 226.65625 C 849.285156 226.320312 849.710938 224.460938 850.042969 222.015625 C 850.464844 218.476562 850.464844 211.8125 850.464844 203.714844 L 850.464844 194.855469 C 850.464844 194.523438 850.214844 194.347656 849.960938 194.347656 L 814.242188 194.347656 C 813.992188 194.347656 813.742188 194.4375 813.742188 194.855469 L 813.742188 203.714844 C 813.742188 211.8125 813.742188 218.476562 814.164062 222.015625 C 814.414062 224.460938 814.921875 226.320312 817.445312 226.65625 C 818.625 226.820312 820.472656 226.996094 821.238281 226.996094 C 821.742188 226.996094 821.910156 227.246094 821.910156 227.503906 C 821.910156 227.917969 821.488281 228.175781 820.558594 228.175781 C 815.933594 228.175781 810.621094 227.917969 810.199219 227.917969 C 809.78125 227.917969 804.46875 228.175781 801.9375 228.175781 C 801.015625 228.175781 800.59375 228.007812 800.59375 227.503906 C 800.59375 227.246094 800.761719 226.996094 801.273438 226.996094 C 802.03125 226.996094 803.042969 226.820312 803.796875 226.65625 C 805.484375 226.320312 805.90625 224.460938 806.238281 222.015625 C 806.660156 218.476562 806.660156 211.8125 806.660156 203.714844 L 806.660156 188.871094 C 806.660156 175.707031 806.660156 173.34375 806.496094 170.652344 C 806.328125 167.785156 805.648438 166.429688 802.867188 165.839844 C 802.195312 165.675781 800.761719 165.589844 800.003906 165.589844 C 799.664062 165.589844 799.332031 165.417969 799.332031 165.082031 C 799.332031 164.578125 799.753906 164.402344 800.675781 164.410156 C 804.46875 164.410156 809.78125 164.660156 810.199219 164.660156 C 810.621094 164.660156 815.933594 164.410156 818.457031 164.402344 C 819.378906 164.402344 819.800781 164.578125 819.800781 165.082031 C 819.800781 165.417969 819.46875 165.589844 819.128906 165.589844 C 818.539062 165.589844 818.035156 165.675781 817.019531 165.839844 C 814.753906 166.265625 814.074219 167.695312 813.90625 170.652344 C 813.742188 173.34375 813.742188 175.707031 813.742188 188.871094 L 813.742188 190.640625 C 813.742188 191.066406 813.992188 191.148438 814.242188 191.148438 L 849.960938 191.148438 C 850.214844 191.148438 850.464844 191.066406 850.464844 190.640625 L 850.464844 188.871094 C 850.464844 175.707031 850.464844 173.34375 850.300781 170.652344 C 850.132812 167.785156 849.453125 166.429688 846.679688 165.839844 C 846 165.675781 844.570312 165.589844 843.816406 165.589844 C 843.476562 165.589844 843.144531 165.417969 843.144531 165.082031 C 843.144531 164.578125 843.558594 164.402344 844.488281 164.410156 C 848.273438 164.410156 853.585938 164.660156 854.003906 164.660156 C 854.425781 164.660156 859.738281 164.410156 862.269531 164.402344 C 863.191406 164.402344 863.613281 164.578125 863.613281 165.082031 C 863.613281 165.417969 863.273438 165.589844 862.933594 165.589844 C 862.34375 165.589844 861.84375 165.675781 860.832031 165.839844 C 858.558594 166.265625 857.878906 167.695312 857.710938 170.652344 C 857.546875 173.34375 857.546875 175.707031 857.546875 188.871094 Z M 857.546875 203.714844 " fill-opacity="1" fill-rule="nonzero"></path></svg>