<svg xmlns="http://www.w3.org/2000/svg" xmlns:xlink="http://www.w3.org/1999/xlink" width="1600" viewBox="0 0 1200 241.499998" height="322" preserveAspectRatio="xMidYMid meet"><defs><g></g></defs><g fill="#1e65a4" fill-opacity="1"><g transform="translate(356.002323, 212.255983)"><g><path d="M 170.84375 -203.09375 L 170.84375 -72.125 C 170.84375 -47.175781 164.113281 -28.300781 150.65625 -15.5 C 137.195312 -2.707031 117.503906 3.6875 91.578125 3.6875 C 65.648438 3.6875 45.957031 -2.707031 32.5 -15.5 C 19.039062 -28.300781 12.3125 -47.175781 12.3125 -72.125 L 12.3125 -203.09375 L 58.59375 -203.09375 L 58.59375 -85.671875 C 58.59375 -69.253906 61.175781 -57.84375 66.34375 -51.4375 C 71.507812 -45.039062 79.914062 -41.84375 91.5625 -41.84375 C 103.21875 -41.84375 111.628906 -45.039062 116.796875 -51.4375 C 121.972656 -57.84375 124.5625 -69.253906 124.5625 -85.671875 L 124.5625 -203.09375 Z M 170.84375 -203.09375 "></path></g></g></g><g fill="#1e65a4" fill-opacity="1"><g transform="translate(539.138417, 212.255983)"><g><path d="M 122.84375 -41.84375 C 129.894531 -41.84375 136.742188 -42.910156 143.390625 -45.046875 C 150.035156 -47.179688 154.921875 -49.234375 158.046875 -51.203125 L 162.71875 -54.40625 L 182.40625 -15.015625 C 181.75 -14.523438 180.847656 -13.867188 179.703125 -13.046875 C 178.554688 -12.222656 175.890625 -10.703125 171.703125 -8.484375 C 167.515625 -6.273438 163.039062 -4.347656 158.28125 -2.703125 C 153.53125 -1.066406 147.296875 0.40625 139.578125 1.71875 C 131.867188 3.03125 123.910156 3.6875 115.703125 3.6875 C 96.828125 3.6875 78.9375 -0.945312 62.03125 -10.21875 C 45.125 -19.488281 31.5 -32.242188 21.15625 -48.484375 C 10.820312 -64.734375 5.65625 -82.296875 5.65625 -101.171875 C 5.65625 -115.453125 8.691406 -129.15625 14.765625 -142.28125 C 20.835938 -155.414062 28.921875 -166.660156 39.015625 -176.015625 C 49.109375 -185.367188 60.882812 -192.832031 74.34375 -198.40625 C 87.800781 -203.988281 101.585938 -206.78125 115.703125 -206.78125 C 128.828125 -206.78125 140.925781 -205.222656 152 -202.109375 C 163.082031 -198.992188 170.921875 -195.875 175.515625 -192.75 L 182.40625 -188.078125 L 162.71875 -148.6875 C 161.570312 -149.675781 159.847656 -150.863281 157.546875 -152.25 C 155.253906 -153.644531 150.660156 -155.492188 143.765625 -157.796875 C 136.867188 -160.097656 129.894531 -161.25 122.84375 -161.25 C 111.675781 -161.25 101.660156 -159.441406 92.796875 -155.828125 C 83.941406 -152.210938 76.925781 -147.453125 71.75 -141.546875 C 66.582031 -135.640625 62.644531 -129.28125 59.9375 -122.46875 C 57.226562 -115.65625 55.875 -108.722656 55.875 -101.671875 C 55.875 -86.242188 61.660156 -72.414062 73.234375 -60.1875 C 84.804688 -47.957031 101.34375 -41.84375 122.84375 -41.84375 Z M 122.84375 -41.84375 "></path></g></g></g><g fill="#1e65a4" fill-opacity="1"><g transform="translate(724.489856, 212.255983)"><g><path d="M 61.046875 -203.09375 L 61.046875 0 L 14.765625 0 L 14.765625 -203.09375 Z M 61.046875 -203.09375 "></path></g></g></g></svg>