<svg xmlns="http://www.w3.org/2000/svg" xmlns:xlink="http://www.w3.org/1999/xlink" width="1600" viewBox="0 0 1200 241.499998" height="322" preserveAspectRatio="xMidYMid meet"><defs><clipPath id="66bffeb16f"><path d="M 852 1.804688 L 906 1.804688 L 906 50 L 852 50 Z M 852 1.804688 " clip-rule="nonzero"></path></clipPath><clipPath id="dd985d0f84"><path d="M 235.105469 56 L 796 56 L 796 238 L 235.105469 238 Z M 235.105469 56 " clip-rule="nonzero"></path></clipPath></defs><path fill="#ffcf0f" d="M 799.949219 15.824219 L 762.574219 20.78125 L 785.753906 50.140625 Z M 799.949219 15.824219 " fill-opacity="1" fill-rule="nonzero"></path><path fill="#ff1f39" d="M 803.703125 15.320312 L 799.949219 15.816406 L 785.757812 50.140625 L 807.828125 78.082031 L 831.195312 87.769531 L 852.742188 35.644531 Z M 803.703125 15.320312 " fill-opacity="1" fill-rule="nonzero"></path><path fill="#ff7614" d="M 785.757812 50.140625 L 793.664062 60.15625 L 852.734375 35.644531 L 803.695312 15.328125 L 799.949219 15.816406 Z M 785.757812 50.140625 " fill-opacity="1" fill-rule="nonzero"></path><path fill="#6c4796" d="M 852.734375 35.648438 L 864.476562 7.253906 L 803.695312 15.328125 Z M 852.734375 35.648438 " fill-opacity="1" fill-rule="nonzero"></path><g clip-path="url(#66bffeb16f)"><path fill="#009feb" d="M 864.476562 7.253906 L 852.734375 35.648438 L 886.113281 49.476562 L 905.539062 1.804688 Z M 864.476562 7.253906 " fill-opacity="1" fill-rule="nonzero"></path></g><path fill="#14cf43" d="M 886.109375 49.46875 L 852.734375 35.648438 L 831.1875 87.769531 L 864.832031 101.714844 Z M 886.109375 49.46875 " fill-opacity="1" fill-rule="nonzero"></path><path fill="#85d8ff" d="M 852.734375 35.648438 L 872.398438 83.125 L 886.113281 49.46875 Z M 852.734375 35.648438 " fill-opacity="1" fill-rule="nonzero"></path><path fill="#ff85bb" d="M 825.792969 100.835938 L 831.1875 87.769531 L 807.828125 78.089844 Z M 825.792969 100.835938 " fill-opacity="1" fill-rule="nonzero"></path><path fill="#85e09c" d="M 851.777344 133.742188 L 864.832031 101.707031 L 831.1875 87.769531 L 825.792969 100.835938 Z M 851.777344 133.742188 " fill-opacity="1" fill-rule="nonzero"></path><g clip-path="url(#dd985d0f84)"><path fill="#ff1f39" d="M 763.089844 95.238281 L 739.011719 161.152344 L 712.871094 95.242188 L 680.328125 95.242188 L 724.714844 194.671875 L 706.851562 237.226562 L 737.890625 237.226562 L 795.625 95.242188 L 763.089844 95.242188 Z M 654.929688 161.503906 C 653.734375 163.707031 652.265625 165.714844 650.523438 167.519531 C 648.785156 169.324219 646.835938 170.867188 644.679688 172.144531 C 642.503906 173.4375 640.195312 174.410156 637.75 175.0625 C 635.304688 175.71875 632.816406 176.03125 630.289062 176.003906 C 624.898438 176.003906 620.039062 174.726562 615.710938 172.144531 C 613.570312 170.882812 611.640625 169.355469 609.914062 167.566406 C 608.191406 165.777344 606.738281 163.789062 605.554688 161.601562 C 603.109375 157.144531 601.886719 152.089844 601.886719 146.4375 C 601.886719 141.046875 603.140625 136.117188 605.644531 131.65625 C 606.867188 129.464844 608.351562 127.476562 610.109375 125.6875 C 611.863281 123.898438 613.824219 122.378906 615.992188 121.121094 C 618.15625 119.839844 620.453125 118.871094 622.882812 118.214844 C 625.308594 117.558594 627.78125 117.238281 630.292969 117.253906 C 635.558594 117.253906 640.351562 118.546875 644.679688 121.113281 C 646.828125 122.382812 648.769531 123.914062 650.507812 125.703125 C 652.246094 127.488281 653.722656 129.476562 654.929688 131.65625 C 657.441406 136.117188 658.695312 141.046875 658.695312 146.4375 C 658.695312 151.972656 657.441406 156.984375 654.929688 161.503906 M 679.105469 119.511719 C 676.585938 115.390625 673.582031 111.664062 670.089844 108.328125 C 666.597656 104.992188 662.738281 102.164062 658.507812 99.839844 C 649.851562 95.007812 640.449219 92.589844 630.289062 92.589844 C 620.132812 92.589844 610.761719 95.007812 602.167969 99.839844 C 597.964844 102.167969 594.128906 105 590.667969 108.335938 C 587.207031 111.675781 584.234375 115.402344 581.753906 119.523438 C 579.273438 123.570312 577.394531 127.882812 576.117188 132.457031 C 574.839844 137.03125 574.214844 141.691406 574.238281 146.441406 C 574.238281 156.242188 576.746094 165.285156 581.757812 173.558594 C 584.242188 177.679688 587.210938 181.410156 590.671875 184.746094 C 594.136719 188.082031 597.96875 190.914062 602.175781 193.242188 C 610.761719 198.074219 620.132812 200.492188 630.289062 200.492188 C 640.449219 200.492188 649.851562 198.074219 658.507812 193.242188 C 662.738281 190.917969 666.601562 188.085938 670.09375 184.75 C 673.582031 181.414062 676.585938 177.683594 679.105469 173.558594 C 681.625 169.488281 683.53125 165.152344 684.824219 160.542969 C 686.121094 155.933594 686.753906 151.234375 686.722656 146.449219 C 686.746094 141.691406 686.109375 137.023438 684.8125 132.445312 C 683.515625 127.867188 681.613281 123.558594 679.105469 119.515625 M 527.96875 202.953125 L 583.457031 95.242188 L 552.046875 95.242188 L 527.960938 145.898438 L 503.886719 95.242188 L 472.664062 95.242188 Z M 266.308594 137.085938 C 266.933594 131.5625 269.695312 126.882812 274.585938 123.054688 C 279.480469 119.222656 285.804688 117.308594 293.582031 117.308594 C 298.101562 117.308594 302.148438 118.28125 305.722656 120.234375 C 309.292969 122.179688 312.144531 124.652344 314.28125 127.664062 C 316.40625 130.683594 317.664062 133.824219 318.039062 137.085938 Z M 339.578125 116.367188 C 334.367188 108.589844 327.695312 102.6875 319.542969 98.667969 C 312.351562 95.097656 304.75 93.117188 296.730469 92.730469 L 296.878906 92.707031 C 291.277344 92.359375 285.738281 92.785156 280.257812 93.988281 C 274.773438 95.191406 269.5625 97.125 264.625 99.792969 C 259.621094 102.378906 255.171875 105.703125 251.269531 109.765625 C 241.710938 119.398438 235.847656 132.3125 235.847656 146.515625 C 235.847656 157.8125 239.558594 168.289062 245.875 176.960938 C 246.164062 177.375 246.441406 177.816406 246.75 178.234375 C 252.890625 186.324219 260.253906 192.070312 268.851562 195.460938 C 270.144531 195.96875 271.417969 196.425781 272.699219 196.859375 C 276.554688 198.246094 280.605469 199.273438 284.804688 199.851562 C 287.835938 200.308594 290.824219 200.542969 293.773438 200.542969 C 314.210938 200.542969 330.332031 192.507812 342.117188 176.4375 L 320.300781 163.824219 C 294.652344 189.378906 265.769531 167.257812 265.769531 157.042969 L 347.191406 157.042969 C 347.3125 156.421875 347.445312 154.914062 347.566406 152.519531 C 347.695312 150.140625 347.757812 147.316406 347.757812 144.046875 C 347.5 133.382812 344.769531 124.15625 339.578125 116.371094 Z M 431.191406 168.019531 C 426.109375 173.234375 419.175781 175.832031 410.402344 175.832031 C 401.871094 175.832031 395.007812 173.070312 389.800781 167.546875 C 384.597656 162.027344 382.003906 155.058594 382.003906 146.644531 C 382.003906 137.984375 384.539062 130.921875 389.609375 125.460938 C 394.691406 119.996094 401.625 117.265625 410.398438 117.265625 C 419.054688 117.265625 425.949219 120 431.089844 125.460938 C 436.230469 130.917969 438.804688 137.984375 438.804688 146.644531 C 438.804688 155.6875 436.261719 162.8125 431.191406 168.019531 Z M 437.675781 56.070312 L 437.675781 100.40625 C 430.003906 95.554688 419.644531 92.582031 408.234375 92.582031 C 407.664062 92.582031 407.105469 92.597656 406.546875 92.609375 L 406.261719 92.597656 C 395.601562 92.597656 386.351562 94.992188 378.515625 99.753906 C 374.652344 102.078125 371.195312 104.898438 368.140625 108.214844 C 365.085938 111.527344 362.558594 115.207031 360.554688 119.246094 C 356.414062 127.472656 354.339844 136.605469 354.339844 146.644531 C 354.339844 156.695312 356.414062 165.828125 360.554688 174.042969 C 362.558594 178.085938 365.085938 181.761719 368.140625 185.078125 C 371.195312 188.390625 374.652344 191.210938 378.515625 193.535156 C 386.351562 198.308594 395.597656 200.691406 406.265625 200.691406 C 413.152344 200.691406 419.519531 199.398438 425.351562 196.835938 C 431.183594 194.257812 435.296875 191.339844 437.675781 188.074219 L 437.675781 198.429688 L 465.515625 198.429688 L 465.515625 56.070312 Z M 437.675781 56.070312 " fill-opacity="1" fill-rule="nonzero"></path></g></svg>