<svg xmlns="http://www.w3.org/2000/svg" xmlns:xlink="http://www.w3.org/1999/xlink" width="1600" viewBox="0 0 1200 241.499998" height="322" preserveAspectRatio="xMidYMid meet"><path fill="#f76900" d="M 287.648438 160.296875 L 283.316406 139.449219 L 289 137.554688 C 292.523438 145.136719 299.292969 154.882812 311.746094 154.882812 C 319.601562 154.882812 327.453125 150.550781 327.453125 140.535156 C 327.453125 121.582031 287.105469 125.644531 287.105469 101.28125 C 287.105469 86.929688 297.9375 79.894531 310.664062 79.894531 C 319.058594 79.894531 323.933594 83.683594 325.558594 85.578125 L 326.910156 81.789062 L 331.785156 81.789062 L 336.660156 100.46875 L 330.972656 102.363281 C 327.722656 95.054688 320.683594 87.203125 310.664062 87.203125 C 302 87.203125 297.9375 92.347656 297.9375 98.84375 C 297.9375 116.167969 338.285156 111.835938 338.285156 137.828125 C 338.285156 155.421875 323.390625 162.191406 311.476562 162.191406 C 304.4375 162.191406 299.019531 160.027344 294.417969 156.777344 L 292.25 160.296875 Z M 287.648438 160.296875 " fill-opacity="1" fill-rule="nonzero"></path><path fill="#f76900" d="M 358.050781 186.554688 C 354.261719 188.179688 351.011719 186.554688 350.199219 183.578125 L 362.382812 160.296875 L 344.242188 119.960938 C 342.886719 116.710938 342.074219 115.898438 337.199219 114.816406 L 337.199219 110.214844 L 359.132812 110.214844 L 359.132812 114.816406 L 353.175781 116.167969 L 366.988281 146.761719 L 380.527344 115.898438 L 374.839844 114.542969 L 374.839844 109.941406 L 392.980469 109.941406 L 392.980469 114.542969 C 390.003906 115.355469 387.835938 116.441406 386.210938 119.6875 L 367.257812 161.378906 Z M 358.050781 186.554688 " fill-opacity="1" fill-rule="nonzero"></path><path fill="#f76900" d="M 427.644531 121.582031 C 427.101562 119.6875 425.207031 118.0625 422.769531 118.0625 C 418.976562 118.0625 415.1875 121.3125 412.75 124.289062 L 412.75 154.070312 L 418.707031 155.421875 L 418.707031 160.296875 L 398.398438 160.296875 L 398.398438 155.695312 L 403.273438 154.609375 L 403.273438 120.5 L 397.316406 118.875 L 397.316406 114.816406 C 403.273438 113.734375 405.980469 111.835938 408.6875 108.046875 L 412.75 108.859375 L 412.207031 119.6875 C 414.914062 114.816406 419.519531 108.859375 426.558594 108.859375 C 430.078125 108.859375 433.601562 111.023438 433.601562 115.355469 C 433.601562 119.148438 430.621094 121.582031 427.644531 121.582031 " fill-opacity="1" fill-rule="nonzero"></path><path fill="#f76900" d="M 464.738281 147.300781 L 464.738281 138.640625 L 453.097656 140.804688 C 450.117188 141.347656 445.242188 143.242188 445.242188 148.65625 C 445.242188 152.445312 447.953125 155.695312 453.367188 155.695312 C 459.054688 155.695312 463.386719 151.902344 464.738281 147.300781 M 480.714844 154.339844 L 481.800781 156.507812 C 481.527344 157.316406 478.007812 161.648438 472.59375 161.648438 C 467.449219 161.648438 465.011719 158.671875 464.738281 155.421875 C 462.03125 159.484375 456.617188 161.921875 450.117188 161.921875 C 440.097656 161.921875 435.496094 155.421875 435.496094 150.007812 C 435.496094 141.617188 440.640625 137.015625 450.117188 135.390625 L 464.46875 132.683594 L 464.46875 121.855469 C 464.46875 117.523438 461.492188 114.273438 456.886719 114.273438 C 452.285156 114.273438 450.117188 116.167969 448.222656 118.335938 C 449.847656 125.644531 443.347656 129.164062 437.121094 125.914062 C 437.390625 115.085938 447.953125 108.046875 457.96875 108.046875 C 469.613281 108.046875 473.945312 114.816406 473.945312 123.75 L 473.945312 151.632812 C 473.945312 153.527344 475.03125 154.882812 476.925781 154.882812 C 479.089844 155.152344 480.445312 154.609375 480.714844 154.339844 " fill-opacity="1" fill-rule="nonzero"></path><path fill="#f76900" d="M 528.101562 118.0625 C 528.101562 121.582031 524.582031 123.75 521.332031 124.019531 C 519.4375 119.148438 516.1875 116.167969 509.960938 116.167969 C 501.023438 116.167969 493.984375 123.75 493.984375 136.472656 C 493.984375 147.03125 500.753906 154.070312 509.960938 154.070312 C 517 154.070312 521.875 150.820312 525.394531 146.488281 L 527.832031 148.113281 C 525.9375 155.964844 518.894531 162.734375 506.167969 162.734375 C 494.253906 162.734375 483.964844 154.609375 483.964844 139.179688 C 483.964844 120.230469 499.128906 109.128906 513.210938 109.128906 C 520.25 108.589844 528.101562 111.566406 528.101562 118.0625 " fill-opacity="1" fill-rule="nonzero"></path><path fill="#f76900" d="M 538.394531 116.167969 L 532.4375 114.816406 L 532.4375 110.214844 L 547.871094 110.214844 L 547.871094 145.675781 C 547.871094 150.820312 550.308594 153.527344 554.910156 153.527344 C 558.429688 153.527344 564.929688 151.902344 570.886719 146.488281 L 570.886719 116.167969 L 564.929688 114.816406 L 564.929688 110.214844 L 580.363281 110.214844 L 580.363281 151.632812 L 586.320312 151.632812 L 586.320312 156.234375 C 582.257812 157.320312 578.199219 158.941406 574.949219 161.378906 L 570.886719 160.566406 L 571.429688 151.902344 C 565.472656 157.589844 558.703125 161.921875 551.390625 161.921875 C 543.808594 161.921875 538.121094 156.777344 538.121094 150.007812 L 538.121094 116.167969 Z M 538.394531 116.167969 " fill-opacity="1" fill-rule="nonzero"></path><path fill="#f76900" d="M 596.609375 160.296875 L 593.632812 160.296875 L 591.195312 145.675781 L 594.714844 144.867188 C 597.695312 150.820312 603.378906 156.234375 610.691406 156.234375 C 617.191406 156.234375 619.898438 151.902344 619.898438 148.65625 C 619.898438 137.554688 592.820312 139.449219 592.820312 122.667969 C 592.820312 114.816406 599.589844 108.316406 608.253906 108.316406 C 613.128906 108.316406 617.191406 109.941406 619.355469 111.566406 L 619.898438 109.941406 L 623.691406 109.941406 L 625.855469 122.667969 L 622.335938 123.476562 C 620.710938 119.960938 616.921875 113.734375 609.339844 113.734375 C 604.191406 113.734375 601.757812 116.980469 601.757812 119.6875 C 601.757812 129.703125 628.5625 127.269531 628.5625 144.867188 C 628.5625 154.882812 619.898438 161.378906 610.421875 161.378906 C 605.277344 161.378906 599.589844 158.402344 597.421875 155.964844 Z M 596.609375 160.296875 " fill-opacity="1" fill-rule="nonzero"></path><path fill="#f76900" d="M 645.082031 131.058594 L 668.367188 127.808594 C 668.367188 118.335938 663.496094 114.542969 658.621094 114.542969 C 649.683594 114.542969 645.351562 122.125 645.082031 131.058594 M 644.8125 137.285156 C 645.351562 146.488281 651.308594 153.800781 659.703125 153.800781 C 667.015625 153.800781 671.890625 150.550781 675.679688 145.136719 L 678.117188 146.761719 C 676.222656 155.964844 668.367188 162.460938 656.726562 162.460938 C 644.8125 162.460938 634.792969 154.070312 634.792969 138.640625 C 634.792969 117.792969 647.246094 108.859375 658.890625 108.859375 C 669.722656 108.859375 678.660156 115.355469 678.660156 130.515625 L 676.761719 133.496094 Z M 644.8125 137.285156 " fill-opacity="1" fill-rule="nonzero"></path><path fill="#f76900" d="M 773.433594 131.871094 C 773.433594 151.363281 762.058594 162.734375 742.023438 162.734375 C 722.253906 162.734375 710.609375 151.363281 710.609375 131.871094 L 710.609375 88.285156 L 704.382812 86.929688 L 704.382812 81.789062 L 727.941406 81.789062 L 727.941406 86.929688 L 721.714844 88.285156 L 721.714844 130.246094 C 721.714844 145.40625 727.941406 154.609375 743.917969 154.609375 C 756.644531 154.609375 765.039062 145.949219 765.039062 131.058594 L 765.039062 88.285156 L 758.808594 86.929688 L 758.808594 81.789062 L 779.390625 81.789062 L 779.390625 86.929688 L 773.160156 88.285156 L 773.160156 131.871094 Z M 773.433594 131.871094 " fill-opacity="1" fill-rule="nonzero"></path><path fill="#f76900" d="M 782.097656 160.296875 L 782.097656 155.695312 L 786.972656 154.609375 L 786.972656 120.5 L 781.015625 118.875 L 781.015625 114.816406 C 786.972656 113.734375 789.679688 111.835938 792.386719 108.046875 L 796.449219 108.859375 L 795.90625 118.875 C 801.863281 113.191406 808.632812 108.859375 815.945312 108.859375 C 823.527344 108.859375 829.214844 114.003906 829.214844 120.769531 L 829.214844 154.882812 L 835.171875 156.234375 L 835.171875 160.296875 L 814.863281 160.296875 L 814.863281 155.695312 L 819.738281 154.609375 L 819.738281 124.832031 C 819.738281 119.6875 817.300781 116.980469 812.695312 116.980469 C 809.175781 116.980469 802.675781 118.605469 796.71875 124.019531 L 796.71875 154.339844 L 802.675781 155.695312 L 802.675781 160.296875 Z M 782.097656 160.296875 " fill-opacity="1" fill-rule="nonzero"></path><path fill="#f76900" d="M 852.5 87.742188 C 855.75 87.742188 858.457031 90.449219 858.457031 93.699219 C 858.457031 96.949219 855.75 99.65625 852.5 99.65625 C 849.25 99.65625 846.542969 96.949219 846.542969 93.699219 C 846.542969 90.449219 848.980469 87.742188 852.5 87.742188 M 841.671875 160.296875 L 841.671875 155.695312 L 847.085938 154.339844 L 847.085938 120.5 L 841.128906 118.875 L 841.128906 114.816406 C 847.085938 113.734375 849.792969 111.835938 852.5 108.046875 L 856.5625 108.859375 L 856.5625 154.882812 L 861.980469 156.234375 L 861.980469 160.296875 Z M 841.671875 160.296875 " fill-opacity="1" fill-rule="nonzero"></path><path fill="#f76900" d="M 863.332031 110.214844 L 885.265625 110.214844 L 885.265625 114.816406 L 879.308594 116.167969 L 893.117188 146.761719 L 906.65625 115.898438 L 900.972656 114.542969 L 900.972656 109.941406 L 919.113281 109.941406 L 919.113281 114.542969 C 916.136719 115.355469 913.96875 116.441406 912.34375 119.6875 L 893.390625 161.378906 L 889.058594 161.378906 L 870.371094 119.960938 C 868.75 116.710938 868.207031 115.898438 863.332031 114.816406 Z M 863.332031 110.214844 " fill-opacity="1" fill-rule="nonzero"></path><path fill="#f76900" d="M 928.589844 131.058594 L 951.878906 128.082031 C 951.878906 118.605469 947.003906 114.816406 942.128906 114.816406 C 933.195312 114.542969 929.132812 122.125 928.589844 131.058594 M 928.589844 137.285156 C 929.132812 146.488281 935.089844 153.800781 943.484375 153.800781 C 950.796875 153.800781 955.667969 150.550781 959.460938 145.136719 L 961.898438 146.761719 C 960.003906 155.964844 952.148438 162.460938 940.503906 162.460938 C 928.589844 162.460938 918.574219 154.070312 918.574219 138.640625 C 918.574219 117.792969 931.027344 108.859375 942.671875 108.859375 C 953.503906 108.859375 962.4375 115.355469 962.4375 130.515625 L 960.542969 133.496094 Z M 928.589844 137.285156 " fill-opacity="1" fill-rule="nonzero"></path><path fill="#f76900" d="M 997.371094 121.582031 C 996.828125 119.6875 994.933594 118.0625 992.496094 118.0625 C 988.707031 118.0625 984.914062 121.3125 982.476562 124.289062 L 982.476562 154.070312 L 988.433594 155.421875 L 988.433594 160.296875 L 968.125 160.296875 L 968.125 155.695312 L 973 154.609375 L 973 120.5 L 967.042969 118.875 L 967.042969 114.816406 C 973 113.734375 975.707031 111.835938 978.414062 108.046875 L 982.476562 108.859375 L 981.9375 119.6875 C 984.644531 114.816406 989.246094 108.859375 996.285156 108.859375 C 999.808594 108.859375 1003.328125 111.023438 1003.328125 115.355469 C 1003.597656 119.148438 1000.621094 121.582031 997.371094 121.582031 " fill-opacity="1" fill-rule="nonzero"></path><path fill="#f76900" d="M 1011.179688 160.296875 L 1008.203125 160.296875 L 1005.765625 145.675781 L 1009.285156 144.867188 C 1012.261719 150.820312 1017.949219 156.234375 1025.261719 156.234375 C 1031.757812 156.234375 1034.46875 151.902344 1034.46875 148.65625 C 1034.46875 137.554688 1007.390625 139.449219 1007.390625 122.667969 C 1007.390625 114.816406 1014.160156 108.316406 1022.824219 108.316406 C 1027.699219 108.316406 1031.757812 109.941406 1033.925781 111.566406 L 1034.46875 109.941406 L 1038.257812 109.941406 L 1040.425781 122.667969 L 1036.90625 123.476562 C 1035.28125 119.960938 1031.488281 113.734375 1023.90625 113.734375 C 1018.761719 113.734375 1016.324219 116.980469 1016.324219 119.6875 C 1016.324219 129.703125 1043.132812 127.269531 1043.132812 144.867188 C 1043.132812 154.882812 1034.46875 161.378906 1024.988281 161.378906 C 1019.84375 161.378906 1014.160156 158.402344 1011.992188 155.964844 Z M 1011.179688 160.296875 " fill-opacity="1" fill-rule="nonzero"></path><path fill="#f76900" d="M 1060.191406 87.742188 C 1063.441406 87.742188 1066.148438 90.449219 1066.148438 93.699219 C 1066.148438 96.949219 1063.441406 99.65625 1060.191406 99.65625 C 1056.941406 99.65625 1054.234375 96.949219 1054.234375 93.699219 C 1054.234375 90.449219 1056.941406 87.742188 1060.191406 87.742188 M 1049.632812 160.296875 L 1049.632812 155.695312 L 1055.046875 154.339844 L 1055.046875 120.5 L 1049.089844 118.875 L 1049.089844 114.816406 C 1055.046875 113.734375 1057.753906 111.835938 1060.460938 108.046875 L 1064.523438 108.859375 L 1064.523438 154.882812 L 1069.941406 156.234375 L 1069.941406 160.296875 Z M 1049.632812 160.296875 " fill-opacity="1" fill-rule="nonzero"></path><path fill="#f76900" d="M 1079.960938 151.632812 L 1079.960938 116.441406 L 1072.105469 116.441406 L 1072.105469 111.835938 C 1078.605469 110.753906 1082.9375 104.796875 1085.105469 98.300781 L 1089.164062 99.113281 L 1089.164062 110.484375 L 1102.164062 110.484375 L 1102.164062 116.441406 L 1089.164062 116.441406 L 1089.164062 149.46875 C 1089.164062 153.257812 1090.789062 155.152344 1094.039062 155.152344 C 1096.207031 155.152344 1098.371094 153.800781 1099.726562 152.175781 L 1102.164062 154.070312 C 1100.808594 157.859375 1096.476562 161.921875 1090.789062 161.921875 C 1084.5625 162.191406 1079.960938 158.402344 1079.960938 151.632812 " fill-opacity="1" fill-rule="nonzero"></path><path fill="#f76900" d="M 1116.515625 186.554688 C 1112.722656 188.179688 1109.472656 186.554688 1108.660156 183.578125 L 1120.578125 160.296875 L 1102.433594 119.960938 C 1101.082031 116.710938 1098.101562 116.167969 1094.851562 116.167969 L 1084.832031 116.167969 L 1084.832031 110.214844 L 1117.328125 110.214844 L 1117.328125 114.816406 L 1111.371094 116.167969 L 1125.179688 146.761719 L 1138.71875 115.898438 L 1133.03125 114.542969 L 1133.03125 109.941406 L 1151.175781 109.941406 L 1151.175781 114.542969 C 1148.195312 115.355469 1146.03125 116.441406 1144.40625 119.6875 L 1125.449219 161.378906 Z M 1116.515625 186.554688 " fill-opacity="1" fill-rule="nonzero"></path><path fill="#f76900" d="M 177.167969 83.683594 C 179.875 83.683594 224.824219 83.683594 227.261719 83.683594 L 227.261719 47.136719 C 226.449219 46.324219 199.371094 20.0625 198.558594 19.523438 L 108.117188 19.523438 C 107.304688 20.335938 81.039062 46.324219 80.226562 47.136719 L 80.226562 114.273438 C 81.039062 115.085938 106.222656 140.535156 107.035156 141.347656 L 177.4375 141.347656 L 177.4375 180.328125 L 130.863281 180.328125 L 130.863281 158.128906 C 128.15625 158.128906 82.9375 158.128906 80.226562 158.128906 L 80.226562 194.675781 C 81.039062 195.488281 107.304688 221.480469 108.117188 222.289062 L 198.558594 222.289062 C 199.371094 221.480469 226.449219 195.488281 227.261719 194.675781 L 227.261719 127.269531 C 226.449219 126.457031 201.269531 101.007812 200.457031 100.195312 L 130.863281 100.195312 L 130.863281 61.484375 L 177.4375 61.484375 L 177.4375 83.683594 Z M 177.167969 83.683594 " fill-opacity="1" fill-rule="nonzero"></path></svg>