<?xml version="1.0" encoding="UTF-8"?> <svg xmlns="http://www.w3.org/2000/svg" xmlns:xlink="http://www.w3.org/1999/xlink" width="1600" zoomAndPan="magnify" viewBox="0 0 1200 241.499998" height="322" preserveAspectRatio="xMidYMid meet" version="1.0"><defs><clipPath id="c3dd6c5180"><path d="M 61.320312 38 L 300 38 L 300 192 L 61.320312 192 Z M 61.320312 38 " clip-rule="nonzero"></path></clipPath><clipPath id="d723164c50"><path d="M 1057 64 L 1138.339844 64 L 1138.339844 168 L 1057 168 Z M 1057 64 " clip-rule="nonzero"></path></clipPath></defs><g clip-path="url(#c3dd6c5180)"><path fill="#0063e7" d="M 290.585938 76.339844 L 215.300781 44.21875 C 196.648438 36.257812 175.230469 36.226562 156.5625 44.117188 L 80.382812 76.320312 C 74.960938 78.613281 71.46875 83.902344 71.46875 89.796875 C 71.46875 95.6875 74.980469 100.976562 80.398438 103.253906 L 95.160156 109.472656 C 95.691406 109.679688 96.089844 110.214844 96.089844 110.851562 C 96.089844 111.230469 95.953125 111.574219 95.691406 111.832031 L 95.726562 111.867188 C 91.390625 116.15625 87.777344 121.191406 85.234375 126.753906 C 84.542969 128.253906 83.941406 129.789062 83.410156 131.355469 C 78.953125 133.542969 75.855469 138.09375 75.855469 143.398438 C 75.855469 147.863281 78.042969 151.773438 81.378906 154.21875 C 80.726562 163.992188 73.464844 171.949219 64.003906 173.621094 C 62.007812 173.96875 60.785156 176.050781 61.523438 177.945312 C 64.585938 185.683594 72.125 191.144531 80.949219 191.113281 C 91.890625 191.058594 101.148438 182.132812 101.613281 171.191406 C 101.871094 164.957031 99.375 159.320312 95.28125 155.359375 C 99.648438 153.136719 102.679688 148.65625 102.679688 143.398438 C 102.679688 140.730469 101.871094 138.246094 100.546875 136.164062 C 100.804688 135.507812 101.042969 134.851562 101.335938 134.214844 C 104.039062 128.355469 108.476562 123.359375 113.929688 119.949219 C 114.789062 119.449219 115.789062 119.15625 116.871094 119.15625 C 117.75 119.15625 118.59375 119.363281 119.367188 119.707031 L 156.597656 135.40625 C 165.871094 139.316406 175.832031 141.261719 185.777344 141.261719 C 195.804688 141.261719 205.835938 139.28125 215.179688 135.300781 L 290.550781 103.253906 C 295.953125 100.960938 299.429688 95.6875 299.445312 89.8125 C 299.464844 83.917969 295.972656 78.648438 290.585938 76.339844 Z M 208.261719 118.933594 C 194.050781 124.980469 177.722656 124.996094 163.496094 119 L 143.109375 110.402344 C 142.695312 110.214844 142.421875 109.816406 142.421875 109.335938 C 142.421875 108.851562 142.714844 108.4375 143.125 108.265625 L 143.125 108.230469 L 182.800781 91.191406 C 186.222656 89.726562 186.222656 84.867188 182.78125 83.402344 C 182.78125 83.402344 176.484375 80.730469 174.386719 79.835938 C 171.152344 78.457031 167.503906 78.457031 164.269531 79.835938 C 154.636719 83.953125 129.878906 94.585938 119.660156 98.960938 C 119.089844 99.167969 118.488281 99.304688 117.835938 99.304688 C 117.148438 99.304688 116.492188 99.167969 115.910156 98.925781 L 97.535156 91.171875 C 97.019531 90.914062 96.65625 90.382812 96.65625 89.761719 C 96.65625 89.140625 97.050781 88.570312 97.585938 88.332031 L 163.460938 60.484375 C 177.742188 54.457031 194.085938 54.472656 208.347656 60.554688 L 273.589844 88.398438 C 274.121094 88.625 274.515625 89.15625 274.515625 89.777344 C 274.515625 90.382812 274.136719 90.898438 273.605469 91.140625 Z M 208.261719 118.933594 " fill-opacity="1" fill-rule="nonzero"></path></g><path fill="#0063e7" d="M 385.660156 72.324219 C 385.140625 71.167969 384.007812 70.429688 382.734375 70.429688 L 364.890625 70.429688 C 363.636719 70.429688 362.484375 71.167969 361.96875 72.324219 L 321.105469 164.179688 C 320.554688 165.402344 321.449219 166.765625 322.792969 166.765625 L 341.117188 166.765625 C 342.113281 166.765625 343.027344 166.160156 343.402344 165.230469 L 351.300781 146.121094 L 395.964844 146.121094 L 403.859375 165.230469 C 404.238281 166.160156 405.152344 166.765625 406.148438 166.765625 L 425.003906 166.765625 C 426.347656 166.765625 427.242188 165.386719 426.691406 164.164062 Z M 358.421875 129.203125 L 373.683594 92.3125 L 388.945312 129.203125 Z M 358.421875 129.203125 " fill-opacity="1" fill-rule="nonzero"></path><path fill="#0063e7" d="M 498.796875 96.378906 C 493.167969 93.207031 486.90625 91.621094 480.042969 91.621094 C 469.875 91.621094 462.132812 94.828125 456.816406 101.253906 L 456.816406 94.945312 C 456.816406 93.722656 455.816406 92.722656 454.597656 92.722656 L 438.5625 92.722656 C 437.339844 92.722656 436.34375 93.722656 436.34375 94.945312 L 436.34375 191.25 C 436.34375 192.472656 437.339844 193.472656 438.5625 193.472656 L 455.558594 193.472656 C 456.78125 193.472656 457.78125 192.472656 457.78125 191.25 L 457.78125 160.097656 C 457.78125 159.664062 458.277344 159.476562 458.589844 159.785156 C 463.921875 165.179688 471.0625 167.882812 480.042969 167.882812 C 486.90625 167.882812 493.167969 166.300781 498.796875 163.128906 C 504.4375 159.957031 508.84375 155.511719 512.058594 149.773438 C 515.261719 144.039062 516.878906 137.367188 516.878906 129.753906 C 516.878906 122.136719 515.277344 115.46875 512.058594 109.730469 C 508.859375 103.992188 504.4375 99.53125 498.796875 96.378906 Z M 489.867188 144.675781 C 486.339844 148.398438 481.832031 150.257812 476.324219 150.257812 C 470.835938 150.257812 466.3125 148.398438 462.785156 144.675781 C 459.257812 140.953125 457.488281 135.992188 457.488281 129.734375 C 457.488281 123.5 459.257812 118.519531 462.785156 114.796875 C 466.3125 111.074219 470.820312 109.230469 476.324219 109.230469 C 481.8125 109.230469 486.339844 111.09375 489.867188 114.796875 C 493.394531 118.519531 495.148438 123.5 495.148438 129.734375 C 495.164062 135.992188 493.394531 140.96875 489.867188 144.675781 Z M 489.867188 144.675781 " fill-opacity="1" fill-rule="nonzero"></path><path fill="#0063e7" d="M 590.960938 96.378906 C 585.332031 93.207031 579.070312 91.621094 572.207031 91.621094 C 562.039062 91.621094 554.296875 94.828125 548.980469 101.253906 L 548.980469 94.945312 C 548.980469 93.722656 547.984375 92.722656 546.761719 92.722656 L 530.726562 92.722656 C 529.503906 92.722656 528.507812 93.722656 528.507812 94.945312 L 528.507812 191.25 C 528.507812 192.472656 529.503906 193.472656 530.726562 193.472656 L 547.726562 193.472656 C 548.945312 193.472656 549.945312 192.472656 549.945312 191.25 L 549.945312 160.097656 C 549.945312 159.664062 550.441406 159.476562 550.753906 159.785156 C 556.085938 165.179688 563.226562 167.882812 572.207031 167.882812 C 579.070312 167.882812 585.332031 166.300781 590.960938 163.128906 C 596.601562 159.957031 601.007812 155.511719 604.222656 149.773438 C 607.425781 144.039062 609.042969 137.367188 609.042969 129.753906 C 609.042969 122.136719 607.441406 115.46875 604.222656 109.730469 C 601.007812 103.992188 596.585938 99.53125 590.960938 96.378906 Z M 582.011719 144.675781 C 578.488281 148.398438 573.980469 150.257812 568.472656 150.257812 C 562.984375 150.257812 558.460938 148.398438 554.933594 144.675781 C 551.40625 140.953125 549.632812 135.992188 549.632812 129.734375 C 549.632812 123.5 551.40625 118.519531 554.933594 114.796875 C 558.460938 111.074219 562.96875 109.230469 568.472656 109.230469 C 573.960938 109.230469 578.488281 111.09375 582.011719 114.796875 C 585.539062 118.519531 587.296875 123.5 587.296875 129.734375 C 587.3125 135.992188 585.539062 140.96875 582.011719 144.675781 Z M 582.011719 144.675781 " fill-opacity="1" fill-rule="nonzero"></path><path fill="#0063e7" d="M 620.484375 64.636719 L 641.917969 64.636719 L 641.917969 166.765625 L 620.484375 166.765625 Z M 620.484375 64.636719 " fill-opacity="1" fill-rule="nonzero"></path><path fill="#0063e7" d="M 895.773438 96.515625 C 889.628906 93.257812 882.664062 91.621094 874.886719 91.621094 C 867.09375 91.621094 860.105469 93.257812 853.929688 96.515625 C 847.753906 99.773438 842.921875 104.285156 839.425781 110.074219 C 835.953125 115.847656 834.199219 122.414062 834.199219 129.753906 C 834.199219 137.09375 835.933594 143.660156 839.425781 149.429688 C 842.902344 155.203125 847.738281 159.734375 853.929688 162.992188 C 860.125 166.246094 867.09375 167.882812 874.886719 167.882812 C 882.679688 167.882812 889.628906 166.246094 895.773438 162.992188 C 901.914062 159.734375 906.714844 155.21875 910.207031 149.429688 C 913.683594 143.660156 915.417969 137.09375 915.417969 129.753906 C 915.417969 122.414062 913.683594 115.847656 910.207031 110.074219 C 906.730469 104.285156 901.914062 99.773438 895.773438 96.515625 Z M 888.425781 144.675781 C 884.898438 148.398438 880.390625 150.257812 874.886719 150.257812 C 869.398438 150.257812 864.855469 148.398438 861.277344 144.675781 C 857.699219 140.953125 855.910156 135.992188 855.910156 129.734375 C 855.910156 123.5 857.699219 118.519531 861.277344 114.796875 C 864.855469 111.074219 869.378906 109.230469 874.886719 109.230469 C 880.390625 109.230469 884.898438 111.09375 888.425781 114.796875 C 891.953125 118.519531 893.707031 123.5 893.707031 129.734375 C 893.726562 135.992188 891.953125 140.96875 888.425781 144.675781 Z M 888.425781 144.675781 " fill-opacity="1" fill-rule="nonzero"></path><path fill="#0063e7" d="M 958.3125 91.621094 C 952.359375 91.621094 946.558594 92.398438 940.933594 93.964844 C 935.894531 95.359375 931.488281 97.273438 927.722656 99.703125 C 926.964844 100.183594 926.742188 101.183594 927.136719 101.976562 L 933.191406 113.796875 C 933.671875 114.746094 934.84375 115.003906 935.722656 114.402344 C 938.042969 112.832031 940.726562 111.558594 943.789062 110.558594 C 947.59375 109.316406 951.464844 108.695312 955.402344 108.695312 C 961.082031 108.695312 965.347656 109.953125 968.1875 112.488281 C 970.644531 114.675781 972.039062 117.675781 972.367188 121.464844 C 972.453125 122.449219 971.609375 123.292969 970.628906 123.292969 L 955.402344 123.292969 C 944.597656 123.292969 936.597656 125.273438 931.421875 129.203125 C 926.242188 133.148438 923.660156 138.558594 923.660156 145.449219 C 923.660156 149.757812 924.761719 153.617188 926.964844 157.011719 C 929.167969 160.40625 932.347656 163.058594 936.511719 164.988281 C 940.675781 166.917969 945.597656 167.882812 951.292969 167.882812 C 962.285156 167.882812 969.804688 164.4375 973.828125 157.5625 L 973.828125 165.042969 C 973.828125 166.007812 974.601562 166.78125 975.566406 166.78125 L 992.167969 166.78125 C 993.132812 166.78125 993.90625 166.007812 993.90625 165.042969 L 993.90625 124.515625 C 993.90625 113.503906 990.84375 105.269531 984.703125 99.804688 C 978.542969 94.363281 969.75 91.621094 958.3125 91.621094 Z M 972.453125 140.160156 C 972.453125 144.554688 970.164062 148.601562 966.398438 150.878906 C 963.558594 152.582031 960.304688 153.429688 956.640625 153.429688 C 952.890625 153.429688 949.933594 152.617188 947.78125 151.015625 C 945.632812 149.414062 944.546875 147.226562 944.546875 144.484375 C 944.546875 138.695312 948.953125 135.816406 957.742188 135.816406 L 970.699219 135.816406 C 971.660156 135.816406 972.4375 136.59375 972.4375 137.558594 L 972.4375 140.160156 Z M 972.453125 140.160156 " fill-opacity="1" fill-rule="nonzero"></path><path fill="#0063e7" d="M 1025.511719 102.496094 L 1025.511719 94.464844 C 1025.511719 93.5 1024.738281 92.722656 1023.773438 92.722656 L 1006.757812 92.722656 C 1005.796875 92.722656 1005.019531 93.5 1005.019531 94.464844 L 1005.019531 165.042969 C 1005.019531 166.007812 1005.796875 166.78125 1006.757812 166.78125 L 1024.71875 166.78125 C 1025.683594 166.78125 1026.457031 166.007812 1026.457031 165.042969 L 1026.457031 131.804688 C 1026.457031 124.929688 1028.195312 119.757812 1031.6875 116.3125 C 1035.164062 112.867188 1039.980469 111.144531 1046.121094 111.144531 C 1046.949219 111.144531 1048.546875 111.230469 1050.941406 111.417969 L 1050.941406 91.605469 C 1045.261719 91.605469 1040.238281 92.519531 1035.886719 94.363281 C 1031.53125 96.203125 1028.074219 98.910156 1025.511719 102.496094 Z M 1025.511719 102.496094 " fill-opacity="1" fill-rule="nonzero"></path><g clip-path="url(#d723164c50)"><path fill="#0063e7" d="M 1136.601562 64.636719 L 1118.640625 64.636719 C 1117.675781 64.636719 1116.902344 65.414062 1116.902344 66.378906 L 1116.902344 100.5625 C 1111.585938 94.601562 1104.203125 91.621094 1094.777344 91.621094 C 1087.808594 91.621094 1081.511719 93.191406 1075.886719 96.308594 C 1070.242188 99.425781 1065.820312 103.871094 1062.621094 109.664062 C 1059.40625 115.433594 1057.804688 122.136719 1057.804688 129.753906 C 1057.804688 137.367188 1059.40625 144.070312 1062.621094 149.84375 C 1065.820312 155.632812 1070.242188 160.078125 1075.886719 163.199219 C 1081.511719 166.316406 1087.828125 167.882812 1094.777344 167.882812 C 1104.859375 167.882812 1112.550781 164.679688 1117.867188 158.253906 L 1117.867188 165.042969 C 1117.867188 166.007812 1118.640625 166.78125 1119.601562 166.78125 L 1136.601562 166.78125 C 1137.566406 166.78125 1138.339844 166.007812 1138.339844 165.042969 L 1138.339844 66.378906 C 1138.339844 65.429688 1137.546875 64.636719 1136.601562 64.636719 Z M 1111.945312 144.675781 C 1108.367188 148.398438 1103.878906 150.257812 1098.476562 150.257812 C 1092.988281 150.257812 1088.445312 148.398438 1084.867188 144.675781 C 1081.289062 140.953125 1079.5 135.992188 1079.5 129.734375 C 1079.5 123.5 1081.289062 118.519531 1084.867188 114.796875 C 1088.445312 111.074219 1092.96875 109.230469 1098.476562 109.230469 C 1103.878906 109.230469 1108.367188 111.09375 1111.945312 114.796875 C 1115.527344 118.519531 1117.316406 123.5 1117.316406 129.734375 C 1117.316406 135.992188 1115.527344 140.96875 1111.945312 144.675781 Z M 1111.945312 144.675781 " fill-opacity="1" fill-rule="nonzero"></path></g><path fill="#0063e7" d="M 728.148438 89.863281 L 711.976562 89.863281 C 710.910156 89.863281 709.964844 90.570312 709.652344 91.585938 L 695.167969 139.816406 L 675.039062 91.363281 C 674.660156 90.449219 673.765625 89.847656 672.765625 89.847656 L 655.304688 89.847656 C 653.980469 89.847656 653.085938 91.226562 653.617188 92.429688 L 685.34375 163.835938 L 685.050781 164.558594 C 683.8125 167.332031 682.28125 170.261719 679.71875 172.019531 C 675.984375 174.585938 671.03125 174.121094 667.003906 172.570312 C 665.371094 171.949219 663.871094 171.140625 662.511719 170.160156 C 661.671875 169.554688 660.484375 169.882812 660.019531 170.796875 L 653.34375 183.804688 C 652.964844 184.546875 653.136719 185.460938 653.789062 185.976562 C 656.128906 187.785156 659.019531 189.234375 662.425781 190.320312 C 666.402344 191.578125 670.410156 192.214844 674.488281 192.214844 C 681.9375 192.214844 688.304688 190.371094 693.585938 186.683594 C 698.246094 183.425781 702.253906 178.066406 705.59375 170.640625 C 706.488281 168.660156 707.195312 166.574219 707.828125 164.507812 L 729.902344 92.207031 C 730.265625 91.054688 729.386719 89.863281 728.148438 89.863281 Z M 728.148438 89.863281 " fill-opacity="1" fill-rule="nonzero"></path><path fill="#0063e7" d="M 809.097656 117.296875 C 808.390625 117.019531 808.320312 116.125 808.957031 115.726562 C 812.210938 113.730469 814.789062 111.144531 816.71875 107.992188 C 818.972656 104.320312 820.089844 100.117188 820.089844 95.429688 C 820.089844 90.742188 818.78125 86.023438 815.945312 82.28125 C 809.972656 74.375 799.21875 70.410156 783.667969 70.410156 L 742.617188 70.410156 C 741.464844 70.410156 740.535156 71.339844 740.535156 72.496094 L 740.535156 164.664062 C 740.535156 165.816406 741.464844 166.746094 742.617188 166.746094 L 786.402344 166.746094 C 798.960938 166.746094 808.511719 164.472656 815.046875 159.941406 C 821.605469 155.390625 824.871094 148.914062 824.871094 140.46875 C 824.871094 134.507812 823.308594 129.476562 820.191406 125.394531 C 817.441406 121.792969 813.742188 119.085938 809.097656 117.296875 Z M 762.574219 88.8125 C 762.574219 87.8125 763.382812 87.019531 764.363281 87.019531 L 784.613281 87.019531 C 791.03125 87.019531 796.226562 92.226562 796.226562 98.652344 C 796.226562 105.078125 791.03125 110.28125 784.613281 110.28125 L 764.363281 110.28125 C 763.367188 110.28125 762.574219 109.472656 762.574219 108.492188 Z M 790.808594 149.894531 L 765.035156 149.894531 C 763.675781 149.894531 762.59375 148.792969 762.59375 147.449219 L 762.59375 128.5625 C 762.59375 127.203125 763.691406 126.117188 765.035156 126.117188 L 790.808594 126.117188 C 797.363281 126.117188 802.679688 131.441406 802.679688 138.007812 C 802.679688 144.570312 797.363281 149.894531 790.808594 149.894531 Z M 790.808594 149.894531 " fill-opacity="1" fill-rule="nonzero"></path><path fill="#0063e7" d="M 247.710938 155.203125 L 241.226562 152.324219 C 238.199219 150.980469 234.707031 152.480469 233.5 155.566406 C 231.246094 161.355469 227.308594 166.710938 221.886719 171.246094 C 212.355469 179.203125 199.574219 183.582031 185.878906 183.582031 C 172.183594 183.582031 159.402344 179.203125 149.871094 171.246094 C 144.363281 166.660156 140.40625 161.199219 138.152344 155.304688 C 136.96875 152.171875 133.441406 150.636719 130.378906 151.996094 L 123.925781 154.859375 C 121.105469 156.117188 119.78125 159.355469 120.863281 162.25 C 124.253906 171.3125 130.1875 179.566406 138.34375 186.371094 C 151.144531 197.054688 168.019531 202.933594 185.878906 202.933594 C 203.753906 202.933594 220.632812 197.054688 233.414062 186.371094 C 241.46875 179.652344 247.332031 171.519531 250.757812 162.59375 C 251.875 159.734375 250.550781 156.460938 247.710938 155.203125 Z M 247.710938 155.203125 " fill-opacity="1" fill-rule="nonzero"></path></svg> 