<svg xmlns="http://www.w3.org/2000/svg" xmlns:xlink="http://www.w3.org/1999/xlink" width="1600" viewBox="0 0 1200 241.499998" height="322" preserveAspectRatio="xMidYMid meet"><defs><g></g></defs><g fill="#1e65a4" fill-opacity="1"><g transform="translate(25.710882, 174.449166)"><g><path d="M 45.859375 -86.671875 C 42.054688 -86.671875 39.289062 -85.9375 37.5625 -84.46875 C 35.84375 -83 34.984375 -80.273438 34.984375 -76.296875 L 34.984375 -23.453125 C 34.984375 -18.003906 36.707031 -13.398438 40.15625 -9.640625 C 43.613281 -5.890625 48.96875 -4.015625 56.21875 -4.015625 C 64.6875 -4.015625 71.078125 -6.582031 75.390625 -11.71875 C 79.710938 -16.863281 81.875 -23.28125 81.875 -30.96875 L 81.875 -75.390625 C 81.875 -79.367188 81.007812 -82.242188 79.28125 -84.015625 C 77.550781 -85.785156 74.703125 -86.671875 70.734375 -86.671875 L 70.734375 -89 L 98.0625 -89 L 98.0625 -86.671875 C 94.09375 -86.578125 91.203125 -85.6875 89.390625 -84 C 87.578125 -82.320312 86.671875 -79.148438 86.671875 -74.484375 L 86.671875 -31.484375 C 86.671875 -20.679688 83.5625 -12.429688 77.34375 -6.734375 C 71.125 -1.035156 62.179688 1.8125 50.515625 1.8125 C 42.316406 1.8125 35.515625 0.492188 30.109375 -2.140625 C 24.710938 -4.773438 20.71875 -8.289062 18.125 -12.6875 C 15.539062 -17.09375 14.25 -22.0625 14.25 -27.59375 L 14.25 -76.828125 C 14.25 -80.710938 13.296875 -83.300781 11.390625 -84.59375 C 9.492188 -85.882812 6.300781 -86.578125 1.8125 -86.671875 L 1.8125 -89 L 45.859375 -89 Z M 45.859375 -86.671875 "></path></g></g></g><g fill="#1e65a4" fill-opacity="1"><g transform="translate(125.586115, 174.449166)"><g><path d="M 52.203125 -90.9375 C 56.691406 -90.9375 60.40625 -90.546875 63.34375 -89.765625 C 66.28125 -88.992188 69.4375 -87.914062 72.8125 -86.53125 C 73.15625 -86.363281 74.035156 -86 75.453125 -85.4375 C 76.878906 -84.875 78.15625 -84.59375 79.28125 -84.59375 C 82.5625 -84.59375 84.59375 -86.664062 85.375 -90.8125 L 87.96875 -90.8125 L 87.96875 -61.015625 L 85.375 -61.015625 C 84.675781 -65.941406 82.925781 -70.238281 80.125 -73.90625 C 77.320312 -77.570312 73.929688 -80.375 69.953125 -82.3125 C 65.984375 -84.257812 61.925781 -85.234375 57.78125 -85.234375 C 51.90625 -85.234375 46.785156 -83.484375 42.421875 -79.984375 C 38.066406 -76.492188 34.742188 -71.640625 32.453125 -65.421875 C 30.160156 -59.203125 29.015625 -52.164062 29.015625 -44.3125 C 29.015625 -31.613281 31.519531 -21.65625 36.53125 -14.4375 C 41.539062 -7.226562 48.453125 -3.625 57.265625 -3.625 C 62.878906 -3.625 67.929688 -4.960938 72.421875 -7.640625 C 76.910156 -10.316406 81.488281 -14.378906 86.15625 -19.828125 L 86.15625 -12.703125 C 81.3125 -7.597656 76.273438 -3.898438 71.046875 -1.609375 C 65.828125 0.671875 59.847656 1.8125 53.109375 1.8125 C 43.609375 1.8125 35.296875 -0.171875 28.171875 -4.140625 C 21.046875 -8.117188 15.5625 -13.519531 11.71875 -20.34375 C 7.875 -27.164062 5.953125 -34.722656 5.953125 -43.015625 C 5.953125 -51.554688 8.046875 -59.5 12.234375 -66.84375 C 16.429688 -74.1875 22.066406 -80.035156 29.140625 -84.390625 C 36.222656 -88.753906 43.910156 -90.9375 52.203125 -90.9375 Z M 52.203125 -90.9375 "></path></g></g></g><g fill="#1e65a4" fill-opacity="1"><g transform="translate(218.735555, 174.449166)"><g></g></g></g><g fill="#1e65a4" fill-opacity="1"><g transform="translate(232.969778, 174.85023)"><g><path d="M 37.875 -87.40625 C 42.519531 -87.40625 47.0625 -86.726562 51.5 -85.375 C 55.945312 -84.03125 59.242188 -82.695312 61.390625 -81.375 L 64.515625 -79.296875 L 56.609375 -63.6875 C 55.984375 -64.101562 55.113281 -64.640625 54 -65.296875 C 52.894531 -65.953125 50.816406 -66.835938 47.765625 -67.953125 C 44.710938 -69.066406 41.867188 -69.625 39.234375 -69.625 C 35.972656 -69.625 33.457031 -68.925781 31.6875 -67.53125 C 29.914062 -66.144531 29.03125 -64.273438 29.03125 -61.921875 C 29.03125 -60.734375 29.445312 -59.632812 30.28125 -58.625 C 31.113281 -57.625 32.535156 -56.550781 34.546875 -55.40625 C 36.554688 -54.269531 38.320312 -53.351562 39.84375 -52.65625 C 41.375 -51.957031 43.738281 -50.914062 46.9375 -49.53125 C 52.476562 -47.175781 57.207031 -43.96875 61.125 -39.90625 C 65.050781 -35.851562 67.015625 -31.257812 67.015625 -26.125 C 67.015625 -21.195312 66.128906 -16.894531 64.359375 -13.21875 C 62.585938 -9.539062 60.160156 -6.660156 57.078125 -4.578125 C 53.992188 -2.492188 50.578125 -0.953125 46.828125 0.046875 C 43.078125 1.054688 39.019531 1.5625 34.65625 1.5625 C 30.90625 1.5625 27.226562 1.175781 23.625 0.40625 C 20.019531 -0.351562 17 -1.300781 14.5625 -2.4375 C 12.132812 -3.582031 9.945312 -4.710938 8 -5.828125 C 6.0625 -6.941406 4.644531 -7.878906 3.75 -8.640625 L 2.390625 -9.78125 L 12.171875 -26.21875 C 13.003906 -25.53125 14.148438 -24.644531 15.609375 -23.5625 C 17.066406 -22.488281 19.648438 -21.050781 23.359375 -19.25 C 27.066406 -17.445312 30.347656 -16.546875 33.203125 -16.546875 C 41.453125 -16.546875 45.578125 -19.351562 45.578125 -24.96875 C 45.578125 -26.15625 45.28125 -27.25 44.6875 -28.25 C 44.101562 -29.257812 43.0625 -30.265625 41.5625 -31.265625 C 40.070312 -32.273438 38.753906 -33.070312 37.609375 -33.65625 C 36.472656 -34.25 34.601562 -35.148438 32 -36.359375 C 29.394531 -37.578125 27.46875 -38.5 26.21875 -39.125 C 21.019531 -41.695312 17 -44.90625 14.15625 -48.75 C 11.3125 -52.601562 9.890625 -56.75 9.890625 -61.1875 C 9.890625 -68.882812 12.734375 -75.175781 18.421875 -80.0625 C 24.109375 -84.957031 30.59375 -87.40625 37.875 -87.40625 Z M 37.875 -87.40625 "></path></g></g></g><g fill="#1e65a4" fill-opacity="1"><g transform="translate(302.881558, 174.85023)"><g><path d="M 49.84375 -85.859375 L 84.5 0 L 63.484375 0 L 57.125 -17.171875 L 24.453125 -17.171875 L 18.109375 0 L -2.90625 0 L 31.734375 -85.859375 Z M 50.46875 -34.34375 L 40.890625 -59.3125 L 40.6875 -59.3125 L 31.109375 -34.34375 Z M 50.46875 -34.34375 "></path></g></g></g><g fill="#1e65a4" fill-opacity="1"><g transform="translate(384.445313, 174.85023)"><g><path d="M 25.8125 -53.28125 L 25.8125 0 L 6.25 0 L 6.25 -85.859375 L 25.8125 -85.859375 L 59.9375 -32.578125 L 60.140625 -32.578125 L 60.140625 -85.859375 L 79.71875 -85.859375 L 79.71875 0 L 60.140625 0 L 26.015625 -53.28125 Z M 25.8125 -53.28125 "></path></g></g></g><g fill="#1e65a4" fill-opacity="1"><g transform="translate(470.378537, 174.85023)"><g><path d="M 0.828125 -68.6875 L 0.828125 -85.859375 L 61.1875 -85.859375 L 61.1875 -68.6875 L 40.796875 -68.6875 L 40.796875 0 L 21.234375 0 L 21.234375 -68.6875 Z M 0.828125 -68.6875 "></path></g></g></g><g fill="#1e65a4" fill-opacity="1"><g transform="translate(532.383636, 174.85023)"><g><path d="M 49.84375 -85.859375 L 84.5 0 L 63.484375 0 L 57.125 -17.171875 L 24.453125 -17.171875 L 18.109375 0 L -2.90625 0 L 31.734375 -85.859375 Z M 50.46875 -34.34375 L 40.890625 -59.3125 L 40.6875 -59.3125 L 31.109375 -34.34375 Z M 50.46875 -34.34375 "></path></g></g></g><g fill="#1e65a4" fill-opacity="1"><g transform="translate(613.947411, 174.85023)"><g></g></g></g><g fill="#1e65a4" fill-opacity="1"><g transform="translate(642.349055, 174.85023)"><g><path d="M 6.25 -85.859375 L 32.890625 -85.859375 C 40.929688 -85.859375 47.34375 -84.140625 52.125 -80.703125 C 56.914062 -77.265625 59.3125 -71.695312 59.3125 -64 C 59.3125 -55.394531 55.738281 -49.253906 48.59375 -45.578125 C 60.800781 -43.429688 66.90625 -36.21875 66.90625 -23.9375 C 66.90625 -16.71875 64.40625 -10.921875 59.40625 -6.546875 C 54.414062 -2.179688 47.550781 0 38.8125 0 L 6.25 0 Z M 25.8125 -52.234375 L 27.375 -52.234375 C 31.738281 -52.234375 34.992188 -52.992188 37.140625 -54.515625 C 39.296875 -56.046875 40.375 -58.546875 40.375 -62.015625 C 40.375 -67.847656 36.039062 -70.765625 27.375 -70.765625 L 25.8125 -70.765625 Z M 25.8125 -15.09375 L 31.953125 -15.09375 C 41.523438 -15.09375 46.3125 -18.28125 46.3125 -24.65625 C 46.3125 -28.476562 45.113281 -31.21875 42.71875 -32.875 C 40.320312 -34.539062 36.734375 -35.375 31.953125 -35.375 L 25.8125 -35.375 Z M 25.8125 -15.09375 "></path></g></g></g><g fill="#1e65a4" fill-opacity="1"><g transform="translate(711.636637, 174.85023)"><g><path d="M 49.84375 -85.859375 L 84.5 0 L 63.484375 0 L 57.125 -17.171875 L 24.453125 -17.171875 L 18.109375 0 L -2.90625 0 L 31.734375 -85.859375 Z M 50.46875 -34.34375 L 40.890625 -59.3125 L 40.6875 -59.3125 L 31.109375 -34.34375 Z M 50.46875 -34.34375 "></path></g></g></g><g fill="#1e65a4" fill-opacity="1"><g transform="translate(793.200371, 174.85023)"><g><path d="M 6.25 -85.859375 L 36.9375 -85.859375 C 45.195312 -85.859375 51.925781 -83.65625 57.125 -79.25 C 62.332031 -74.84375 64.9375 -68.546875 64.9375 -60.359375 C 64.9375 -54.046875 63.359375 -48.753906 60.203125 -44.484375 C 57.046875 -40.222656 52.757812 -37.222656 47.34375 -35.484375 L 76.90625 0 L 52.03125 0 L 25.8125 -33.921875 L 25.8125 0 L 6.25 0 Z M 25.8125 -47.765625 L 28.09375 -47.765625 C 29.894531 -47.765625 31.421875 -47.796875 32.671875 -47.859375 C 33.921875 -47.929688 35.34375 -48.175781 36.9375 -48.59375 C 38.53125 -49.007812 39.8125 -49.597656 40.78125 -50.359375 C 41.757812 -51.128906 42.59375 -52.238281 43.28125 -53.6875 C 43.976562 -55.144531 44.328125 -56.914062 44.328125 -59 C 44.328125 -61.082031 43.976562 -62.851562 43.28125 -64.3125 C 42.59375 -65.769531 41.757812 -66.878906 40.78125 -67.640625 C 39.8125 -68.398438 38.53125 -68.988281 36.9375 -69.40625 C 35.34375 -69.820312 33.921875 -70.066406 32.671875 -70.140625 C 31.421875 -70.210938 29.894531 -70.25 28.09375 -70.25 L 25.8125 -70.25 Z M 25.8125 -47.765625 "></path></g></g></g><g fill="#1e65a4" fill-opacity="1"><g transform="translate(867.689679, 174.85023)"><g><path d="M 6.25 -85.859375 L 32.890625 -85.859375 C 40.929688 -85.859375 47.34375 -84.140625 52.125 -80.703125 C 56.914062 -77.265625 59.3125 -71.695312 59.3125 -64 C 59.3125 -55.394531 55.738281 -49.253906 48.59375 -45.578125 C 60.800781 -43.429688 66.90625 -36.21875 66.90625 -23.9375 C 66.90625 -16.71875 64.40625 -10.921875 59.40625 -6.546875 C 54.414062 -2.179688 47.550781 0 38.8125 0 L 6.25 0 Z M 25.8125 -52.234375 L 27.375 -52.234375 C 31.738281 -52.234375 34.992188 -52.992188 37.140625 -54.515625 C 39.296875 -56.046875 40.375 -58.546875 40.375 -62.015625 C 40.375 -67.847656 36.039062 -70.765625 27.375 -70.765625 L 25.8125 -70.765625 Z M 25.8125 -15.09375 L 31.953125 -15.09375 C 41.523438 -15.09375 46.3125 -18.28125 46.3125 -24.65625 C 46.3125 -28.476562 45.113281 -31.21875 42.71875 -32.875 C 40.320312 -34.539062 36.734375 -35.375 31.953125 -35.375 L 25.8125 -35.375 Z M 25.8125 -15.09375 "></path></g></g></g><g fill="#1e65a4" fill-opacity="1"><g transform="translate(936.977261, 174.85023)"><g><path d="M 49.84375 -85.859375 L 84.5 0 L 63.484375 0 L 57.125 -17.171875 L 24.453125 -17.171875 L 18.109375 0 L -2.90625 0 L 31.734375 -85.859375 Z M 50.46875 -34.34375 L 40.890625 -59.3125 L 40.6875 -59.3125 L 31.109375 -34.34375 Z M 50.46875 -34.34375 "></path></g></g></g><g fill="#1e65a4" fill-opacity="1"><g transform="translate(1018.540995, 174.85023)"><g><path d="M 6.25 -85.859375 L 36.9375 -85.859375 C 45.195312 -85.859375 51.925781 -83.65625 57.125 -79.25 C 62.332031 -74.84375 64.9375 -68.546875 64.9375 -60.359375 C 64.9375 -54.046875 63.359375 -48.753906 60.203125 -44.484375 C 57.046875 -40.222656 52.757812 -37.222656 47.34375 -35.484375 L 76.90625 0 L 52.03125 0 L 25.8125 -33.921875 L 25.8125 0 L 6.25 0 Z M 25.8125 -47.765625 L 28.09375 -47.765625 C 29.894531 -47.765625 31.421875 -47.796875 32.671875 -47.859375 C 33.921875 -47.929688 35.34375 -48.175781 36.9375 -48.59375 C 38.53125 -49.007812 39.8125 -49.597656 40.78125 -50.359375 C 41.757812 -51.128906 42.59375 -52.238281 43.28125 -53.6875 C 43.976562 -55.144531 44.328125 -56.914062 44.328125 -59 C 44.328125 -61.082031 43.976562 -62.851562 43.28125 -64.3125 C 42.59375 -65.769531 41.757812 -66.878906 40.78125 -67.640625 C 39.8125 -68.398438 38.53125 -68.988281 36.9375 -69.40625 C 35.34375 -69.820312 33.921875 -70.066406 32.671875 -70.140625 C 31.421875 -70.210938 29.894531 -70.25 28.09375 -70.25 L 25.8125 -70.25 Z M 25.8125 -47.765625 "></path></g></g></g><g fill="#1e65a4" fill-opacity="1"><g transform="translate(1093.030303, 174.85023)"><g><path d="M 49.84375 -85.859375 L 84.5 0 L 63.484375 0 L 57.125 -17.171875 L 24.453125 -17.171875 L 18.109375 0 L -2.90625 0 L 31.734375 -85.859375 Z M 50.46875 -34.34375 L 40.890625 -59.3125 L 40.6875 -59.3125 L 31.109375 -34.34375 Z M 50.46875 -34.34375 "></path></g></g></g></svg>