<svg xmlns="http://www.w3.org/2000/svg" xmlns:xlink="http://www.w3.org/1999/xlink" width="1600" viewBox="0 0 1200 241.499998" height="322" preserveAspectRatio="xMidYMid meet"><defs><clipPath id="4d68c54a92"><path d="M 18.671875 12.058594 L 1184.8125 12.058594 L 1184.8125 228.945312 L 18.671875 228.945312 Z M 18.671875 12.058594 " clip-rule="nonzero"></path></clipPath><clipPath id="61a074c272"><path d="M 75.269531 21.351562 L 259.988281 21.351562 L 259.988281 220 L 75.269531 220 Z M 75.269531 21.351562 " clip-rule="nonzero"></path></clipPath><clipPath id="617e836e6e"><path d="M 289.144531 42.082031 L 334 42.082031 L 334 154.867188 L 289.144531 154.867188 Z M 289.144531 42.082031 " clip-rule="nonzero"></path></clipPath><clipPath id="5db7136953"><path d="M 655 42.082031 L 750 42.082031 L 750 130 L 655 130 Z M 655 42.082031 " clip-rule="nonzero"></path></clipPath><clipPath id="cacf2e318b"><path d="M 1071 54 L 1115.109375 54 L 1115.109375 131 L 1071 131 Z M 1071 54 " clip-rule="nonzero"></path></clipPath></defs><g clip-path="url(#4d68c54a92)"><path fill="#1e65a4" d="M 18.671875 12.058594 L 1184.441406 12.058594 L 1184.441406 228.945312 L 18.671875 228.945312 Z M 18.671875 12.058594 " fill-opacity="1" fill-rule="nonzero"></path></g><path fill="#ffffff" d="M 440.5 178.660156 C 440.5 175.136719 440.386719 168.597656 439.425781 166.894531 C 439.023438 166.203125 438 165.808594 436.578125 165.691406 L 435.160156 165.582031 C 434.820312 165.179688 434.925781 164.445312 435.265625 164.214844 C 437.4375 164.328125 439.53125 164.386719 441.753906 164.386719 C 444.140625 164.386719 445.671875 164.328125 447.722656 164.214844 C 448.183594 164.5 448.117188 165.234375 447.84375 165.582031 L 446.472656 165.691406 C 445.054688 165.808594 443.96875 166.320312 443.628906 167.066406 C 442.839844 168.9375 442.839844 175.472656 442.839844 178.660156 L 442.839844 185.09375 C 442.839844 190.035156 442.042969 195.265625 438.855469 198.671875 C 436.402344 201.351562 432.191406 202.832031 427.988281 202.832031 C 424.066406 202.832031 420.144531 202.085938 417.359375 199.703125 C 414.351562 197.203125 412.921875 193.054688 412.921875 186.285156 L 412.921875 172.859375 C 412.921875 166.945312 412.808594 165.976562 409.507812 165.691406 L 408.097656 165.582031 C 407.75 165.351562 407.863281 164.386719 408.203125 164.214844 C 411.042969 164.328125 412.976562 164.386719 415.253906 164.386719 C 417.585938 164.386719 419.464844 164.328125 422.242188 164.214844 C 422.585938 164.386719 422.703125 165.351562 422.363281 165.582031 L 421 165.691406 C 417.699219 165.976562 417.585938 166.945312 417.585938 172.859375 L 417.585938 185.148438 C 417.585938 194.296875 420.425781 200.324219 429.125 200.324219 C 437.371094 200.324219 440.5 193.851562 440.5 185.203125 Z M 440.5 178.660156 " fill-opacity="1" fill-rule="nonzero"></path><path fill="#ffffff" d="M 514.8125 192.257812 C 514.8125 193.957031 514.8125 200.726562 514.980469 202.203125 C 514.875 202.542969 514.53125 202.832031 513.90625 202.832031 C 513.222656 201.863281 511.574219 199.875 506.628906 194.246094 L 493.4375 179.234375 C 491.894531 177.46875 488.03125 172.808594 486.839844 171.550781 L 486.722656 171.550781 C 486.5 172.234375 486.433594 173.554688 486.433594 175.246094 L 486.433594 187.640625 C 486.433594 190.320312 486.5 197.710938 487.464844 199.417969 C 487.804688 200.042969 488.945312 200.382812 490.371094 200.492188 L 492.128906 200.671875 C 492.46875 201.121094 492.414062 201.800781 492.007812 202.089844 C 489.457031 201.980469 487.464844 201.914062 485.359375 201.914062 C 482.96875 201.914062 481.4375 201.980469 479.445312 202.089844 C 479.042969 201.800781 478.988281 201.011719 479.332031 200.671875 L 480.863281 200.492188 C 482.179688 200.324219 483.085938 199.984375 483.367188 199.355469 C 484.167969 197.320312 484.109375 190.375 484.109375 187.640625 L 484.109375 171.210938 C 484.109375 169.617188 484.050781 168.425781 482.859375 167.113281 C 482.0625 166.320312 480.6875 165.925781 479.332031 165.757812 L 478.371094 165.636719 C 478.027344 165.296875 478.027344 164.445312 478.476562 164.214844 C 480.863281 164.386719 483.882812 164.386719 484.902344 164.386719 C 485.820312 164.386719 486.777344 164.328125 487.523438 164.214844 C 488.660156 167.113281 495.371094 174.625 497.246094 176.722656 L 502.757812 182.925781 C 506.683594 187.300781 509.46875 190.488281 512.148438 193.222656 L 512.253906 193.222656 C 512.488281 192.933594 512.488281 192.023438 512.488281 190.828125 L 512.488281 178.660156 C 512.488281 175.988281 512.425781 168.597656 511.351562 166.894531 C 511.011719 166.371094 510.097656 166.03125 507.820312 165.757812 L 506.855469 165.636719 C 506.460938 165.296875 506.507812 164.386719 506.96875 164.214844 C 509.585938 164.328125 511.519531 164.386719 513.683594 164.386719 C 516.117188 164.386719 517.605469 164.328125 519.53125 164.214844 C 519.992188 164.5 519.992188 165.296875 519.652344 165.636719 L 518.851562 165.757812 C 517.03125 166.03125 515.894531 166.492188 515.667969 166.945312 C 514.703125 169 514.808594 176.042969 514.808594 178.660156 L 514.808594 192.257812 Z M 514.8125 192.257812 " fill-opacity="1" fill-rule="nonzero"></path><path fill="#ffffff" d="M 557.164062 173.03125 C 557.164062 167 557.050781 166.03125 553.695312 165.753906 L 552.273438 165.636719 C 551.929688 165.402344 552.046875 164.378906 552.386719 164.210938 C 555.226562 164.328125 557.164062 164.378906 559.554688 164.378906 C 561.828125 164.378906 563.757812 164.328125 566.601562 164.210938 C 566.941406 164.378906 567.058594 165.402344 566.71875 165.636719 L 565.300781 165.753906 C 561.941406 166.03125 561.828125 167 561.828125 173.03125 L 561.828125 193.273438 C 561.828125 199.300781 561.941406 200.09375 565.300781 200.488281 L 566.71875 200.667969 C 567.058594 200.890625 566.941406 201.914062 566.601562 202.085938 C 563.757812 201.980469 561.828125 201.914062 559.554688 201.914062 C 557.164062 201.914062 555.226562 201.980469 552.386719 202.085938 C 552.046875 201.914062 551.929688 201.011719 552.273438 200.667969 L 553.695312 200.488281 C 557.050781 200.09375 557.164062 199.300781 557.164062 193.273438 Z M 557.164062 173.03125 " fill-opacity="1" fill-rule="nonzero"></path><path fill="#ffffff" d="M 603.222656 170.414062 C 601.914062 167.234375 601.058594 166.03125 598.613281 165.753906 L 597.582031 165.636719 C 597.191406 165.296875 597.242188 164.5 597.699219 164.210938 C 599.347656 164.328125 601.167969 164.386719 603.617188 164.386719 C 606.117188 164.386719 608.101562 164.328125 610.5 164.210938 C 610.894531 164.445312 611.007812 165.296875 610.613281 165.636719 L 609.753906 165.753906 C 607.59375 166.03125 607.144531 166.371094 607.085938 166.832031 C 607.199219 167.40625 608.160156 170.480469 609.925781 174.796875 C 612.539062 181.394531 615.160156 187.925781 618.011719 194.414062 C 619.761719 190.660156 622.160156 184.808594 623.464844 181.789062 C 625.109375 177.925781 627.789062 171.496094 628.753906 169.050781 C 629.210938 167.859375 629.265625 167.234375 629.265625 166.832031 C 629.265625 166.4375 628.691406 165.976562 626.703125 165.753906 L 625.683594 165.636719 C 625.277344 165.296875 625.394531 164.445312 625.796875 164.210938 C 627.386719 164.328125 629.550781 164.386719 631.703125 164.386719 C 633.585938 164.386719 635.351562 164.328125 637.222656 164.210938 C 637.617188 164.445312 637.617188 165.347656 637.34375 165.636719 L 635.636719 165.753906 C 634.269531 165.863281 633.414062 166.550781 632.671875 167.742188 C 631.082031 170.414062 628.863281 175.03125 626.308594 180.820312 L 623.230469 187.808594 C 620.957031 193.054688 618.285156 199.640625 617.316406 202.660156 C 617.148438 202.769531 616.921875 202.828125 616.703125 202.828125 C 616.414062 202.828125 616.128906 202.769531 615.839844 202.660156 C 615.210938 200.269531 614.191406 197.488281 613.222656 195.097656 Z M 603.222656 170.414062 " fill-opacity="1" fill-rule="nonzero"></path><path fill="#ffffff" d="M 671.675781 172.925781 C 671.675781 167 671.558594 166.148438 668.207031 165.757812 L 667.292969 165.636719 C 666.953125 165.402344 667.066406 164.386719 667.40625 164.214844 C 669.859375 164.328125 671.789062 164.386719 674.121094 164.386719 L 684.8125 164.386719 C 688.453125 164.386719 691.804688 164.386719 692.484375 164.214844 C 692.824219 165.183594 693.167969 169.277344 693.398438 171.785156 C 693.167969 172.125 692.261719 172.234375 691.976562 171.890625 C 691.121094 169.222656 690.613281 167.234375 687.652344 166.492188 C 686.464844 166.203125 684.644531 166.148438 682.132812 166.148438 L 678.039062 166.148438 C 676.347656 166.148438 676.347656 166.265625 676.347656 168.425781 L 676.347656 179.796875 C 676.347656 181.394531 676.515625 181.394531 678.210938 181.394531 L 681.519531 181.394531 C 683.898438 181.394531 685.667969 181.277344 686.34375 181.050781 C 687.039062 180.820312 687.433594 180.476562 687.71875 179.054688 L 688.175781 176.722656 C 688.453125 176.382812 689.410156 176.382812 689.644531 176.777344 C 689.644531 178.152344 689.410156 180.371094 689.410156 182.53125 C 689.410156 184.574219 689.644531 186.746094 689.644531 187.980469 C 689.410156 188.382812 688.453125 188.382812 688.175781 188.042969 L 687.652344 185.832031 C 687.433594 184.808594 687.039062 183.957031 685.898438 183.671875 C 685.101562 183.4375 683.730469 183.382812 681.519531 183.382812 L 678.210938 183.382812 C 676.515625 183.382812 676.347656 183.4375 676.347656 184.921875 L 676.347656 192.933594 C 676.347656 195.949219 676.515625 197.882812 677.410156 198.839844 C 678.097656 199.523438 679.292969 200.152344 684.304688 200.152344 C 688.683594 200.152344 690.324219 199.929688 691.582031 199.300781 C 692.605469 198.734375 694.136719 196.742188 695.613281 193.789062 C 696.019531 193.5 696.816406 193.667969 697.035156 194.191406 C 696.640625 196.179688 695.21875 200.550781 694.476562 202.085938 C 689.359375 201.980469 684.304688 201.914062 679.238281 201.914062 L 674.121094 201.914062 C 671.675781 201.914062 669.738281 201.980469 666.378906 202.085938 C 666.035156 201.914062 665.929688 201.011719 666.269531 200.671875 L 668.140625 200.492188 C 671.390625 200.210938 671.675781 199.355469 671.675781 193.394531 Z M 671.675781 172.925781 " fill-opacity="1" fill-rule="nonzero"></path><path fill="#ffffff" d="M 733.296875 172.980469 C 733.296875 167.574219 733.128906 166.605469 730.800781 166.316406 L 728.980469 166.097656 C 728.585938 165.808594 728.585938 164.894531 729.042969 164.667969 C 732.214844 164.378906 736.152344 164.210938 741.710938 164.210938 C 745.246094 164.210938 748.59375 164.5 751.214844 165.921875 C 753.9375 167.339844 755.929688 169.90625 755.929688 173.890625 C 755.929688 179.289062 751.671875 182.242188 748.828125 183.382812 C 748.546875 183.722656 748.828125 184.292969 749.109375 184.753906 C 753.652344 192.085938 756.671875 196.636719 760.542969 199.875 C 761.511719 200.722656 762.933594 201.351562 764.46875 201.460938 C 764.757812 201.574219 764.804688 202.035156 764.523438 202.253906 C 764.011719 202.425781 763.101562 202.542969 762.023438 202.542969 C 757.179688 202.542969 754.28125 201.117188 750.257812 195.382812 C 748.769531 193.273438 746.4375 189.351562 744.671875 186.796875 C 743.820312 185.542969 742.90625 184.980469 740.640625 184.980469 C 738.074219 184.980469 737.96875 185.027344 737.96875 186.230469 L 737.96875 193.394531 C 737.96875 199.355469 738.074219 200.042969 741.382812 200.492188 L 742.566406 200.671875 C 742.90625 200.945312 742.800781 201.914062 742.460938 202.085938 C 739.90625 201.980469 737.96875 201.914062 735.691406 201.914062 C 733.296875 201.914062 731.246094 201.980469 728.585938 202.085938 C 728.246094 201.914062 728.125 201.066406 728.46875 200.671875 L 729.882812 200.492188 C 733.183594 200.097656 733.296875 199.355469 733.296875 193.394531 Z M 737.96875 181.105469 C 737.96875 182.128906 737.96875 182.753906 738.136719 182.988281 C 738.308594 183.15625 739.160156 183.265625 742.058594 183.265625 C 744.109375 183.265625 746.269531 183.042969 747.917969 181.785156 C 749.449219 180.597656 750.757812 178.605469 750.757812 174.742188 C 750.757812 170.246094 747.980469 165.976562 741.652344 165.976562 C 738.136719 165.976562 737.96875 166.203125 737.96875 167.800781 Z M 737.96875 181.105469 " fill-opacity="1" fill-rule="nonzero"></path><path fill="#ffffff" d="M 802.023438 202.828125 C 797.253906 202.828125 794.234375 201.351562 793.148438 200.722656 C 792.46875 199.46875 791.734375 195.4375 791.613281 192.765625 C 791.902344 192.363281 792.753906 192.25 792.988281 192.59375 C 793.839844 195.496094 796.171875 201.0625 802.765625 201.0625 C 807.542969 201.0625 809.882812 197.945312 809.882812 194.527344 C 809.882812 192.023438 809.363281 189.230469 805.210938 186.570312 L 799.820312 183.042969 C 796.964844 181.15625 793.671875 177.921875 793.671875 173.265625 C 793.671875 167.859375 797.882812 163.476562 805.265625 163.476562 C 807.03125 163.476562 809.074219 163.816406 810.5625 164.210938 C 811.296875 164.445312 812.085938 164.550781 812.542969 164.550781 C 813.054688 165.921875 813.566406 169.101562 813.566406 171.496094 C 813.34375 171.835938 812.429688 172.007812 812.148438 171.667969 C 811.414062 168.933594 809.882812 165.234375 804.414062 165.234375 C 798.851562 165.234375 797.648438 168.933594 797.648438 171.550781 C 797.648438 174.855469 800.375 177.234375 802.480469 178.539062 L 807.03125 181.390625 C 810.617188 183.605469 814.140625 186.902344 814.140625 192.304688 C 814.140625 198.5625 809.421875 202.828125 802.023438 202.828125 " fill-opacity="1" fill-rule="nonzero"></path><path fill="#ffffff" d="M 852.796875 173.03125 C 852.796875 167 852.691406 166.03125 849.328125 165.753906 L 847.902344 165.636719 C 847.558594 165.402344 847.679688 164.378906 848.019531 164.210938 C 850.867188 164.328125 852.796875 164.378906 855.1875 164.378906 C 857.46875 164.378906 859.390625 164.328125 862.242188 164.210938 C 862.582031 164.378906 862.699219 165.402344 862.347656 165.636719 L 860.921875 165.753906 C 857.582031 166.03125 857.46875 167 857.46875 173.03125 L 857.46875 193.273438 C 857.46875 199.300781 857.582031 200.09375 860.921875 200.488281 L 862.347656 200.667969 C 862.699219 200.890625 862.582031 201.914062 862.242188 202.085938 C 859.390625 201.980469 857.46875 201.914062 855.1875 201.914062 C 852.796875 201.914062 850.867188 201.980469 848.019531 202.085938 C 847.679688 201.914062 847.558594 201.011719 847.902344 200.667969 L 849.328125 200.488281 C 852.691406 200.09375 852.796875 199.300781 852.796875 193.273438 Z M 852.796875 173.03125 " fill-opacity="1" fill-rule="nonzero"></path><path fill="#ffffff" d="M 915.9375 193.394531 C 915.9375 199.355469 916.042969 200.210938 919.332031 200.492188 L 921.164062 200.671875 C 921.503906 200.894531 921.382812 201.914062 921.042969 202.089844 C 917.800781 201.980469 915.871094 201.914062 913.597656 201.914062 C 911.320312 201.914062 909.332031 201.980469 905.683594 202.089844 C 905.339844 201.914062 905.234375 200.945312 905.683594 200.671875 L 907.734375 200.492188 C 910.980469 200.210938 911.265625 199.355469 911.265625 193.394531 L 911.265625 167.96875 C 911.265625 166.203125 911.265625 166.152344 909.554688 166.152344 L 906.429688 166.152344 C 903.988281 166.152344 900.863281 166.265625 899.433594 167.574219 C 898.074219 168.828125 897.5 170.074219 896.875 171.5 C 896.425781 171.839844 895.617188 171.550781 895.390625 171.105469 C 896.308594 168.542969 897.160156 164.894531 897.554688 162.628906 C 897.734375 162.515625 898.46875 162.457031 898.636719 162.628906 C 898.980469 164.445312 900.863281 164.386719 903.476562 164.386719 L 926.511719 164.386719 C 929.578125 164.386719 930.085938 164.273438 930.941406 162.796875 C 931.226562 162.691406 931.855469 162.742188 931.960938 162.96875 C 931.332031 165.296875 930.941406 169.90625 931.109375 171.617188 C 930.886719 172.066406 929.917969 172.066406 929.628906 171.722656 C 929.457031 170.308594 929.054688 168.203125 928.214844 167.574219 C 926.90625 166.605469 924.746094 166.152344 921.609375 166.152344 L 917.574219 166.152344 C 915.871094 166.152344 915.9375 166.203125 915.9375 168.082031 Z M 915.9375 193.394531 " fill-opacity="1" fill-rule="nonzero"></path><path fill="#ffffff" d="M 980.742188 193.273438 C 980.742188 199.351562 981.082031 200.261719 984.15625 200.488281 L 986.328125 200.667969 C 986.65625 201.011719 986.550781 201.914062 986.207031 202.085938 C 982.679688 201.972656 980.742188 201.914062 978.464844 201.914062 C 976.070312 201.914062 974.039062 201.972656 971.019531 202.085938 C 970.679688 201.914062 970.558594 201.011719 970.898438 200.667969 L 972.675781 200.488281 C 975.964844 200.148438 976.070312 199.351562 976.070312 193.273438 L 976.070312 190.371094 C 976.070312 187.246094 975.902344 186.507812 974.261719 183.328125 L 967.550781 170.238281 C 965.613281 166.488281 964.765625 166.203125 963.058594 165.921875 L 961.464844 165.636719 C 961.125 165.234375 961.183594 164.445312 961.578125 164.210938 C 963.390625 164.324219 965.445312 164.378906 968.179688 164.378906 C 970.792969 164.378906 972.835938 164.324219 974.261719 164.210938 C 974.773438 164.378906 974.773438 165.292969 974.433594 165.636719 L 973.699219 165.753906 C 971.707031 166.03125 971.304688 166.316406 971.304688 166.777344 C 971.304688 167.339844 972.785156 170.585938 973.070312 171.15625 C 975.167969 175.359375 977.273438 179.847656 979.5 183.785156 C 981.25 180.761719 983.132812 177.46875 984.839844 174.167969 C 986.433594 171.207031 988.53125 167.339844 988.53125 166.65625 C 988.53125 166.316406 987.511719 165.921875 986.148438 165.753906 L 985.125 165.636719 C 984.730469 165.234375 984.785156 164.445312 985.238281 164.210938 C 987.277344 164.324219 988.933594 164.378906 990.691406 164.378906 C 992.457031 164.378906 994.050781 164.324219 995.984375 164.210938 C 996.445312 164.5 996.5 165.292969 996.105469 165.636719 L 994.507812 165.921875 C 991.546875 166.429688 989.835938 170.019531 986.996094 174.910156 L 983.421875 181.105469 C 980.910156 185.433594 980.742188 185.941406 980.742188 190.316406 Z M 980.742188 193.273438 " fill-opacity="1" fill-rule="nonzero"></path><path fill="#ffffff" d="M 219.214844 41.671875 C 219.070312 41.394531 210.246094 37.023438 210.246094 37.023438 C 199.027344 34.671875 180.539062 35.703125 167.648438 40.441406 L 167.601562 40.441406 C 154.703125 35.703125 136.234375 34.671875 125.011719 37.023438 C 125.011719 37.023438 116.179688 41.394531 116.046875 41.671875 L 102.375 71.847656 C 101.929688 72.6875 102.632812 73.402344 103.40625 73.246094 C 124.191406 69.300781 148.0625 68.085938 167.617188 68.085938 L 167.632812 68.085938 C 187.183594 68.085938 211.058594 69.300781 231.839844 73.246094 C 232.625 73.402344 233.316406 72.6875 232.875 71.847656 Z M 164.394531 63.394531 C 149.578125 62.808594 124.007812 62.808594 111.1875 67.394531 L 120.300781 44.589844 L 126.511719 41.269531 L 119.917969 60.054688 C 133.273438 57.53125 148.050781 56.589844 164.429688 61.949219 Z M 170.644531 63.394531 L 170.644531 61.949219 C 187.015625 56.589844 201.800781 57.53125 215.15625 60.054688 L 208.527344 41.269531 L 214.746094 44.589844 L 223.859375 67.394531 C 211.695312 62.8125 186.121094 62.8125 170.644531 63.394531 " fill-opacity="1" fill-rule="nonzero"></path><g clip-path="url(#61a074c272)"><path fill="#ffffff" d="M 252.382812 30.390625 L 252.292969 30.351562 L 251.707031 30.21875 C 224.183594 24.332031 195.894531 21.351562 167.625 21.351562 C 139.339844 21.351562 111.015625 24.339844 83.441406 30.238281 L 83.171875 30.292969 L 82.914062 30.375 C 78.503906 31.464844 75.265625 35.601562 75.265625 40.386719 L 75.273438 55.371094 C 75.273438 163.421875 142.136719 207.257812 162.628906 218.117188 C 164.265625 218.988281 165.96875 219.433594 167.65625 219.433594 C 169.355469 219.433594 171.039062 218.988281 172.664062 218.101562 C 193.101562 207.269531 259.980469 163.421875 259.980469 55.371094 L 259.980469 40.386719 C 259.980469 35.714844 256.835938 31.613281 252.382812 30.390625 M 163.859375 211.898438 C 141.261719 199.433594 95.886719 164.070312 84.152344 91.570312 L 84.703125 91.453125 C 110.539062 86 137.152344 83.136719 163.859375 82.882812 Z M 235.339844 142.410156 C 235.328125 142.429688 235.3125 142.464844 235.300781 142.488281 C 230.5 152.433594 225.070312 161.246094 219.355469 168.976562 C 219.339844 168.992188 219.339844 168.996094 219.335938 168.996094 C 214.132812 176.03125 208.730469 182.222656 203.355469 187.558594 L 203.355469 158.328125 L 187.371094 147.691406 L 187.371094 201.445312 C 181.429688 205.929688 175.953125 209.390625 171.398438 211.898438 L 171.398438 137.050781 L 187.371094 147.691406 L 187.371094 110.492188 L 203.355469 121.121094 L 203.355469 84.4375 C 208.699219 84.910156 214.03125 85.460938 219.335938 86.144531 L 219.335938 131.753906 L 235.300781 142.382812 L 235.300781 88.558594 C 240.410156 89.429688 245.5 90.363281 250.5625 91.429688 L 251.105469 91.550781 C 247.941406 111.125 242.316406 127.96875 235.339844 142.410156 M 171.398438 99.847656 L 171.398438 82.882812 C 176.730469 82.929688 182.054688 83.066406 187.371094 83.328125 L 187.371094 110.488281 Z M 253.9375 55.371094 C 253.9375 65.210938 253.34375 74.5 252.273438 83.285156 C 196.832031 71.578125 138.503906 71.578125 82.988281 83.3125 C 81.914062 74.511719 81.316406 65.214844 81.316406 55.371094 L 81.308594 40.382812 C 81.308594 38.351562 82.707031 36.648438 84.601562 36.175781 L 84.703125 36.144531 C 111.445312 30.421875 139.183594 27.386719 167.625 27.386719 C 196.035156 27.386719 223.734375 30.417969 250.433594 36.121094 L 250.496094 36.144531 C 252.476562 36.546875 253.949219 38.296875 253.949219 40.382812 Z M 253.9375 55.371094 " fill-opacity="1" fill-rule="nonzero"></path></g><path fill="#ffffff" d="M 219.335938 131.753906 L 203.355469 121.125 L 203.355469 158.328125 L 219.335938 168.960938 Z M 219.335938 131.753906 " fill-opacity="1" fill-rule="nonzero"></path><path fill="#ffffff" d="M 129.675781 155.195312 C 145.800781 155.195312 158.925781 142.074219 158.925781 125.949219 C 158.925781 109.820312 145.800781 96.703125 129.675781 96.703125 C 113.550781 96.703125 100.433594 109.820312 100.433594 125.949219 C 100.433594 142.078125 113.550781 155.195312 129.675781 155.195312 M 135 150.945312 C 137.253906 148.507812 139.941406 144.949219 141.972656 140.324219 C 144.792969 140.929688 147.207031 141.679688 149.183594 142.429688 C 145.585938 146.6875 140.632812 149.746094 135 150.945312 M 151.394531 139.351562 C 149.234375 138.472656 146.527344 137.558594 143.277344 136.832031 C 144.140625 134.109375 144.730469 131.105469 144.902344 127.796875 L 155.144531 127.796875 C 154.835938 132.015625 153.511719 135.941406 151.394531 139.351562 M 151.394531 112.558594 C 153.511719 115.972656 154.835938 119.890625 155.144531 124.109375 L 144.902344 124.109375 C 144.730469 120.8125 144.140625 117.792969 143.277344 115.082031 C 146.539062 114.34375 149.234375 113.433594 151.394531 112.558594 M 149.183594 109.472656 C 147.207031 110.226562 144.792969 110.980469 141.972656 111.589844 C 139.941406 106.949219 137.253906 103.402344 135 100.960938 C 140.632812 102.160156 145.585938 105.222656 149.183594 109.472656 M 131.515625 102.667969 C 133.507812 104.714844 136.152344 107.945312 138.191406 112.25 C 136.132812 112.546875 133.90625 112.742188 131.515625 112.808594 Z M 131.515625 116.503906 C 134.429688 116.421875 137.140625 116.164062 139.605469 115.773438 C 140.441406 118.273438 141.023438 121.054688 141.207031 124.109375 L 131.515625 124.109375 Z M 131.515625 127.792969 L 141.207031 127.792969 C 141.023438 130.84375 140.441406 133.625 139.589844 136.128906 C 137.136719 135.730469 134.429688 135.484375 131.515625 135.398438 Z M 131.515625 139.097656 C 133.902344 139.171875 136.121094 139.363281 138.171875 139.65625 C 136.136719 143.949219 133.503906 147.179688 131.515625 149.214844 Z M 110.171875 142.429688 C 112.148438 141.679688 114.570312 140.929688 117.386719 140.316406 C 119.425781 144.953125 122.125 148.519531 124.382812 150.953125 C 118.722656 149.757812 113.773438 146.691406 110.171875 142.429688 M 127.828125 149.191406 C 125.839844 147.132812 123.226562 143.910156 121.191406 139.648438 C 123.242188 139.359375 125.453125 139.167969 127.828125 139.09375 Z M 127.828125 135.402344 C 124.917969 135.492188 122.230469 135.734375 119.777344 136.125 C 118.925781 133.628906 118.339844 130.847656 118.164062 127.796875 L 127.828125 127.796875 Z M 127.828125 124.109375 L 118.164062 124.109375 C 118.339844 121.058594 118.925781 118.277344 119.777344 115.773438 C 122.230469 116.164062 124.917969 116.421875 127.828125 116.503906 Z M 127.828125 112.808594 C 125.453125 112.742188 123.242188 112.546875 121.191406 112.253906 C 123.226562 107.988281 125.839844 104.761719 127.828125 102.710938 Z M 124.382812 100.953125 C 122.125 103.394531 119.425781 106.945312 117.386719 111.589844 C 114.570312 110.980469 112.148438 110.21875 110.175781 109.46875 C 113.777344 105.214844 118.726562 102.148438 124.382812 100.953125 M 107.953125 112.558594 C 110.121094 113.433594 112.824219 114.34375 116.09375 115.082031 C 115.222656 117.792969 114.636719 120.8125 114.464844 124.109375 L 104.210938 124.109375 C 104.507812 119.890625 105.84375 115.964844 107.953125 112.558594 M 104.210938 127.792969 L 114.464844 127.792969 C 114.636719 131.09375 115.222656 134.105469 116.085938 136.820312 C 112.824219 137.554688 110.121094 138.46875 107.953125 139.34375 C 105.839844 135.941406 104.507812 132.015625 104.210938 127.792969 " fill-opacity="1" fill-rule="nonzero"></path><g clip-path="url(#617e836e6e)"><path fill="#ffffff" d="M 312.765625 62.320312 C 312.765625 47.824219 311.46875 46.261719 303.757812 45.605469 L 300.5 45.347656 C 299.714844 44.824219 299.976562 42.476562 300.761719 42.085938 C 308.328125 42.34375 312.765625 42.476562 318.25 42.476562 C 323.476562 42.476562 327.914062 42.34375 333.136719 42.085938 C 333.914062 42.476562 334.175781 44.824219 333.394531 45.347656 L 331.4375 45.605469 C 323.738281 46.65625 323.476562 48.472656 323.476562 62.320312 L 323.476562 110.753906 C 323.476562 121.058594 322.949219 130.066406 320.476562 136.070312 C 316.160156 146.523438 306.898438 154.871094 294.75 154.871094 C 293.191406 154.871094 289.144531 154.738281 289.144531 152.128906 C 289.144531 149.90625 291.09375 146.117188 293.835938 146.117188 C 295.40625 146.117188 296.976562 146.375 298.671875 146.90625 C 300.5 147.425781 302.328125 147.820312 304.152344 147.820312 C 306.898438 147.820312 308.464844 146.25 309.378906 144.425781 C 312.378906 138.285156 312.765625 118.710938 312.765625 111.65625 Z M 312.765625 62.320312 " fill-opacity="1" fill-rule="nonzero"></path></g><path fill="#ffffff" d="M 333.121094 93.058594 C 333.121094 71.039062 349.644531 54.1875 372.328125 54.1875 C 397.765625 54.1875 410.542969 72.578125 410.542969 91.957031 C 410.542969 114.203125 393.582031 130.386719 372.328125 130.386719 C 347.882812 130.386719 333.121094 112.882812 333.121094 93.058594 M 399.527344 95.371094 C 399.527344 77.207031 391.492188 57.601562 370.460938 57.601562 C 359 57.601562 344.136719 65.421875 344.136719 89.539062 C 344.136719 105.832031 352.066406 126.984375 373.757812 126.984375 C 386.980469 126.984375 399.527344 117.070312 399.527344 95.371094 " fill-opacity="1" fill-rule="nonzero"></path><path fill="#ffffff" d="M 435.558594 93.058594 C 430.273438 93.058594 430.054688 93.285156 430.054688 96.59375 L 430.054688 112.113281 C 430.054688 123.675781 430.601562 125.21875 436.769531 125.878906 L 439.960938 126.210938 C 440.625 126.648438 440.398438 128.628906 439.742188 128.960938 C 433.792969 128.734375 430.054688 128.628906 425.753906 128.628906 C 421.023438 128.628906 417.277344 128.855469 412.984375 128.960938 C 412.320312 128.628906 412.105469 126.863281 412.757812 126.210938 L 414.628906 125.878906 C 420.796875 124.777344 421.023438 123.675781 421.023438 112.113281 L 421.023438 72.464844 C 421.023438 60.902344 420.25 59.035156 414.523438 58.589844 L 411.65625 58.371094 C 410.996094 57.929688 411.21875 55.949219 411.882812 55.617188 C 417.277344 55.722656 421.023438 55.949219 425.753906 55.949219 C 430.050781 55.949219 433.792969 55.84375 438.527344 55.617188 C 439.1875 55.949219 439.414062 57.929688 438.75 58.371094 L 436.65625 58.589844 C 430.273438 59.25 430.050781 60.902344 430.050781 72.464844 L 430.050781 85.136719 C 430.050781 88.546875 430.273438 88.660156 435.558594 88.660156 L 467.054688 88.660156 C 472.34375 88.660156 472.566406 88.546875 472.566406 85.136719 L 472.566406 72.464844 C 472.566406 60.902344 472.34375 59.25 465.84375 58.589844 L 463.757812 58.371094 C 463.089844 57.929688 463.308594 55.949219 463.972656 55.617188 C 469.035156 55.84375 472.78125 55.949219 477.296875 55.949219 C 481.59375 55.949219 485.335938 55.84375 490.292969 55.617188 C 490.945312 55.949219 491.167969 57.929688 490.519531 58.371094 L 488.195312 58.589844 C 481.816406 59.25 481.59375 60.902344 481.59375 72.464844 L 481.59375 112.113281 C 481.59375 123.675781 481.816406 125.105469 488.195312 125.878906 L 490.839844 126.210938 C 491.5 126.648438 491.28125 128.628906 490.613281 128.960938 C 485.335938 128.734375 481.59375 128.628906 477.296875 128.628906 C 472.78125 128.628906 468.824219 128.738281 463.972656 128.960938 C 463.308594 128.628906 463.089844 126.863281 463.757812 126.210938 L 465.84375 125.878906 C 472.566406 124.777344 472.566406 123.675781 472.566406 112.113281 L 472.566406 96.59375 C 472.566406 93.285156 472.34375 93.058594 467.054688 93.058594 Z M 435.558594 93.058594 " fill-opacity="1" fill-rule="nonzero"></path><path fill="#ffffff" d="M 566.070312 109.910156 C 566.070312 113.21875 566.070312 126.316406 566.390625 129.175781 C 566.175781 129.84375 565.515625 130.386719 564.304688 130.386719 C 562.988281 128.523438 559.789062 124.671875 550.207031 113.765625 L 524.65625 84.691406 C 521.6875 81.277344 514.195312 72.246094 511.882812 69.832031 L 511.671875 69.832031 C 511.222656 71.148438 511.113281 73.679688 511.113281 76.980469 L 511.113281 100.992188 C 511.113281 106.164062 511.222656 120.484375 513.09375 123.78125 C 513.761719 125 515.960938 125.65625 518.714844 125.878906 L 522.128906 126.210938 C 522.789062 127.089844 522.675781 128.414062 521.90625 128.960938 C 516.949219 128.742188 513.09375 128.628906 509.023438 128.628906 C 504.394531 128.628906 501.425781 128.742188 497.570312 128.960938 C 496.800781 128.414062 496.695312 126.863281 497.347656 126.210938 L 500.324219 125.878906 C 502.851562 125.546875 504.613281 124.886719 505.175781 123.675781 C 506.703125 119.714844 506.597656 106.28125 506.597656 100.992188 L 506.597656 69.167969 C 506.597656 66.078125 506.492188 63.761719 504.179688 61.238281 C 502.636719 59.695312 499.992188 58.921875 497.347656 58.589844 L 495.472656 58.375 C 494.8125 57.714844 494.8125 56.066406 495.699219 55.617188 C 500.324219 55.949219 506.15625 55.949219 508.140625 55.949219 C 509.90625 55.949219 511.777344 55.84375 513.210938 55.617188 C 515.40625 61.238281 528.402344 75.773438 532.042969 79.851562 L 542.722656 91.847656 C 550.3125 100.328125 555.710938 106.496094 560.890625 111.78125 L 561.117188 111.78125 C 561.554688 111.234375 561.554688 109.46875 561.554688 107.15625 L 561.554688 83.589844 C 561.554688 78.414062 561.445312 64.101562 559.347656 60.792969 C 558.6875 59.800781 556.929688 59.140625 552.519531 58.589844 L 550.648438 58.375 C 549.878906 57.714844 549.992188 55.949219 550.867188 55.617188 C 555.933594 55.84375 559.679688 55.949219 563.867188 55.949219 C 568.597656 55.949219 571.457031 55.84375 575.203125 55.617188 C 576.09375 56.171875 576.09375 57.714844 575.425781 58.375 L 573.886719 58.589844 C 570.367188 59.140625 568.160156 60.027344 567.71875 60.902344 C 565.847656 64.867188 566.070312 78.523438 566.070312 83.589844 Z M 566.070312 109.910156 " fill-opacity="1" fill-rule="nonzero"></path><path fill="#ffffff" d="M 595.175781 130.386719 C 585.917969 130.386719 580.085938 127.53125 577.996094 126.316406 C 576.671875 123.890625 575.234375 116.078125 575.019531 110.90625 C 575.570312 110.125 577.226562 109.910156 577.667969 110.574219 C 579.3125 116.183594 583.828125 126.984375 596.605469 126.984375 C 605.851562 126.984375 610.371094 120.921875 610.371094 114.320312 C 610.371094 109.46875 609.382812 104.078125 601.335938 98.898438 L 590.878906 92.066406 C 585.371094 88.433594 578.984375 82.152344 578.984375 73.128906 C 578.984375 62.664062 587.136719 54.191406 601.449219 54.191406 C 604.863281 54.191406 608.828125 54.851562 611.695312 55.617188 C 613.117188 56.066406 614.660156 56.28125 615.535156 56.28125 C 616.53125 58.921875 617.527344 65.09375 617.527344 69.714844 C 617.089844 70.378906 615.324219 70.703125 614.769531 70.046875 C 613.34375 64.757812 610.371094 57.601562 599.792969 57.601562 C 589 57.601562 586.6875 64.757812 586.6875 69.832031 C 586.6875 76.210938 591.980469 80.835938 596.054688 83.375 L 604.863281 88.875 C 611.800781 93.171875 618.628906 99.558594 618.628906 110.019531 C 618.628906 122.132812 609.488281 130.386719 595.175781 130.386719 " fill-opacity="1" fill-rule="nonzero"></path><g clip-path="url(#5db7136953)"><path fill="#ffffff" d="M 683.996094 86.472656 C 677.730469 86.472656 677.472656 86.722656 677.472656 90.636719 L 677.472656 109.046875 C 677.472656 122.75 678.117188 124.578125 685.425781 125.367188 L 689.222656 125.761719 C 690.003906 126.28125 689.742188 128.628906 688.953125 129.011719 C 681.90625 128.753906 677.46875 128.628906 672.382812 128.628906 C 666.761719 128.628906 662.324219 128.886719 657.234375 129.011719 C 656.445312 128.628906 656.183594 126.539062 656.972656 125.761719 L 659.1875 125.367188 C 666.5 124.054688 666.761719 122.75 666.761719 109.046875 L 666.761719 62.050781 C 666.761719 48.34375 665.847656 46.125 659.0625 45.605469 L 655.664062 45.34375 C 654.886719 44.824219 655.148438 42.472656 655.925781 42.082031 C 662.324219 42.210938 666.761719 42.472656 672.382812 42.472656 C 677.46875 42.472656 681.90625 42.34375 687.519531 42.082031 C 688.304688 42.472656 688.566406 44.824219 687.777344 45.34375 L 685.292969 45.605469 C 677.730469 46.394531 677.46875 48.34375 677.46875 62.050781 L 677.46875 77.0625 C 677.46875 81.113281 677.730469 81.234375 683.996094 81.234375 L 721.332031 81.234375 C 727.597656 81.234375 727.859375 81.113281 727.859375 77.0625 L 727.859375 62.050781 C 727.859375 48.34375 727.597656 46.394531 719.886719 45.605469 L 717.40625 45.34375 C 716.625 44.824219 716.886719 42.472656 717.675781 42.082031 C 723.667969 42.34375 728.117188 42.472656 733.464844 42.472656 C 738.558594 42.472656 743 42.34375 748.875 42.082031 C 749.65625 42.472656 749.921875 44.824219 749.132812 45.34375 L 746.394531 45.605469 C 738.824219 46.394531 738.558594 48.34375 738.558594 62.050781 L 738.558594 109.046875 C 738.558594 122.75 738.824219 124.449219 746.394531 125.367188 L 749.527344 125.761719 C 750.308594 126.28125 750.050781 128.628906 749.261719 129.011719 C 743 128.753906 738.558594 128.628906 733.464844 128.628906 C 728.117188 128.628906 723.421875 128.753906 717.675781 129.011719 C 716.886719 128.628906 716.625 126.539062 717.40625 125.761719 L 719.886719 125.367188 C 727.859375 124.054688 727.859375 122.75 727.859375 109.046875 L 727.859375 90.636719 C 727.859375 86.722656 727.597656 86.472656 721.332031 86.472656 Z M 683.996094 86.472656 " fill-opacity="1" fill-rule="nonzero"></path></g><path fill="#ffffff" d="M 748.699219 93.058594 C 748.699219 71.039062 765.230469 54.1875 787.902344 54.1875 C 813.347656 54.1875 826.117188 72.578125 826.117188 91.957031 C 826.117188 114.203125 809.160156 130.386719 787.902344 130.386719 C 763.464844 130.386719 748.699219 112.882812 748.699219 93.058594 M 815.105469 95.371094 C 815.105469 77.207031 807.074219 57.601562 786.03125 57.601562 C 774.585938 57.601562 759.71875 65.421875 759.71875 89.539062 C 759.71875 105.832031 767.648438 126.984375 789.339844 126.984375 C 802.558594 126.984375 815.105469 117.070312 815.105469 95.371094 " fill-opacity="1" fill-rule="nonzero"></path><path fill="#ffffff" d="M 846.050781 112.113281 C 846.050781 123.675781 846.273438 125.105469 853.320312 125.878906 L 856.292969 126.207031 C 856.957031 126.753906 856.742188 128.628906 856.070312 128.960938 C 849.792969 128.734375 846.164062 128.628906 841.753906 128.628906 C 837.132812 128.628906 833.167969 128.738281 828.324219 128.960938 C 827.660156 128.628906 827.441406 126.863281 828.109375 126.207031 L 830.421875 125.878906 C 836.800781 125 837.023438 123.675781 837.023438 112.113281 L 837.023438 71.480469 C 837.023438 62.113281 836.800781 60.242188 831.84375 59.691406 L 827.882812 59.246094 C 827.113281 58.589844 827.21875 56.9375 828.109375 56.5 C 833.941406 55.722656 840.773438 55.613281 849.90625 55.613281 C 859.046875 55.613281 865.875 56.824219 871.054688 60.023438 C 876.121094 63.214844 879.863281 68.941406 879.863281 76.535156 C 879.863281 86.667969 873.589844 91.742188 868.851562 94.050781 C 864 96.363281 858.167969 97.351562 853.648438 97.351562 C 852.878906 97.03125 852.878906 95.371094 853.542969 95.15625 C 865.4375 92.949219 869.726562 86.226562 869.726562 76.652344 C 869.726562 65.964844 863.453125 59.035156 852 59.035156 C 846.164062 59.035156 846.050781 59.46875 846.050781 63 Z M 846.050781 112.113281 " fill-opacity="1" fill-rule="nonzero"></path><path fill="#ffffff" d="M 891.878906 72.464844 C 891.878906 60.902344 891.652344 59.140625 885.273438 58.59375 L 882.511719 58.375 C 881.855469 57.929688 882.082031 55.949219 882.738281 55.617188 C 888.132812 55.84375 891.652344 55.949219 896.609375 55.949219 C 900.902344 55.949219 904.648438 55.84375 909.386719 55.617188 C 910.042969 55.949219 910.269531 57.929688 909.605469 58.375 L 907.515625 58.59375 C 901.128906 59.25 900.902344 60.902344 900.902344 72.464844 L 900.902344 85.140625 C 900.902344 87.226562 901.128906 89.316406 902.34375 89.316406 C 903.332031 89.316406 904.648438 88.660156 905.417969 88.105469 C 906.960938 86.789062 909.828125 83.917969 911.039062 82.820312 L 922.933594 71.039062 C 925.023438 69.054688 930.421875 63.4375 931.519531 61.898438 C 932.074219 61.125 932.300781 60.574219 932.300781 60.132812 C 932.300781 59.695312 931.859375 59.367188 930.421875 59.035156 L 927.449219 58.375 C 926.679688 57.601562 926.785156 56.171875 927.664062 55.617188 C 931.519531 55.84375 935.929688 55.949219 939.777344 55.949219 C 943.632812 55.949219 947.382812 55.84375 950.675781 55.617188 C 951.457031 56.171875 951.566406 57.714844 950.902344 58.375 C 948.042969 58.59375 943.753906 59.695312 940.667969 61.457031 C 937.585938 63.214844 931.410156 68.390625 925.242188 74.234375 L 915.332031 83.589844 C 913.789062 85.140625 912.796875 86.125 912.796875 87.003906 C 912.796875 87.785156 913.457031 88.660156 914.894531 90.417969 C 925.351562 102.417969 933.832031 112.332031 942.425781 121.363281 C 945.070312 124.003906 947.074219 125.441406 950.816406 125.882812 L 952.9375 126.210938 C 953.71875 126.757812 953.496094 128.628906 952.714844 128.964844 C 949.855469 128.742188 946.835938 128.628906 941.65625 128.628906 C 937.144531 128.628906 933.28125 128.742188 928.21875 128.964844 C 927.449219 128.742188 927.117188 126.863281 927.78125 126.210938 L 930.308594 125.761719 C 931.859375 125.546875 932.949219 125.21875 932.949219 124.671875 C 932.949219 124.003906 932.179688 123.128906 931.410156 122.132812 C 929.3125 119.492188 926.453125 116.515625 922.269531 111.78125 L 913.457031 101.871094 C 907.183594 94.828125 905.417969 92.625 902.777344 92.625 C 901.128906 92.625 900.902344 94.054688 900.902344 97.910156 L 900.902344 112.117188 C 900.902344 123.675781 901.128906 125.21875 907.292969 125.882812 L 910.269531 126.210938 C 910.921875 126.652344 910.710938 128.628906 910.042969 128.964844 C 904.648438 128.742188 900.902344 128.628906 896.609375 128.628906 C 892.09375 128.628906 888.351562 128.742188 883.839844 128.964844 C 883.175781 128.628906 882.953125 126.984375 883.613281 126.210938 L 885.820312 125.882812 C 891.652344 125 891.878906 123.675781 891.878906 112.117188 Z M 891.878906 72.464844 " fill-opacity="1" fill-rule="nonzero"></path><path fill="#ffffff" d="M 967.460938 72.6875 C 967.460938 61.011719 967.246094 59.136719 960.738281 58.589844 L 957.996094 58.371094 C 957.335938 57.925781 957.550781 55.949219 958.210938 55.613281 C 963.71875 55.835938 967.460938 55.949219 972.089844 55.949219 C 976.496094 55.949219 980.242188 55.835938 985.742188 55.613281 C 986.410156 55.949219 986.625 57.925781 985.96875 58.371094 L 983.210938 58.589844 C 976.714844 59.136719 976.496094 61.011719 976.496094 72.6875 L 976.496094 111.886719 C 976.496094 123.566406 976.714844 125.105469 983.210938 125.878906 L 985.96875 126.207031 C 986.625 126.648438 986.410156 128.625 985.742188 128.960938 C 980.242188 128.734375 976.496094 128.625 972.089844 128.625 C 967.460938 128.625 964.136719 128.738281 958.632812 128.960938 C 957.972656 128.625 957.757812 126.863281 958.417969 126.207031 L 960.738281 125.878906 C 967.246094 125.105469 967.460938 123.566406 967.460938 111.886719 Z M 967.460938 72.6875 " fill-opacity="1" fill-rule="nonzero"></path><path fill="#ffffff" d="M 1062.722656 109.910156 C 1062.722656 113.21875 1062.722656 126.316406 1063.0625 129.175781 C 1062.839844 129.84375 1062.179688 130.386719 1060.964844 130.386719 C 1059.648438 128.523438 1056.453125 124.671875 1046.871094 113.765625 L 1021.320312 84.691406 C 1018.351562 81.277344 1010.859375 72.246094 1008.546875 69.832031 L 1008.328125 69.832031 C 1007.882812 71.148438 1007.773438 73.679688 1007.773438 76.980469 L 1007.773438 100.992188 C 1007.773438 106.164062 1007.882812 120.484375 1009.757812 123.78125 C 1010.421875 125 1012.625 125.65625 1015.378906 125.878906 L 1018.792969 126.210938 C 1019.445312 127.089844 1019.339844 128.414062 1018.566406 128.960938 C 1013.609375 128.742188 1009.757812 128.628906 1005.6875 128.628906 C 1001.0625 128.628906 998.085938 128.742188 994.234375 128.960938 C 993.460938 128.414062 993.347656 126.863281 994.007812 126.210938 L 996.988281 125.878906 C 999.515625 125.546875 1001.277344 124.886719 1001.832031 123.675781 C 1003.375 119.714844 1003.257812 106.28125 1003.257812 100.992188 L 1003.257812 69.167969 C 1003.257812 66.078125 1003.152344 63.761719 1000.839844 61.238281 C 999.300781 59.695312 996.65625 58.921875 994.007812 58.589844 L 992.136719 58.375 C 991.476562 57.714844 991.476562 56.066406 992.359375 55.617188 C 996.988281 55.949219 1002.820312 55.949219 1004.800781 55.949219 C 1006.566406 55.949219 1008.441406 55.84375 1009.871094 55.617188 C 1012.078125 61.238281 1025.066406 75.773438 1028.695312 79.851562 L 1039.386719 91.847656 C 1046.984375 100.328125 1052.371094 106.496094 1057.554688 111.78125 L 1057.777344 111.78125 C 1058.21875 111.234375 1058.21875 109.46875 1058.21875 107.15625 L 1058.21875 83.589844 C 1058.21875 78.414062 1058.109375 64.101562 1056.011719 60.792969 C 1055.351562 59.800781 1053.59375 59.140625 1049.191406 58.589844 L 1047.320312 58.375 C 1046.539062 57.714844 1046.65625 55.949219 1047.53125 55.617188 C 1052.597656 55.84375 1056.339844 55.949219 1060.527344 55.949219 C 1065.269531 55.949219 1068.128906 55.84375 1071.863281 55.617188 C 1072.753906 56.171875 1072.753906 57.714844 1072.089844 58.375 L 1070.546875 58.589844 C 1067.023438 59.140625 1064.820312 60.027344 1064.382812 60.902344 C 1062.507812 64.867188 1062.722656 78.523438 1062.722656 83.589844 Z M 1062.722656 109.910156 " fill-opacity="1" fill-rule="nonzero"></path><g clip-path="url(#cacf2e318b)"><path fill="#ffffff" d="M 1091.65625 130.386719 C 1082.394531 130.386719 1076.5625 127.53125 1074.464844 126.316406 C 1073.148438 123.890625 1071.714844 116.078125 1071.488281 110.90625 C 1072.046875 110.125 1073.703125 109.910156 1074.136719 110.574219 C 1075.792969 116.183594 1080.308594 126.984375 1093.082031 126.984375 C 1102.328125 126.984375 1106.847656 120.921875 1106.847656 114.320312 C 1106.847656 109.46875 1105.851562 104.078125 1097.8125 98.898438 L 1087.359375 92.066406 C 1081.851562 88.433594 1075.460938 82.152344 1075.460938 73.128906 C 1075.460938 62.664062 1083.605469 54.191406 1097.929688 54.191406 C 1101.34375 54.191406 1105.308594 54.851562 1108.175781 55.617188 C 1109.605469 56.066406 1111.140625 56.28125 1112.015625 56.28125 C 1113.011719 58.921875 1114.007812 65.09375 1114.007812 69.714844 C 1113.558594 70.378906 1111.804688 70.703125 1111.25 70.046875 C 1109.824219 64.757812 1106.847656 57.601562 1096.28125 57.601562 C 1085.480469 57.601562 1083.167969 64.757812 1083.167969 69.832031 C 1083.167969 76.210938 1088.457031 80.835938 1092.523438 83.375 L 1101.34375 88.875 C 1108.28125 93.171875 1115.109375 99.558594 1115.109375 110.019531 C 1115.109375 122.132812 1105.96875 130.386719 1091.65625 130.386719 " fill-opacity="1" fill-rule="nonzero"></path></g></svg>