<svg xmlns="http://www.w3.org/2000/svg" xmlns:xlink="http://www.w3.org/1999/xlink" width="600px" height="183px" viewBox="0 0 600 183"><title>Shape</title><g id="619---620---Degree-/-Abroad-Pages" stroke="none" stroke-width="1" fill="none" fill-rule="evenodd"><path d="M191.3,121.3 C184.4,105.8 168.9,103.6 159.2,97.1 C154.6,94 152.7,87.8 151.9,82.7 C147.3,83.2 139.7,83.3 136.1,73.8 C133.2,66.4 134.4,54.1 124.9,43.7 C116.2,34.3 105.5,31.1 95.7,31.8 C107.7,40 103,52.3 94.3,52.3 C82.1,52.3 78.7,37.4 60.9,37.4 C56.8,37.4 53.2,38.7 51,40.2 C61,41.5 63.4,49.8 66.5,57.3 C69,63.3 73.4,66.8 79.9,68.6 C78.7,69.3 75.9,70.1 72.3,70.1 C64.4,70.1 59,65.9 53.3,60 C48.3,54.8 42.8,49.9 33.5,49.9 C28.9,49.9 25.4,51.4 24.2,52.2 C29.3,53 36.8,56.1 36.8,61.6 C36.8,66.3 31.7,68.1 27.5,63.6 C22.9,58.6 16.3,54.8 8.9,54.8 C5.2,54.8 1.5,56 0,57.6 C8.8,58.6 14.1,64.4 19.6,77.3 C22.7,84.6 27.1,91.5 38.2,91.6 C43.2,91.7 50.4,89.2 54.6,93.3 C58.6,97.2 57.2,102.3 59.1,106.4 C61.4,111.6 66.1,114.3 75.4,114.8 C67.7,121.4 49.3,117.4 43,110.7 C43.8,127.5 56.8,142.5 82.6,135.5 C87.1,134.3 90.3,135 92,139.6 C94.4,145.9 100,147 105.3,146.3 C117.4,144.8 124.6,147.3 131.6,155.7 C133.1,141.6 123.3,133.4 117.1,129.5 C111.2,125.7 110.6,121.8 110.5,118.8 C114.8,123.8 120.3,125.9 126.1,126.7 C136.1,128.1 143.3,131 147.1,136.4 C148.2,121 132.3,117.5 130.3,111 C135.3,114.3 139,115.5 144.2,115.1 C151.2,114.6 159.6,109 165.9,119.9 C173.9,114.8 184.3,116.6 191.3,121.3 Z M104.6,100.4 L86.7,100.4 L86.7,82.1 L104.6,82.1 L104.6,100.4 Z M86.7,18.3 L104.6,18.3 L104.6,0 L86.7,0 C86.7,0 86.7,18.3 86.7,18.3 Z M104.6,164.3 L86.7,164.3 L86.7,182.6 L104.6,182.6 L104.6,164.3 Z M232.7,107.2 C238.5,107.2 242.4,103.9 242.4,96.9 L242.4,81.6 L237.2,81.6 L237.2,97.2 C237.2,100.7 235.5,102.4 232.8,102.4 C230.1,102.4 228.4,100.6 228.4,97.1 L228.4,81.6 L223.2,81.6 L223.2,97 C223.2,103.8 226.9,107.2 232.7,107.2 L232.7,107.2 Z M245.7,106.8 L250.8,106.8 L250.8,91.6 L260.8,106.8 L265.3,106.8 L265.3,81.6 L260.2,81.6 L260.2,96.3 L250.5,81.6 L245.7,81.6 L245.7,106.8 L245.7,106.8 Z M269.1,106.8 L274.3,106.8 L274.3,81.6 L269.1,81.6 L269.1,106.8 L269.1,106.8 Z M284.4,107 L289.2,107 L297.7,81.6 L292.2,81.6 L286.9,99 L281.6,81.6 L275.9,81.6 L284.4,107 L284.4,107 Z M299.1,106.8 L315.5,106.8 L315.5,102.1 L304.3,102.1 L304.3,96.5 L314,96.5 L314,91.8 L304.3,91.8 L304.3,86.4 L315.4,86.4 L315.4,81.7 L299.1,81.7 C299.1,81.6 299.1,106.8 299.1,106.8 Z M318.4,106.8 L323.6,106.8 L323.6,98.5 L326.9,98.5 L331.6,106.8 L337.6,106.8 L332.2,97.4 C335,96.2 336.9,93.8 336.9,89.9 L336.9,89.8 C336.9,87.3 336.1,85.3 334.8,84 C333.2,82.4 330.9,81.6 327.9,81.6 L318.4,81.6 L318.4,106.8 L318.4,106.8 Z M323.7,93.9 L323.7,86.3 L327.5,86.3 C330.2,86.3 331.7,87.6 331.7,90.1 L331.7,90.1 C331.7,92.4 330.3,93.9 327.6,93.9 L323.7,93.9 L323.7,93.9 L323.7,93.9 Z M347.2,107.1 C352.1,107.1 355.7,104.2 355.7,99.5 L355.7,99.4 C355.7,95.5 353.3,93.6 348.9,91.9 C345,90.3 344.1,89.6 344.1,88.2 L344.1,88.2 C344.1,86.9 345.2,86 347,86 C348.9,86 350.8,87 352.4,88.3 L355.3,84.3 C353,82.2 350.1,81.2 347.2,81.2 C342.3,81.2 338.9,84.2 338.9,88.6 L338.9,88.7 C338.9,93 341.7,94.7 346.1,96.5 C349.7,97.9 350.4,98.7 350.4,99.9 L350.4,99.9 C350.4,101.4 349.2,102.4 347.2,102.4 C344.7,102.4 342.6,101 340.9,99.6 L337.8,103.4 C340.7,106 344,107.1 347.2,107.1 L347.2,107.1 Z M357.7,106.8 L362.9,106.8 L362.9,81.6 L357.7,81.6 L357.7,106.8 Z M371.1,106.8 L376.3,106.8 L376.3,86.4 L382.7,86.4 L382.7,81.6 L364.8,81.6 L364.8,86.4 L371.1,86.4 L371.1,106.8 L371.1,106.8 Z M391.2,106.8 L396.4,106.8 L396.4,96.8 L404.6,81.6 L398.8,81.6 L393.8,91.5 L388.8,81.6 L382.9,81.6 L391.1,96.9 L391.2,106.8 L391.2,106.8 Z M422.6,107.2 C429.3,107.2 434,101.9 434,94.3 L434,93.9 C434,86.4 429.3,81.1 422.6,81.1 C415.9,81.1 411.2,86.4 411.2,94 L411.2,94.4 C411.2,102 415.8,107.2 422.6,107.2 Z M422.6,102.4 C419.1,102.4 416.5,99.3 416.5,94.3 L416.5,94.1 C416.5,89.1 419,86 422.5,86 C426,86 428.5,89.1 428.5,94.1 L428.5,94.3 C428.6,99.3 426.1,102.4 422.6,102.4 L422.6,102.4 Z M436.1,106.8 L441.3,106.8 L441.3,96.8 L451,96.8 L451,92 L441.3,92 L441.3,86.3 L452.3,86.3 L452.3,81.5 L436,81.5 L436,106.8 L436.1,106.8 Z M462.5,106.8 L467.7,106.8 L467.7,96.5 L476,96.5 L476,106.8 L481.2,106.8 L481.2,81.6 L476,81.6 L476,91.7 L467.7,91.7 L467.7,81.6 L462.5,81.6 L462.5,106.8 L462.5,106.8 Z M485,106.8 L501.4,106.8 L501.4,102.1 L490.2,102.1 L490.2,96.5 L499.9,96.5 L499.9,91.8 L490.2,91.8 L490.2,86.4 L501.3,86.4 L501.3,81.7 L485,81.7 L485,106.8 L485,106.8 L485,106.8 Z M504.3,106.8 L519.7,106.8 L519.7,102 L509.5,102 L509.5,81.6 L504.3,81.6 L504.3,106.8 L504.3,106.8 Z M529.9,107.1 C534.8,107.1 538.4,104.2 538.4,99.5 L538.4,99.4 C538.4,95.5 536,93.6 531.6,91.9 C527.7,90.3 526.8,89.6 526.8,88.2 L526.8,88.2 C526.8,86.9 527.9,86 529.7,86 C531.6,86 533.5,87 535.1,88.3 L538,84.3 C535.7,82.2 532.8,81.2 529.8,81.2 C524.9,81.2 521.5,84.2 521.5,88.6 L521.5,88.7 C521.5,93 524.3,94.7 528.7,96.5 C532.3,97.9 533,98.7 533,99.9 L533,99.9 C533,101.4 531.8,102.4 529.7,102.4 C527.2,102.4 525.1,101 523.4,99.6 L520.3,103.4 C523.3,106 526.7,107.1 529.9,107.1 Z M540.9,106.8 L546.1,106.8 L546.1,81.6 L540.9,81.6 L540.9,106.8 L540.9,106.8 Z M549.9,106.8 L555,106.8 L555,91.6 L565,106.8 L569.5,106.8 L569.5,81.6 L564.4,81.6 L564.4,96.3 L554.7,81.6 L549.9,81.6 L549.9,106.8 L549.9,106.8 Z M573.3,106.8 L578.5,106.8 L578.5,99.4 L580.8,96.4 L587.1,106.8 L593.2,106.8 L584.4,92.3 L592.9,81.6 L586.7,81.6 L578.4,92.5 L578.4,81.6 L573.2,81.6 L573.3,106.8 L573.3,106.8 L573.3,106.8 Z M594.8,106.8 L600,106.8 L600,81.6 L594.8,81.6 L594.8,106.8 L594.8,106.8 Z" id="Shape" fill="#000000" fill-rule="nonzero"></path></g></svg>