<svg xmlns="http://www.w3.org/2000/svg" xmlns:xlink="http://www.w3.org/1999/xlink" width="50" viewBox="0 0 37.5 37.499999" height="50" preserveAspectRatio="xMidYMid meet"><defs><clipPath id="26c262edda"><path d="M 5 11 L 31.824219 11 L 31.824219 35 L 5 35 Z M 5 11 " clip-rule="nonzero"></path></clipPath><clipPath id="4e2c792b40"><path d="M 11 1.621094 L 26 1.621094 L 26 10 L 11 10 Z M 11 1.621094 " clip-rule="nonzero"></path></clipPath></defs><g clip-path="url(#26c262edda)"><path fill="#ff7300" d="M 13.179688 11.535156 C 12.058594 12.128906 11.902344 12.894531 10.390625 15.394531 C 8.097656 19.1875 7.726562 18.628906 6.679688 20.75 C 6.035156 22.050781 3.726562 27.222656 6.035156 30.535156 C 6.675781 31.457031 7.433594 31.886719 8.605469 32.535156 C 13.746094 35.378906 19.175781 34.730469 22.253906 34.324219 C 25.277344 33.921875 27.257812 33.628906 28.96875 31.964844 C 30.152344 30.792969 30.890625 29.390625 31.183594 27.75 C 31.554688 25.566406 30.804688 23.9375 29.46875 21.035156 C 29.042969 20.105469 27.804688 18.273438 25.328125 14.605469 C 24.25 13.015625 23.671875 12.203125 22.542969 11.679688 C 21.789062 11.332031 21.308594 11.351562 18.753906 11.320312 C 14.15625 11.269531 13.859375 11.179688 13.179688 11.535156 Z M 13.179688 11.535156 " fill-opacity="1" fill-rule="nonzero"></path></g><path fill="#ffffff" d="M 18.300781 23.90625 C 18.5 23.90625 18.691406 23.941406 18.878906 24.019531 C 19.0625 24.097656 19.226562 24.207031 19.367188 24.347656 C 19.511719 24.488281 19.621094 24.652344 19.695312 24.835938 C 19.773438 25.023438 19.8125 25.214844 19.8125 25.414062 C 19.8125 25.617188 19.773438 25.808594 19.695312 25.992188 C 19.621094 26.179688 19.511719 26.34375 19.367188 26.484375 C 19.226562 26.625 19.0625 26.734375 18.878906 26.8125 C 18.695312 26.890625 18.5 26.925781 18.300781 26.925781 C 18.101562 26.929688 17.90625 26.890625 17.722656 26.8125 C 17.535156 26.734375 17.375 26.625 17.230469 26.484375 C 17.089844 26.34375 16.980469 26.179688 16.902344 25.996094 C 16.828125 25.808594 16.789062 25.617188 16.789062 25.417969 L 14.796875 25.589844 C 14.796875 26.03125 14.882812 26.453125 15.050781 26.863281 C 15.21875 27.269531 15.460938 27.632812 15.773438 27.945312 C 16.085938 28.257812 16.445312 28.496094 16.855469 28.664062 C 17.261719 28.835938 17.6875 28.917969 18.128906 28.917969 C 18.570312 28.917969 18.996094 28.832031 19.402344 28.664062 C 19.8125 28.496094 20.171875 28.253906 20.484375 27.941406 C 20.796875 27.628906 21.039062 27.269531 21.207031 26.859375 C 21.375 26.453125 21.460938 26.027344 21.460938 25.585938 C 21.460938 25.144531 21.375 24.71875 21.207031 24.3125 C 21.035156 23.902344 20.796875 23.542969 20.484375 23.230469 C 20.171875 22.917969 19.808594 22.675781 19.402344 22.507812 C 18.992188 22.339844 18.570312 22.253906 18.125 22.253906 " fill-opacity="1" fill-rule="nonzero"></path><path fill="#ffffff" d="M 18.1875 22.261719 C 17.988281 22.269531 17.792969 22.238281 17.605469 22.167969 C 17.417969 22.097656 17.25 21.996094 17.101562 21.859375 C 16.957031 21.722656 16.839844 21.5625 16.757812 21.378906 C 16.675781 21.195312 16.628906 21.003906 16.621094 20.804688 C 16.617188 20.605469 16.648438 20.410156 16.71875 20.222656 C 16.789062 20.035156 16.890625 19.867188 17.027344 19.722656 C 17.164062 19.574219 17.324219 19.460938 17.507812 19.375 C 17.6875 19.292969 17.878906 19.25 18.082031 19.242188 C 18.28125 19.234375 18.476562 19.265625 18.664062 19.335938 C 18.851562 19.40625 19.019531 19.511719 19.164062 19.648438 C 19.3125 19.785156 19.425781 19.945312 19.507812 20.125 C 19.59375 20.308594 19.636719 20.5 19.644531 20.699219 L 21.628906 20.460938 C 21.613281 20.019531 21.511719 19.597656 21.332031 19.195312 C 21.148438 18.792969 20.894531 18.441406 20.570312 18.140625 C 20.25 17.839844 19.878906 17.609375 19.464844 17.457031 C 19.050781 17.300781 18.625 17.230469 18.183594 17.246094 C 17.742188 17.261719 17.320312 17.363281 16.917969 17.542969 C 16.515625 17.726562 16.164062 17.980469 15.863281 18.304688 C 15.5625 18.625 15.335938 18.996094 15.179688 19.410156 C 15.027344 19.824219 14.957031 20.25 14.972656 20.691406 C 14.988281 21.132812 15.085938 21.554688 15.269531 21.957031 C 15.453125 22.359375 15.707031 22.710938 16.027344 23.011719 C 16.351562 23.3125 16.71875 23.539062 17.132812 23.695312 C 17.546875 23.847656 17.972656 23.917969 18.414062 23.902344 " fill-opacity="1" fill-rule="nonzero"></path><path fill="#ffffff" d="M 17.507812 16.316406 L 18.917969 16.316406 L 18.917969 29.84375 L 17.507812 29.84375 Z M 17.507812 16.316406 " fill-opacity="1" fill-rule="nonzero"></path><g clip-path="url(#4e2c792b40)"><path fill="#ff7300" d="M 11.332031 3.03125 C 11.28125 2.929688 11.253906 2.828125 11.25 2.714844 C 11.246094 2.605469 11.265625 2.496094 11.3125 2.394531 C 11.355469 2.292969 11.417969 2.203125 11.5 2.128906 C 11.582031 2.054688 11.675781 2 11.785156 1.96875 C 12.644531 1.699219 13.527344 1.617188 14.421875 1.722656 C 17.023438 2.050781 17.660156 3.929688 19.984375 4.195312 C 22.636719 4.496094 24.378906 2.34375 24.925781 2.855469 C 25.316406 3.222656 24.855469 4.730469 21.660156 9.320312 C 21.503906 9.542969 21.289062 9.652344 21.015625 9.644531 L 15.007812 9.464844 C 14.707031 9.453125 14.488281 9.316406 14.355469 9.046875 Z M 11.332031 3.03125 " fill-opacity="1" fill-rule="nonzero"></path></g></svg>