<svg xmlns="http://www.w3.org/2000/svg" xmlns:xlink="http://www.w3.org/1999/xlink" width="50" viewBox="0 0 37.5 37.499999" height="50" preserveAspectRatio="xMidYMid meet"><defs><clipPath id="c13274c116"><path d="M 6.632812 1.832031 L 33.277344 1.832031 L 33.277344 35.136719 L 6.632812 35.136719 Z M 6.632812 1.832031 " clip-rule="nonzero"></path></clipPath></defs><g clip-path="url(#c13274c116)"><path fill="#ff7300" d="M 30.566406 1.832031 L 9.363281 1.832031 C 7.933594 1.832031 6.769531 2.996094 6.769531 4.429688 L 6.769531 32.578125 C 6.769531 34.007812 7.933594 35.171875 9.363281 35.171875 L 30.566406 35.171875 C 32 35.171875 33.164062 34.007812 33.164062 32.578125 L 33.164062 4.429688 C 33.164062 2.996094 32 1.832031 30.566406 1.832031 Z M 32.050781 32.578125 C 32.050781 33.394531 31.386719 34.0625 30.566406 34.0625 L 9.363281 34.0625 C 8.546875 34.0625 7.878906 33.394531 7.878906 32.578125 L 7.878906 4.429688 C 7.878906 3.609375 8.546875 2.945312 9.363281 2.945312 L 30.566406 2.945312 C 31.386719 2.945312 32.050781 3.609375 32.050781 4.429688 Z M 32.050781 32.578125 " fill-opacity="1" fill-rule="nonzero"></path></g><path fill="#ff7300" d="M 29.414062 4.75 L 21.773438 4.75 C 21.464844 4.75 21.214844 5 21.214844 5.304688 L 21.214844 8.339844 C 21.214844 8.648438 21.464844 8.898438 21.773438 8.898438 L 29.414062 8.898438 C 29.71875 8.898438 29.96875 8.648438 29.96875 8.339844 L 29.96875 5.304688 C 29.96875 5 29.71875 4.75 29.414062 4.75 Z M 28.855469 7.785156 L 22.328125 7.785156 L 22.328125 5.859375 L 28.855469 5.859375 Z M 28.855469 7.785156 " fill-opacity="1" fill-rule="nonzero"></path><path fill="#ff7300" d="M 18.933594 6.824219 C 18.933594 6.515625 18.683594 6.269531 18.378906 6.269531 L 10.519531 6.269531 C 10.214844 6.269531 9.964844 6.515625 9.964844 6.824219 C 9.964844 7.128906 10.214844 7.378906 10.519531 7.378906 L 18.378906 7.378906 C 18.6875 7.378906 18.933594 7.132812 18.933594 6.824219 Z M 18.933594 6.824219 " fill-opacity="1" fill-rule="nonzero"></path><path fill="#ff7300" d="M 29.414062 12.191406 L 16.890625 12.191406 C 16.582031 12.191406 16.335938 12.441406 16.335938 12.746094 C 16.335938 13.054688 16.582031 13.300781 16.890625 13.300781 L 29.414062 13.300781 C 29.71875 13.300781 29.96875 13.054688 29.96875 12.746094 C 29.96875 12.441406 29.71875 12.191406 29.414062 12.191406 Z M 29.414062 12.191406 " fill-opacity="1" fill-rule="nonzero"></path><path fill="#ff7300" d="M 29.414062 17.789062 L 16.890625 17.789062 C 16.582031 17.789062 16.335938 18.035156 16.335938 18.34375 C 16.335938 18.652344 16.582031 18.898438 16.890625 18.898438 L 29.414062 18.898438 C 29.71875 18.898438 29.96875 18.652344 29.96875 18.34375 C 29.96875 18.035156 29.71875 17.789062 29.414062 17.789062 Z M 29.414062 17.789062 " fill-opacity="1" fill-rule="nonzero"></path><path fill="#ff7300" d="M 16.859375 24.464844 L 29.382812 24.464844 C 29.691406 24.464844 29.941406 24.21875 29.941406 23.910156 C 29.941406 23.605469 29.691406 23.355469 29.382812 23.355469 L 16.859375 23.355469 C 16.554688 23.355469 16.304688 23.605469 16.304688 23.910156 C 16.304688 24.21875 16.554688 24.464844 16.859375 24.464844 Z M 16.859375 24.464844 " fill-opacity="1" fill-rule="nonzero"></path><path fill="#ff7300" d="M 29.414062 29.46875 L 16.890625 29.46875 C 16.582031 29.46875 16.335938 29.71875 16.335938 30.023438 C 16.335938 30.332031 16.582031 30.578125 16.890625 30.578125 L 29.414062 30.578125 C 29.71875 30.578125 29.96875 30.332031 29.96875 30.023438 C 29.96875 29.71875 29.71875 29.46875 29.414062 29.46875 Z M 29.414062 29.46875 " fill-opacity="1" fill-rule="nonzero"></path><path fill="#ff7300" d="M 14.007812 11.050781 L 12.335938 13.253906 L 11.515625 12.402344 C 11.300781 12.183594 10.949219 12.175781 10.730469 12.390625 C 10.507812 12.605469 10.5 12.953125 10.714844 13.175781 L 11.988281 14.492188 C 12.09375 14.601562 12.238281 14.660156 12.386719 14.660156 C 12.398438 14.660156 12.410156 14.660156 12.421875 14.660156 C 12.582031 14.648438 12.730469 14.570312 12.832031 14.441406 L 14.890625 11.722656 C 15.078125 11.480469 15.03125 11.128906 14.785156 10.945312 C 14.539062 10.757812 14.191406 10.808594 14.007812 11.050781 Z M 14.007812 11.050781 " fill-opacity="1" fill-rule="nonzero"></path><path fill="#ff7300" d="M 14.785156 16.542969 C 14.539062 16.355469 14.1875 16.402344 14.007812 16.648438 L 12.335938 18.851562 L 11.515625 18 C 11.300781 17.78125 10.949219 17.777344 10.730469 17.988281 C 10.507812 18.203125 10.5 18.550781 10.714844 18.773438 L 11.988281 20.089844 C 12.09375 20.199219 12.238281 20.257812 12.386719 20.257812 C 12.398438 20.257812 12.410156 20.257812 12.421875 20.257812 C 12.582031 20.25 12.734375 20.167969 12.832031 20.039062 L 14.890625 17.320312 C 15.078125 17.074219 15.03125 16.726562 14.785156 16.542969 Z M 14.785156 16.542969 " fill-opacity="1" fill-rule="nonzero"></path><path fill="#ff7300" d="M 14.007812 22.246094 L 12.335938 24.449219 L 11.515625 23.597656 C 11.300781 23.378906 10.949219 23.371094 10.730469 23.585938 C 10.507812 23.796875 10.5 24.148438 10.714844 24.371094 L 11.988281 25.6875 C 12.09375 25.796875 12.238281 25.855469 12.386719 25.855469 C 12.398438 25.855469 12.410156 25.855469 12.421875 25.855469 C 12.582031 25.84375 12.734375 25.765625 12.832031 25.636719 L 14.890625 22.914062 C 15.078125 22.671875 15.03125 22.324219 14.785156 22.136719 C 14.539062 21.949219 14.191406 22 14.007812 22.246094 Z M 14.007812 22.246094 " fill-opacity="1" fill-rule="nonzero"></path><path fill="#ff7300" d="M 14.007812 28.328125 L 12.335938 30.53125 L 11.515625 29.679688 C 11.300781 29.460938 10.949219 29.453125 10.730469 29.667969 C 10.507812 29.878906 10.5 30.230469 10.714844 30.453125 L 11.988281 31.769531 C 12.09375 31.878906 12.238281 31.9375 12.386719 31.9375 C 12.398438 31.9375 12.410156 31.9375 12.421875 31.9375 C 12.582031 31.925781 12.730469 31.847656 12.832031 31.71875 L 14.890625 29 C 15.078125 28.753906 15.03125 28.40625 14.785156 28.21875 C 14.539062 28.035156 14.191406 28.082031 14.007812 28.328125 Z M 14.007812 28.328125 " fill-opacity="1" fill-rule="nonzero"></path></svg>