<?xml version="1.0" encoding="UTF-8"?> <svg xmlns="http://www.w3.org/2000/svg" xmlns:xlink="http://www.w3.org/1999/xlink" width="50" zoomAndPan="magnify" viewBox="0 0 37.5 37.499999" height="50" preserveAspectRatio="xMidYMid meet" version="1.0"><defs><clipPath id="e3745b8a6f"><path d="M 1.765625 4.519531 L 35.074219 4.519531 L 35.074219 33.386719 L 1.765625 33.386719 Z M 1.765625 4.519531 " clip-rule="nonzero"></path></clipPath></defs><path fill="#ff7300" d="M 21.449219 16.320312 C 21.449219 16.710938 21.375 17.085938 21.226562 17.449219 C 21.078125 17.808594 20.863281 18.128906 20.585938 18.40625 C 20.308594 18.683594 19.992188 18.894531 19.628906 19.042969 C 19.269531 19.195312 18.890625 19.269531 18.5 19.269531 C 18.109375 19.269531 17.734375 19.195312 17.371094 19.042969 C 17.011719 18.894531 16.691406 18.683594 16.414062 18.40625 C 16.140625 18.128906 15.925781 17.808594 15.777344 17.449219 C 15.625 17.085938 15.550781 16.710938 15.550781 16.320312 C 15.550781 15.929688 15.625 15.550781 15.777344 15.191406 C 15.925781 14.828125 16.140625 14.511719 16.414062 14.234375 C 16.691406 13.957031 17.011719 13.742188 17.371094 13.59375 C 17.734375 13.445312 18.109375 13.371094 18.5 13.371094 C 18.890625 13.371094 19.269531 13.445312 19.628906 13.59375 C 19.992188 13.742188 20.308594 13.957031 20.585938 14.234375 C 20.863281 14.511719 21.078125 14.828125 21.226562 15.191406 C 21.375 15.550781 21.449219 15.929688 21.449219 16.320312 Z M 21.449219 16.320312 " fill-opacity="1" fill-rule="nonzero"></path><path fill="#ff7300" d="M 29.316406 16.320312 C 29.316406 16.710938 29.242188 17.085938 29.09375 17.449219 C 28.941406 17.808594 28.730469 18.128906 28.453125 18.40625 C 28.175781 18.683594 27.859375 18.894531 27.496094 19.042969 C 27.136719 19.195312 26.757812 19.269531 26.367188 19.269531 C 25.976562 19.269531 25.601562 19.195312 25.238281 19.042969 C 24.878906 18.894531 24.558594 18.683594 24.28125 18.40625 C 24.003906 18.128906 23.792969 17.808594 23.640625 17.449219 C 23.492188 17.085938 23.417969 16.710938 23.417969 16.320312 C 23.417969 15.929688 23.492188 15.550781 23.640625 15.191406 C 23.792969 14.828125 24.003906 14.511719 24.28125 14.234375 C 24.558594 13.957031 24.878906 13.742188 25.238281 13.59375 C 25.601562 13.445312 25.976562 13.371094 26.367188 13.371094 C 26.757812 13.371094 27.136719 13.445312 27.496094 13.59375 C 27.859375 13.742188 28.175781 13.957031 28.453125 14.234375 C 28.730469 14.511719 28.941406 14.828125 29.09375 15.191406 C 29.242188 15.550781 29.316406 15.929688 29.316406 16.320312 Z M 29.316406 16.320312 " fill-opacity="1" fill-rule="nonzero"></path><path fill="#ff7300" d="M 13.585938 16.320312 C 13.585938 16.710938 13.511719 17.085938 13.359375 17.449219 C 13.210938 17.808594 12.996094 18.128906 12.722656 18.40625 C 12.445312 18.683594 12.125 18.894531 11.765625 19.042969 C 11.402344 19.195312 11.027344 19.269531 10.636719 19.269531 C 10.242188 19.269531 9.867188 19.195312 9.507812 19.042969 C 9.144531 18.894531 8.824219 18.683594 8.550781 18.40625 C 8.273438 18.128906 8.058594 17.808594 7.910156 17.449219 C 7.761719 17.085938 7.683594 16.710938 7.683594 16.320312 C 7.683594 15.929688 7.761719 15.550781 7.910156 15.191406 C 8.058594 14.828125 8.273438 14.511719 8.550781 14.234375 C 8.824219 13.957031 9.144531 13.742188 9.507812 13.59375 C 9.867188 13.445312 10.242188 13.371094 10.636719 13.371094 C 11.027344 13.371094 11.402344 13.445312 11.765625 13.59375 C 12.125 13.742188 12.445312 13.957031 12.722656 14.234375 C 12.996094 14.511719 13.210938 14.828125 13.359375 15.191406 C 13.511719 15.550781 13.585938 15.929688 13.585938 16.320312 Z M 13.585938 16.320312 " fill-opacity="1" fill-rule="nonzero"></path><g clip-path="url(#e3745b8a6f)"><path fill="#ff7300" d="M 29.777344 4.519531 L 7.226562 4.519531 C 4.226562 4.519531 1.785156 6.960938 1.785156 9.960938 L 1.785156 22.679688 C 1.785156 25.679688 4.226562 28.117188 7.226562 28.117188 L 10.636719 28.117188 L 10.636719 32.050781 C 10.636719 32.839844 11.515625 33.300781 12.164062 32.871094 L 19.289062 28.117188 L 29.777344 28.117188 C 32.777344 28.117188 35.21875 25.679688 35.21875 22.679688 L 35.21875 9.960938 C 35.21875 6.960938 32.777344 4.519531 29.777344 4.519531 Z M 33.25 22.679688 C 33.25 24.59375 31.691406 26.152344 29.777344 26.152344 L 18.992188 26.152344 C 18.796875 26.152344 18.609375 26.210938 18.449219 26.316406 L 12.601562 30.214844 L 12.601562 27.136719 C 12.601562 26.59375 12.160156 26.152344 11.617188 26.152344 L 7.226562 26.152344 C 5.308594 26.152344 3.75 24.59375 3.75 22.679688 L 3.75 9.960938 C 3.75 8.046875 5.308594 6.488281 7.226562 6.488281 L 29.777344 6.488281 C 31.691406 6.488281 33.25 8.046875 33.25 9.960938 Z M 33.25 22.679688 " fill-opacity="1" fill-rule="nonzero"></path></g></svg> 