<svg xmlns="http://www.w3.org/2000/svg" xmlns:xlink="http://www.w3.org/1999/xlink" width="50" viewBox="0 0 37.5 37.499999" height="50" preserveAspectRatio="xMidYMid meet"><defs><clipPath id="5066985309"><path d="M 6.765625 1.492188 L 30.449219 1.492188 L 30.449219 35.539062 L 6.765625 35.539062 Z M 6.765625 1.492188 " clip-rule="nonzero"></path></clipPath></defs><g clip-path="url(#5066985309)"><path fill="#ff7300" d="M 28.480469 35.464844 L 8.527344 35.464844 C 7.558594 35.464844 6.765625 34.671875 6.765625 33.703125 L 6.765625 6.707031 C 6.765625 6.4375 6.953125 6.195312 7.21875 6.136719 L 26.449219 1.613281 C 26.800781 1.53125 27.164062 1.613281 27.449219 1.835938 C 27.730469 2.058594 27.894531 2.390625 27.894531 2.757812 L 27.894531 6.125 L 28.480469 6.125 C 29.449219 6.125 30.242188 6.917969 30.242188 7.886719 L 30.242188 33.703125 C 30.242188 34.671875 29.449219 35.464844 28.480469 35.464844 Z M 7.9375 7.292969 L 7.9375 33.703125 C 7.9375 34.027344 8.203125 34.289062 8.527344 34.289062 L 28.480469 34.289062 C 28.804688 34.289062 29.066406 34.027344 29.066406 33.703125 L 29.066406 7.878906 C 29.066406 7.558594 28.804688 7.292969 28.480469 7.292969 Z M 12.410156 6.121094 L 26.71875 6.121094 L 26.71875 2.75 Z M 12.410156 6.121094 " fill-opacity="1" fill-rule="nonzero"></path></g><path fill="#ff7300" d="M 18.503906 9.640625 C 14.296875 9.640625 10.875 13.0625 10.875 17.269531 C 10.875 21.476562 14.296875 24.898438 18.503906 24.898438 C 22.710938 24.898438 26.132812 21.476562 26.132812 17.269531 C 26.132812 13.0625 22.710938 9.640625 18.503906 9.640625 Z M 23.695312 21.089844 C 23.28125 20.945312 22.851562 20.808594 22.410156 20.703125 C 22.652344 19.839844 22.8125 18.878906 22.851562 17.855469 L 24.9375 17.855469 C 24.824219 19.058594 24.382812 20.167969 23.703125 21.089844 Z M 12.082031 17.855469 L 14.164062 17.855469 C 14.207031 18.878906 14.359375 19.839844 14.605469 20.703125 C 14.164062 20.816406 13.738281 20.945312 13.320312 21.089844 C 12.640625 20.167969 12.195312 19.058594 12.089844 17.855469 Z M 13.308594 13.460938 C 13.726562 13.613281 14.160156 13.742188 14.601562 13.855469 C 14.359375 14.710938 14.207031 15.667969 14.164062 16.683594 L 12.082031 16.683594 C 12.195312 15.484375 12.632812 14.382812 13.308594 13.460938 Z M 17.921875 14.324219 L 17.921875 16.683594 L 15.339844 16.683594 C 15.378906 15.757812 15.527344 14.882812 15.75 14.101562 C 16.460938 14.222656 17.1875 14.300781 17.921875 14.324219 Z M 16.167969 12.957031 C 16.625 11.933594 17.242188 11.207031 17.921875 10.9375 L 17.921875 13.121094 C 17.328125 13.097656 16.742188 13.050781 16.167969 12.960938 Z M 17.921875 17.855469 L 17.921875 20.25 C 17.195312 20.273438 16.464844 20.339844 15.757812 20.457031 C 15.527344 19.671875 15.378906 18.789062 15.339844 17.855469 Z M 17.921875 21.417969 L 17.921875 23.601562 C 17.234375 23.332031 16.625 22.597656 16.167969 21.578125 C 16.742188 21.488281 17.328125 21.4375 17.921875 21.414062 Z M 19.097656 21.417969 C 19.6875 21.441406 20.277344 21.496094 20.851562 21.585938 C 20.394531 22.605469 19.777344 23.339844 19.097656 23.609375 Z M 19.097656 20.246094 L 19.097656 17.851562 L 21.679688 17.851562 C 21.636719 18.785156 21.484375 19.664062 21.261719 20.453125 C 20.550781 20.335938 19.824219 20.269531 19.097656 20.246094 Z M 19.097656 16.675781 L 19.097656 14.316406 C 19.828125 14.292969 20.558594 14.21875 21.265625 14.09375 C 21.492188 14.875 21.636719 15.75 21.679688 16.675781 Z M 19.097656 13.109375 L 19.097656 10.925781 C 19.78125 11.195312 20.394531 11.929688 20.851562 12.949219 C 20.277344 13.039062 19.6875 13.089844 19.097656 13.113281 Z M 21.386719 11.488281 C 21.917969 11.753906 22.40625 12.09375 22.847656 12.492188 C 22.578125 12.574219 22.304688 12.652344 22.03125 12.714844 C 21.84375 12.265625 21.625 11.851562 21.386719 11.488281 Z M 14.992188 12.710938 C 14.71875 12.644531 14.449219 12.5625 14.183594 12.480469 C 14.617188 12.089844 15.105469 11.753906 15.640625 11.484375 C 15.398438 11.847656 15.1875 12.257812 15 12.703125 Z M 14.992188 21.808594 C 15.179688 22.257812 15.398438 22.667969 15.640625 23.035156 C 15.105469 22.769531 14.617188 22.429688 14.175781 22.03125 C 14.449219 21.949219 14.71875 21.871094 14.992188 21.808594 Z M 22.03125 21.808594 C 22.304688 21.871094 22.582031 21.949219 22.847656 22.03125 C 22.410156 22.429688 21.917969 22.765625 21.386719 23.035156 C 21.625 22.667969 21.84375 22.257812 22.03125 21.808594 Z M 22.859375 16.671875 C 22.816406 15.65625 22.664062 14.699219 22.421875 13.84375 C 22.863281 13.730469 23.296875 13.601562 23.714844 13.449219 C 24.390625 14.371094 24.828125 15.472656 24.941406 16.671875 Z M 22.859375 16.671875 " fill-opacity="1" fill-rule="nonzero"></path><path fill="#ff7300" d="M 23.199219 29.007812 L 13.808594 29.007812 C 13.484375 29.007812 13.222656 28.746094 13.222656 28.421875 C 13.222656 28.097656 13.484375 27.835938 13.808594 27.835938 L 23.199219 27.835938 C 23.519531 27.835938 23.785156 28.097656 23.785156 28.421875 C 23.785156 28.746094 23.519531 29.007812 23.199219 29.007812 Z M 23.199219 29.007812 " fill-opacity="1" fill-rule="nonzero"></path><path fill="#ff7300" d="M 25.253906 31.941406 L 11.753906 31.941406 C 11.429688 31.941406 11.167969 31.679688 11.167969 31.355469 C 11.167969 31.035156 11.429688 30.769531 11.753906 30.769531 L 25.253906 30.769531 C 25.574219 30.769531 25.839844 31.035156 25.839844 31.355469 C 25.839844 31.679688 25.574219 31.941406 25.253906 31.941406 Z M 25.253906 31.941406 " fill-opacity="1" fill-rule="nonzero"></path></svg>