<svg xmlns="http://www.w3.org/2000/svg" xmlns:xlink="http://www.w3.org/1999/xlink" width="50" viewBox="0 0 37.5 37.499999" height="50" preserveAspectRatio="xMidYMid meet"><defs><clipPath id="3f3d5a6f3a"><path d="M 3.699219 2.335938 L 34.785156 2.335938 L 34.785156 34.902344 L 3.699219 34.902344 Z M 3.699219 2.335938 " clip-rule="nonzero"></path></clipPath></defs><g clip-path="url(#3f3d5a6f3a)"><path fill="#ff7300" d="M 16.355469 16.707031 L 19.335938 12.777344 L 20.148438 11.710938 L 21.261719 12.460938 L 24.015625 14.328125 L 27.648438 9.113281 L 24.664062 7.0625 L 34.417969 2.339844 L 32.976562 12.765625 L 29.992188 10.71875 L 25.546875 17.101562 L 24.742188 18.253906 L 23.582031 17.46875 L 20.78125 15.570312 L 18.992188 17.921875 C 18.589844 17.535156 18.09375 17.242188 17.511719 17.03125 C 17.132812 16.890625 16.746094 16.800781 16.355469 16.707031 Z M 7.363281 34.621094 L 6.988281 24.816406 L 6.101562 34.5625 L 3.699219 34.65625 L 4.527344 20.78125 C 4.675781 18.300781 6.667969 18.539062 8.199219 17.757812 C 8.722656 17.492188 9.035156 17.21875 9.34375 16.941406 C 9.46875 17.570312 9.601562 18.195312 9.675781 18.738281 C 9.753906 19.277344 9.78125 19.730469 9.8125 20.183594 C 9.9375 19.914062 10.066406 19.644531 10.207031 19.441406 L 10.785156 18.757812 L 11.230469 19.792969 L 11.003906 28.933594 L 11.660156 29.933594 L 11.703125 34.621094 Z M 11.871094 34.621094 L 11.855469 29.933594 L 12.554688 28.863281 L 11.917969 19.78125 L 12.617188 18.730469 C 12.773438 18.863281 13.007812 19.242188 13.148438 19.441406 C 13.289062 19.644531 13.414062 19.914062 13.542969 20.183594 C 13.574219 19.730469 13.597656 19.277344 13.675781 18.738281 C 13.757812 18.195312 13.882812 17.570312 14.007812 16.941406 C 14.320312 17.21875 14.628906 17.492188 15.15625 17.757812 C 16.082031 18.234375 18.113281 18.046875 18.625 19.941406 L 20.285156 24.542969 L 25.785156 22.082031 L 26.5 23.914062 L 20.488281 27.523438 C 19.828125 27.917969 18.941406 27.773438 18.46875 27.160156 L 16.394531 24.445312 L 16.53125 34.621094 Z M 13.28125 15.792969 L 13.28125 16.738281 C 13.28125 16.90625 13.207031 17.058594 13.074219 17.160156 L 11.546875 18.332031 L 10.019531 17.160156 C 9.882812 17.058594 9.8125 16.90625 9.8125 16.738281 L 9.8125 15.769531 L 9.6875 15.644531 C 9.464844 15.414062 9.351562 15.144531 9.328125 14.820312 L 9.292969 14.28125 L 9.285156 14.277344 C 9.179688 14.246094 9.085938 14.207031 9.019531 14.152344 C 8.953125 14.097656 8.90625 14.023438 8.851562 13.878906 C 8.804688 13.734375 8.746094 13.519531 8.703125 13.324219 C 8.660156 13.132812 8.636719 12.960938 8.625 12.808594 C 8.617188 12.660156 8.617188 12.535156 8.652344 12.433594 C 8.6875 12.339844 8.78125 12.257812 8.84375 12.238281 C 8.914062 12.214844 8.949219 12.230469 8.976562 12.222656 C 9.007812 12.214844 8.960938 12.195312 8.960938 12.179688 L 8.960938 12.160156 C 8.953125 12.152344 8.945312 12.144531 8.941406 12.136719 C 8.695312 11.816406 8.507812 11.183594 8.457031 10.617188 C 8.410156 10.054688 8.488281 9.554688 8.574219 9.054688 C 8.726562 9.152344 8.878906 9.25 9.160156 9.097656 C 9.445312 8.949219 9.851562 8.550781 10.316406 8.277344 C 10.78125 8.003906 11.308594 7.847656 11.847656 7.875 C 12.386719 7.902344 12.945312 8.105469 13.257812 8.375 C 13.574219 8.644531 13.648438 8.980469 13.726562 9.316406 C 13.976562 9.308594 14.21875 9.300781 14.398438 9.589844 C 14.574219 9.875 14.683594 10.460938 14.640625 10.96875 C 14.601562 11.480469 14.40625 11.917969 14.214844 12.140625 C 14.199219 12.164062 14.183594 12.179688 14.164062 12.199219 L 14.160156 12.214844 C 14.207031 12.21875 14.253906 12.230469 14.300781 12.246094 C 14.394531 12.28125 14.480469 12.34375 14.519531 12.460938 C 14.5625 12.578125 14.554688 12.753906 14.539062 12.925781 C 14.523438 13.097656 14.5 13.265625 14.457031 13.4375 C 14.414062 13.609375 14.359375 13.785156 14.308594 13.910156 C 14.253906 14.03125 14.207031 14.105469 14.144531 14.160156 C 14.074219 14.214844 13.984375 14.253906 13.875 14.285156 C 13.855469 14.292969 13.832031 14.296875 13.8125 14.304688 L 13.78125 14.824219 C 13.761719 15.144531 13.640625 15.414062 13.421875 15.644531 Z M 26.023438 21.824219 L 26.671875 20.566406 C 26.742188 20.429688 26.867188 20.367188 27.003906 20.3125 L 27.914062 19.96875 C 28.019531 19.929688 28.117188 19.9375 28.214844 19.980469 C 28.3125 20.03125 28.378906 20.109375 28.410156 20.210938 L 28.453125 20.371094 C 28.78125 20.261719 30.871094 19.625 31.050781 19.574219 C 31.492188 19.453125 31.652344 20.171875 31.28125 20.285156 L 30.195312 20.75 L 30.164062 21.796875 C 30.152344 22.101562 29.945312 22.335938 29.664062 22.453125 L 26.929688 23.554688 Z M 26.023438 21.824219 " fill-opacity="1" fill-rule="nonzero"></path></g></svg>