<svg xmlns="http://www.w3.org/2000/svg" xmlns:xlink="http://www.w3.org/1999/xlink" width="50" viewBox="0 0 37.5 37.499999" height="50" preserveAspectRatio="xMidYMid meet"><defs><clipPath id="cebcbfb247"><path d="M 6.363281 1.628906 L 30.789062 1.628906 L 30.789062 37 L 6.363281 37 Z M 6.363281 1.628906 " clip-rule="nonzero"></path></clipPath></defs><g clip-path="url(#cebcbfb247)"><path fill="#ff7300" d="M 18.5 1.640625 C 25.203125 1.640625 30.636719 7.074219 30.636719 13.777344 C 30.636719 16.113281 29.980469 18.289062 28.839844 20.140625 C 27.472656 22.40625 26.105469 24.671875 24.738281 26.9375 C 23.070312 29.644531 21.722656 31.835938 20.058594 34.542969 C 18.589844 36.933594 18.488281 36.992188 17.011719 34.589844 C 15.355469 31.894531 13.960938 29.632812 12.304688 26.9375 C 10.941406 24.695312 9.574219 22.457031 8.210938 20.214844 C 7.042969 18.351562 6.363281 16.144531 6.363281 13.777344 C 6.363281 7.074219 11.796875 1.640625 18.5 1.640625 Z M 18.5 7.726562 C 21.507812 7.726562 23.941406 10.164062 23.941406 13.167969 C 23.941406 16.171875 21.507812 18.609375 18.5 18.609375 C 15.496094 18.609375 13.058594 16.171875 13.058594 13.167969 C 13.058594 10.164062 15.496094 7.726562 18.5 7.726562 Z M 18.5 7.726562 " fill-opacity="1" fill-rule="evenodd"></path></g></svg>