<svg xmlns="http://www.w3.org/2000/svg" xmlns:xlink="http://www.w3.org/1999/xlink" width="50" viewBox="0 0 37.5 37.499999" height="50" preserveAspectRatio="xMidYMid meet"><defs><clipPath id="78c9659f3c"><path d="M 6.21875 5.71875 L 30.640625 5.71875 L 30.640625 35.074219 L 6.21875 35.074219 Z M 6.21875 5.71875 " clip-rule="nonzero"></path></clipPath><clipPath id="5bb8f35e5c"><path d="M 10 1.769531 L 27 1.769531 L 27 9 L 10 9 Z M 10 1.769531 " clip-rule="nonzero"></path></clipPath></defs><g clip-path="url(#78c9659f3c)"><path fill="#ff7300" d="M 7.769531 6.4375 C 7.308594 6.4375 6.933594 6.8125 6.933594 7.273438 L 6.933594 33.671875 C 6.933594 34.132812 7.308594 34.507812 7.769531 34.507812 L 29.230469 34.507812 C 29.691406 34.507812 30.066406 34.132812 30.066406 33.671875 L 30.066406 7.273438 C 30.066406 6.8125 29.691406 6.4375 29.230469 6.4375 L 26.472656 6.4375 L 26.472656 7.613281 C 26.472656 8.320312 25.898438 8.894531 25.195312 8.894531 L 11.5 8.894531 C 10.792969 8.894531 10.21875 8.320312 10.21875 7.613281 L 10.21875 6.4375 Z M 29.230469 35.222656 L 7.769531 35.222656 C 6.914062 35.222656 6.21875 34.527344 6.21875 33.671875 L 6.21875 7.273438 C 6.21875 6.417969 6.914062 5.722656 7.769531 5.722656 L 10.933594 5.722656 L 10.933594 7.613281 C 10.933594 7.925781 11.1875 8.179688 11.5 8.179688 L 25.195312 8.179688 C 25.503906 8.179688 25.757812 7.925781 25.757812 7.613281 L 25.757812 5.722656 L 29.230469 5.722656 C 30.085938 5.722656 30.78125 6.417969 30.78125 7.273438 L 30.78125 33.671875 C 30.78125 34.527344 30.085938 35.222656 29.230469 35.222656 " fill-opacity="1" fill-rule="nonzero"></path></g><g clip-path="url(#5bb8f35e5c)"><path fill="#ff7300" d="M 11.5 4.601562 C 11.1875 4.601562 10.933594 4.855469 10.933594 5.164062 L 10.933594 7.613281 C 10.933594 7.925781 11.1875 8.175781 11.5 8.175781 L 25.195312 8.175781 C 25.503906 8.175781 25.757812 7.925781 25.757812 7.613281 L 25.757812 5.164062 C 25.757812 4.855469 25.503906 4.601562 25.195312 4.601562 L 22.109375 4.601562 C 21.539062 4.601562 21.015625 4.265625 20.746094 3.726562 C 20.375 2.972656 19.5 2.488281 18.519531 2.488281 C 17.542969 2.488281 16.667969 2.972656 16.292969 3.726562 C 16.027344 4.265625 15.503906 4.601562 14.933594 4.601562 Z M 25.195312 8.894531 L 11.5 8.894531 C 10.792969 8.894531 10.21875 8.320312 10.21875 7.613281 L 10.21875 5.164062 C 10.21875 4.460938 10.792969 3.886719 11.5 3.886719 L 14.933594 3.886719 C 15.230469 3.886719 15.507812 3.703125 15.652344 3.410156 C 16.148438 2.414062 17.273438 1.773438 18.519531 1.773438 C 19.769531 1.773438 20.894531 2.414062 21.390625 3.410156 C 21.535156 3.703125 21.8125 3.886719 22.109375 3.886719 L 25.195312 3.886719 C 25.898438 3.886719 26.472656 4.460938 26.472656 5.164062 L 26.472656 7.613281 C 26.472656 8.320312 25.898438 8.894531 25.195312 8.894531 " fill-opacity="1" fill-rule="nonzero"></path></g><path fill="#ff7300" d="M 19.101562 5.703125 C 19.101562 6.035156 18.832031 6.304688 18.5 6.304688 C 18.167969 6.304688 17.898438 6.035156 17.898438 5.703125 C 17.898438 5.371094 18.167969 5.101562 18.5 5.101562 C 18.832031 5.101562 19.101562 5.371094 19.101562 5.703125 " fill-opacity="1" fill-rule="nonzero"></path><path fill="#ff7300" d="M 26.082031 14.746094 L 19.816406 14.746094 C 19.488281 14.746094 19.21875 14.480469 19.21875 14.152344 C 19.21875 13.820312 19.488281 13.554688 19.816406 13.554688 L 26.082031 13.554688 C 26.414062 13.554688 26.679688 13.820312 26.679688 14.152344 C 26.679688 14.480469 26.414062 14.746094 26.082031 14.746094 " fill-opacity="1" fill-rule="nonzero"></path><path fill="#ff7300" d="M 26.082031 21.195312 L 19.816406 21.195312 C 19.488281 21.195312 19.21875 20.925781 19.21875 20.597656 C 19.21875 20.269531 19.488281 20 19.816406 20 L 26.082031 20 C 26.414062 20 26.679688 20.269531 26.679688 20.597656 C 26.679688 20.925781 26.414062 21.195312 26.082031 21.195312 " fill-opacity="1" fill-rule="nonzero"></path><path fill="#ff7300" d="M 12.105469 14.871094 C 12.222656 15.046875 12.351562 15.21875 12.488281 15.378906 C 12.621094 15.542969 12.773438 15.691406 12.929688 15.828125 L 13 15.890625 L 13.03125 15.914062 C 13.261719 16.085938 13.589844 16.039062 13.761719 15.808594 C 13.996094 15.492188 14.207031 15.15625 14.449219 14.847656 C 14.6875 14.535156 14.929688 14.226562 15.160156 13.90625 C 15.394531 13.589844 15.621094 13.269531 15.847656 12.945312 C 16.074219 12.625 16.304688 12.304688 16.523438 11.976562 C 16.535156 11.953125 16.535156 11.925781 16.519531 11.90625 C 16.5 11.882812 16.464844 11.878906 16.441406 11.898438 C 16.136719 12.152344 15.839844 12.410156 15.542969 12.671875 C 15.246094 12.929688 14.949219 13.191406 14.660156 13.457031 C 14.363281 13.714844 14.082031 13.988281 13.796875 14.257812 C 13.65625 14.390625 13.511719 14.515625 13.367188 14.640625 C 13.339844 14.621094 13.320312 14.59375 13.292969 14.574219 C 13.128906 14.441406 12.960938 14.3125 12.78125 14.191406 C 12.605469 14.074219 12.417969 13.960938 12.222656 13.859375 C 12.027344 13.757812 11.820312 13.667969 11.589844 13.597656 C 11.578125 13.59375 11.566406 13.59375 11.554688 13.597656 C 11.519531 13.609375 11.5 13.644531 11.511719 13.679688 C 11.582031 13.90625 11.671875 14.113281 11.773438 14.308594 C 11.875 14.507812 11.988281 14.691406 12.105469 14.871094 " fill-opacity="1" fill-rule="nonzero"></path><path fill="#ff7300" d="M 16.441406 18.347656 C 16.136719 18.597656 15.839844 18.859375 15.542969 19.117188 C 15.246094 19.375 14.949219 19.636719 14.660156 19.902344 C 14.363281 20.164062 14.082031 20.4375 13.796875 20.703125 C 13.65625 20.835938 13.511719 20.960938 13.367188 21.089844 C 13.339844 21.066406 13.320312 21.042969 13.292969 21.019531 C 13.128906 20.886719 12.960938 20.757812 12.78125 20.640625 C 12.605469 20.519531 12.417969 20.40625 12.222656 20.308594 C 12.027344 20.207031 11.820312 20.113281 11.589844 20.046875 C 11.578125 20.042969 11.566406 20.042969 11.554688 20.046875 C 11.519531 20.054688 11.5 20.089844 11.511719 20.125 C 11.582031 20.351562 11.671875 20.558594 11.773438 20.753906 C 11.875 20.953125 11.988281 21.136719 12.105469 21.316406 C 12.222656 21.496094 12.351562 21.664062 12.488281 21.828125 C 12.621094 21.992188 12.773438 22.136719 12.929688 22.277344 L 13 22.335938 L 13.03125 22.359375 C 13.261719 22.535156 13.589844 22.484375 13.761719 22.253906 C 13.996094 21.941406 14.207031 21.601562 14.449219 21.296875 C 14.6875 20.980469 14.929688 20.671875 15.160156 20.351562 C 15.394531 20.039062 15.621094 19.714844 15.847656 19.394531 C 16.074219 19.070312 16.304688 18.75 16.523438 18.421875 C 16.535156 18.402344 16.535156 18.375 16.519531 18.355469 C 16.5 18.332031 16.464844 18.328125 16.441406 18.347656 " fill-opacity="1" fill-rule="nonzero"></path><path fill="#ff7300" d="M 16.441406 24.792969 C 16.136719 25.046875 15.839844 25.304688 15.542969 25.566406 C 15.246094 25.824219 14.949219 26.085938 14.660156 26.347656 C 14.363281 26.609375 14.082031 26.882812 13.796875 27.148438 C 13.65625 27.285156 13.511719 27.410156 13.367188 27.535156 C 13.339844 27.511719 13.320312 27.488281 13.292969 27.46875 C 13.128906 27.332031 12.960938 27.207031 12.78125 27.085938 C 12.605469 26.96875 12.417969 26.855469 12.222656 26.753906 C 12.027344 26.652344 11.820312 26.5625 11.589844 26.492188 C 11.578125 26.488281 11.566406 26.488281 11.554688 26.492188 C 11.519531 26.503906 11.5 26.539062 11.511719 26.570312 C 11.582031 26.800781 11.671875 27.007812 11.773438 27.203125 C 11.875 27.402344 11.988281 27.585938 12.105469 27.761719 C 12.222656 27.941406 12.351562 28.109375 12.488281 28.273438 C 12.621094 28.4375 12.773438 28.585938 12.929688 28.722656 L 13 28.785156 L 13.03125 28.808594 C 13.261719 28.980469 13.589844 28.933594 13.761719 28.703125 C 13.996094 28.386719 14.207031 28.050781 14.449219 27.742188 C 14.6875 27.429688 14.929688 27.121094 15.160156 26.800781 C 15.394531 26.484375 15.621094 26.164062 15.847656 25.839844 C 16.074219 25.519531 16.304688 25.199219 16.523438 24.871094 C 16.535156 24.847656 16.535156 24.820312 16.519531 24.800781 C 16.5 24.777344 16.464844 24.773438 16.441406 24.792969 " fill-opacity="1" fill-rule="nonzero"></path><path fill="#ff7300" d="M 26.082031 27.640625 L 19.816406 27.640625 C 19.488281 27.640625 19.21875 27.375 19.21875 27.042969 C 19.21875 26.714844 19.488281 26.449219 19.816406 26.449219 L 26.082031 26.449219 C 26.414062 26.449219 26.679688 26.714844 26.679688 27.042969 C 26.679688 27.375 26.414062 27.640625 26.082031 27.640625 " fill-opacity="1" fill-rule="nonzero"></path></svg>