<svg xmlns="http://www.w3.org/2000/svg" xmlns:xlink="http://www.w3.org/1999/xlink" width="50" viewBox="0 0 37.5 37.499999" height="50" preserveAspectRatio="xMidYMid meet"><defs><clipPath id="47e74b5f78"><path d="M 23 22 L 35.527344 22 L 35.527344 34.636719 L 23 34.636719 Z M 23 22 " clip-rule="nonzero"></path></clipPath><clipPath id="cc21e10c25"><path d="M 2.21875 1.332031 L 28 1.332031 L 28 27 L 2.21875 27 Z M 2.21875 1.332031 " clip-rule="nonzero"></path></clipPath></defs><path fill="#ff7300" d="M 21.761719 22.96875 L 23.855469 20.875 L 28.105469 25.125 L 26.011719 27.21875 Z M 21.761719 22.96875 " fill-opacity="1" fill-rule="nonzero"></path><g clip-path="url(#47e74b5f78)"><path fill="#ff7300" d="M 34.816406 29.460938 C 35.738281 30.386719 35.738281 31.886719 34.816406 32.8125 L 33.699219 33.925781 C 32.773438 34.851562 31.273438 34.851562 30.347656 33.925781 L 24.363281 27.941406 C 23.4375 27.015625 23.4375 25.515625 24.363281 24.589844 L 25.480469 23.472656 C 26.402344 22.550781 27.90625 22.550781 28.832031 23.472656 Z M 34.816406 29.460938 " fill-opacity="1" fill-rule="nonzero"></path></g><g clip-path="url(#cc21e10c25)"><path fill="#ff7300" d="M 14.933594 1.316406 C 7.902344 1.316406 2.203125 7.011719 2.203125 14.042969 C 2.203125 21.074219 7.902344 26.773438 14.933594 26.773438 C 21.960938 26.773438 27.660156 21.074219 27.660156 14.042969 C 27.660156 7.011719 21.960938 1.316406 14.933594 1.316406 Z M 14.933594 24.417969 C 9.203125 24.417969 4.558594 19.773438 4.558594 14.042969 C 4.558594 8.3125 9.203125 3.671875 14.933594 3.671875 C 20.664062 3.671875 25.304688 8.3125 25.304688 14.042969 C 25.304688 19.773438 20.664062 24.417969 14.933594 24.417969 Z M 14.933594 24.417969 " fill-opacity="1" fill-rule="nonzero"></path></g><path fill="#ff7300" d="M 17.542969 20.34375 C 12.464844 20.34375 8.347656 16.226562 8.347656 11.148438 C 8.347656 11.015625 8.359375 10.882812 8.367188 10.746094 C 7.695312 11.832031 7.304688 13.105469 7.304688 14.472656 C 7.304688 18.398438 10.488281 21.582031 14.410156 21.582031 C 15.929688 21.582031 17.328125 21.105469 18.484375 20.296875 C 18.175781 20.328125 17.859375 20.34375 17.542969 20.34375 Z M 17.542969 20.34375 " fill-opacity="1" fill-rule="nonzero"></path></svg>