<?xml version="1.0" encoding="UTF-8"?> <svg xmlns="http://www.w3.org/2000/svg" xmlns:xlink="http://www.w3.org/1999/xlink" width="112" zoomAndPan="magnify" viewBox="0 0 84 55.5" height="74" preserveAspectRatio="xMidYMid meet" version="1.0"><defs><clipPath id="54e084084b"><path d="M 0.375 0 L 83.625 0 L 83.625 55.003906 L 0.375 55.003906 Z M 0.375 0 " clip-rule="nonzero"></path></clipPath><clipPath id="2035bb5515"><path d="M 0.375 0 L 83.625 0 L 83.625 19 L 0.375 19 Z M 0.375 0 " clip-rule="nonzero"></path></clipPath><clipPath id="1bfd9b4894"><path d="M 0.375 18 L 83.625 18 L 83.625 38 L 0.375 38 Z M 0.375 18 " clip-rule="nonzero"></path></clipPath><clipPath id="0ad0fb5a1f"><path d="M 0.375 37 L 83.625 37 L 83.625 55.003906 L 0.375 55.003906 Z M 0.375 37 " clip-rule="nonzero"></path></clipPath></defs><g clip-path="url(#54e084084b)"><path fill="#ffffff" d="M 0.375 0 L 83.625 0 L 83.625 55.003906 L 0.375 55.003906 Z M 0.375 0 " fill-opacity="1" fill-rule="nonzero"></path><path fill="#ffffff" d="M 0.375 0 L 83.625 0 L 83.625 55.003906 L 0.375 55.003906 Z M 0.375 0 " fill-opacity="1" fill-rule="nonzero"></path></g><g clip-path="url(#2035bb5515)"><path fill="#4fc0e9" d="M 83.625 18.621094 L 0.375 18.621094 L 0.375 0.148438 L 83.625 0.148438 L 83.625 18.621094 " fill-opacity="1" fill-rule="nonzero"></path></g><g clip-path="url(#1bfd9b4894)"><path fill="#ee223a" d="M 83.625 37.125 L 0.375 37.125 L 0.375 18.652344 L 83.625 18.652344 L 83.625 37.125 " fill-opacity="1" fill-rule="nonzero"></path></g><g clip-path="url(#0ad0fb5a1f)"><path fill="#2da040" d="M 83.625 55.597656 L 0.375 55.597656 L 0.375 37.125 L 83.625 37.125 L 83.625 55.597656 " fill-opacity="1" fill-rule="nonzero"></path></g><path fill="#ffffff" d="M 41.367188 34.992188 C 37.363281 34.992188 34.113281 31.804688 34.113281 27.875 C 34.113281 23.945312 37.363281 20.753906 41.367188 20.753906 C 43.195312 20.753906 44.863281 21.417969 46.140625 22.511719 C 44.539062 20.566406 42.089844 19.316406 39.34375 19.316406 C 34.527344 19.316406 30.621094 23.148438 30.621094 27.875 C 30.621094 32.601562 34.527344 36.429688 39.34375 36.429688 C 42.089844 36.429688 44.539062 35.179688 46.140625 33.234375 C 44.863281 34.328125 43.195312 34.992188 41.367188 34.992188 " fill-opacity="1" fill-rule="nonzero"></path><path fill="#ffffff" d="M 48.824219 23.320312 L 49.695312 25.769531 L 52.042969 24.652344 L 50.925781 27.003906 L 53.378906 27.875 L 50.925781 28.746094 L 52.042969 31.09375 L 49.695312 29.976562 L 48.824219 32.429688 L 47.949219 29.976562 L 45.601562 31.09375 L 46.714844 28.746094 L 44.265625 27.875 L 46.714844 27.003906 L 45.601562 24.652344 L 47.949219 25.769531 L 48.824219 23.320312 " fill-opacity="1" fill-rule="nonzero"></path></svg> 