<?xml version="1.0" encoding="UTF-8"?> <svg xmlns="http://www.w3.org/2000/svg" xmlns:xlink="http://www.w3.org/1999/xlink" width="112" zoomAndPan="magnify" viewBox="0 0 84 55.5" height="74" preserveAspectRatio="xMidYMid meet" version="1.0"><defs><clipPath id="ffebdc15b0"><path d="M 0.375 0 L 83.625 0 L 83.625 55.003906 L 0.375 55.003906 Z M 0.375 0 " clip-rule="nonzero"></path></clipPath><clipPath id="a82810f89e"><path d="M 0.375 18 L 83.625 18 L 83.625 38 L 0.375 38 Z M 0.375 18 " clip-rule="nonzero"></path></clipPath><clipPath id="9239b5f7d2"><path d="M 0.375 37 L 83.625 37 L 83.625 55.003906 L 0.375 55.003906 Z M 0.375 37 " clip-rule="nonzero"></path></clipPath><clipPath id="e378bef316"><path d="M 0.375 0 L 83.625 0 L 83.625 19 L 0.375 19 Z M 0.375 0 " clip-rule="nonzero"></path></clipPath></defs><g clip-path="url(#ffebdc15b0)"><path fill="#ffffff" d="M 0.375 0 L 83.625 0 L 83.625 55.003906 L 0.375 55.003906 Z M 0.375 0 " fill-opacity="1" fill-rule="nonzero"></path><path fill="#ffffff" d="M 0.375 0 L 83.625 0 L 83.625 55.003906 L 0.375 55.003906 Z M 0.375 0 " fill-opacity="1" fill-rule="nonzero"></path></g><g clip-path="url(#a82810f89e)"><path fill="#00976e" d="M 0.402344 18.582031 L 83.597656 18.582031 L 83.597656 37.164062 L 0.402344 37.164062 Z M 0.402344 18.582031 " fill-opacity="1" fill-rule="nonzero"></path></g><g clip-path="url(#9239b5f7d2)"><path fill="#d7210a" d="M 0.402344 37.164062 L 83.597656 37.164062 L 83.597656 55.746094 L 0.402344 55.746094 Z M 0.402344 37.164062 " fill-opacity="1" fill-rule="nonzero"></path></g><g clip-path="url(#e378bef316)"><path fill="#ededed" d="M 0.402344 0 L 83.597656 0 L 83.597656 18.582031 L 0.402344 18.582031 Z M 0.402344 0 " fill-opacity="1" fill-rule="nonzero"></path></g></svg> 