<?xml version="1.0" encoding="UTF-8"?> <svg xmlns="http://www.w3.org/2000/svg" xmlns:xlink="http://www.w3.org/1999/xlink" width="112" zoomAndPan="magnify" viewBox="0 0 84 55.5" height="74" preserveAspectRatio="xMidYMid meet" version="1.0"><defs><clipPath id="895872c427"><path d="M 0.375 0 L 83.625 0 L 83.625 55.003906 L 0.375 55.003906 Z M 0.375 0 " clip-rule="nonzero"></path></clipPath></defs><g clip-path="url(#895872c427)"><path fill="#ffffff" d="M 0.375 0 L 83.625 0 L 83.625 55.003906 L 0.375 55.003906 Z M 0.375 0 " fill-opacity="1" fill-rule="nonzero"></path><path fill="#ffffff" d="M 0.375 0 L 83.625 0 L 83.625 55.003906 L 0.375 55.003906 Z M 0.375 0 " fill-opacity="1" fill-rule="nonzero"></path><path fill="#ff0000" d="M 83.621094 61.558594 L 0.378906 61.671875 L 0.378906 0.136719 L 83.621094 0.0234375 L 83.621094 61.558594 " fill-opacity="1" fill-rule="nonzero"></path></g><path fill="#ffff00" d="M 19.554688 12.632812 L 21.675781 19.105469 L 28.53125 19.105469 L 22.984375 23.074219 L 25.105469 29.535156 L 19.554688 25.523438 L 14.007812 29.523438 L 16.125 23.078125 L 10.578125 19.105469 L 17.4375 19.105469 L 19.554688 12.632812 " fill-opacity="1" fill-rule="nonzero"></path><path fill="#ffff00" d="M 37.789062 34.261719 L 36.046875 34.675781 L 35.902344 36.457031 L 34.980469 34.933594 L 33.242188 35.347656 L 34.410156 33.992188 L 33.476562 32.46875 L 35.121094 33.152344 L 36.277344 31.796875 L 36.132812 33.578125 L 37.789062 34.261719 " fill-opacity="1" fill-rule="nonzero"></path><path fill="#ffff00" d="M 43.113281 26.667969 L 41.40625 27.203125 L 41.386719 28.988281 L 40.359375 27.53125 L 38.65625 28.066406 L 39.726562 26.632812 L 38.691406 25.175781 L 40.375 25.746094 L 41.433594 24.3125 L 41.417969 26.097656 L 43.113281 26.667969 " fill-opacity="1" fill-rule="nonzero"></path><path fill="#ffff00" d="M 42.910156 17.429688 L 41.210938 18 L 41.234375 19.785156 L 40.171875 18.355469 L 38.484375 18.929688 L 39.519531 17.472656 L 38.449219 16.039062 L 40.152344 16.570312 L 41.175781 15.113281 L 41.195312 16.898438 L 42.910156 17.429688 " fill-opacity="1" fill-rule="nonzero"></path><path fill="#ffff00" d="M 35.445312 7.871094 L 35.539062 9.65625 L 37.269531 10.117188 L 35.601562 10.746094 L 35.695312 12.523438 L 34.570312 11.136719 L 32.898438 11.773438 L 33.867188 10.285156 L 32.738281 8.910156 L 34.46875 9.371094 L 35.445312 7.871094 " fill-opacity="1" fill-rule="nonzero"></path></svg> 