<?xml version="1.0" encoding="UTF-8"?> <svg xmlns="http://www.w3.org/2000/svg" xmlns:xlink="http://www.w3.org/1999/xlink" width="112" zoomAndPan="magnify" viewBox="0 0 84 55.5" height="74" preserveAspectRatio="xMidYMid meet" version="1.0"><defs><clipPath id="595dadd707"><path d="M 0.375 0 L 83.625 0 L 83.625 55.003906 L 0.375 55.003906 Z M 0.375 0 " clip-rule="nonzero"></path></clipPath><clipPath id="04a2736270"><path d="M 0.375 37 L 83.625 37 L 83.625 55.003906 L 0.375 55.003906 Z M 0.375 37 " clip-rule="nonzero"></path></clipPath><clipPath id="aa189173dc"><path d="M 0.375 18 L 83.625 18 L 83.625 38 L 0.375 38 Z M 0.375 18 " clip-rule="nonzero"></path></clipPath><clipPath id="2592bd337b"><path d="M 0.375 0 L 83.625 0 L 83.625 19 L 0.375 19 Z M 0.375 0 " clip-rule="nonzero"></path></clipPath></defs><g clip-path="url(#595dadd707)"><path fill="#ffffff" d="M 0.375 0 L 83.625 0 L 83.625 55.003906 L 0.375 55.003906 Z M 0.375 0 " fill-opacity="1" fill-rule="nonzero"></path><path fill="#ffffff" d="M 0.375 0 L 83.625 0 L 83.625 55.003906 L 0.375 55.003906 Z M 0.375 0 " fill-opacity="1" fill-rule="nonzero"></path></g><g clip-path="url(#04a2736270)"><path stroke-linecap="butt" transform="matrix(0.0554218, 0, 0, 0.055642, 0.378231, 0.000000991071)" fill-opacity="1" fill="#000000" fill-rule="evenodd" stroke-linejoin="miter" d="M 0.998937 667.632483 L 1501.001198 667.632483 L 1501.001198 1000.957311 L 0.998937 1000.957311 Z M 0.998937 667.632483 " stroke="#000000" stroke-width="1.953" stroke-opacity="1" stroke-miterlimit="4"></path></g><g clip-path="url(#aa189173dc)"><path stroke-linecap="butt" transform="matrix(0.0554218, 0, 0, 0.055642, 0.378231, 0.000000991071)" fill-opacity="1" fill="#ffffff" fill-rule="evenodd" stroke-linejoin="miter" d="M 0.998937 334.307655 L 1501.001198 334.307655 L 1501.001198 667.632483 L 0.998937 667.632483 Z M 0.998937 334.307655 " stroke="#ffffff" stroke-width="1.953" stroke-opacity="1" stroke-miterlimit="4"></path></g><g clip-path="url(#2592bd337b)"><path stroke-linecap="butt" transform="matrix(0.0554218, 0, 0, 0.055642, 0.378231, 0.000000991071)" fill-opacity="1" fill="#ce1126" fill-rule="evenodd" stroke-linejoin="miter" d="M 0.998937 0.982827 L 1501.001198 0.982827 L 1501.001198 334.307655 L 0.998937 334.307655 Z M 0.998937 0.982827 " stroke="#ce1126" stroke-width="1.953" stroke-opacity="1" stroke-miterlimit="4"></path></g><path stroke-linecap="round" transform="matrix(0.0554329, 0, 0, 0.055642, 0.37945, 0.000000991071)" fill-opacity="1" fill="#ffffff" fill-rule="nonzero" stroke-linejoin="round" d="M 741.314678 659.067692 C 774.082348 659.067692 805.440656 656.470173 823.832832 651.275136 C 831.584324 649.871072 831.584324 645.869489 831.584324 640.674451 C 839.406284 638.076933 835.389602 628.880313 840.815646 628.880313 C 835.389602 630.284377 834.191644 619.683692 827.567642 621.087757 C 827.567642 611.891136 818.406788 610.697682 810.655296 613.295201 C 795.081844 618.490238 767.458346 619.683692 741.314678 619.683692 C 715.17101 618.490238 687.829385 618.490238 672.044529 613.295201 C 664.293037 610.697682 655.061715 611.891136 655.061715 621.087757 C 648.508181 619.683692 647.310223 630.284377 641.884179 628.880313 C 647.310223 628.880313 643.293541 638.076933 651.045033 640.674451 C 651.045033 645.869489 651.045033 649.871072 659.078397 651.275136 C 677.259169 656.470173 708.547008 659.067692 741.314678 659.067692 Z M 741.314678 659.067692 " stroke="#fac800" stroke-width="3.906" stroke-opacity="1" stroke-miterlimit="4"></path><path stroke-linecap="round" transform="matrix(0.0554218, 0, 0, 0.055642, 0.378231, 0.000000991071)" fill-opacity="1" fill="#fdd220" fill-rule="nonzero" stroke-linejoin="round" d="M 666.985281 626.282794 C 664.377439 626.282794 664.377439 627.686858 666.985281 627.686858 C 668.183478 627.686858 668.183478 626.282794 666.985281 626.282794 Z M 666.985281 626.282794 " stroke="#fac800" stroke-width="2.087" stroke-opacity="1" stroke-miterlimit="4"></path><path stroke-linecap="round" transform="matrix(0.0554218, 0, 0, 0.055642, 0.378231, 0.000000991071)" fill-opacity="1" fill="#fdd220" fill-rule="nonzero" stroke-linejoin="round" d="M 666.985281 621.087757 C 665.575637 621.087757 665.575637 623.685275 666.985281 623.685275 C 669.593122 623.685275 669.593122 621.087757 666.985281 621.087757 Z M 666.985281 621.087757 " stroke="#fac800" stroke-width="2.087" stroke-opacity="1" stroke-miterlimit="4"></path><path stroke-linecap="round" transform="matrix(0.0554218, 0, 0, 0.055642, 0.378231, 0.000000991071)" fill-opacity="1" fill="#fdd220" fill-rule="nonzero" stroke-linejoin="round" d="M 666.985281 640.674451 C 665.575637 640.674451 665.575637 643.27197 666.985281 643.27197 C 668.183478 643.27197 668.183478 640.674451 666.985281 640.674451 Z M 666.985281 640.674451 " stroke="#fac800" stroke-width="2.087" stroke-opacity="1" stroke-miterlimit="4"></path><path stroke-linecap="round" transform="matrix(0.0554218, 0, 0, 0.055642, 0.378231, 0.000000991071)" fill-opacity="1" fill="#fdd220" fill-rule="nonzero" stroke-linejoin="round" d="M 672.130482 642.078516 C 669.593122 642.078516 669.593122 644.676034 672.130482 644.676034 C 673.610608 644.676034 673.610608 642.078516 672.130482 642.078516 Z M 672.130482 642.078516 " stroke="#fac800" stroke-width="2.087" stroke-opacity="1" stroke-miterlimit="4"></path><path stroke-linecap="round" transform="matrix(0.0554218, 0, 0, 0.055642, 0.378231, 0.000000991071)" fill-opacity="1" fill="#fdd220" fill-rule="nonzero" stroke-linejoin="round" d="M 677.346165 643.27197 C 676.147967 643.27197 676.147967 645.869489 677.346165 645.869489 C 679.954006 645.869489 679.954006 643.27197 677.346165 643.27197 Z M 677.346165 643.27197 " stroke="#fac800" stroke-width="2.087" stroke-opacity="1" stroke-miterlimit="4"></path><path stroke-linecap="round" transform="matrix(0.0554218, 0, 0, 0.055642, 0.378231, 0.000000991071)" fill-opacity="1" fill="#fdd220" fill-rule="nonzero" stroke-linejoin="round" d="M 758.471181 630.284377 C 757.272984 630.284377 757.272984 632.881895 758.471181 632.881895 C 759.880825 632.881895 759.880825 630.284377 758.471181 630.284377 Z M 758.471181 630.284377 " stroke="#fac800" stroke-width="2.087" stroke-opacity="1" stroke-miterlimit="4"></path><path stroke-linecap="round" transform="matrix(0.0554218, 0, 0, 0.055642, 0.378231, 0.000000991071)" fill-opacity="1" fill="#fdd220" fill-rule="nonzero" stroke-linejoin="round" d="M 759.880825 635.479414 C 757.272984 635.479414 757.272984 636.672869 759.880825 636.672869 C 761.008541 636.672869 761.008541 635.479414 759.880825 635.479414 Z M 759.880825 635.479414 " stroke="#fac800" stroke-width="2.087" stroke-opacity="1" stroke-miterlimit="4"></path><path stroke-linecap="round" transform="matrix(0.0554218, 0, 0, 0.055642, 0.378231, 0.000000991071)" fill-opacity="1" fill="#fdd220" fill-rule="nonzero" stroke-linejoin="round" d="M 763.616382 648.467007 C 762.418185 648.467007 762.418185 651.275136 763.616382 651.275136 C 765.026026 651.275136 765.026026 648.467007 763.616382 648.467007 Z M 763.616382 648.467007 " stroke="#fac800" stroke-width="2.087" stroke-opacity="1" stroke-miterlimit="4"></path><path stroke-linecap="round" transform="matrix(0.0554218, 0, 0, 0.055642, 0.378231, 0.000000991071)" fill-opacity="1" fill="#fdd220" fill-rule="nonzero" stroke-linejoin="round" d="M 769.043512 648.467007 C 766.224224 648.467007 766.224224 651.275136 769.043512 651.275136 C 770.241709 651.275136 770.241709 648.467007 769.043512 648.467007 Z M 769.043512 648.467007 " stroke="#fac800" stroke-width="2.087" stroke-opacity="1" stroke-miterlimit="4"></path><path stroke-linecap="round" transform="matrix(0.0554218, 0, 0, 0.055642, 0.378231, 0.000000991071)" fill-opacity="1" fill="#fdd220" fill-rule="nonzero" stroke-linejoin="round" d="M 822.539505 638.076933 C 819.931663 638.076933 819.931663 639.480997 822.539505 639.480997 C 823.949149 639.480997 823.949149 638.076933 822.539505 638.076933 Z M 822.539505 638.076933 " stroke="#fac800" stroke-width="2.087" stroke-opacity="1" stroke-miterlimit="4"></path><path stroke-linecap="round" transform="matrix(0.0554329, 0, 0, 0.055642, 0.37945, 0.000000991071)" fill="none" stroke-linejoin="round" d="M 672.044529 621.087757 C 670.635167 626.282794 669.437209 631.477831 668.027847 634.07535 C 668.027847 636.672869 669.437209 638.076933 670.635167 638.076933 C 674.651849 639.480997 674.651849 639.480997 676.061211 634.07535 C 677.259169 631.477831 676.061211 631.477831 676.061211 634.07535 C 674.651849 638.076933 673.453891 639.480997 678.668531 640.674451 C 682.40334 642.078516 683.812703 640.674451 685.01066 635.479414 C 685.01066 632.881895 682.40334 634.07535 683.812703 635.479414 " stroke="#fac800" stroke-width="2.087" stroke-opacity="1" stroke-miterlimit="4"></path><path stroke-linecap="round" transform="matrix(0.0554329, 0, 0, 0.055642, 0.37945, 0.000000991071)" fill="none" stroke-linejoin="round" d="M 669.437209 631.477831 C 662.883675 632.881895 665.420527 636.672869 670.635167 638.076933 " stroke="#fac800" stroke-width="2.087" stroke-opacity="1" stroke-miterlimit="4"></path><path stroke-linecap="round" transform="matrix(0.0554329, 0, 0, 0.055642, 0.37945, 0.000000991071)" fill="none" stroke-linejoin="round" d="M 686.420023 645.869489 C 689.027343 644.676034 690.436705 642.078516 690.436705 639.480997 C 689.027343 635.479414 687.829385 636.672869 689.027343 639.480997 C 689.027343 642.078516 690.436705 643.27197 694.171514 643.27197 C 696.778834 643.27197 699.386154 642.078516 702.204879 640.674451 C 704.812199 639.480997 704.812199 635.479414 702.204879 634.07535 C 698.188197 632.881895 695.580877 638.076933 699.386154 640.674451 C 700.795517 642.078516 702.204879 643.27197 704.812199 644.676034 C 704.812199 645.869489 704.812199 648.467007 707.419519 648.467007 C 708.547008 649.871072 711.154328 645.869489 711.154328 642.078516 L 711.154328 630.284377 " stroke="#fac800" stroke-width="2.087" stroke-opacity="1" stroke-miterlimit="4"></path><path stroke-linecap="round" transform="matrix(0.0554329, 0, 0, 0.055642, 0.37945, 0.000000991071)" fill="none" stroke-linejoin="round" d="M 716.580373 630.284377 C 716.580373 634.07535 715.17101 640.674451 715.17101 644.676034 " stroke="#fac800" stroke-width="2.087" stroke-opacity="1" stroke-miterlimit="4"></path><path stroke-linecap="round" transform="matrix(0.0554329, 0, 0, 0.055642, 0.37945, 0.000000991071)" fill="none" stroke-linejoin="round" d="M 719.187693 652.46859 C 724.331864 648.467007 724.331864 645.869489 724.331864 643.27197 C 722.922502 639.480997 720.38565 640.674451 721.795013 643.27197 C 722.922502 644.676034 724.331864 645.869489 726.939184 645.869489 C 728.348547 645.869489 729.546504 644.676034 729.546504 639.480997 C 729.546504 638.076933 728.348547 638.076933 728.348547 639.480997 C 728.348547 640.674451 732.153824 640.674451 733.563186 640.674451 C 736.170506 642.078516 742.72404 642.078516 743.921998 640.674451 C 745.33136 640.674451 745.33136 644.676034 745.33136 644.676034 C 745.33136 645.869489 743.921998 647.273553 743.921998 648.467007 C 742.72404 651.275136 741.314678 649.871072 739.905316 648.467007 C 739.905316 645.869489 737.297996 645.869489 736.170506 645.869489 L 726.939184 645.869489 " stroke="#fac800" stroke-width="2.087" stroke-opacity="1" stroke-miterlimit="4"></path><path stroke-linecap="round" transform="matrix(0.0554329, 0, 0, 0.055642, 0.37945, 0.000000991071)" fill="none" stroke-linejoin="round" d="M 745.33136 645.869489 C 746.529318 645.869489 749.136638 644.676034 750.546 645.869489 C 751.67349 645.869489 754.562683 644.676034 754.562683 643.27197 C 754.562683 639.480997 747.93868 639.480997 750.546 645.869489 " stroke="#fac800" stroke-width="2.087" stroke-opacity="1" stroke-miterlimit="4"></path><path stroke-linecap="round" transform="matrix(0.0554329, 0, 0, 0.055642, 0.37945, 0.000000991071)" fill="none" stroke-linejoin="round" d="M 763.512132 630.284377 C 764.921494 635.479414 764.921494 642.078516 763.512132 644.676034 C 762.314174 645.869489 759.706854 645.869489 759.706854 644.676034 C 760.904812 643.27197 763.512132 642.078516 764.921494 643.27197 C 764.921494 644.676034 766.048984 645.869489 768.938176 644.676034 C 771.475028 644.676034 772.672986 644.676034 772.672986 638.076933 C 772.672986 636.672869 768.938176 636.672869 772.672986 639.480997 " stroke="#fac800" stroke-width="2.087" stroke-opacity="1" stroke-miterlimit="4"></path><path stroke-linecap="round" transform="matrix(0.0554329, 0, 0, 0.055642, 0.37945, 0.000000991071)" fill="none" stroke-linejoin="round" d="M 776.689668 649.871072 C 779.296988 647.273553 781.83384 642.078516 780.424478 639.480997 C 777.887626 636.672869 776.689668 636.672869 776.689668 639.480997 C 776.689668 640.674451 777.887626 642.078516 780.424478 643.27197 " stroke="#fac800" stroke-width="2.087" stroke-opacity="1" stroke-miterlimit="4"></path><path stroke-linecap="round" transform="matrix(0.0554329, 0, 0, 0.055642, 0.37945, 0.000000991071)" fill="none" stroke-linejoin="round" d="M 785.850522 647.273553 C 789.6558 645.869489 789.6558 643.27197 789.6558 640.674451 C 789.6558 638.076933 788.457842 636.672869 787.04848 638.076933 C 784.44116 639.480997 784.44116 642.078516 787.04848 642.078516 C 792.26312 642.078516 801.423974 640.674451 808.047976 636.672869 " stroke="#fac800" stroke-width="2.087" stroke-opacity="1" stroke-miterlimit="4"></path><path stroke-linecap="round" transform="matrix(0.0554329, 0, 0, 0.055642, 0.37945, 0.000000991071)" fill="none" stroke-linejoin="round" d="M 795.081844 640.674451 C 795.081844 638.076933 796.209334 635.479414 798.816654 635.479414 C 800.226016 634.07535 804.031294 635.479414 804.031294 638.076933 C 805.440656 640.674451 802.833336 643.27197 800.226016 642.078516 C 798.816654 639.480997 797.689164 632.881895 796.209334 627.686858 " stroke="#fac800" stroke-width="2.087" stroke-opacity="1" stroke-miterlimit="4"></path><path stroke-linecap="round" transform="matrix(0.0554329, 0, 0, 0.055642, 0.37945, 0.000000991071)" fill="none" stroke-linejoin="round" d="M 815.799468 634.07535 C 813.192148 631.477831 806.638614 634.07535 808.047976 636.672869 C 809.457338 640.674451 817.20883 638.076933 815.799468 634.07535 Z M 815.799468 634.07535 " stroke="#fac800" stroke-width="2.087" stroke-opacity="1" stroke-miterlimit="4"></path><path stroke-linecap="round" transform="matrix(0.0554329, 0, 0, 0.055642, 0.37945, 0.000000991071)" fill="none" stroke-linejoin="round" d="M 815.799468 635.479414 C 815.799468 635.479414 818.406788 634.07535 819.81615 632.881895 " stroke="#fac800" stroke-width="2.087" stroke-opacity="1" stroke-miterlimit="4"></path><path stroke-linecap="round" transform="matrix(0.0554329, 0, 0, 0.055642, 0.37945, 0.000000991071)" fill="none" stroke-linejoin="round" d="M 809.457338 621.087757 C 812.064658 618.490238 817.20883 618.490238 817.20883 623.685275 C 817.20883 632.881895 821.014108 636.672869 826.440152 632.881895 C 826.440152 631.477831 826.440152 630.284377 825.03079 632.881895 " stroke="#fac800" stroke-width="2.087" stroke-opacity="1" stroke-miterlimit="4"></path><path stroke-linecap="round" transform="matrix(0.0554329, 0, 0, 0.055642, 0.37945, 0.000000991071)" fill="none" stroke-linejoin="round" d="M 695.580877 636.672869 L 698.188197 636.672869 " stroke="#fac800" stroke-width="2.087" stroke-opacity="1" stroke-miterlimit="4"></path><path stroke-linecap="round" transform="matrix(0.0554329, 0, 0, 0.055642, 0.37945, 0.000000991071)" fill="none" stroke-linejoin="round" d="M 704.812199 638.076933 L 706.010156 638.076933 " stroke="#fac800" stroke-width="2.087" stroke-opacity="1" stroke-miterlimit="4"></path><path stroke-linecap="round" transform="matrix(0.0554218, 0, 0, 0.055642, 0.378231, 0.000000991071)" fill-opacity="1" fill="#ffffff" fill-rule="nonzero" stroke-linejoin="round" d="M 742.75365 508.832828 L 855.313729 613.295201 L 847.278758 423.606135 C 846.080561 394.82282 821.12986 401.421921 802.945452 411.811996 C 784.620079 423.606135 763.616382 423.606135 741.48497 415.813579 C 719.283076 423.606135 698.349861 423.606135 679.954006 411.811996 C 661.769598 401.421921 636.818898 394.82282 635.6207 423.606135 L 627.585729 613.295201 Z M 742.75365 508.832828 " stroke="#fac800" stroke-width="2.087" stroke-opacity="1" stroke-miterlimit="4"></path><path stroke-linecap="square" transform="matrix(0.0554329, 0, 0, 0.055642, 0.37945, 0.000000991071)" fill-opacity="1" fill="#ffffff" fill-rule="nonzero" stroke-linejoin="miter" d="M 759.706854 422.41268 C 766.048984 426.203653 772.672986 426.203653 776.689668 426.203653 C 763.512132 417.007033 759.706854 392.225301 760.904812 381.90543 C 763.512132 360.914671 758.297492 349.120532 745.33136 346.523013 C 742.72404 346.523013 741.314678 345.118949 736.170506 345.118949 C 732.153824 343.925494 729.123696 347.716468 727.714334 350.313986 C 723.697651 347.716468 720.38565 349.120532 716.580373 346.523013 C 712.56369 345.118949 706.010156 346.523013 706.010156 355.719633 L 708.547008 354.666585 C 709.744966 354.806992 711.859009 356.070649 714.536797 357.544917 C 717.919267 360.212638 722.922502 362.108125 724.331864 371.304745 C 726.939184 390.821237 724.331864 409.214477 706.010156 426.203653 C 709.95637 426.203653 716.580373 426.203653 722.922502 422.41268 C 720.38565 426.203653 719.187693 427.607717 716.580373 430.205236 C 724.331864 428.801172 730.955867 426.203653 734.761144 419.815161 C 736.170506 422.41268 739.905316 426.203653 741.314678 428.801172 C 742.72404 426.203653 746.529318 422.41268 747.93868 419.815161 C 751.67349 426.203653 758.297492 428.801172 766.048984 430.205236 C 763.512132 427.607717 762.314174 426.203653 759.706854 422.41268 Z M 759.706854 422.41268 " stroke="#fac800" stroke-width="1.953" stroke-opacity="1" stroke-miterlimit="4"></path><path stroke-linecap="round" transform="matrix(0.0554329, 0, 0, 0.055642, 0.37945, 0.000000991071)" fill="none" stroke-linejoin="round" d="M 753.082852 397.420338 C 753.082852 408.021023 756.53579 415.813579 760.552472 423.606135 " stroke="#fac800" stroke-width="2.087" stroke-opacity="1" stroke-miterlimit="4"></path><path stroke-linecap="round" transform="matrix(0.0554329, 0, 0, 0.055642, 0.37945, 0.000000991071)" fill="none" stroke-linejoin="round" d="M 747.93868 419.815161 C 745.33136 415.813579 743.921998 408.021023 743.921998 397.420338 " stroke="#fac800" stroke-width="2.087" stroke-opacity="1" stroke-miterlimit="4"></path><path stroke-linecap="round" transform="matrix(0.0554329, 0, 0, 0.055642, 0.37945, 0.000000991071)" fill="none" stroke-linejoin="round" d="M 729.546504 397.420338 C 729.546504 408.021023 726.164035 415.813579 722.147353 423.606135 " stroke="#fac800" stroke-width="2.087" stroke-opacity="1" stroke-miterlimit="4"></path><path stroke-linecap="round" transform="matrix(0.0554329, 0, 0, 0.055642, 0.37945, 0.000000991071)" fill="none" stroke-linejoin="round" d="M 734.761144 419.815161 C 737.297996 415.813579 738.707358 408.021023 738.707358 397.420338 " stroke="#fac800" stroke-width="2.087" stroke-opacity="1" stroke-miterlimit="4"></path><path stroke-linecap="round" transform="matrix(0.0554218, 0, 0, 0.055642, 0.378231, 0.000000991071)" fill-opacity="1" fill="#fac800" fill-rule="nonzero" stroke-linejoin="round" d="M 706.94869 354.455975 C 709.697496 354.666585 710.966176 355.64943 714.631251 357.544917 C 717.239092 358.948981 723.089115 362.108125 724.498759 370.111291 C 723.089115 366.109708 725.696957 362.108125 728.516245 363.512189 C 724.498759 354.315569 712.164373 351.92866 706.94869 354.455975 Z M 706.94869 354.455975 " stroke="#fac800" stroke-width="0.977" stroke-opacity="1" stroke-miterlimit="4"></path><path stroke-linecap="square" transform="matrix(0.0554329, 0, 0, 0.055642, 0.37945, 0.000000991071)" fill-opacity="1" fill="#fac800" fill-rule="nonzero" stroke-linejoin="miter" d="M 746.529318 529.683181 L 762.314174 601.571265 L 757.099534 606.696099 L 751.67349 602.694516 L 742.72404 538.598988 L 746.529318 602.694516 L 741.314678 609.293618 L 736.170506 602.694516 L 739.905316 538.598988 L 730.955867 602.694516 L 725.529822 606.696099 L 720.38565 601.571265 L 736.170506 529.683181 Z M 746.529318 529.683181 " stroke="#fac800" stroke-width="1.764" stroke-opacity="1" stroke-miterlimit="4"></path><path fill="#fac800" d="M 36.324219 23.203125 L 35.894531 33.472656 L 35.164062 34.125 L 35.609375 23.570312 C 35.816406 23.425781 36.183594 23.203125 36.324219 23.203125 Z M 36.324219 23.203125 " fill-opacity="1" fill-rule="nonzero"></path><path fill="#fac800" d="M 37.203125 23.9375 L 36.835938 32.527344 L 36.105469 33.277344 L 36.546875 23.359375 C 36.691406 23.503906 37.125 23.859375 37.203125 23.9375 Z M 37.203125 23.9375 " fill-opacity="1" fill-rule="nonzero"></path><path fill="#fac800" d="M 38 24.59375 L 37.710938 31.757812 L 37.125 32.332031 L 37.488281 24.160156 C 37.632812 24.304688 37.921875 24.515625 38 24.59375 Z M 38 24.59375 " fill-opacity="1" fill-rule="nonzero"></path><path fill="#fac800" d="M 38.859375 24.960938 L 38.574219 31.066406 L 38 31.535156 L 38.285156 24.738281 C 38.429688 24.800781 38.714844 24.960938 38.859375 24.960938 Z M 38.859375 24.960938 " fill-opacity="1" fill-rule="nonzero"></path><path fill="#fac800" d="M 39.65625 24.960938 L 39.449219 30.046875 L 38.859375 30.625 L 39.082031 25.023438 C 39.226562 25.023438 39.59375 25.023438 39.65625 24.960938 Z M 39.65625 24.960938 " fill-opacity="1" fill-rule="nonzero"></path><path fill="#fac800" d="M 46.621094 23.203125 L 47.050781 33.472656 L 47.785156 34.125 L 47.339844 23.570312 C 47.128906 23.425781 46.765625 23.203125 46.621094 23.203125 Z M 46.621094 23.203125 " fill-opacity="1" fill-rule="nonzero"></path><path fill="#fac800" d="M 45.746094 23.9375 L 46.113281 32.527344 L 46.84375 33.167969 L 46.398438 23.359375 C 46.253906 23.503906 45.824219 23.859375 45.746094 23.9375 Z M 45.746094 23.9375 " fill-opacity="1" fill-rule="nonzero"></path><path fill="#fac800" d="M 44.945312 24.59375 L 45.246094 31.757812 L 45.820312 32.226562 L 45.457031 24.160156 C 45.3125 24.304688 45.023438 24.515625 44.945312 24.59375 Z M 44.945312 24.59375 " fill-opacity="1" fill-rule="nonzero"></path><path fill="#fac800" d="M 44.085938 24.960938 L 44.375 30.957031 L 44.949219 31.425781 L 44.660156 24.738281 C 44.515625 24.804688 44.230469 24.960938 44.085938 24.960938 Z M 44.085938 24.960938 " fill-opacity="1" fill-rule="nonzero"></path><path fill="#fac800" d="M 43.289062 24.960938 L 43.5 30.046875 L 44.085938 30.625 L 43.863281 25.023438 C 43.71875 25.023438 43.355469 25.023438 43.289062 24.960938 Z M 43.289062 24.960938 " fill-opacity="1" fill-rule="nonzero"></path><path stroke-linecap="round" transform="matrix(0.0554329, 0, 0, 0.055642, 0.37945, 0.000000991071)" fill-opacity="1" fill="#ffffff" fill-rule="nonzero" stroke-linejoin="round" d="M 706.010156 498.091737 L 674.651849 609.293618 L 717.77833 615.892719 L 736.170506 532.280699 Z M 706.010156 498.091737 " stroke="#fac800" stroke-width="1.953" stroke-opacity="1" stroke-miterlimit="4"></path><path stroke-linecap="round" transform="matrix(0.0554329, 0, 0, 0.055642, 0.37945, 0.000000991071)" fill-opacity="1" fill="#ffffff" fill-rule="nonzero" stroke-linejoin="round" d="M 776.689668 498.091737 L 808.047976 609.293618 L 764.921494 615.892719 L 746.529318 532.280699 Z M 776.689668 498.091737 " stroke="#fac800" stroke-width="1.953" stroke-opacity="1" stroke-miterlimit="4"></path><path stroke-linecap="round" transform="matrix(0.0554329, 0, 0, 0.055642, 0.37945, 0.000000991071)" fill="none" stroke-linejoin="round" d="M 695.580877 536.001469 L 699.386154 545.19809 L 711.154328 532.280699 " stroke="#fac800" stroke-width="2.087" stroke-opacity="1" stroke-miterlimit="4"></path><path stroke-linecap="round" transform="matrix(0.0554329, 0, 0, 0.055642, 0.37945, 0.000000991071)" fill="none" stroke-linejoin="round" d="M 709.95637 516.484978 L 713.973053 552.990646 L 726.939184 536.001469 " stroke="#fac800" stroke-width="2.087" stroke-opacity="1" stroke-miterlimit="4"></path><path stroke-linecap="round" transform="matrix(0.0554329, 0, 0, 0.055642, 0.37945, 0.000000991071)" fill="none" stroke-linejoin="round" d="M 721.795013 542.600571 L 729.546504 562.187266 " stroke="#fac800" stroke-width="2.087" stroke-opacity="1" stroke-miterlimit="4"></path><path stroke-linecap="round" transform="matrix(0.0554329, 0, 0, 0.055642, 0.37945, 0.000000991071)" fill="none" stroke-linejoin="round" d="M 728.348547 567.382303 L 717.77833 577.982987 L 711.154328 556.992228 L 704.812199 568.786367 L 699.386154 555.798774 L 687.829385 566.188849 " stroke="#fac800" stroke-width="2.087" stroke-opacity="1" stroke-miterlimit="4"></path><path stroke-linecap="round" transform="matrix(0.0554329, 0, 0, 0.055642, 0.37945, 0.000000991071)" fill="none" stroke-linejoin="round" d="M 685.01066 571.383886 L 693.044025 590.900377 L 702.204879 579.176442 L 707.419519 594.972163 L 717.77833 581.773961 L 721.795013 601.571265 " stroke="#fac800" stroke-width="2.087" stroke-opacity="1" stroke-miterlimit="4"></path><path stroke-linecap="round" transform="matrix(0.0554329, 0, 0, 0.055642, 0.37945, 0.000000991071)" fill="none" stroke-linejoin="round" d="M 683.812703 606.696099 L 691.564194 596.095415 L 698.188197 613.295201 L 706.010156 600.096998 L 711.154328 615.892719 L 719.187693 609.293618 " stroke="#fac800" stroke-width="2.087" stroke-opacity="1" stroke-miterlimit="4"></path><path stroke-linecap="round" transform="matrix(0.0554329, 0, 0, 0.055642, 0.37945, 0.000000991071)" fill="none" stroke-linejoin="round" d="M 787.04848 536.001469 L 783.31367 545.19809 L 771.475028 532.280699 " stroke="#fac800" stroke-width="2.087" stroke-opacity="1" stroke-miterlimit="4"></path><path stroke-linecap="round" transform="matrix(0.0554329, 0, 0, 0.055642, 0.37945, 0.000000991071)" fill="none" stroke-linejoin="round" d="M 772.672986 516.484978 L 768.867708 552.990646 L 755.690172 536.001469 " stroke="#fac800" stroke-width="2.087" stroke-opacity="1" stroke-miterlimit="4"></path><path stroke-linecap="round" transform="matrix(0.0554329, 0, 0, 0.055642, 0.37945, 0.000000991071)" fill="none" stroke-linejoin="round" d="M 760.904812 542.600571 L 753.082852 562.187266 " stroke="#fac800" stroke-width="2.087" stroke-opacity="1" stroke-miterlimit="4"></path><path stroke-linecap="round" transform="matrix(0.0554329, 0, 0, 0.055642, 0.37945, 0.000000991071)" fill="none" stroke-linejoin="round" d="M 754.562683 567.382303 L 764.921494 577.982987 L 770.065666 556.992228 L 777.887626 568.786367 L 783.31367 555.798774 L 795.081844 566.188849 " stroke="#fac800" stroke-width="2.087" stroke-opacity="1" stroke-miterlimit="4"></path><path stroke-linecap="round" transform="matrix(0.0554329, 0, 0, 0.055642, 0.37945, 0.000000991071)" fill="none" stroke-linejoin="round" d="M 797.689164 571.383886 L 789.6558 590.900377 L 780.424478 579.176442 L 775.280306 594.972163 L 764.921494 581.773961 L 760.904812 601.571265 " stroke="#fac800" stroke-width="2.087" stroke-opacity="1" stroke-miterlimit="4"></path><path stroke-linecap="round" transform="matrix(0.0554329, 0, 0, 0.055642, 0.37945, 0.000000991071)" fill="none" stroke-linejoin="round" d="M 798.816654 606.696099 L 791.065162 596.095415 L 784.44116 613.295201 L 776.689668 600.096998 L 771.475028 615.892719 L 763.512132 609.293618 " stroke="#fac800" stroke-width="2.087" stroke-opacity="1" stroke-miterlimit="4"></path><path stroke-linecap="round" transform="matrix(0.0554329, 0, 0, 0.055642, 0.37945, 0.000000991071)" fill-opacity="1" fill="#ffffff" fill-rule="nonzero" stroke-linejoin="round" d="M 741.314678 434.206819 C 754.562683 444.596894 771.475028 449.791931 791.065162 448.598476 C 789.6558 494.300764 776.689668 525.681598 741.314678 549.199672 C 706.010156 525.681598 693.044025 494.300764 691.634663 448.598476 C 711.154328 449.791931 728.348547 444.596894 741.314678 434.206819 Z M 741.314678 434.206819 " stroke="#fac800" stroke-width="1.465" stroke-opacity="1" stroke-miterlimit="4"></path><path stroke-linecap="round" transform="matrix(0.0554329, 0, 0, 0.055642, 0.37945, 0.000000991071)" fill-opacity="1" fill="#fac800" fill-rule="nonzero" stroke-linejoin="round" d="M 741.314678 544.004635 C 768.938176 525.681598 784.44116 494.300764 785.850522 452.319246 C 768.938176 452.319246 751.67349 448.598476 741.314678 439.401856 C 729.546504 448.598476 713.973053 452.319246 695.580877 452.319246 C 698.188197 494.300764 713.973053 525.681598 741.314678 544.004635 Z M 741.314678 544.004635 " stroke="#fac800" stroke-width="1.953" stroke-opacity="1" stroke-miterlimit="4"></path><path stroke-linecap="round" transform="matrix(0.0554329, 0, 0, 0.055642, 0.37945, 0.000000991071)" fill-opacity="1" fill="#ffffff" fill-rule="nonzero" stroke-linejoin="round" d="M 696.778834 609.293618 C 707.419519 610.697682 719.187693 611.891136 728.348547 610.697682 C 733.563186 610.697682 737.297996 619.683692 726.939184 621.087757 C 717.77833 622.281211 703.402837 621.087757 695.580877 619.683692 C 689.027343 618.490238 674.651849 615.892719 665.420527 613.295201 C 656.259673 609.293618 662.883675 601.501062 668.027847 602.694516 C 676.061211 605.292035 686.420023 607.889554 696.778834 609.293618 Z M 696.778834 609.293618 " stroke="#fac800" stroke-width="2.087" stroke-opacity="1" stroke-miterlimit="4"></path><path stroke-linecap="round" transform="matrix(0.0554329, 0, 0, 0.055642, 0.37945, 0.000000991071)" fill-opacity="1" fill="#ffffff" fill-rule="nonzero" stroke-linejoin="round" d="M 785.850522 609.293618 C 775.280306 610.697682 763.512132 611.891136 754.492214 610.697682 C 749.136638 610.697682 745.33136 619.683692 755.690172 621.087757 C 764.921494 622.281211 779.296988 621.087757 787.04848 619.683692 C 793.672482 618.490238 808.047976 615.892719 817.20883 613.295201 C 826.440152 609.293618 819.81615 601.501062 814.60151 602.694516 C 806.638614 605.292035 796.209334 607.889554 785.850522 609.293618 Z M 785.850522 609.293618 " stroke="#fac800" stroke-width="2.087" stroke-opacity="1" stroke-miterlimit="4"></path><path stroke-linecap="round" transform="matrix(0.0554218, 0, 0, 0.055642, 0.378231, 0.000000991071)" fill-opacity="1" fill="#ffffff" fill-rule="nonzero" stroke-linejoin="round" d="M 664.377439 604.09858 C 656.342468 602.694516 652.606911 611.891136 655.214753 617.086174 C 656.342468 614.488655 661.769598 614.488655 662.967795 611.891136 C 664.377439 607.889554 661.769598 607.889554 664.377439 604.09858 Z M 664.377439 604.09858 " stroke="#fac800" stroke-width="2.087" stroke-opacity="1" stroke-miterlimit="4"></path><path stroke-linecap="round" transform="matrix(0.0554329, 0, 0, 0.055642, 0.37945, 0.000000991071)" fill-opacity="1" fill="#ffffff" fill-rule="nonzero" stroke-linejoin="round" d="M 695.580877 628.248484 C 695.580877 623.053446 700.795517 623.685275 700.795517 618.490238 C 700.795517 615.892719 699.386154 611.891136 696.778834 611.891136 C 694.171514 611.891136 691.634663 614.488655 691.634663 617.086174 C 690.436705 622.281211 695.580877 623.053446 695.580877 628.248484 Z M 695.580877 628.248484 " stroke="#fac800" stroke-width="2.087" stroke-opacity="1" stroke-miterlimit="4"></path><path stroke-linecap="round" transform="matrix(0.0554329, 0, 0, 0.055642, 0.37945, 0.000000991071)" fill-opacity="1" fill="#ffffff" fill-rule="nonzero" stroke-linejoin="round" d="M 732.928974 613.295201 C 740.680465 613.295201 739.905316 623.685275 736.170506 628.880313 C 736.170506 625.089339 729.546504 623.685275 729.546504 621.087757 C 729.546504 617.086174 735.465825 617.086174 732.928974 613.295201 Z M 732.928974 613.295201 " stroke="#fac800" stroke-width="2.087" stroke-opacity="1" stroke-miterlimit="4"></path><path stroke-linecap="round" transform="matrix(0.0554218, 0, 0, 0.055642, 0.378231, 0.000000991071)" fill-opacity="1" fill="#ffffff" fill-rule="nonzero" stroke-linejoin="round" d="M 818.522019 604.09858 C 826.55699 602.694516 830.292547 611.891136 827.755188 617.086174 C 826.55699 614.488655 821.12986 614.488655 819.931663 611.891136 C 818.522019 607.889554 821.12986 607.889554 818.522019 604.09858 Z M 818.522019 604.09858 " stroke="#fac800" stroke-width="2.087" stroke-opacity="1" stroke-miterlimit="4"></path><path stroke-linecap="round" transform="matrix(0.0554329, 0, 0, 0.055642, 0.37945, 0.000000991071)" fill-opacity="1" fill="#ffffff" fill-rule="nonzero" stroke-linejoin="round" d="M 787.04848 628.248484 C 787.04848 623.053446 781.904308 623.685275 781.904308 618.490238 C 781.904308 615.892719 783.31367 611.891136 785.850522 611.891136 C 788.457842 611.891136 791.065162 614.488655 791.065162 617.086174 C 792.26312 622.281211 787.04848 623.053446 787.04848 628.248484 Z M 787.04848 628.248484 " stroke="#fac800" stroke-width="2.087" stroke-opacity="1" stroke-miterlimit="4"></path><path stroke-linecap="round" transform="matrix(0.0554329, 0, 0, 0.055642, 0.37945, 0.000000991071)" fill-opacity="1" fill="#ffffff" fill-rule="nonzero" stroke-linejoin="round" d="M 749.770851 613.295201 C 741.948891 613.295201 742.72404 623.685275 746.529318 628.880313 C 746.529318 625.089339 753.082852 623.685275 753.082852 621.087757 C 753.082852 617.086174 747.163531 617.086174 749.770851 613.295201 Z M 749.770851 613.295201 " stroke="#fac800" stroke-width="2.087" stroke-opacity="1" stroke-miterlimit="4"></path><path stroke-linecap="round" transform="matrix(0.0554218, 0, 0, 0.055642, 0.378231, 0.000000991071)" fill-opacity="1" fill="#ffffff" fill-rule="nonzero" stroke-linejoin="round" d="M 666.985281 606.696099 C 669.593122 606.696099 673.610608 607.889554 674.738323 609.293618 Z M 666.985281 606.696099 " stroke="#fac800" stroke-width="1.465" stroke-opacity="1" stroke-miterlimit="4"></path><path stroke-linecap="round" transform="matrix(0.0554218, 0, 0, 0.055642, 0.378231, 0.000000991071)" fill-opacity="1" fill="#ffffff" fill-rule="nonzero" stroke-linejoin="round" d="M 679.954006 610.697682 C 681.36365 610.697682 686.508851 611.891136 689.116693 613.295201 Z M 679.954006 610.697682 " stroke="#fac800" stroke-width="1.465" stroke-opacity="1" stroke-miterlimit="4"></path><path stroke-linecap="round" transform="matrix(0.0554218, 0, 0, 0.055642, 0.378231, 0.000000991071)" fill-opacity="1" fill="#ffffff" fill-rule="nonzero" stroke-linejoin="round" d="M 727.106601 615.892719 C 724.498759 615.892719 719.283076 615.892719 717.873432 617.086174 Z M 727.106601 615.892719 " stroke="#fac800" stroke-width="1.465" stroke-opacity="1" stroke-miterlimit="4"></path><path stroke-linecap="round" transform="matrix(0.0554218, 0, 0, 0.055642, 0.378231, 0.000000991071)" fill-opacity="1" fill="#ffffff" fill-rule="nonzero" stroke-linejoin="round" d="M 712.728231 615.892719 C 711.318587 614.488655 706.102904 614.488655 703.495062 615.892719 Z M 712.728231 615.892719 " stroke="#fac800" stroke-width="1.465" stroke-opacity="1" stroke-miterlimit="4"></path><path stroke-linecap="round" transform="matrix(0.0554218, 0, 0, 0.055642, 0.378231, 0.000000991071)" fill-opacity="1" fill="#ffffff" fill-rule="nonzero" stroke-linejoin="round" d="M 815.98466 606.696099 C 813.376818 606.696099 809.570779 607.889554 808.161135 609.293618 Z M 815.98466 606.696099 " stroke="#fac800" stroke-width="1.465" stroke-opacity="1" stroke-miterlimit="4"></path><path stroke-linecap="round" transform="matrix(0.0554218, 0, 0, 0.055642, 0.378231, 0.000000991071)" fill-opacity="1" fill="#ffffff" fill-rule="nonzero" stroke-linejoin="round" d="M 802.945452 610.697682 C 801.535808 610.697682 796.390607 611.891136 793.782765 613.295201 Z M 802.945452 610.697682 " stroke="#fac800" stroke-width="1.465" stroke-opacity="1" stroke-miterlimit="4"></path><path stroke-linecap="round" transform="matrix(0.0554218, 0, 0, 0.055642, 0.378231, 0.000000991071)" fill-opacity="1" fill="#ffffff" fill-rule="nonzero" stroke-linejoin="round" d="M 755.86334 615.892719 C 758.400699 615.892719 763.616382 615.892719 765.026026 617.086174 Z M 755.86334 615.892719 " stroke="#fac800" stroke-width="1.465" stroke-opacity="1" stroke-miterlimit="4"></path><path stroke-linecap="round" transform="matrix(0.0554218, 0, 0, 0.055642, 0.378231, 0.000000991071)" fill-opacity="1" fill="#ffffff" fill-rule="nonzero" stroke-linejoin="round" d="M 770.241709 615.892719 C 771.651353 614.488655 776.796554 614.488655 779.404396 615.892719 Z M 770.241709 615.892719 " stroke="#fac800" stroke-width="1.465" stroke-opacity="1" stroke-miterlimit="4"></path><path stroke-linecap="round" transform="matrix(0.0554218, 0, 0, 0.055642, 0.378231, 0.000000991071)" fill-opacity="1" fill="#fac800" fill-rule="nonzero" stroke-linejoin="round" d="M 759.880825 358.317152 C 757.272984 351.71805 752.621158 346.523013 746.207278 345.329559 C 742.965096 344.346714 739.581951 344.627526 735.775912 344.627526 C 731.758426 343.434072 728.516245 347.716468 727.106601 350.313986 C 731.124086 353.122115 731.969873 356.000446 734.084339 356.913088 C 738.031342 358.317152 740.075326 356.913088 744.092812 353.122115 C 748.039815 349.120532 757.272984 350.313986 759.880825 358.317152 Z M 759.880825 358.317152 " stroke="#fac800" stroke-width="0.977" stroke-opacity="1" stroke-miterlimit="4"></path><path stroke-linecap="round" transform="matrix(0.0554218, 0, 0, 0.055642, 0.378231, 0.000000991071)" fill-opacity="1" fill="#ffffff" fill-rule="nonzero" stroke-linejoin="round" d="M 734.859643 348.20789 C 732.251801 348.20789 732.251801 352.209473 734.859643 352.209473 C 737.467485 352.209473 737.467485 348.20789 734.859643 348.20789 Z M 734.859643 348.20789 " stroke="#ffffff" stroke-width="2.087" stroke-opacity="1" stroke-miterlimit="4"></path><path fill="#ffffff" d="M 42.359375 24.933594 L 42.359375 29.511719 C 42.097656 29.800781 41.796875 30.046875 41.472656 30.269531 C 41.144531 30.046875 40.84375 29.800781 40.582031 29.511719 L 40.582031 24.921875 C 40.910156 24.800781 41.210938 24.644531 41.472656 24.449219 C 41.71875 24.660156 42.019531 24.816406 42.359375 24.933594 Z M 42.359375 24.933594 " fill-opacity="1" fill-rule="nonzero"></path></svg> 