<?xml version="1.0" encoding="UTF-8"?> <svg xmlns="http://www.w3.org/2000/svg" xmlns:xlink="http://www.w3.org/1999/xlink" width="112" zoomAndPan="magnify" viewBox="0 0 84 55.5" height="74" preserveAspectRatio="xMidYMid meet" version="1.0"><defs><clipPath id="284312ff04"><path d="M 0.375 0 L 83.625 0 L 83.625 55.003906 L 0.375 55.003906 Z M 0.375 0 " clip-rule="nonzero"></path></clipPath><clipPath id="19e030b8f2"><path d="M 47 0 L 83.625 0 L 83.625 22 L 47 22 Z M 47 0 " clip-rule="nonzero"></path></clipPath><clipPath id="226124fd71"><path d="M 0.375 0 L 83.625 0 L 83.625 55.003906 L 0.375 55.003906 Z M 0.375 0 " clip-rule="nonzero"></path></clipPath><clipPath id="bb46a7b59b"><path d="M 0.375 0 L 37 0 L 37 22 L 0.375 22 Z M 0.375 0 " clip-rule="nonzero"></path></clipPath><clipPath id="5fd1437466"><path d="M 47 33 L 83.625 33 L 83.625 55.003906 L 47 55.003906 Z M 47 33 " clip-rule="nonzero"></path></clipPath><clipPath id="b43fbb2956"><path d="M 0.375 33 L 37 33 L 37 55.003906 L 0.375 55.003906 Z M 0.375 33 " clip-rule="nonzero"></path></clipPath></defs><g clip-path="url(#284312ff04)"><path fill="#ffffff" d="M 0.375 0 L 83.625 0 L 83.625 55.003906 L 0.375 55.003906 Z M 0.375 0 " fill-opacity="1" fill-rule="nonzero"></path><path fill="#ffffff" d="M 0.375 0 L 83.625 0 L 83.625 55.003906 L 0.375 55.003906 Z M 0.375 0 " fill-opacity="1" fill-rule="nonzero"></path></g><g clip-path="url(#19e030b8f2)"><path fill="#eeeeee" d="M 74.351562 -2.539062 L 47.777344 -2.539062 L 47.777344 21.777344 L 83.59375 21.777344 L 83.59375 6.722656 C 83.59375 1.609375 79.457031 -2.539062 74.351562 -2.539062 Z M 74.351562 -2.539062 " fill-opacity="1" fill-rule="nonzero"></path></g><g clip-path="url(#226124fd71)"><path fill="#e8112d" d="M 47.777344 -2.539062 L 36.222656 -2.539062 L 36.222656 21.777344 L 0.40625 21.777344 L 0.40625 33.355469 L 36.222656 33.355469 L 36.222656 57.667969 L 47.777344 57.667969 L 47.777344 33.355469 L 83.59375 33.355469 L 83.59375 21.777344 L 47.777344 21.777344 Z M 47.777344 -2.539062 " fill-opacity="1" fill-rule="nonzero"></path></g><path fill="#e8112d" d="M 67.222656 8.078125 C 67.292969 6.636719 67.460938 5.199219 67.734375 3.773438 C 66.375 3.941406 65 3.941406 63.644531 3.773438 C 63.914062 5.195312 64.082031 6.636719 64.152344 8.078125 C 62.714844 8.007812 61.277344 7.835938 59.855469 7.566406 C 60.023438 8.929688 60.023438 10.304688 59.855469 11.664062 C 61.277344 11.394531 62.714844 11.226562 64.152344 11.152344 C 64.082031 12.597656 63.914062 14.035156 63.644531 15.460938 C 65 15.292969 66.375 15.292969 67.734375 15.460938 C 67.460938 14.035156 67.292969 12.597656 67.222656 11.152344 C 68.660156 11.226562 70.097656 11.394531 71.519531 11.664062 C 71.351562 10.304688 71.351562 8.925781 71.519531 7.566406 C 70.097656 7.839844 68.660156 8.007812 67.222656 8.078125 Z M 67.222656 8.078125 " fill-opacity="1" fill-rule="nonzero"></path><g clip-path="url(#bb46a7b59b)"><path fill="#eeeeee" d="M 36.222656 -2.539062 L 9.648438 -2.539062 C 4.542969 -2.539062 0.40625 1.609375 0.40625 6.722656 L 0.40625 21.777344 L 36.222656 21.777344 Z M 36.222656 -2.539062 " fill-opacity="1" fill-rule="nonzero"></path></g><path fill="#e8112d" d="M 19.851562 8.078125 C 19.921875 6.636719 20.089844 5.199219 20.363281 3.773438 C 19.003906 3.941406 17.628906 3.941406 16.273438 3.773438 C 16.542969 5.195312 16.710938 6.636719 16.78125 8.078125 C 15.34375 8.007812 13.90625 7.835938 12.484375 7.566406 C 12.652344 8.929688 12.652344 10.304688 12.484375 11.664062 C 13.90625 11.394531 15.34375 11.226562 16.78125 11.152344 C 16.710938 12.597656 16.542969 14.035156 16.273438 15.460938 C 17.628906 15.292969 19.003906 15.292969 20.363281 15.460938 C 20.089844 14.035156 19.921875 12.597656 19.851562 11.152344 C 21.289062 11.226562 22.726562 11.394531 24.148438 11.664062 C 23.980469 10.304688 23.980469 8.925781 24.148438 7.566406 C 22.726562 7.839844 21.289062 8.007812 19.851562 8.078125 Z M 19.851562 8.078125 " fill-opacity="1" fill-rule="nonzero"></path><g clip-path="url(#5fd1437466)"><path fill="#eeeeee" d="M 83.59375 48.40625 L 83.59375 33.355469 L 47.777344 33.355469 L 47.777344 57.667969 L 74.351562 57.667969 C 79.457031 57.667969 83.59375 53.523438 83.59375 48.40625 Z M 83.59375 48.40625 " fill-opacity="1" fill-rule="nonzero"></path></g><path fill="#e8112d" d="M 67.222656 47.050781 C 67.292969 48.496094 67.460938 49.933594 67.734375 51.359375 C 66.375 51.191406 65 51.191406 63.644531 51.359375 C 63.914062 49.933594 64.082031 48.496094 64.152344 47.050781 C 62.714844 47.125 61.277344 47.292969 59.855469 47.5625 C 60.023438 46.203125 60.023438 44.824219 59.855469 43.464844 C 61.277344 43.734375 62.714844 43.90625 64.152344 43.976562 C 64.082031 42.535156 63.914062 41.09375 63.644531 39.667969 C 65 39.839844 66.375 39.839844 67.734375 39.667969 C 67.460938 41.09375 67.292969 42.535156 67.222656 43.976562 C 68.660156 43.90625 70.097656 43.734375 71.519531 43.464844 C 71.351562 44.824219 71.351562 46.203125 71.519531 47.5625 C 70.097656 47.289062 68.660156 47.121094 67.222656 47.050781 Z M 67.222656 47.050781 " fill-opacity="1" fill-rule="nonzero"></path><g clip-path="url(#b43fbb2956)"><path fill="#eeeeee" d="M 36.222656 33.355469 L 0.40625 33.355469 L 0.40625 48.40625 C 0.40625 53.523438 4.542969 57.667969 9.648438 57.667969 L 36.222656 57.667969 Z M 36.222656 33.355469 " fill-opacity="1" fill-rule="nonzero"></path></g><path fill="#e8112d" d="M 19.851562 47.050781 C 19.921875 48.496094 20.089844 49.933594 20.363281 51.359375 C 19.003906 51.191406 17.628906 51.191406 16.273438 51.359375 C 16.542969 49.933594 16.710938 48.496094 16.78125 47.050781 C 15.34375 47.125 13.90625 47.292969 12.484375 47.5625 C 12.652344 46.203125 12.652344 44.824219 12.484375 43.464844 C 13.90625 43.734375 15.34375 43.90625 16.78125 43.976562 C 16.710938 42.535156 16.542969 41.09375 16.273438 39.667969 C 17.628906 39.839844 19.003906 39.839844 20.363281 39.667969 C 20.089844 41.09375 19.921875 42.535156 19.851562 43.976562 C 21.289062 43.90625 22.726562 43.734375 24.148438 43.464844 C 23.980469 44.824219 23.980469 46.203125 24.148438 47.5625 C 22.726562 47.289062 21.289062 47.121094 19.851562 47.050781 Z M 19.851562 47.050781 " fill-opacity="1" fill-rule="nonzero"></path></svg> 