<?xml version="1.0" encoding="UTF-8"?> <svg xmlns="http://www.w3.org/2000/svg" xmlns:xlink="http://www.w3.org/1999/xlink" width="112" zoomAndPan="magnify" viewBox="0 0 84 55.5" height="74" preserveAspectRatio="xMidYMid meet" version="1.0"><defs><clipPath id="f8a5945ed4"><path d="M 0.375 0 L 83.625 0 L 83.625 55.003906 L 0.375 55.003906 Z M 0.375 0 " clip-rule="nonzero"></path></clipPath><clipPath id="a8869e67bc"><path d="M 0.375 18 L 83.625 18 L 83.625 38 L 0.375 38 Z M 0.375 18 " clip-rule="nonzero"></path></clipPath><clipPath id="27c9ec4c0d"><path d="M 0.375 37 L 83.625 37 L 83.625 55.003906 L 0.375 55.003906 Z M 0.375 37 " clip-rule="nonzero"></path></clipPath><clipPath id="c64313ab55"><path d="M 0.375 0 L 83.625 0 L 83.625 19 L 0.375 19 Z M 0.375 0 " clip-rule="nonzero"></path></clipPath></defs><g clip-path="url(#f8a5945ed4)"><path fill="#ffffff" d="M 0.375 0 L 83.625 0 L 83.625 55.003906 L 0.375 55.003906 Z M 0.375 0 " fill-opacity="1" fill-rule="nonzero"></path><path fill="#ffffff" d="M 0.375 0 L 83.625 0 L 83.625 55.003906 L 0.375 55.003906 Z M 0.375 0 " fill-opacity="1" fill-rule="nonzero"></path></g><g clip-path="url(#a8869e67bc)"><path fill="#f6f6f6" d="M 0.402344 18.585938 L 84.339844 18.585938 L 84.339844 37.171875 L 0.402344 37.171875 Z M 0.402344 18.585938 " fill-opacity="1" fill-rule="nonzero"></path></g><g clip-path="url(#27c9ec4c0d)"><path fill="#008e44" d="M 0.402344 37.160156 L 84.339844 37.160156 L 84.339844 55.746094 L 0.402344 55.746094 Z M 0.402344 37.160156 " fill-opacity="1" fill-rule="nonzero"></path></g><g clip-path="url(#c64313ab55)"><path fill="#c22229" d="M 0.402344 0 L 84.339844 0 L 84.339844 18.585938 L 0.402344 18.585938 Z M 0.402344 0 " fill-opacity="1" fill-rule="nonzero"></path></g></svg> 