<?xml version="1.0" encoding="UTF-8"?> <svg xmlns="http://www.w3.org/2000/svg" xmlns:xlink="http://www.w3.org/1999/xlink" width="112" zoomAndPan="magnify" viewBox="0 0 84 55.5" height="74" preserveAspectRatio="xMidYMid meet" version="1.0"><defs><clipPath id="154aa1dcf0"><path d="M 0.375 0 L 83.625 0 L 83.625 55.003906 L 0.375 55.003906 Z M 0.375 0 " clip-rule="nonzero"></path></clipPath><clipPath id="12c1aa6ddd"><path d="M 0.375 0 L 29 0 L 29 55.003906 L 0.375 55.003906 Z M 0.375 0 " clip-rule="nonzero"></path></clipPath><clipPath id="bad72a6b39"><path d="M 28 0 L 56 0 L 56 55.003906 L 28 55.003906 Z M 28 0 " clip-rule="nonzero"></path></clipPath><clipPath id="0ea1b9a1e4"><path d="M 55 0 L 83.625 0 L 83.625 55.003906 L 55 55.003906 Z M 55 0 " clip-rule="nonzero"></path></clipPath></defs><g clip-path="url(#154aa1dcf0)"><path fill="#ffffff" d="M 0.375 0 L 83.625 0 L 83.625 55.003906 L 0.375 55.003906 Z M 0.375 0 " fill-opacity="1" fill-rule="nonzero"></path><path fill="#ffffff" d="M 0.375 0 L 83.625 0 L 83.625 55.003906 L 0.375 55.003906 Z M 0.375 0 " fill-opacity="1" fill-rule="nonzero"></path></g><g clip-path="url(#12c1aa6ddd)"><path fill="#009b48" d="M 0.378906 0 L 28.125 0 L 28.125 55.746094 L 0.378906 55.746094 Z M 0.378906 0 " fill-opacity="1" fill-rule="nonzero"></path></g><g clip-path="url(#bad72a6b39)"><path fill="#ffffff" d="M 28.125 0 L 55.875 0 L 55.875 55.746094 L 28.125 55.746094 Z M 28.125 0 " fill-opacity="1" fill-rule="nonzero"></path></g><g clip-path="url(#0ea1b9a1e4)"><path fill="#ff7900" d="M 55.875 0 L 83.621094 0 L 83.621094 55.746094 L 55.875 55.746094 Z M 55.875 0 " fill-opacity="1" fill-rule="nonzero"></path></g></svg> 