<svg xmlns="http://www.w3.org/2000/svg" xmlns:xlink="http://www.w3.org/1999/xlink" width="112" viewBox="0 0 84 55.5" height="74" preserveAspectRatio="xMidYMid meet"><defs><clipPath id="f8c7dcb002"><path d="M 0.375 0 L 83.625 0 L 83.625 55.003906 L 0.375 55.003906 Z M 0.375 0 " clip-rule="nonzero"></path></clipPath><clipPath id="39d2f9ce86"><path d="M 0.375 18 L 4 18 L 4 25 L 0.375 25 Z M 0.375 18 " clip-rule="nonzero"></path></clipPath><clipPath id="132ef0ad81"><path d="M 0.375 0 L 14 0 L 14 9 L 0.375 9 Z M 0.375 0 " clip-rule="nonzero"></path></clipPath><clipPath id="a55da7f82c"><path d="M 0.375 3 L 4 3 L 4 10 L 0.375 10 Z M 0.375 3 " clip-rule="nonzero"></path></clipPath><clipPath id="cb48413dfa"><path d="M 0.375 0 L 16 0 L 16 11 L 0.375 11 Z M 0.375 0 " clip-rule="nonzero"></path></clipPath><clipPath id="a5a5357c4d"><path d="M 0.375 16 L 16 16 L 16 28 L 0.375 28 Z M 0.375 16 " clip-rule="nonzero"></path></clipPath><clipPath id="d6387efad4"><path d="M 0.375 18 L 14 18 L 14 28 L 0.375 28 Z M 0.375 18 " clip-rule="nonzero"></path></clipPath><clipPath id="d1e5217e10"><path d="M 0.375 0 L 10 0 L 10 10 L 0.375 10 Z M 0.375 0 " clip-rule="nonzero"></path></clipPath><clipPath id="d5a0bed04f"><path d="M 0.375 0 L 43 0 L 43 28 L 0.375 28 Z M 0.375 0 " clip-rule="nonzero"></path></clipPath></defs><g clip-path="url(#f8c7dcb002)"><path fill="#ffffff" d="M 0.375 0 L 83.625 0 L 83.625 55.003906 L 0.375 55.003906 Z M 0.375 0 " fill-opacity="1" fill-rule="nonzero"></path><path fill="#ffffff" d="M 0.375 0 L 83.625 0 L 83.625 55.003906 L 0.375 55.003906 Z M 0.375 0 " fill-opacity="1" fill-rule="nonzero"></path><path fill="#002776" d="M 42.210938 0 L 42.210938 2.929688 L 31.320312 8.765625 L 42.210938 8.765625 L 42.210938 17.527344 L 31.320312 17.527344 L 42.210938 23.363281 L 42.210938 26.464844 L 37.027344 26.464844 L 21.746094 18.277344 L 21.746094 26.464844 L 13.570312 26.464844 L 13.570312 18.277344 L -1.710938 26.464844 L -6.871094 26.464844 L -6.871094 55.003906 L 91.246094 55.003906 L 91.246094 0 Z M 42.210938 0 " fill-opacity="1" fill-rule="nonzero"></path></g><g clip-path="url(#39d2f9ce86)"><path fill="#1a237b" d="M -6.871094 18.175781 L -6.871094 24.214844 L 3.996094 18.175781 Z M -6.871094 18.175781 " fill-opacity="1" fill-rule="nonzero"></path></g><path fill="#1a237b" d="M 21.746094 0 L 21.746094 8.3125 L 36.703125 0 Z M 21.746094 0 " fill-opacity="1" fill-rule="nonzero"></path><g clip-path="url(#132ef0ad81)"><path fill="#1a237b" d="M 13.570312 0 L -1.386719 0 L 13.570312 8.3125 Z M 13.570312 0 " fill-opacity="1" fill-rule="nonzero"></path></g><g clip-path="url(#a55da7f82c)"><path fill="#1a237b" d="M -6.871094 9.089844 L 3.996094 9.089844 L -6.871094 3.050781 Z M -6.871094 9.089844 " fill-opacity="1" fill-rule="nonzero"></path></g><path fill="#ffffff" d="M 42.1875 0 L 25.835938 9.089844 L 22.179688 9.089844 L 38.53125 0 L 36.703125 0 L 21.746094 8.3125 L 21.746094 0 L 20.113281 0 L 20.113281 10.90625 L 42.210938 10.90625 L 42.210938 9.089844 L 31.320312 9.089844 L 42.210938 3.039062 L 42.210938 0 Z M 42.1875 0 " fill-opacity="1" fill-rule="nonzero"></path><g clip-path="url(#cb48413dfa)"><path fill="#ffffff" d="M 13.570312 0 L 13.570312 8.3125 L -1.386719 0 L -6.871094 0 L 9.484375 9.089844 L 5.828125 9.089844 L -6.871094 2.035156 L -6.871094 3.050781 L 3.996094 9.089844 L -6.871094 9.089844 L -6.871094 10.90625 L 15.203125 10.90625 L 15.203125 0 Z M 13.570312 0 " fill-opacity="1" fill-rule="nonzero"></path></g><path fill="#ffffff" d="M 26.222656 16.363281 L 20.113281 16.363281 L 20.113281 27.445312 L 21.746094 27.445312 L 21.746094 18.953125 L 37.027344 27.445312 L 42.210938 27.445312 L 42.210938 27.277344 L 25.835938 18.175781 L 29.492188 18.175781 L 42.210938 25.246094 L 42.210938 24.230469 L 31.320312 18.175781 L 42.210938 18.175781 L 42.210938 16.363281 Z M 26.222656 16.363281 " fill-opacity="1" fill-rule="nonzero"></path><g clip-path="url(#a5a5357c4d)"><path fill="#ffffff" d="M 12.75 16.363281 L -6.871094 16.363281 L -6.871094 18.179688 L 3.996094 18.179688 L -6.871094 24.214844 L -6.871094 27.265625 L 9.484375 18.179688 L 13.136719 18.179688 L -3.539062 27.445312 L -1.710938 27.445312 L 13.570312 18.953125 L 13.570312 27.445312 L 15.203125 27.445312 L 15.203125 16.363281 Z M 12.75 16.363281 " fill-opacity="1" fill-rule="nonzero"></path></g><g clip-path="url(#d6387efad4)"><path fill="#bd0034" d="M 9.484375 18.175781 L -6.871094 27.265625 L -6.871094 27.445312 L -3.539062 27.445312 L 13.136719 18.175781 Z M 9.484375 18.175781 " fill-opacity="1" fill-rule="nonzero"></path></g><g clip-path="url(#d1e5217e10)"><path fill="#bd0034" d="M -6.871094 2.035156 L 5.828125 9.089844 L 9.484375 9.089844 L -6.871094 0 Z M -6.871094 2.035156 " fill-opacity="1" fill-rule="nonzero"></path></g><path fill="#bd0034" d="M 42.1875 0 L 38.53125 0 L 22.179688 9.089844 L 25.835938 9.089844 Z M 42.1875 0 " fill-opacity="1" fill-rule="nonzero"></path><path fill="#bd0034" d="M 25.835938 18.175781 L 42.210938 27.277344 L 42.210938 25.246094 L 29.492188 18.175781 Z M 25.835938 18.175781 " fill-opacity="1" fill-rule="nonzero"></path><g clip-path="url(#d5a0bed04f)"><path fill="#bd0034" d="M 15.203125 0 L 15.203125 10.90625 L -6.871094 10.90625 L -6.871094 16.363281 L 15.203125 16.363281 L 15.203125 27.445312 L 20.113281 27.445312 L 20.113281 16.363281 L 42.210938 16.363281 L 42.210938 10.90625 L 20.113281 10.90625 L 20.113281 0 Z M 15.203125 0 " fill-opacity="1" fill-rule="nonzero"></path></g><path fill="#ffffff" d="M 64.917969 12.75 L 67.582031 12.75 L 68.40625 10.222656 L 69.230469 12.75 L 71.898438 12.75 L 69.742188 14.3125 L 70.5625 16.839844 L 68.40625 15.277344 L 66.246094 16.839844 L 67.074219 14.3125 Z M 64.917969 12.75 " fill-opacity="1" fill-rule="nonzero"></path><path fill="#bd0034" d="M 66.097656 13.136719 L 67.859375 13.136719 L 68.40625 11.464844 L 68.949219 13.136719 L 70.714844 13.136719 L 69.285156 14.167969 L 69.832031 15.839844 L 68.40625 14.808594 L 66.980469 15.839844 L 67.523438 14.167969 Z M 66.097656 13.136719 " fill-opacity="1" fill-rule="nonzero"></path><path fill="#ffffff" d="M 54.25 23.441406 L 56.917969 23.441406 L 57.742188 20.914062 L 58.566406 23.441406 L 61.234375 23.441406 L 59.078125 25.003906 L 59.898438 27.53125 L 57.742188 25.96875 L 55.585938 27.53125 L 56.40625 25.003906 Z M 54.25 23.441406 " fill-opacity="1" fill-rule="nonzero"></path><path fill="#bd0034" d="M 55.433594 23.828125 L 57.195312 23.828125 L 57.742188 22.15625 L 58.285156 23.828125 L 60.050781 23.828125 L 58.625 24.863281 L 59.167969 26.53125 L 57.742188 25.5 L 56.316406 26.53125 L 56.859375 24.863281 Z M 55.433594 23.828125 " fill-opacity="1" fill-rule="nonzero"></path><path fill="#ffffff" d="M 74.441406 20.792969 L 76.816406 20.792969 L 77.546875 18.542969 L 78.285156 20.792969 L 80.65625 20.792969 L 78.734375 22.179688 L 79.46875 24.429688 L 77.546875 23.039062 L 75.628906 24.429688 L 76.363281 22.179688 Z M 74.441406 20.792969 " fill-opacity="1" fill-rule="nonzero"></path><path fill="#bd0034" d="M 75.496094 21.132812 L 77.066406 21.132812 L 77.546875 19.648438 L 78.035156 21.132812 L 79.601562 21.132812 L 78.332031 22.054688 L 78.816406 23.539062 L 77.546875 22.621094 L 76.28125 23.539062 L 76.765625 22.054688 Z M 75.496094 21.132812 " fill-opacity="1" fill-rule="nonzero"></path><path fill="#ffffff" d="M 64.53125 40.226562 L 67.492188 40.226562 L 68.40625 37.414062 L 69.320312 40.226562 L 72.285156 40.226562 L 69.886719 41.964844 L 70.804688 44.773438 L 68.40625 43.035156 L 66.011719 44.773438 L 66.929688 41.964844 Z M 64.53125 40.226562 " fill-opacity="1" fill-rule="nonzero"></path><path fill="#bd0034" d="M 65.84375 40.65625 L 67.804688 40.65625 L 68.40625 38.796875 L 69.011719 40.65625 L 70.96875 40.65625 L 69.386719 41.804688 L 69.992188 43.664062 L 68.40625 42.511719 L 66.824219 43.664062 L 67.429688 41.804688 Z M 65.84375 40.65625 " fill-opacity="1" fill-rule="nonzero"></path></svg>