<?xml version="1.0" encoding="UTF-8"?> <svg xmlns="http://www.w3.org/2000/svg" xmlns:xlink="http://www.w3.org/1999/xlink" width="112" zoomAndPan="magnify" viewBox="0 0 84 55.5" height="74" preserveAspectRatio="xMidYMid meet" version="1.0"><defs><clipPath id="9c7d245606"><path d="M 0.375 0 L 83.625 0 L 83.625 55.003906 L 0.375 55.003906 Z M 0.375 0 " clip-rule="nonzero"></path></clipPath><clipPath id="96dbe3655e"><path d="M 0.375 0.015625 L 83.625 0.015625 L 83.625 54.984375 L 0.375 54.984375 Z M 0.375 0.015625 " clip-rule="nonzero"></path></clipPath></defs><g clip-path="url(#9c7d245606)"><path fill="#ffffff" d="M 0.375 0 L 83.625 0 L 83.625 55.003906 L 0.375 55.003906 Z M 0.375 0 " fill-opacity="1" fill-rule="nonzero"></path><path fill="#ffffff" d="M 0.375 0 L 83.625 0 L 83.625 55.003906 L 0.375 55.003906 Z M 0.375 0 " fill-opacity="1" fill-rule="nonzero"></path></g><g clip-path="url(#96dbe3655e)"><path fill="#4eaec4" d="M 0.375 0.015625 L 94.777344 0.015625 L 94.777344 54.984375 L 0.375 54.984375 Z M 0.375 0.015625 " fill-opacity="1" fill-rule="nonzero"></path></g><path fill="#f5c832" d="M 6.566406 38.785156 C 6.566406 37.679688 7.5625 37.117188 8.339844 37.117188 C 9.382812 37.117188 9.949219 37.742188 9.949219 38.554688 C 9.949219 39.027344 9.863281 39.3125 9.648438 39.761719 C 9.648438 39.761719 7.914062 43.335938 7.242188 44.730469 C 7.15625 44.941406 7.121094 45.160156 7.132812 45.386719 C 7.132812 45.835938 7.566406 46.199219 8.023438 46.210938 C 8.433594 46.222656 8.886719 45.824219 8.886719 45.367188 C 8.886719 44.828125 8.605469 44.585938 8.320312 44.585938 C 7.949219 44.585938 7.800781 44.730469 7.800781 44.980469 C 7.800781 45.15625 7.890625 45.234375 8.015625 45.234375 C 8.320312 45.234375 8.230469 44.816406 8.230469 44.816406 C 8.320312 44.835938 8.382812 44.882812 8.425781 44.960938 C 8.46875 45.039062 8.476562 45.117188 8.445312 45.199219 C 8.558594 45.230469 8.65625 45.289062 8.738281 45.375 C 8.65625 45.460938 8.558594 45.515625 8.445312 45.539062 C 8.515625 45.78125 8.417969 45.890625 8.203125 45.933594 C 8.242188 45.859375 8.257812 45.777344 8.242188 45.695312 C 7.90625 45.78125 7.402344 45.628906 7.402344 45.070312 C 7.402344 44.511719 7.800781 44.027344 8.527344 44.148438 C 8.355469 44.054688 8.261719 43.90625 8.246094 43.710938 C 8.339844 43.738281 8.433594 43.753906 8.527344 43.765625 C 8.445312 43.609375 8.324219 43.480469 8.335938 43.183594 C 8.460938 43.261719 8.59375 43.371094 8.769531 43.304688 C 8.496094 42.753906 8.828125 42.019531 9.6875 41.84375 C 9.386719 42.171875 9.230469 42.554688 9.21875 42.996094 C 9.21875 44.269531 9.578125 44.488281 9.578125 45.363281 C 9.5625 45.808594 9.375 46.160156 9.011719 46.417969 L 9.011719 46.40625 C 9.257812 46.472656 9.417969 46.582031 9.503906 46.757812 C 8.945312 46.910156 8.109375 46.910156 7.660156 46.734375 C 7.230469 46.675781 6.902344 46.460938 6.683594 46.089844 C 6.449219 45.566406 6.449219 45.042969 6.683594 44.519531 C 7.023438 43.808594 8.625 40.417969 9.121094 39.355469 C 9.234375 39.128906 9.292969 38.886719 9.296875 38.632812 C 9.296875 37.972656 8.699219 37.753906 8.359375 37.753906 C 7.945312 37.753906 7.527344 38.0625 7.527344 38.457031 C 7.527344 38.6875 7.671875 38.839844 7.859375 38.839844 C 8.320312 38.839844 8.292969 38.457031 8.191406 38.203125 C 8.484375 38.335938 8.660156 38.554688 8.605469 38.796875 C 8.792969 38.828125 8.949219 38.917969 9.066406 39.070312 C 8.953125 39.226562 8.796875 39.308594 8.605469 39.3125 C 8.699219 39.695312 8.445312 39.835938 8.191406 39.925781 C 8.28125 39.664062 8.332031 39.34375 7.859375 39.34375 C 7.515625 39.34375 7.242188 39.277344 7.089844 39.070312 C 7.082031 39.355469 7.050781 40.515625 7.050781 40.515625 C 7.035156 40.957031 7.644531 40.945312 8.023438 40.824219 C 7.878906 41.328125 7.582031 41.601562 6.890625 41.539062 C 7.136719 41.628906 7.25 41.804688 7.238281 42.0625 C 7.238281 42.46875 6.902344 42.929688 6.683594 43.0625 Z M 6.566406 38.785156 " fill-opacity="1" fill-rule="nonzero"></path><path fill="#f5c832" d="M 6.792969 38.785156 C 6.792969 37.679688 5.804688 37.117188 5.015625 37.117188 C 3.972656 37.117188 3.417969 37.742188 3.417969 38.554688 C 3.417969 39.027344 3.496094 39.3125 3.710938 39.761719 C 3.710938 39.761719 5.445312 43.335938 6.121094 44.730469 C 6.203125 44.894531 6.230469 45.101562 6.230469 45.386719 C 6.230469 45.835938 5.796875 46.199219 5.339844 46.210938 C 4.925781 46.222656 4.472656 45.824219 4.472656 45.367188 C 4.472656 44.828125 4.753906 44.585938 5.046875 44.585938 C 5.40625 44.585938 5.550781 44.730469 5.550781 44.980469 C 5.550781 45.15625 5.46875 45.234375 5.339844 45.234375 C 5.039062 45.234375 5.121094 44.816406 5.121094 44.816406 C 5.035156 44.835938 4.972656 44.886719 4.929688 44.960938 C 4.890625 45.039062 4.882812 45.117188 4.914062 45.199219 C 4.800781 45.234375 4.699219 45.292969 4.617188 45.375 C 4.699219 45.460938 4.796875 45.515625 4.914062 45.539062 C 4.847656 45.78125 4.941406 45.890625 5.148438 45.933594 C 5.109375 45.859375 5.097656 45.777344 5.117188 45.695312 C 5.445312 45.78125 5.953125 45.628906 5.953125 45.070312 C 5.953125 44.511719 5.566406 44.027344 4.824219 44.148438 C 5.007812 44.058594 5.101562 43.910156 5.105469 43.710938 C 5.015625 43.738281 4.921875 43.757812 4.824219 43.765625 C 4.914062 43.609375 5.039062 43.480469 5.027344 43.183594 C 4.890625 43.261719 4.757812 43.371094 4.589844 43.304688 C 4.863281 42.753906 4.527344 42.019531 3.671875 41.84375 C 3.976562 42.167969 4.132812 42.550781 4.136719 42.996094 C 4.136719 44.269531 3.78125 44.488281 3.78125 45.363281 C 3.792969 45.8125 3.984375 46.164062 4.351562 46.417969 L 4.351562 46.40625 C 4.105469 46.472656 3.941406 46.582031 3.847656 46.757812 C 4.425781 46.910156 5.253906 46.910156 5.699219 46.734375 C 6.21875 46.679688 6.566406 46.285156 6.683594 46.089844 C 6.785156 45.878906 6.988281 45.167969 6.683594 44.519531 C 6.332031 43.808594 4.730469 40.417969 4.230469 39.355469 C 4.125 39.125 4.070312 38.882812 4.066406 38.632812 C 4.066406 37.972656 4.664062 37.753906 5.007812 37.753906 C 5.40625 37.753906 5.824219 38.0625 5.824219 38.457031 C 5.824219 38.6875 5.691406 38.839844 5.5 38.839844 C 5.046875 38.839844 5.066406 38.457031 5.160156 38.203125 C 4.875 38.335938 4.710938 38.554688 4.753906 38.796875 C 4.566406 38.828125 4.410156 38.921875 4.292969 39.070312 C 4.40625 39.226562 4.5625 39.304688 4.753906 39.3125 C 4.660156 39.695312 4.914062 39.835938 5.160156 39.925781 C 5.078125 39.664062 5.027344 39.34375 5.5 39.34375 C 5.847656 39.34375 6.109375 39.277344 6.269531 39.070312 C 6.28125 39.355469 6.308594 40.515625 6.308594 40.515625 C 6.332031 40.957031 5.722656 40.945312 5.332031 40.824219 C 5.472656 41.328125 5.777344 41.601562 6.472656 41.539062 C 6.226562 41.625 6.109375 41.800781 6.121094 42.0625 C 6.121094 42.46875 6.460938 42.929688 6.683594 43.0625 Z M 6.792969 38.785156 " fill-opacity="1" fill-rule="nonzero"></path><path fill="#f5c832" d="M 6.683594 50.671875 C 6.683594 50.671875 7.199219 51.101562 7.386719 50.882812 C 7.671875 50.53125 6.507812 48.777344 6.507812 48.152344 C 6.507812 47.132812 7.179688 46.855469 8.023438 46.714844 C 8.59375 46.617188 9.503906 46.757812 9.503906 46.757812 C 9.339844 46.988281 9.230469 47.054688 8.933594 47.074219 C 9.140625 47.183594 9.300781 47.332031 9.417969 47.53125 C 9.539062 47.726562 9.597656 47.941406 9.59375 48.171875 C 9.59375 49.050781 9.230469 49.410156 9.230469 50.386719 C 9.230469 50.949219 9.675781 51.636719 9.675781 51.636719 C 8.878906 51.5625 8.484375 50.816406 8.714844 50.234375 C 8.578125 50.207031 8.464844 50.242188 8.375 50.34375 C 8.320312 50.179688 8.402344 49.992188 8.527344 49.816406 C 8.421875 49.773438 8.355469 49.816406 8.191406 49.839844 C 8.214844 49.675781 8.320312 49.5 8.554688 49.324219 C 7.839844 49.523438 7.402344 49.007812 7.402344 48.492188 C 7.402344 48.105469 7.679688 47.820312 7.945312 47.820312 C 8.054688 47.816406 8.152344 47.847656 8.242188 47.910156 C 8.28125 47.785156 8.269531 47.667969 8.203125 47.558594 C 8.40625 47.601562 8.527344 47.710938 8.445312 47.964844 C 8.585938 47.960938 8.703125 48.015625 8.796875 48.117188 C 8.714844 48.246094 8.597656 48.300781 8.445312 48.28125 C 8.554688 48.511719 8.433594 48.644531 8.246094 48.742188 C 8.246094 48.742188 8.367188 48.28125 8.078125 48.28125 C 7.941406 48.28125 7.820312 48.335938 7.820312 48.523438 C 7.820312 48.6875 7.964844 48.929688 8.320312 48.917969 C 8.648438 48.894531 8.929688 48.675781 8.929688 48.128906 C 8.929688 47.636719 8.527344 47.382812 7.988281 47.371094 C 7.515625 47.351562 7.144531 47.613281 7.144531 48.117188 C 7.144531 48.765625 8.097656 50.257812 8.097656 50.847656 C 8.097656 51.289062 7.703125 51.527344 7.308594 51.527344 C 6.8125 51.527344 6.386719 51.035156 6.386719 51.035156 Z M 6.683594 50.671875 " fill-opacity="1" fill-rule="nonzero"></path><path fill="#f5c832" d="M 6.683594 50.671875 C 6.683594 50.671875 6.160156 51.101562 5.984375 50.882812 C 5.691406 50.53125 6.863281 48.777344 6.863281 48.152344 C 6.863281 47.132812 6.175781 46.855469 5.339844 46.714844 C 4.769531 46.617188 3.847656 46.757812 3.847656 46.757812 C 4.023438 46.988281 4.132812 47.054688 4.425781 47.074219 C 4.222656 47.183594 4.0625 47.335938 3.945312 47.535156 C 3.832031 47.730469 3.777344 47.945312 3.78125 48.171875 C 3.78125 49.050781 4.132812 49.410156 4.132812 50.386719 C 4.132812 50.949219 3.683594 51.636719 3.683594 51.636719 C 4.472656 51.5625 4.875 50.816406 4.65625 50.234375 C 4.789062 50.210938 4.902344 50.246094 4.996094 50.34375 C 5.042969 50.179688 4.957031 49.992188 4.835938 49.816406 C 4.929688 49.773438 5.007812 49.816406 5.164062 49.839844 C 5.148438 49.675781 5.042969 49.5 4.796875 49.324219 C 5.515625 49.523438 5.957031 49.007812 5.957031 48.492188 C 5.957031 48.105469 5.683594 47.820312 5.40625 47.820312 C 5.300781 47.820312 5.207031 47.847656 5.121094 47.910156 C 5.074219 47.789062 5.085938 47.671875 5.148438 47.558594 C 4.957031 47.601562 4.824219 47.710938 4.914062 47.964844 C 4.773438 47.960938 4.65625 48.015625 4.5625 48.117188 C 4.644531 48.242188 4.761719 48.296875 4.914062 48.28125 C 4.800781 48.511719 4.929688 48.644531 5.105469 48.742188 C 5.105469 48.742188 4.996094 48.28125 5.285156 48.28125 C 5.417969 48.28125 5.539062 48.335938 5.539062 48.523438 C 5.539062 48.6875 5.390625 48.929688 5.042969 48.917969 C 4.710938 48.894531 4.433594 48.675781 4.433594 48.128906 C 4.433594 47.636719 4.835938 47.382812 5.375 47.371094 C 5.851562 47.351562 6.214844 47.613281 6.214844 48.117188 C 6.214844 48.765625 5.265625 50.257812 5.265625 50.847656 C 5.265625 51.289062 5.660156 51.527344 6.042969 51.527344 C 6.554688 51.527344 6.972656 51.035156 6.972656 51.035156 Z M 6.683594 50.671875 " fill-opacity="1" fill-rule="nonzero"></path><path fill="#f5c832" d="M 6.566406 19.527344 C 6.566406 18.429688 7.5625 17.859375 8.339844 17.859375 C 9.382812 17.859375 9.949219 18.496094 9.949219 19.308594 C 9.949219 19.78125 9.863281 20.066406 9.648438 20.503906 C 9.648438 20.503906 7.914062 24.089844 7.242188 25.472656 C 7.160156 25.683594 7.121094 25.902344 7.132812 26.128906 C 7.132812 26.589844 7.566406 26.941406 8.023438 26.953125 C 8.433594 26.960938 8.886719 26.578125 8.886719 26.117188 C 8.886719 25.570312 8.605469 25.339844 8.320312 25.339844 C 7.949219 25.339844 7.800781 25.472656 7.800781 25.734375 C 7.800781 25.910156 7.890625 25.988281 8.015625 25.988281 C 8.320312 25.988281 8.230469 25.558594 8.230469 25.558594 C 8.320312 25.578125 8.382812 25.628906 8.425781 25.707031 C 8.46875 25.785156 8.476562 25.867188 8.445312 25.953125 C 8.566406 25.976562 8.660156 26.035156 8.738281 26.128906 C 8.65625 26.210938 8.558594 26.265625 8.445312 26.292969 C 8.515625 26.523438 8.417969 26.644531 8.203125 26.6875 C 8.246094 26.609375 8.257812 26.523438 8.242188 26.4375 C 7.90625 26.535156 7.402344 26.378906 7.402344 25.8125 C 7.402344 25.25 7.800781 24.78125 8.527344 24.902344 C 8.351562 24.800781 8.257812 24.652344 8.246094 24.449219 C 8.335938 24.484375 8.429688 24.503906 8.527344 24.503906 C 8.445312 24.351562 8.324219 24.242188 8.335938 23.933594 C 8.460938 24 8.59375 24.109375 8.769531 24.046875 C 8.496094 23.507812 8.828125 22.773438 9.6875 22.585938 C 9.378906 22.960938 9.21875 23.355469 9.21875 23.75 C 9.21875 25.019531 9.578125 25.230469 9.578125 26.117188 C 9.5625 26.5625 9.375 26.914062 9.011719 27.171875 L 9.011719 27.160156 C 9.230469 27.195312 9.394531 27.308594 9.503906 27.5 C 8.945312 27.664062 8.109375 27.664062 7.660156 27.476562 C 7.230469 27.421875 6.90625 27.210938 6.683594 26.839844 C 6.449219 26.320312 6.449219 25.796875 6.683594 25.273438 C 7.023438 24.558594 8.625 21.171875 9.121094 20.109375 C 9.238281 19.878906 9.296875 19.640625 9.296875 19.382812 C 9.296875 18.738281 8.699219 18.507812 8.359375 18.507812 C 7.945312 18.507812 7.527344 18.8125 7.527344 19.199219 C 7.527344 19.4375 7.671875 19.582031 7.859375 19.582031 C 8.320312 19.582031 8.292969 19.199219 8.191406 18.957031 C 8.484375 19.089844 8.660156 19.316406 8.605469 19.546875 C 8.792969 19.578125 8.949219 19.671875 9.066406 19.824219 C 8.945312 19.96875 8.792969 20.050781 8.605469 20.0625 C 8.699219 20.4375 8.445312 20.601562 8.191406 20.679688 C 8.28125 20.402344 8.332031 20.097656 7.859375 20.097656 C 7.515625 20.097656 7.242188 20.03125 7.089844 19.824219 C 7.082031 20.109375 7.050781 21.269531 7.050781 21.269531 C 7.035156 21.71875 7.644531 21.699219 8.023438 21.566406 C 7.878906 22.082031 7.582031 22.34375 6.890625 22.277344 C 7.132812 22.378906 7.246094 22.558594 7.238281 22.816406 C 7.238281 23.222656 6.902344 23.683594 6.683594 23.816406 Z M 6.566406 19.527344 " fill-opacity="1" fill-rule="nonzero"></path><path fill="#f5c832" d="M 6.792969 19.527344 C 6.792969 18.429688 5.804688 17.859375 5.015625 17.859375 C 3.972656 17.859375 3.417969 18.496094 3.417969 19.308594 C 3.410156 19.730469 3.507812 20.132812 3.710938 20.503906 C 3.710938 20.503906 5.445312 24.089844 6.121094 25.472656 C 6.207031 25.683594 6.242188 25.902344 6.230469 26.128906 C 6.230469 26.589844 5.796875 26.941406 5.339844 26.953125 C 4.925781 26.960938 4.472656 26.578125 4.472656 26.117188 C 4.472656 25.570312 4.753906 25.339844 5.046875 25.339844 C 5.40625 25.339844 5.550781 25.472656 5.550781 25.734375 C 5.550781 25.910156 5.46875 25.988281 5.339844 25.988281 C 5.039062 25.988281 5.121094 25.558594 5.121094 25.558594 C 5.035156 25.582031 4.972656 25.632812 4.929688 25.710938 C 4.890625 25.789062 4.882812 25.871094 4.914062 25.953125 C 4.792969 25.976562 4.695312 26.035156 4.617188 26.128906 C 4.703125 26.207031 4.800781 26.261719 4.914062 26.292969 C 4.847656 26.523438 4.941406 26.644531 5.148438 26.6875 C 5.109375 26.609375 5.097656 26.523438 5.117188 26.4375 C 5.445312 26.535156 5.953125 26.378906 5.953125 25.8125 C 5.953125 25.25 5.566406 24.78125 4.824219 24.902344 C 5.011719 24.808594 5.101562 24.65625 5.105469 24.449219 C 5.015625 24.484375 4.921875 24.503906 4.824219 24.503906 C 4.914062 24.351562 5.039062 24.242188 5.027344 23.933594 C 4.890625 24 4.757812 24.109375 4.589844 24.046875 C 4.863281 23.507812 4.527344 22.773438 3.671875 22.585938 C 3.972656 22.914062 4.128906 23.304688 4.136719 23.75 C 4.136719 25.019531 3.78125 25.230469 3.78125 26.117188 C 3.792969 26.566406 3.984375 26.914062 4.351562 27.171875 L 4.351562 27.160156 C 4.132812 27.195312 3.964844 27.308594 3.847656 27.5 C 4.425781 27.664062 5.253906 27.664062 5.699219 27.476562 C 6.125 27.417969 6.453125 27.207031 6.683594 26.839844 C 6.785156 26.632812 6.988281 25.921875 6.683594 25.273438 C 6.332031 24.558594 4.730469 21.171875 4.230469 20.109375 C 4.125 19.878906 4.070312 19.636719 4.066406 19.382812 C 4.066406 18.738281 4.664062 18.507812 5.007812 18.507812 C 5.40625 18.507812 5.824219 18.8125 5.824219 19.199219 C 5.824219 19.4375 5.691406 19.582031 5.5 19.582031 C 5.046875 19.582031 5.066406 19.199219 5.160156 18.957031 C 4.875 19.089844 4.710938 19.316406 4.753906 19.546875 C 4.566406 19.582031 4.410156 19.671875 4.292969 19.824219 C 4.410156 19.96875 4.566406 20.046875 4.753906 20.0625 C 4.660156 20.4375 4.914062 20.601562 5.160156 20.679688 C 5.078125 20.402344 5.027344 20.097656 5.5 20.097656 C 5.847656 20.097656 6.109375 20.03125 6.269531 19.824219 C 6.28125 20.109375 6.308594 21.269531 6.308594 21.269531 C 6.332031 21.71875 5.722656 21.699219 5.332031 21.566406 C 5.472656 22.082031 5.777344 22.34375 6.472656 22.277344 C 6.230469 22.375 6.113281 22.554688 6.121094 22.816406 C 6.121094 23.222656 6.460938 23.683594 6.683594 23.816406 Z M 6.792969 19.527344 " fill-opacity="1" fill-rule="nonzero"></path><path fill="#f5c832" d="M 6.792969 16.226562 C 6.792969 17.335938 5.804688 17.894531 5.015625 17.894531 C 3.972656 17.894531 3.417969 17.277344 3.417969 16.445312 C 3.410156 16.027344 3.507812 15.632812 3.710938 15.261719 C 3.710938 15.261719 5.445312 11.675781 6.121094 10.28125 C 6.203125 10.117188 6.230469 9.921875 6.230469 9.625 C 6.230469 9.175781 5.796875 8.824219 5.339844 8.800781 C 4.925781 8.792969 4.472656 9.195312 4.472656 9.636719 C 4.472656 10.195312 4.753906 10.4375 5.046875 10.4375 C 5.40625 10.4375 5.550781 10.28125 5.550781 10.03125 C 5.550781 9.855469 5.46875 9.777344 5.339844 9.777344 C 5.039062 9.777344 5.121094 10.195312 5.121094 10.195312 C 5.035156 10.175781 4.972656 10.128906 4.929688 10.050781 C 4.886719 9.972656 4.882812 9.894531 4.914062 9.8125 C 4.796875 9.78125 4.699219 9.722656 4.617188 9.636719 C 4.699219 9.550781 4.796875 9.496094 4.914062 9.472656 C 4.847656 9.230469 4.941406 9.109375 5.148438 9.066406 C 5.109375 9.148438 5.101562 9.238281 5.117188 9.328125 C 5.445312 9.230469 5.953125 9.382812 5.953125 9.941406 C 5.953125 10.503906 5.566406 10.984375 4.824219 10.851562 C 5.007812 10.949219 5.101562 11.097656 5.105469 11.300781 C 5.015625 11.273438 4.921875 11.253906 4.824219 11.246094 C 4.914062 11.402344 5.039062 11.523438 5.027344 11.828125 C 4.890625 11.761719 4.757812 11.644531 4.589844 11.71875 C 4.863281 12.257812 4.527344 13.003906 3.671875 13.167969 C 3.992188 12.792969 4.136719 12.410156 4.136719 12.015625 C 4.136719 10.742188 3.78125 10.523438 3.78125 9.636719 C 3.792969 9.195312 3.984375 8.851562 4.351562 8.605469 L 4.351562 8.617188 C 4.136719 8.566406 3.96875 8.449219 3.847656 8.265625 C 4.425781 8.089844 5.253906 8.101562 5.699219 8.277344 C 6.21875 8.332031 6.566406 8.734375 6.683594 8.921875 C 6.785156 9.121094 6.988281 9.84375 6.683594 10.492188 C 6.332031 11.203125 4.730469 14.59375 4.230469 15.65625 C 4.125 15.886719 4.070312 16.128906 4.066406 16.378906 C 4.066406 17.027344 4.664062 17.269531 5.007812 17.269531 C 5.40625 17.269531 5.824219 16.949219 5.824219 16.578125 C 5.824219 16.324219 5.691406 16.171875 5.5 16.171875 C 5.046875 16.171875 5.066406 16.566406 5.160156 16.808594 C 4.875 16.6875 4.710938 16.445312 4.753906 16.214844 C 4.566406 16.1875 4.410156 16.101562 4.292969 15.953125 C 4.402344 15.789062 4.554688 15.707031 4.753906 15.699219 C 4.660156 15.328125 4.914062 15.164062 5.160156 15.085938 C 5.078125 15.347656 5.027344 15.667969 5.5 15.667969 C 5.847656 15.667969 6.109375 15.722656 6.269531 15.953125 C 6.28125 15.65625 6.308594 14.484375 6.308594 14.484375 C 6.332031 14.042969 5.722656 14.054688 5.332031 14.1875 C 5.472656 13.683594 5.777344 13.410156 6.472656 13.472656 C 6.230469 13.382812 6.113281 13.207031 6.121094 12.949219 C 6.121094 12.542969 6.460938 12.082031 6.683594 11.949219 Z M 6.792969 16.226562 " fill-opacity="1" fill-rule="nonzero"></path><path fill="#f5c832" d="M 6.566406 16.226562 C 6.566406 17.335938 7.5625 17.894531 8.339844 17.894531 C 9.382812 17.894531 9.949219 17.277344 9.949219 16.445312 C 9.949219 15.996094 9.863281 15.699219 9.648438 15.261719 C 9.648438 15.261719 7.914062 11.675781 7.242188 10.28125 C 7.15625 10.070312 7.121094 9.851562 7.132812 9.625 C 7.132812 9.175781 7.566406 8.824219 8.023438 8.800781 C 8.433594 8.792969 8.886719 9.195312 8.886719 9.636719 C 8.886719 10.195312 8.605469 10.4375 8.320312 10.4375 C 7.949219 10.4375 7.800781 10.28125 7.800781 10.03125 C 7.800781 9.855469 7.890625 9.777344 8.015625 9.777344 C 8.320312 9.777344 8.230469 10.195312 8.230469 10.195312 C 8.320312 10.179688 8.386719 10.132812 8.429688 10.054688 C 8.472656 9.976562 8.476562 9.894531 8.445312 9.8125 C 8.5625 9.785156 8.660156 9.726562 8.738281 9.636719 C 8.65625 9.550781 8.558594 9.496094 8.445312 9.472656 C 8.515625 9.230469 8.417969 9.109375 8.203125 9.066406 C 8.242188 9.148438 8.257812 9.238281 8.242188 9.328125 C 7.90625 9.230469 7.402344 9.382812 7.402344 9.941406 C 7.402344 10.503906 7.800781 10.984375 8.527344 10.851562 C 8.351562 10.953125 8.261719 11.101562 8.246094 11.300781 C 8.339844 11.273438 8.433594 11.257812 8.527344 11.246094 C 8.445312 11.402344 8.324219 11.523438 8.335938 11.828125 C 8.460938 11.761719 8.59375 11.644531 8.769531 11.71875 C 8.496094 12.257812 8.828125 13.003906 9.6875 13.167969 C 9.378906 12.792969 9.21875 12.410156 9.21875 12.015625 C 9.21875 10.742188 9.578125 10.523438 9.578125 9.636719 C 9.5625 9.199219 9.371094 8.855469 9.011719 8.605469 L 9.011719 8.617188 C 9.226562 8.570312 9.390625 8.453125 9.503906 8.265625 C 8.945312 8.089844 8.109375 8.101562 7.660156 8.277344 C 7.144531 8.332031 6.785156 8.734375 6.683594 8.921875 C 6.566406 9.121094 6.371094 9.84375 6.683594 10.492188 C 7.023438 11.203125 8.625 14.59375 9.121094 15.65625 C 9.234375 15.882812 9.292969 16.125 9.296875 16.378906 C 9.296875 17.027344 8.699219 17.269531 8.359375 17.269531 C 7.945312 17.269531 7.527344 16.949219 7.527344 16.578125 C 7.527344 16.324219 7.671875 16.171875 7.859375 16.171875 C 8.320312 16.171875 8.292969 16.566406 8.191406 16.808594 C 8.484375 16.6875 8.660156 16.445312 8.605469 16.214844 C 8.792969 16.1875 8.949219 16.101562 9.066406 15.953125 C 8.957031 15.789062 8.804688 15.703125 8.605469 15.699219 C 8.699219 15.328125 8.445312 15.164062 8.191406 15.085938 C 8.28125 15.347656 8.332031 15.667969 7.859375 15.667969 C 7.515625 15.667969 7.242188 15.722656 7.089844 15.953125 C 7.082031 15.65625 7.050781 14.484375 7.050781 14.484375 C 7.035156 14.042969 7.644531 14.054688 8.023438 14.1875 C 7.878906 13.683594 7.582031 13.410156 6.890625 13.472656 C 7.128906 13.378906 7.246094 13.203125 7.238281 12.949219 C 7.238281 12.542969 6.902344 12.082031 6.683594 11.949219 Z M 6.566406 16.226562 " fill-opacity="1" fill-rule="nonzero"></path><path fill="#f5c832" d="M 6.792969 35.484375 C 6.792969 36.582031 5.804688 37.152344 5.015625 37.152344 C 3.972656 37.152344 3.417969 36.515625 3.417969 35.703125 C 3.417969 35.230469 3.496094 34.957031 3.710938 34.507812 C 3.710938 34.507812 5.445312 30.921875 6.121094 29.539062 C 6.207031 29.328125 6.246094 29.109375 6.230469 28.882812 C 6.230469 28.445312 5.796875 28.058594 5.339844 28.050781 C 4.925781 28.039062 4.472656 28.445312 4.472656 28.882812 C 4.472656 29.441406 4.753906 29.683594 5.046875 29.683594 C 5.40625 29.683594 5.550781 29.539062 5.550781 29.277344 C 5.550781 29.101562 5.46875 29.023438 5.339844 29.023438 C 5.039062 29.023438 5.121094 29.453125 5.121094 29.453125 C 5.035156 29.429688 4.972656 29.378906 4.929688 29.300781 C 4.890625 29.222656 4.882812 29.140625 4.914062 29.058594 C 4.792969 29.035156 4.695312 28.976562 4.617188 28.882812 C 4.699219 28.800781 4.796875 28.746094 4.914062 28.71875 C 4.847656 28.488281 4.941406 28.367188 5.148438 28.3125 C 5.113281 28.398438 5.101562 28.484375 5.117188 28.574219 C 5.445312 28.476562 5.953125 28.628906 5.953125 29.191406 C 5.953125 29.757812 5.566406 30.230469 4.824219 30.109375 C 5.011719 30.203125 5.101562 30.355469 5.105469 30.558594 C 5.015625 30.523438 4.921875 30.503906 4.824219 30.496094 C 4.914062 30.648438 5.039062 30.78125 5.027344 31.074219 C 4.890625 31.011719 4.757812 30.898438 4.589844 30.964844 C 4.863281 31.503906 4.527344 32.238281 3.671875 32.414062 C 3.976562 32.089844 4.132812 31.707031 4.136719 31.261719 C 4.136719 29.988281 3.78125 29.78125 3.78125 28.882812 C 3.792969 28.441406 3.984375 28.097656 4.351562 27.851562 L 4.351562 27.863281 C 4.128906 27.816406 3.960938 27.699219 3.847656 27.5 C 4.425781 27.347656 5.253906 27.347656 5.699219 27.523438 C 6.125 27.585938 6.453125 27.804688 6.683594 28.167969 C 6.785156 28.367188 6.988281 29.089844 6.683594 29.738281 C 6.332031 30.449219 4.730469 33.839844 4.230469 34.902344 C 4.125 35.132812 4.070312 35.375 4.066406 35.625 C 4.066406 36.285156 4.664062 36.503906 5.007812 36.503906 C 5.40625 36.503906 5.824219 36.195312 5.824219 35.8125 C 5.824219 35.570312 5.691406 35.417969 5.5 35.417969 C 5.046875 35.417969 5.066406 35.8125 5.160156 36.054688 C 4.875 35.921875 4.710938 35.703125 4.753906 35.453125 C 4.566406 35.429688 4.414062 35.34375 4.292969 35.199219 C 4.402344 35.039062 4.558594 34.957031 4.753906 34.957031 C 4.660156 34.574219 4.914062 34.410156 5.160156 34.320312 C 5.078125 34.605469 5.027344 34.914062 5.5 34.914062 C 5.847656 34.914062 6.109375 34.96875 6.269531 35.199219 C 6.28125 34.902344 6.308594 33.730469 6.308594 33.730469 C 6.332031 33.289062 5.722656 33.3125 5.332031 33.433594 C 5.472656 32.929688 5.777344 32.664062 6.472656 32.730469 C 6.230469 32.640625 6.113281 32.464844 6.121094 32.203125 C 6.121094 31.789062 6.460938 31.328125 6.683594 31.183594 Z M 6.792969 35.484375 " fill-opacity="1" fill-rule="nonzero"></path><path fill="#f5c832" d="M 6.566406 35.484375 C 6.566406 36.582031 7.5625 37.152344 8.339844 37.152344 C 9.382812 37.152344 9.949219 36.515625 9.949219 35.703125 C 9.949219 35.230469 9.863281 34.957031 9.648438 34.507812 C 9.648438 34.507812 7.914062 30.921875 7.242188 29.539062 C 7.160156 29.328125 7.121094 29.109375 7.132812 28.882812 C 7.132812 28.445312 7.566406 28.058594 8.023438 28.050781 C 8.433594 28.039062 8.886719 28.445312 8.886719 28.882812 C 8.886719 29.441406 8.605469 29.683594 8.320312 29.683594 C 7.949219 29.683594 7.800781 29.539062 7.800781 29.277344 C 7.800781 29.101562 7.890625 29.023438 8.015625 29.023438 C 8.320312 29.023438 8.230469 29.453125 8.230469 29.453125 C 8.320312 29.433594 8.382812 29.382812 8.429688 29.304688 C 8.472656 29.222656 8.476562 29.140625 8.445312 29.058594 C 8.566406 29.035156 8.660156 28.976562 8.738281 28.882812 C 8.65625 28.796875 8.558594 28.742188 8.445312 28.71875 C 8.515625 28.488281 8.417969 28.367188 8.203125 28.3125 C 8.242188 28.394531 8.253906 28.484375 8.242188 28.574219 C 7.90625 28.476562 7.402344 28.628906 7.402344 29.191406 C 7.402344 29.757812 7.800781 30.230469 8.527344 30.109375 C 8.351562 30.207031 8.257812 30.359375 8.246094 30.558594 C 8.339844 30.527344 8.429688 30.503906 8.527344 30.496094 C 8.445312 30.648438 8.324219 30.78125 8.335938 31.074219 C 8.460938 31.011719 8.59375 30.898438 8.769531 30.964844 C 8.496094 31.503906 8.828125 32.238281 9.6875 32.414062 C 9.378906 32.050781 9.21875 31.65625 9.21875 31.261719 C 9.21875 29.988281 9.578125 29.78125 9.578125 28.882812 C 9.5625 28.445312 9.371094 28.101562 9.011719 27.851562 L 9.011719 27.863281 C 9.234375 27.820312 9.398438 27.699219 9.503906 27.5 C 8.945312 27.347656 8.109375 27.347656 7.660156 27.523438 C 7.234375 27.585938 6.90625 27.800781 6.683594 28.167969 C 6.566406 28.367188 6.371094 29.089844 6.683594 29.738281 C 7.023438 30.449219 8.625 33.839844 9.121094 34.902344 C 9.238281 35.128906 9.296875 35.371094 9.296875 35.625 C 9.296875 36.285156 8.699219 36.503906 8.359375 36.503906 C 7.945312 36.503906 7.527344 36.195312 7.527344 35.8125 C 7.527344 35.570312 7.671875 35.417969 7.859375 35.417969 C 8.320312 35.417969 8.292969 35.8125 8.191406 36.054688 C 8.484375 35.921875 8.660156 35.703125 8.605469 35.453125 C 8.792969 35.429688 8.945312 35.34375 9.066406 35.199219 C 8.953125 35.039062 8.800781 34.957031 8.605469 34.957031 C 8.699219 34.574219 8.445312 34.410156 8.191406 34.320312 C 8.28125 34.605469 8.332031 34.914062 7.859375 34.914062 C 7.515625 34.914062 7.242188 34.96875 7.089844 35.199219 C 7.082031 34.902344 7.050781 33.730469 7.050781 33.730469 C 7.035156 33.289062 7.644531 33.3125 8.023438 33.433594 C 7.878906 32.929688 7.582031 32.664062 6.890625 32.730469 C 7.132812 32.636719 7.246094 32.460938 7.238281 32.203125 C 7.238281 31.789062 6.902344 31.328125 6.683594 31.183594 Z M 6.566406 35.484375 " fill-opacity="1" fill-rule="nonzero"></path><path fill="#f5c832" d="M 6.683594 4.347656 C 6.683594 4.347656 7.199219 3.910156 7.386719 4.117188 C 7.671875 4.480469 6.507812 6.246094 6.507812 6.859375 C 6.507812 7.878906 7.179688 8.15625 8.023438 8.296875 C 8.59375 8.386719 9.503906 8.265625 9.503906 8.265625 C 9.339844 8.023438 9.230469 7.945312 8.933594 7.945312 C 9.140625 7.839844 9.300781 7.683594 9.421875 7.484375 C 9.539062 7.285156 9.597656 7.070312 9.59375 6.839844 C 9.59375 5.960938 9.230469 5.609375 9.230469 4.613281 C 9.230469 4.0625 9.675781 3.375 9.675781 3.375 C 8.878906 3.4375 8.484375 4.183594 8.714844 4.765625 C 8.582031 4.796875 8.46875 4.765625 8.375 4.667969 C 8.320312 4.832031 8.402344 5.019531 8.527344 5.183594 C 8.421875 5.238281 8.355469 5.203125 8.191406 5.171875 C 8.214844 5.335938 8.320312 5.523438 8.554688 5.6875 C 7.839844 5.5 7.402344 5.996094 7.402344 6.519531 C 7.402344 6.914062 7.679688 7.191406 7.945312 7.191406 C 8.054688 7.183594 8.152344 7.152344 8.242188 7.089844 C 8.285156 7.222656 8.269531 7.34375 8.203125 7.464844 C 8.40625 7.410156 8.527344 7.300781 8.445312 7.046875 C 8.582031 7.042969 8.699219 6.992188 8.796875 6.894531 C 8.710938 6.773438 8.59375 6.714844 8.445312 6.71875 C 8.554688 6.5 8.433594 6.367188 8.246094 6.269531 C 8.246094 6.269531 8.367188 6.71875 8.078125 6.71875 C 7.941406 6.71875 7.820312 6.675781 7.820312 6.488281 C 7.820312 6.3125 7.964844 6.09375 8.320312 6.105469 C 8.648438 6.113281 8.929688 6.335938 8.929688 6.882812 C 8.929688 7.375 8.527344 7.628906 7.988281 7.640625 C 7.515625 7.660156 7.144531 7.398438 7.144531 6.914062 C 7.144531 6.246094 8.097656 4.746094 8.097656 4.164062 C 8.097656 3.722656 7.703125 3.472656 7.308594 3.472656 C 6.8125 3.472656 6.386719 3.976562 6.386719 3.976562 Z M 6.683594 4.347656 " fill-opacity="1" fill-rule="nonzero"></path><path fill="#f5c832" d="M 6.683594 4.347656 C 6.683594 4.347656 6.160156 3.910156 5.984375 4.117188 C 5.691406 4.480469 6.863281 6.246094 6.863281 6.859375 C 6.863281 7.878906 6.175781 8.15625 5.339844 8.296875 C 4.769531 8.386719 3.847656 8.265625 3.847656 8.265625 C 4.023438 8.023438 4.132812 7.945312 4.425781 7.945312 C 4.222656 7.835938 4.0625 7.683594 3.945312 7.484375 C 3.832031 7.285156 3.777344 7.070312 3.78125 6.839844 C 3.78125 5.960938 4.132812 5.609375 4.132812 4.613281 C 4.132812 4.0625 3.683594 3.375 3.683594 3.375 C 4.472656 3.4375 4.875 4.183594 4.65625 4.765625 C 4.785156 4.792969 4.898438 4.761719 4.996094 4.667969 C 5.042969 4.832031 4.957031 5.019531 4.835938 5.183594 C 4.929688 5.238281 5.007812 5.203125 5.164062 5.171875 C 5.148438 5.335938 5.042969 5.523438 4.796875 5.6875 C 5.515625 5.5 5.957031 5.996094 5.957031 6.519531 C 5.957031 6.914062 5.683594 7.191406 5.40625 7.191406 C 5.304688 7.183594 5.207031 7.148438 5.121094 7.089844 C 5.074219 7.21875 5.085938 7.34375 5.148438 7.464844 C 4.957031 7.410156 4.824219 7.300781 4.914062 7.046875 C 4.773438 7.042969 4.65625 6.992188 4.5625 6.894531 C 4.648438 6.777344 4.765625 6.71875 4.914062 6.71875 C 4.800781 6.5 4.929688 6.367188 5.105469 6.269531 C 5.105469 6.269531 4.996094 6.71875 5.285156 6.71875 C 5.417969 6.71875 5.539062 6.675781 5.539062 6.488281 C 5.539062 6.3125 5.390625 6.09375 5.042969 6.105469 C 4.710938 6.113281 4.433594 6.335938 4.433594 6.882812 C 4.433594 7.375 4.835938 7.628906 5.375 7.640625 C 5.851562 7.660156 6.214844 7.398438 6.214844 6.914062 C 6.214844 6.246094 5.265625 4.746094 5.265625 4.164062 C 5.265625 3.722656 5.660156 3.472656 6.042969 3.472656 C 6.554688 3.472656 6.972656 3.976562 6.972656 3.976562 Z M 6.683594 4.347656 " fill-opacity="1" fill-rule="nonzero"></path><path fill="#4eaec4" d="M 5.648438 35.386719 C 5.648438 35.308594 5.449219 35.351562 5.3125 35.386719 C 5.160156 35.40625 5.070312 35.496094 5.082031 35.582031 C 5.09375 35.671875 5.269531 35.625 5.417969 35.59375 C 5.566406 35.550781 5.660156 35.484375 5.648438 35.386719 Z M 5.648438 35.386719 " fill-opacity="1" fill-rule="nonzero"></path><path fill="#4eaec4" d="M 5.175781 35.679688 L 5.121094 35.679688 L 5.027344 35.582031 C 5.015625 35.460938 5.117188 35.375 5.296875 35.332031 C 5.386719 35.308594 5.476562 35.292969 5.566406 35.285156 L 5.617188 35.285156 L 5.703125 35.386719 C 5.710938 35.507812 5.609375 35.605469 5.433594 35.648438 C 5.347656 35.667969 5.261719 35.679688 5.175781 35.679688 Z M 5.175781 35.679688 " fill-opacity="1" fill-rule="nonzero"></path><path fill="#f5c832" d="M 49.65625 37.371094 C 42.257812 37.390625 37.066406 31.480469 36.59375 25.558594 C 36.59375 25.558594 36.300781 25.449219 36.257812 25.710938 C 36.175781 26.339844 36.441406 28.269531 36.335938 28.136719 C 36.160156 27.882812 34.808594 24.285156 34.566406 24.671875 C 34.238281 25.195312 36.078125 29.300781 35.96875 29.429688 C 35.601562 29.871094 33.488281 25.417969 33.320312 25.746094 C 32.675781 26.996094 35.925781 31.03125 35.902344 31.195312 C 35.835938 31.734375 33.429688 29.023438 33.226562 29.308594 C 32.769531 29.96875 35.820312 32.359375 35.972656 32.546875 C 36.453125 33.082031 34.3125 31.582031 34.25 32.105469 C 34.191406 32.523438 35.28125 33.390625 35.929688 33.75 C 36.582031 34.125 36.792969 34.015625 36.980469 34.332031 C 37.117188 34.574219 35.753906 34.179688 35.796875 34.476562 C 35.863281 35.066406 37.292969 34.945312 37.5 35.210938 C 37.71875 35.472656 36.535156 35.277344 36.589844 35.496094 C 36.664062 35.878906 37.867188 35.933594 37.886719 36.097656 C 37.90625 36.261719 37.125 36.152344 37.175781 36.460938 C 37.21875 36.734375 38.402344 36.679688 38.6875 36.878906 C 38.976562 37.074219 37.632812 36.898438 38.675781 37.414062 C 39.726562 37.941406 40.921875 38.523438 42.558594 38.839844 C 44.203125 39.167969 45.03125 38.808594 45.097656 38.699219 C 45.160156 38.597656 44.316406 38.785156 43.160156 38.578125 C 41.992188 38.359375 40.4375 37.632812 39.808594 37.25 C 39.605469 37.152344 40.421875 36.910156 40.253906 36.679688 C 40.078125 36.460938 39.421875 36.710938 39.171875 36.394531 C 39.003906 36.1875 39.484375 36.1875 39.464844 36.054688 C 39.457031 35.933594 38.558594 35.726562 38.402344 35.496094 C 38.234375 35.277344 38.800781 35.320312 38.828125 35.167969 C 38.847656 35.058594 38.265625 34.859375 38.226562 34.71875 C 38.175781 34.5625 38.867188 34.605469 38.550781 34.421875 C 38.203125 34.222656 37.265625 33.992188 37.089844 33.652344 C 36.914062 33.335938 37.800781 33.695312 37.570312 33.390625 C 37.414062 33.171875 36.550781 32.808594 36.367188 32.316406 C 36.246094 31.976562 36.984375 32.269531 36.996094 32.050781 C 37.003906 31.710938 36.5625 31.929688 36.417969 30.957031 C 36.367188 30.636719 36.988281 30.855469 36.988281 30.855469 L 37.082031 30.691406 C 37.082031 30.691406 37.800781 31.085938 38.742188 32.183594 C 39.679688 33.269531 39.945312 34.289062 40.828125 35.023438 C 41.257812 35.386719 41.269531 34.890625 42.226562 35.484375 C 43.1875 36.085938 43.582031 36.503906 44.585938 37.359375 C 44.730469 37.480469 45.382812 37.238281 47.3125 37.644531 C 48.355469 37.863281 48.5625 38.402344 48.5625 38.402344 C 48.5625 38.421875 49.148438 38.050781 49.421875 37.644531 C 49.53125 37.46875 49.640625 37.632812 49.671875 37.601562 C 49.777344 37.503906 49.65625 37.371094 49.65625 37.371094 Z M 49.65625 37.371094 " fill-opacity="1" fill-rule="nonzero"></path><path fill="#f5c832" d="M 43.808594 39.039062 C 43.382812 39.027344 42.964844 38.984375 42.550781 38.90625 C 40.847656 38.566406 39.582031 37.929688 38.652344 37.46875 C 38.328125 37.304688 38.210938 37.207031 38.226562 37.097656 C 38.230469 36.996094 38.386719 36.964844 38.535156 36.941406 C 38.589844 36.929688 38.664062 36.921875 38.679688 36.898438 C 38.542969 36.832031 38.253906 36.800781 37.96875 36.765625 C 37.527344 36.710938 37.148438 36.65625 37.125 36.472656 L 37.117188 36.460938 L 37.160156 36.328125 C 37.238281 36.21875 37.433594 36.1875 37.59375 36.164062 C 37.675781 36.152344 37.753906 36.128906 37.828125 36.097656 C 37.800781 36.066406 37.59375 36.023438 37.433594 35.976562 C 37.054688 35.878906 36.589844 35.769531 36.527344 35.496094 C 36.609375 35.332031 36.78125 35.320312 37.0625 35.320312 C 37.203125 35.308594 37.445312 35.308594 37.472656 35.265625 C 37.390625 35.15625 37.117188 35.109375 36.851562 35.066406 C 36.351562 34.980469 35.792969 34.882812 35.742188 34.484375 C 35.886719 34.199219 36.160156 34.300781 36.496094 34.332031 C 36.621094 34.34375 36.742188 34.355469 36.832031 34.355469 C 36.832031 34.191406 36.730469 34.167969 36.539062 34.089844 C 36.316406 34.019531 36.105469 33.921875 35.902344 33.804688 C 35.296875 33.464844 34.128906 32.566406 34.191406 32.097656 C 34.199219 31.964844 34.269531 31.910156 34.398438 31.929688 C 34.660156 31.929688 35.160156 32.195312 35.542969 32.390625 C 35.742188 32.492188 35.972656 32.609375 36.027344 32.609375 C 35.886719 32.523438 35.753906 32.421875 35.628906 32.316406 C 34.222656 31.097656 32.832031 29.804688 33.183594 29.289062 C 33.453125 29.234375 33.875 29.605469 34.535156 30.210938 C 35.027344 30.648438 35.648438 31.21875 35.832031 31.21875 C 35.839844 31.140625 35.636719 30.867188 35.429688 30.5625 C 34.566406 29.3125 32.765625 26.699219 33.269531 25.722656 C 33.488281 25.667969 33.738281 26.085938 34.375 27.183594 C 34.886719 28.058594 35.664062 29.410156 35.90625 29.410156 C 35.925781 29.320312 35.710938 28.742188 35.5 28.179688 C 34.835938 26.449219 34.308594 24.976562 34.515625 24.636719 C 34.804688 24.582031 35.238281 25.460938 35.96875 27.183594 C 36.132812 27.542969 36.269531 27.875 36.339844 28.027344 C 36.300781 27.820312 36.273438 27.613281 36.257812 27.402344 C 36.21875 26.800781 36.160156 26.0625 36.210938 25.703125 C 36.21875 25.542969 36.304688 25.472656 36.460938 25.484375 C 36.515625 25.484375 36.566406 25.496094 36.617188 25.515625 C 37.105469 31.339844 42.078125 37.304688 49.613281 37.304688 C 49.71875 37.335938 49.769531 37.40625 49.773438 37.511719 L 49.773438 37.535156 L 49.707031 37.644531 L 49.617188 37.589844 L 49.53125 37.625 C 49.203125 38.074219 48.628906 38.46875 48.5625 38.46875 C 48.5 38.367188 48.246094 37.886719 47.300781 37.6875 C 46.597656 37.539062 45.886719 37.457031 45.167969 37.449219 L 44.816406 37.449219 C 44.675781 37.449219 44.597656 37.449219 44.542969 37.394531 L 43.972656 36.910156 C 43.351562 36.363281 42.949219 36 42.191406 35.527344 C 41.753906 35.253906 41.515625 35.234375 41.367188 35.234375 L 41.175781 35.234375 C 41.027344 35.234375 40.902344 35.183594 40.796875 35.078125 C 40.296875 34.652344 39.996094 34.148438 39.660156 33.597656 C 39.382812 33.105469 39.0625 32.640625 38.699219 32.207031 C 37.78125 31.140625 37.054688 30.726562 37.042969 30.726562 L 37.039062 30.878906 C 36.96875 30.910156 36.78125 30.847656 36.621094 30.847656 C 36.570312 30.839844 36.527344 30.851562 36.484375 30.878906 C 36.550781 31.527344 36.742188 31.65625 36.875 31.765625 C 36.972656 31.832031 37.054688 31.898438 37.042969 32.050781 C 37.039062 32.195312 36.863281 32.195312 36.796875 32.195312 L 36.582031 32.195312 C 36.46875 32.195312 36.433594 32.207031 36.421875 32.21875 C 36.539062 32.601562 36.941406 32.863281 37.238281 33.0625 C 37.414062 33.183594 37.554688 33.269531 37.617188 33.359375 L 37.636719 33.390625 L 37.652344 33.511719 C 37.625 33.566406 37.554688 33.566406 37.496094 33.566406 L 37.21875 33.554688 C 37.246094 33.828125 37.71875 34.027344 38.09375 34.179688 C 38.261719 34.230469 38.421875 34.296875 38.578125 34.378906 C 38.632812 34.398438 38.699219 34.453125 38.6875 34.519531 C 38.671875 34.597656 38.582031 34.617188 38.457031 34.640625 C 38.390625 34.648438 38.332031 34.671875 38.273438 34.707031 C 38.292969 34.75 38.460938 34.835938 38.582031 34.902344 C 38.769531 35.003906 38.890625 35.078125 38.878906 35.167969 C 38.867188 35.277344 38.738281 35.308594 38.621094 35.34375 C 38.550781 35.355469 38.484375 35.382812 38.421875 35.417969 C 38.515625 35.574219 38.824219 35.691406 39.0625 35.792969 C 39.375 35.902344 39.511719 35.96875 39.523438 36.054688 C 39.53125 36.144531 39.421875 36.1875 39.328125 36.230469 C 39.285156 36.242188 39.203125 36.285156 39.191406 36.320312 C 39.328125 36.515625 39.570312 36.515625 39.800781 36.527344 C 40.003906 36.527344 40.203125 36.527344 40.296875 36.660156 L 40.328125 36.777344 C 40.308594 36.898438 40.152344 37 40.011719 37.085938 C 39.945312 37.125 39.886719 37.171875 39.835938 37.230469 C 40.40625 37.546875 41.972656 38.3125 43.167969 38.511719 C 43.566406 38.59375 43.964844 38.632812 44.367188 38.632812 C 44.53125 38.632812 44.675781 38.621094 44.789062 38.621094 L 44.976562 38.609375 C 45.074219 38.609375 45.121094 38.621094 45.148438 38.65625 C 45.085938 38.828125 44.632812 39.039062 43.808594 39.039062 Z M 36.070312 34.410156 C 35.902344 34.410156 35.863281 34.429688 35.851562 34.453125 C 35.890625 34.792969 36.433594 34.882812 36.863281 34.96875 C 37.191406 35.011719 37.445312 35.054688 37.542969 35.175781 L 37.566406 35.210938 L 37.578125 35.308594 C 37.527344 35.40625 37.351562 35.40625 37.066406 35.417969 C 36.921875 35.429688 36.664062 35.441406 36.636719 35.484375 C 36.675781 35.671875 37.132812 35.792969 37.460938 35.878906 C 37.773438 35.957031 37.929688 36 37.941406 36.097656 C 37.957031 36.21875 37.785156 36.242188 37.609375 36.261719 C 37.472656 36.296875 37.304688 36.316406 37.242188 36.382812 C 37.246094 36.570312 37.675781 36.625 37.984375 36.65625 C 38.292969 36.703125 38.582031 36.734375 38.71875 36.824219 L 38.785156 36.941406 C 38.769531 37.007812 38.675781 37.019531 38.550781 37.050781 C 38.488281 37.0625 38.351562 37.085938 38.328125 37.117188 C 38.328125 37.117188 38.328125 37.195312 38.703125 37.371094 C 39.625 37.832031 40.882812 38.46875 42.570312 38.785156 C 42.976562 38.878906 43.390625 38.925781 43.808594 38.929688 C 44.605469 38.929688 45.011719 38.730469 45.046875 38.664062 L 44.796875 38.730469 C 44.675781 38.730469 44.53125 38.742188 44.367188 38.742188 C 43.957031 38.738281 43.550781 38.703125 43.148438 38.632812 C 41.945312 38.414062 40.351562 37.65625 39.773438 37.304688 C 39.71875 37.140625 39.820312 37.085938 39.945312 36.996094 C 40.058594 36.933594 40.203125 36.824219 40.21875 36.765625 C 40.148438 36.636719 39.984375 36.636719 39.800781 36.636719 C 39.554688 36.625 39.285156 36.625 39.132812 36.425781 L 39.082031 36.285156 C 39.105469 36.195312 39.203125 36.164062 39.292969 36.121094 C 39.328125 36.097656 39.414062 36.078125 39.417969 36.054688 C 39.292969 35.984375 39.164062 35.925781 39.027344 35.878906 C 38.742188 35.792969 38.445312 35.671875 38.355469 35.527344 L 38.324219 35.386719 C 38.351562 35.308594 38.46875 35.277344 38.589844 35.230469 C 38.644531 35.222656 38.769531 35.1875 38.769531 35.15625 C 38.695312 35.09375 38.613281 35.042969 38.527344 35 C 38.332031 34.890625 38.191406 34.828125 38.164062 34.726562 C 38.214844 34.585938 38.320312 34.5625 38.433594 34.542969 C 38.484375 34.53125 38.535156 34.515625 38.582031 34.496094 C 38.410156 34.410156 38.234375 34.332031 38.054688 34.265625 C 37.644531 34.113281 37.164062 33.925781 37.039062 33.6875 L 37.027344 33.652344 L 37.027344 33.523438 C 37.089844 33.421875 37.238281 33.457031 37.367188 33.464844 L 37.496094 33.464844 C 37.472656 33.355469 37.339844 33.269531 37.175781 33.148438 C 36.851562 32.929688 36.453125 32.675781 36.324219 32.324219 C 36.300781 32.269531 36.300781 32.214844 36.332031 32.160156 C 36.402344 32.097656 36.488281 32.070312 36.582031 32.085938 L 36.796875 32.097656 C 36.859375 32.097656 36.933594 32.085938 36.941406 32.050781 C 36.941406 31.953125 36.894531 31.921875 36.808594 31.855469 C 36.671875 31.746094 36.457031 31.582031 36.363281 30.964844 C 36.355469 30.90625 36.367188 30.855469 36.40625 30.8125 C 36.523438 30.671875 36.996094 30.800781 37.007812 30.800781 L 37.027344 30.660156 C 37.144531 30.660156 37.859375 31.066406 38.785156 32.140625 C 39.152344 32.578125 39.472656 33.046875 39.757812 33.542969 C 40.078125 34.082031 40.382812 34.585938 40.867188 34.992188 C 40.953125 35.074219 41.054688 35.117188 41.175781 35.113281 L 41.367188 35.113281 C 41.542969 35.113281 41.785156 35.15625 42.257812 35.441406 C 43.011719 35.910156 43.421875 36.261719 44.042969 36.8125 L 44.621094 37.316406 C 44.648438 37.347656 44.769531 37.347656 44.816406 37.347656 L 45.167969 37.335938 C 45.894531 37.347656 46.613281 37.429688 47.324219 37.589844 C 48.382812 37.808594 48.609375 38.355469 48.621094 38.378906 C 48.621094 38.335938 49.125 37.960938 49.382812 37.613281 C 49.410156 37.542969 49.457031 37.507812 49.53125 37.503906 L 49.648438 37.535156 L 49.65625 37.371094 L 49.613281 37.425781 C 42.03125 37.425781 37.023438 31.425781 36.539062 25.601562 L 36.460938 25.601562 C 36.378906 25.601562 36.332031 25.625 36.320312 25.722656 C 36.269531 26.0625 36.332031 26.832031 36.367188 27.390625 C 36.425781 28.039062 36.433594 28.136719 36.390625 28.167969 C 36.238281 28.082031 36.105469 27.773438 35.875 27.214844 C 35.523438 26.402344 34.808594 24.714844 34.609375 24.703125 C 34.40625 25.023438 35.160156 26.984375 35.601562 28.148438 C 36.015625 29.234375 36.066406 29.40625 36.015625 29.453125 L 35.90625 29.507812 C 35.621094 29.507812 35.078125 28.617188 34.28125 27.246094 C 33.898438 26.578125 33.453125 25.8125 33.335938 25.777344 C 32.890625 26.6875 34.664062 29.253906 35.523438 30.492188 C 35.890625 31.042969 35.960938 31.140625 35.957031 31.207031 L 35.953125 31.261719 L 35.832031 31.328125 C 35.621094 31.328125 35.171875 30.933594 34.457031 30.296875 C 33.980469 29.847656 33.425781 29.34375 33.277344 29.34375 C 32.929688 29.847656 35.015625 31.632812 35.699219 32.214844 C 35.875 32.371094 35.988281 32.46875 36.015625 32.5 C 36.082031 32.578125 36.109375 32.632812 36.09375 32.675781 C 35.953125 32.710938 35.796875 32.644531 35.5 32.480469 C 35.132812 32.304688 34.636719 32.039062 34.398438 32.039062 C 34.34375 32.035156 34.3125 32.054688 34.296875 32.105469 C 34.253906 32.480469 35.25 33.300781 35.957031 33.695312 C 36.148438 33.816406 36.355469 33.910156 36.570312 33.980469 C 36.777344 34.046875 36.90625 34.101562 37.027344 34.300781 C 36.972656 34.628906 36.730469 34.476562 36.484375 34.441406 C 36.347656 34.421875 36.210938 34.410156 36.074219 34.410156 Z M 36.070312 34.410156 " fill-opacity="1" fill-rule="nonzero"></path><path fill="#f5c832" d="M 54.628906 39.574219 C 54.359375 39.519531 54.386719 39.726562 54.386719 39.726562 C 54.410156 39.992188 54.21875 40.289062 53.996094 40.34375 C 53.820312 40.375 53.910156 40.507812 53.855469 40.628906 L 53.136719 40.59375 C 51.996094 41.210938 50.566406 41.429688 48.851562 41.230469 C 48.851562 41.230469 48.488281 41.503906 48.175781 41.777344 C 47.851562 42.074219 47.625 42.140625 47.566406 42.359375 C 47.5 42.601562 47.730469 42.710938 48.027344 42.722656 C 48.324219 42.734375 48.707031 42.460938 48.707031 42.460938 C 48.757812 42.617188 48.867188 42.699219 49.03125 42.710938 C 49.304688 42.734375 49.800781 42.546875 49.800781 42.546875 C 49.800781 42.546875 50.21875 42.734375 50.542969 42.6875 C 50.753906 42.648438 50.949219 42.570312 51.125 42.449219 C 51.125 42.449219 51.207031 42.808594 51.527344 42.820312 C 51.839844 42.84375 52.324219 42.4375 52.324219 42.4375 C 52.324219 42.4375 52.558594 42.710938 52.851562 42.667969 C 53.144531 42.632812 53.492188 42.285156 53.492188 42.285156 C 53.492188 42.285156 53.855469 42.449219 54.191406 42.339844 C 54.53125 42.238281 54.859375 41.898438 54.859375 41.898438 C 54.859375 41.898438 55.15625 42.152344 55.429688 42.054688 C 55.699219 41.964844 55.886719 41.582031 55.886719 41.582031 C 55.886719 41.582031 56.613281 41.890625 57.101562 41.636719 C 57.4375 41.484375 57.355469 40.945312 57.355469 40.945312 C 57.355469 40.945312 59.355469 41.230469 59.273438 39.925781 C 59.261719 39.785156 56.042969 39.828125 54.628906 39.574219 Z M 54.628906 39.574219 " fill-opacity="1" fill-rule="nonzero"></path><path fill="#f5c832" d="M 51.542969 42.886719 L 51.519531 42.886719 C 51.230469 42.863281 51.113281 42.601562 51.082031 42.492188 C 51.046875 42.570312 50.816406 42.710938 50.542969 42.746094 C 50.28125 42.726562 50.023438 42.679688 49.773438 42.601562 C 49.550781 42.695312 49.320312 42.75 49.082031 42.765625 C 48.800781 42.746094 48.695312 42.589844 48.664062 42.480469 C 48.628906 42.570312 48.304688 42.777344 48.042969 42.777344 C 47.800781 42.765625 47.625 42.699219 47.546875 42.601562 C 47.496094 42.519531 47.480469 42.433594 47.507812 42.339844 C 47.558594 42.183594 47.675781 42.097656 47.851562 41.976562 C 47.925781 41.910156 48.019531 41.84375 48.136719 41.746094 C 48.460938 41.472656 48.824219 41.1875 48.824219 41.1875 C 49.257812 41.21875 49.640625 41.242188 50.015625 41.242188 C 51.207031 41.242188 52.246094 41.011719 53.113281 40.539062 L 53.855469 40.574219 C 53.828125 40.417969 53.832031 40.332031 53.988281 40.289062 C 54.183594 40.234375 54.355469 39.96875 54.34375 39.726562 C 54.328125 39.671875 54.339844 39.621094 54.375 39.574219 C 54.425781 39.523438 54.484375 39.5 54.550781 39.5 C 55.421875 39.664062 56.738281 39.71875 57.792969 39.75 C 59.222656 39.804688 59.316406 39.828125 59.328125 39.914062 C 59.359375 40.1875 59.28125 40.425781 59.09375 40.628906 C 58.78125 40.957031 58.214844 41.035156 57.792969 41.035156 C 57.648438 41.035156 57.503906 41.023438 57.359375 41 C 57.421875 41.042969 57.46875 41.539062 57.125 41.691406 C 56.726562 41.890625 55.96875 41.667969 55.875 41.636719 C 55.898438 41.679688 55.71875 42.03125 55.441406 42.109375 C 55.199219 42.183594 54.882812 41.988281 54.832031 41.945312 C 54.84375 42 54.535156 42.304688 54.210938 42.394531 C 53.914062 42.480469 53.515625 42.347656 53.46875 42.339844 C 53.492188 42.359375 53.15625 42.691406 52.855469 42.734375 L 52.847656 42.734375 C 52.625 42.726562 52.4375 42.640625 52.289062 42.46875 C 52.300781 42.523438 51.855469 42.886719 51.542969 42.886719 Z M 51.085938 42.402344 C 51.179688 42.460938 51.257812 42.765625 51.527344 42.765625 L 51.542969 42.820312 L 51.542969 42.777344 C 51.828125 42.777344 52.289062 42.394531 52.292969 42.394531 C 52.371094 42.402344 52.558594 42.613281 52.800781 42.613281 C 53.113281 42.578125 53.453125 42.25 53.464844 42.25 C 53.625 42.285156 53.785156 42.308594 53.949219 42.316406 C 54.027344 42.324219 54.101562 42.3125 54.171875 42.285156 C 54.503906 42.183594 54.816406 41.867188 54.816406 41.867188 C 54.859375 41.878906 55.097656 42.03125 55.304688 42.03125 C 55.542969 41.945312 55.71875 41.789062 55.832031 41.558594 C 55.921875 41.539062 56.273438 41.679688 56.640625 41.679688 C 56.792969 41.683594 56.9375 41.652344 57.074219 41.59375 C 57.375 41.460938 57.292969 40.957031 57.292969 40.945312 C 57.355469 40.902344 57.539062 40.914062 57.792969 40.914062 C 58.195312 40.914062 58.734375 40.859375 59.019531 40.550781 C 59.179688 40.371094 59.242188 40.164062 59.210938 39.925781 C 59.152344 39.914062 58.457031 39.890625 57.789062 39.859375 C 56.726562 39.816406 55.410156 39.773438 54.613281 39.628906 L 54.464844 39.640625 C 54.46875 40.011719 54.265625 40.332031 54.015625 40.386719 C 53.941406 40.40625 53.9375 40.429688 53.9375 40.507812 C 53.9375 40.554688 53.925781 40.605469 53.90625 40.648438 L 53.136719 40.636719 C 52.03125 41.261719 50.574219 41.472656 48.839844 41.296875 C 48.851562 41.308594 48.515625 41.558594 48.214844 41.832031 C 48.117188 41.917969 48.011719 41.992188 47.90625 42.0625 C 47.746094 42.183594 47.652344 42.238281 47.613281 42.371094 C 47.59375 42.425781 47.597656 42.476562 47.632812 42.523438 C 47.691406 42.601562 47.839844 42.65625 48.027344 42.667969 L 48.03125 42.667969 C 48.316406 42.667969 48.675781 42.414062 48.679688 42.402344 C 48.769531 42.449219 48.8125 42.625 49.039062 42.644531 L 49.042969 42.644531 C 49.34375 42.644531 49.773438 42.492188 49.777344 42.492188 C 49.828125 42.492188 50.152344 42.632812 50.445312 42.632812 C 50.679688 42.613281 50.894531 42.539062 51.085938 42.402344 Z M 51.085938 42.402344 " fill-opacity="1" fill-rule="nonzero"></path><path fill="#f5c832" d="M 50.359375 38.183594 C 50.886719 37.992188 51.421875 37.851562 51.972656 37.753906 C 53.910156 37.347656 54.582031 37.480469 54.71875 37.359375 C 56.25 35.660156 57.375 35.527344 58.488281 35.089844 C 59.375 34.34375 59.667969 33.28125 60.605469 32.195312 C 61.539062 31.109375 62.101562 31.019531 62.101562 31.019531 L 62.222656 31.261719 C 62.222656 31.261719 62.726562 30.890625 62.699219 31.207031 C 62.660156 31.691406 62.261719 32.148438 62.28125 32.480469 C 62.292969 32.699219 62.96875 32.390625 62.910156 32.578125 C 62.75 33.09375 62.207031 33.402344 62.058594 33.609375 C 61.816406 33.9375 62.671875 33.5 62.496094 33.828125 C 62.320312 34.167969 61.464844 34.507812 61.128906 34.714844 C 60.917969 34.835938 61.355469 34.871094 61.308594 35.011719 C 61.265625 35.167969 60.386719 35.496094 60.398438 35.605469 C 60.414062 35.757812 60.632812 35.769531 60.53125 35.878906 C 60.34375 36.085938 59.613281 36.109375 59.601562 36.242188 C 59.589844 36.382812 59.753906 36.492188 59.589844 36.699219 C 59.332031 37.03125 59.132812 36.699219 59.023438 36.964844 C 58.96875 37.117188 59.453125 37.414062 59.125 37.480469 C 58.683594 37.554688 58.34375 37.753906 57.964844 37.984375 C 57.820312 38.070312 57.167969 38.203125 56.792969 38.300781 C 56.542969 38.355469 55.171875 38.53125 55.234375 38.640625 C 55.289062 38.753906 56.15625 38.742188 57.980469 38.421875 C 58.824219 38.28125 59.648438 38.074219 60.457031 37.796875 C 61.871094 37.347656 60.097656 37.316406 60.386719 37.128906 C 60.679688 36.941406 61.898438 37.03125 61.945312 36.757812 C 61.992188 36.449219 61.265625 36.535156 61.28125 36.371094 C 61.304688 36.195312 62.769531 36.207031 62.859375 35.8125 C 62.902344 35.59375 62.023438 35.757812 62.234375 35.496094 C 62.441406 35.230469 63.617188 35.164062 63.660156 34.648438 C 63.683594 34.355469 62.699219 34.726562 62.824219 34.476562 C 62.882812 34.375 63.277344 34.253906 63.667969 33.992188 C 64.289062 33.554688 65.265625 32.820312 65.203125 32.402344 C 65.15625 31.875 63.171875 33.609375 63.347656 32.949219 C 63.402344 32.710938 66.5625 30.230469 66.050781 29.617188 C 65.695312 29.210938 63.441406 31.886719 63.363281 31.347656 C 63.347656 31.171875 66.875 27.203125 66.230469 25.953125 C 66.0625 25.625 63.402344 30.714844 63.035156 30.273438 C 62.9375 30.152344 65.296875 25.25 64.917969 24.769531 C 64.742188 24.515625 64.363281 25.339844 63.964844 26.226562 C 63.5625 27.136719 63.117188 28.125 63.023438 28.257812 C 62.9375 28.386719 63.128906 26.335938 63.035156 25.710938 C 62.996094 25.449219 62.710938 25.558594 62.710938 25.558594 C 62.296875 31.929688 56.167969 36.65625 51.277344 37.359375 C 50.015625 37.535156 49.613281 38.136719 48.21875 38.925781 C 47.757812 39.179688 47.039062 39.300781 46.417969 39.652344 C 45.894531 39.945312 45.472656 40.34375 45.148438 40.847656 C 45.050781 41 45.191406 41.472656 45.316406 41.527344 C 45.457031 41.570312 45.445312 41.1875 45.585938 41.097656 C 45.730469 41.042969 45.730469 41.253906 45.910156 41.242188 C 46.046875 41.214844 46.167969 41.15625 46.273438 41.066406 C 46.273438 41.066406 49.722656 41.054688 51.195312 41.023438 C 51.464844 41.011719 51.90625 40.902344 52.089844 40.703125 C 52.035156 40.539062 51.636719 40.628906 51.382812 40.636719 C 50.34375 40.574219 48.976562 40.636719 48.003906 40.582031 C 47.894531 40.574219 47.847656 40.515625 47.863281 40.40625 C 47.863281 40.34375 48.480469 39.683594 48.480469 39.683594 L 47.992188 39.683594 C 47.992188 39.683594 47.703125 39.847656 47.554688 39.859375 C 47.410156 39.882812 47.351562 39.78125 47.410156 39.738281 C 48.148438 39.179688 50.359375 38.183594 50.359375 38.183594 Z M 50.359375 38.183594 " fill-opacity="1" fill-rule="nonzero"></path><path fill="#f5c832" d="M 45.34375 41.570312 L 45.300781 41.570312 C 45.195312 41.539062 45.132812 41.351562 45.109375 41.285156 C 45.058594 41.132812 45.03125 40.933594 45.105469 40.824219 C 45.429688 40.308594 45.855469 39.90625 46.390625 39.609375 C 46.71875 39.433594 47.0625 39.292969 47.417969 39.179688 C 47.6875 39.101562 47.949219 38.996094 48.203125 38.875 C 48.640625 38.621094 48.980469 38.390625 49.285156 38.183594 C 49.933594 37.753906 50.398438 37.425781 51.277344 37.304688 C 56.453125 36.570312 62.261719 31.667969 62.65625 25.558594 C 62.753906 25.425781 63.0625 25.492188 63.089844 25.703125 C 63.144531 26.054688 63.101562 26.789062 63.085938 27.390625 C 63.0625 27.773438 63.039062 28.167969 63.050781 28.222656 C 63.050781 28.113281 63.429688 27.292969 63.789062 26.503906 L 63.914062 26.207031 C 64.386719 25.164062 64.632812 24.660156 64.859375 24.660156 L 64.875 24.660156 L 64.96875 24.738281 C 65.210938 25.054688 64.507812 26.789062 63.640625 28.871094 C 63.347656 29.539062 63.085938 30.15625 63.089844 30.253906 C 63.351562 30.242188 64.28125 28.738281 64.957031 27.644531 C 65.753906 26.359375 66.0625 25.886719 66.203125 25.886719 C 66.78125 26.90625 64.835938 29.472656 63.886719 30.722656 C 63.660156 31.019531 63.441406 31.292969 63.425781 31.347656 C 63.585938 31.328125 64.0625 30.933594 64.480469 30.570312 C 65.050781 30.054688 65.640625 29.527344 65.933594 29.527344 L 65.957031 29.527344 L 66.089844 29.582031 C 66.445312 30.011719 65.277344 31.164062 64.046875 32.324219 C 63.738281 32.609375 63.414062 32.90625 63.398438 32.960938 C 63.535156 33.050781 63.859375 32.863281 64.167969 32.6875 C 64.726562 32.335938 65.230469 32.117188 65.265625 32.390625 C 65.304688 32.730469 64.789062 33.289062 63.699219 34.046875 C 63.515625 34.164062 63.320312 34.265625 63.121094 34.355469 C 63.03125 34.390625 62.949219 34.441406 62.875 34.507812 C 62.96875 34.515625 63.0625 34.511719 63.15625 34.496094 C 63.386719 34.476562 63.59375 34.476562 63.671875 34.550781 L 63.714844 34.660156 C 63.683594 35.011719 63.222656 35.15625 62.804688 35.285156 C 62.574219 35.363281 62.347656 35.429688 62.269531 35.527344 C 62.265625 35.59375 62.429688 35.617188 62.519531 35.625 C 62.6875 35.636719 62.832031 35.660156 62.890625 35.734375 C 62.855469 36.097656 62.304688 36.195312 61.828125 36.261719 C 61.617188 36.304688 61.371094 36.351562 61.332031 36.382812 C 61.40625 36.410156 61.480469 36.425781 61.558594 36.4375 C 61.761719 36.472656 62.035156 36.535156 62.003906 36.765625 C 61.96875 36.953125 61.585938 36.996094 61.140625 37.042969 C 60.832031 37.074219 60.53125 37.097656 60.414062 37.171875 C 60.488281 37.207031 60.566406 37.230469 60.644531 37.25 C 60.863281 37.304688 61.0625 37.371094 61.066406 37.5 C 61.066406 37.578125 60.992188 37.6875 60.476562 37.851562 C 59.226562 38.238281 58.777344 38.347656 57.992188 38.488281 C 56.574219 38.71875 55.886719 38.761719 55.601562 38.761719 C 55.277344 38.761719 55.207031 38.707031 55.179688 38.664062 C 55.222656 38.523438 55.449219 38.476562 56.300781 38.335938 C 56.507812 38.300781 56.707031 38.269531 56.78125 38.246094 C 56.894531 38.214844 57.046875 38.183594 57.183594 38.148438 C 57.496094 38.070312 57.839844 37.996094 57.929688 37.941406 C 58.300781 37.710938 58.640625 37.511719 59.117188 37.425781 C 59.1875 37.371094 59.121094 37.28125 59.089844 37.226562 C 59.019531 37.140625 58.941406 37.042969 58.980469 36.941406 C 59.003906 36.832031 59.066406 36.785156 59.179688 36.800781 L 59.304688 36.855469 L 59.304688 36.800781 C 59.414062 36.800781 59.492188 36.753906 59.539062 36.65625 C 59.617188 36.578125 59.628906 36.488281 59.574219 36.394531 C 59.558594 36.34375 59.546875 36.292969 59.539062 36.242188 C 59.558594 36.132812 59.695312 36.097656 59.941406 36.042969 C 60.144531 36.011719 60.398438 35.945312 60.484375 35.847656 C 60.414062 35.757812 60.347656 35.703125 60.335938 35.617188 C 60.320312 35.527344 60.441406 35.460938 60.789062 35.285156 C 60.957031 35.210938 61.230469 35.054688 61.253906 35 C 61.265625 34.96875 61.195312 34.945312 61.148438 34.914062 C 61.089844 34.882812 61.019531 34.835938 61.019531 34.78125 L 61.019531 34.75 L 61.101562 34.660156 C 61.195312 34.605469 61.335938 34.53125 61.5 34.441406 C 61.875 34.257812 62.332031 34.027344 62.445312 33.804688 C 62.382812 33.761719 62.316406 33.75 62.242188 33.773438 C 62.191406 33.785156 62.140625 33.792969 62.089844 33.796875 L 61.957031 33.730469 C 61.933594 33.6875 61.972656 33.628906 62.007812 33.574219 C 62.082031 33.496094 62.160156 33.417969 62.242188 33.34375 C 62.472656 33.148438 62.75 32.90625 62.859375 32.566406 C 62.777344 32.578125 62.710938 32.578125 62.65625 32.589844 C 62.386719 32.644531 62.230469 32.566406 62.230469 32.488281 C 62.214844 32.316406 62.308594 32.105469 62.414062 31.875 C 62.53125 31.664062 62.609375 31.4375 62.648438 31.195312 C 62.527344 31.128906 62.347656 31.238281 62.253906 31.304688 L 62.050781 31.054688 C 62.054688 31.085938 61.511719 31.21875 60.644531 32.226562 C 60.28125 32.667969 59.957031 33.136719 59.671875 33.628906 C 59.332031 34.179688 59.019531 34.714844 58.523438 35.121094 C 58.316406 35.222656 58.113281 35.277344 57.914062 35.351562 C 56.984375 35.671875 56.011719 36.011719 54.753906 37.390625 C 54.683594 37.457031 54.558594 37.46875 54.277344 37.492188 C 53.503906 37.53125 52.738281 37.632812 51.980469 37.796875 C 50.964844 38.007812 50.382812 38.226562 50.382812 38.238281 C 50.359375 38.246094 48.175781 39.222656 47.4375 39.785156 C 47.621094 39.773438 47.796875 39.726562 47.960938 39.640625 L 48.480469 39.628906 C 48.234375 40.023438 47.925781 40.363281 47.917969 40.417969 L 48.003906 40.582031 L 48.003906 40.519531 C 48.980469 40.582031 50.34375 40.507812 51.386719 40.59375 L 51.5625 40.574219 C 51.777344 40.550781 52.0625 40.472656 52.140625 40.695312 C 51.925781 40.957031 51.464844 41.066406 51.195312 41.066406 C 49.738281 41.109375 46.367188 41.121094 46.277344 41.121094 C 46.175781 41.21875 46.054688 41.277344 45.910156 41.296875 C 45.824219 41.296875 45.753906 41.261719 45.707031 41.1875 C 45.585938 41.175781 45.527344 41.285156 45.503906 41.363281 C 45.464844 41.472656 45.4375 41.570312 45.34375 41.570312 Z M 62.835938 25.605469 C 62.796875 25.605469 62.761719 25.613281 62.726562 25.625 C 62.371094 31.722656 56.507812 36.65625 51.289062 37.402344 C 50.441406 37.523438 49.980469 37.84375 49.34375 38.269531 C 48.996094 38.523438 48.628906 38.753906 48.25 38.960938 C 47.996094 39.097656 47.730469 39.203125 47.449219 39.277344 C 47.113281 39.398438 46.769531 39.507812 46.445312 39.707031 C 45.933594 39.996094 45.515625 40.386719 45.195312 40.878906 C 45.152344 40.933594 45.160156 41.089844 45.214844 41.242188 C 45.234375 41.332031 45.277344 41.410156 45.34375 41.472656 C 45.367188 41.460938 45.390625 41.375 45.398438 41.328125 C 45.4375 41.21875 45.472656 41.097656 45.570312 41.042969 C 45.71875 41.042969 45.75 41.078125 45.785156 41.109375 C 45.824219 41.164062 45.851562 41.1875 45.898438 41.1875 C 46.046875 41.1875 46.234375 41.035156 46.234375 41.035156 C 46.273438 41.011719 49.722656 41.011719 51.195312 40.957031 C 51.433594 40.957031 51.878906 40.871094 52.046875 40.671875 C 52.019531 40.683594 51.960938 40.660156 51.839844 40.660156 C 51.75 40.664062 51.664062 40.671875 51.574219 40.683594 L 51.382812 40.703125 C 50.332031 40.628906 48.976562 40.695312 47.992188 40.628906 C 47.9375 40.625 47.890625 40.605469 47.851562 40.5625 C 47.808594 40.515625 47.792969 40.460938 47.800781 40.398438 C 47.8125 40.34375 48.019531 40.089844 48.4375 39.640625 L 47.992188 39.738281 C 47.859375 39.824219 47.714844 39.882812 47.558594 39.914062 C 47.433594 39.925781 47.355469 39.882812 47.335938 39.816406 L 47.316406 39.773438 L 47.367188 39.707031 C 48.113281 39.136719 50.25 38.183594 50.34375 38.136719 C 50.351562 38.128906 50.9375 37.90625 51.960938 37.699219 C 52.71875 37.527344 53.488281 37.417969 54.265625 37.371094 C 54.496094 37.359375 54.640625 37.347656 54.683594 37.316406 C 55.949219 35.914062 56.9375 35.574219 57.882812 35.242188 C 58.078125 35.175781 58.277344 35.113281 58.46875 35.035156 C 58.941406 34.628906 59.253906 34.125 59.585938 33.566406 C 59.871094 33.070312 60.199219 32.601562 60.5625 32.160156 C 61.507812 31.074219 62.0625 30.964844 62.089844 30.964844 L 62.265625 31.230469 C 62.253906 31.164062 62.46875 31.019531 62.605469 31.019531 L 62.722656 31.066406 C 62.75 31.109375 62.757812 31.15625 62.753906 31.207031 C 62.722656 31.464844 62.644531 31.703125 62.519531 31.929688 C 62.414062 32.140625 62.332031 32.324219 62.335938 32.480469 C 62.4375 32.507812 62.535156 32.507812 62.632812 32.480469 C 62.695312 32.46875 62.761719 32.460938 62.824219 32.457031 L 62.957031 32.511719 C 62.84375 32.972656 62.546875 33.234375 62.320312 33.421875 C 62.238281 33.488281 62.167969 33.5625 62.101562 33.640625 C 62.117188 33.6875 62.167969 33.675781 62.230469 33.664062 C 62.292969 33.652344 62.351562 33.644531 62.414062 33.640625 L 62.445312 33.640625 L 62.554688 33.695312 C 62.582031 33.75 62.578125 33.800781 62.546875 33.851562 C 62.414062 34.113281 61.957031 34.34375 61.558594 34.542969 C 61.398438 34.617188 61.253906 34.695312 61.160156 34.75 C 61.277344 34.859375 61.398438 34.925781 61.363281 35.035156 C 61.335938 35.121094 61.179688 35.222656 60.832031 35.386719 C 60.683594 35.460938 60.476562 35.570312 60.445312 35.617188 C 60.457031 35.648438 60.484375 35.671875 60.53125 35.703125 L 60.605469 35.8125 C 60.457031 36.042969 60.195312 36.097656 59.96875 36.152344 C 59.859375 36.179688 59.75 36.210938 59.644531 36.25 C 59.714844 36.449219 59.761719 36.582031 59.628906 36.734375 C 59.558594 36.859375 59.449219 36.921875 59.304688 36.921875 L 59.179688 36.910156 C 59.140625 36.910156 59.113281 36.921875 59.074219 36.988281 C 59.0625 37.019531 59.132812 37.105469 59.179688 37.171875 C 59.253906 37.25 59.316406 37.359375 59.28125 37.4375 C 59.265625 37.492188 59.210938 37.511719 59.132812 37.523438 C 58.683594 37.621094 58.355469 37.808594 57.996094 38.039062 C 57.742188 38.132812 57.480469 38.207031 57.210938 38.257812 C 57.070312 38.292969 56.921875 38.324219 56.804688 38.359375 C 56.726562 38.367188 56.542969 38.402344 56.320312 38.445312 C 56.019531 38.488281 55.492188 38.566406 55.316406 38.632812 C 55.441406 38.644531 55.804688 38.742188 57.96875 38.367188 C 58.808594 38.226562 59.632812 38.019531 60.441406 37.753906 C 60.949219 37.578125 60.957031 37.503906 60.957031 37.503906 C 60.957031 37.449219 60.707031 37.371094 60.605469 37.359375 C 60.414062 37.292969 60.308594 37.25 60.292969 37.183594 L 60.289062 37.152344 L 60.347656 37.085938 C 60.484375 37 60.796875 36.953125 61.125 36.941406 C 61.417969 36.910156 61.871094 36.855469 61.890625 36.746094 C 61.910156 36.625 61.761719 36.59375 61.53125 36.546875 C 61.371094 36.515625 61.214844 36.484375 61.226562 36.363281 C 61.238281 36.253906 61.402344 36.230469 61.804688 36.164062 C 62.183594 36.097656 62.753906 36.011719 62.804688 35.8125 C 62.777344 35.757812 62.613281 35.75 62.511719 35.726562 C 62.34375 35.714844 62.183594 35.691406 62.148438 35.605469 L 62.132812 35.574219 L 62.183594 35.453125 C 62.28125 35.332031 62.511719 35.265625 62.777344 35.1875 C 63.148438 35.070312 63.582031 34.925781 63.605469 34.652344 C 63.574219 34.574219 63.375 34.585938 63.167969 34.609375 C 62.996094 34.617188 62.832031 34.664062 62.777344 34.5625 C 62.816406 34.398438 62.914062 34.332031 63.082031 34.257812 C 63.273438 34.167969 63.460938 34.070312 63.640625 33.960938 C 65.011719 32.996094 65.183594 32.578125 65.15625 32.414062 C 64.917969 32.359375 64.546875 32.578125 64.222656 32.777344 C 63.871094 32.984375 63.574219 33.148438 63.414062 33.160156 L 63.296875 33.117188 C 63.273438 33.054688 63.273438 32.992188 63.296875 32.929688 C 63.308594 32.863281 63.484375 32.699219 63.972656 32.238281 C 64.804688 31.472656 66.335938 30.046875 66 29.660156 C 65.703125 29.660156 65.0625 30.199219 64.554688 30.648438 C 63.980469 31.152344 63.617188 31.480469 63.441406 31.480469 L 63.390625 31.480469 L 63.308594 31.363281 C 63.296875 31.296875 63.375 31.195312 63.804688 30.648438 C 64.730469 29.429688 66.660156 26.898438 66.183594 25.988281 C 66.089844 26.03125 65.539062 26.910156 65.050781 27.699219 C 64.0625 29.300781 63.390625 30.351562 63.089844 30.351562 C 62.945312 30.242188 62.984375 30.132812 63.527344 28.828125 C 64.117188 27.425781 65.101562 25.089844 64.875 24.792969 C 64.695312 24.78125 64.292969 25.625 64.011719 26.25 L 63.886719 26.546875 C 63.511719 27.390625 63.15625 28.167969 63.066406 28.289062 C 62.9375 28.257812 62.9375 28.136719 62.96875 27.390625 C 62.996094 26.789062 63.03125 26.054688 62.984375 25.722656 C 62.96875 25.625 62.925781 25.601562 62.835938 25.601562 Z M 62.835938 25.605469 " fill-opacity="1" fill-rule="nonzero"></path><path fill="#4eaec4" d="M 46.945312 40.265625 C 46.9375 40.199219 46.773438 40.242188 46.660156 40.265625 C 46.53125 40.296875 46.460938 40.34375 46.472656 40.417969 C 46.476562 40.496094 46.628906 40.464844 46.746094 40.429688 C 46.871094 40.398438 46.949219 40.34375 46.945312 40.265625 Z M 46.945312 40.265625 " fill-opacity="1" fill-rule="nonzero"></path><path fill="#4eaec4" d="M 46.546875 40.519531 L 46.492188 40.519531 L 46.410156 40.429688 C 46.398438 40.332031 46.488281 40.242188 46.640625 40.210938 C 46.71875 40.191406 46.792969 40.179688 46.871094 40.179688 L 46.925781 40.179688 L 47 40.265625 C 47.003906 40.355469 46.917969 40.453125 46.761719 40.484375 C 46.691406 40.503906 46.621094 40.515625 46.546875 40.519531 Z M 46.546875 40.519531 " fill-opacity="1" fill-rule="nonzero"></path><path fill="#f5c832" d="M 51.355469 15.292969 C 51.773438 15.382812 51.976562 15.152344 52.042969 14.84375 C 52.128906 14.429688 51.949219 12.332031 51.949219 12.332031 C 51.949219 12.332031 50.980469 14.199219 50.90625 14.601562 C 50.839844 14.933594 50.941406 15.21875 51.355469 15.292969 Z M 51.355469 15.292969 " fill-opacity="1" fill-rule="nonzero"></path><path fill="#f5c832" d="M 52.875 15.753906 C 53.273438 15.917969 53.519531 15.734375 53.640625 15.4375 C 53.800781 15.054688 54.035156 12.96875 54.035156 12.96875 C 54.035156 12.96875 52.722656 14.601562 52.558594 15 C 52.449219 15.292969 52.488281 15.601562 52.875 15.753906 Z M 52.875 15.753906 " fill-opacity="1" fill-rule="nonzero"></path><path fill="#f5c832" d="M 54.277344 16.511719 C 54.628906 16.742188 54.910156 16.597656 55.089844 16.335938 C 55.316406 15.996094 55.953125 14 55.953125 14 C 55.953125 14 54.355469 15.347656 54.113281 15.699219 C 53.941406 15.964844 53.925781 16.269531 54.277344 16.511719 Z M 54.277344 16.511719 " fill-opacity="1" fill-rule="nonzero"></path><path fill="#f5c832" d="M 55.503906 17.507812 C 55.804688 17.816406 56.105469 17.730469 56.328125 17.5 C 56.628906 17.214844 57.640625 15.382812 57.640625 15.382812 C 57.640625 15.382812 55.804688 16.390625 55.507812 16.6875 C 55.277344 16.917969 55.199219 17.214844 55.503906 17.507812 Z M 55.503906 17.507812 " fill-opacity="1" fill-rule="nonzero"></path><path fill="#f5c832" d="M 56.507812 18.738281 C 56.746094 19.089844 57.058594 19.078125 57.316406 18.890625 C 57.671875 18.648438 59.019531 17.058594 59.019531 17.058594 C 59.019531 17.058594 57.023438 17.695312 56.671875 17.925781 C 56.414062 18.101562 56.273438 18.386719 56.507812 18.738281 Z M 56.507812 18.738281 " fill-opacity="1" fill-rule="nonzero"></path><path fill="#f5c832" d="M 57.253906 20.128906 C 57.429688 20.527344 57.726562 20.570312 58.019531 20.449219 C 58.410156 20.285156 60.050781 18.980469 60.050781 18.980469 C 60.050781 18.980469 57.96875 19.21875 57.574219 19.375 C 57.277344 19.496094 57.097656 19.746094 57.253906 20.128906 Z M 57.253906 20.128906 " fill-opacity="1" fill-rule="nonzero"></path><path fill="#f5c832" d="M 57.714844 21.65625 C 57.800781 22.0625 58.089844 22.171875 58.402344 22.105469 C 58.820312 22.015625 60.683594 21.0625 60.683594 21.0625 C 60.683594 21.0625 58.589844 20.886719 58.183594 20.964844 C 57.867188 21.03125 57.640625 21.238281 57.71875 21.65625 Z M 57.714844 21.65625 " fill-opacity="1" fill-rule="nonzero"></path><path fill="#f5c832" d="M 57.871094 23.222656 C 57.875 23.652344 58.140625 23.804688 58.457031 23.804688 C 58.886719 23.804688 60.890625 23.222656 60.890625 23.222656 C 60.890625 23.222656 58.886719 22.640625 58.457031 22.640625 C 58.140625 22.640625 57.871094 22.796875 57.871094 23.222656 Z M 57.871094 23.222656 " fill-opacity="1" fill-rule="nonzero"></path><path fill="#f5c832" d="M 57.714844 24.800781 C 57.640625 25.21875 57.863281 25.417969 58.183594 25.484375 C 58.589844 25.570312 60.683594 25.394531 60.683594 25.394531 C 60.683594 25.394531 58.820312 24.429688 58.402344 24.34375 C 58.089844 24.289062 57.792969 24.375 57.714844 24.804688 Z M 57.714844 24.800781 " fill-opacity="1" fill-rule="nonzero"></path><path fill="#f5c832" d="M 57.253906 26.316406 C 57.101562 26.710938 57.277344 26.953125 57.574219 27.074219 C 57.96875 27.25 60.050781 27.46875 60.050781 27.46875 C 60.050781 27.46875 58.410156 26.164062 58.019531 25.996094 C 57.726562 25.886719 57.421875 25.921875 57.253906 26.316406 Z M 57.253906 26.316406 " fill-opacity="1" fill-rule="nonzero"></path><path fill="#f5c832" d="M 56.507812 27.71875 C 56.277344 28.058594 56.414062 28.34375 56.671875 28.53125 C 57.023438 28.75 59.019531 29.398438 59.019531 29.398438 C 59.019531 29.398438 57.671875 27.796875 57.316406 27.554688 C 57.058594 27.390625 56.746094 27.371094 56.507812 27.71875 Z M 56.507812 27.71875 " fill-opacity="1" fill-rule="nonzero"></path><path fill="#f5c832" d="M 55.503906 28.9375 C 55.207031 29.234375 55.277344 29.539062 55.507812 29.769531 C 55.804688 30.054688 57.640625 31.074219 57.640625 31.074219 C 57.640625 31.074219 56.628906 29.234375 56.328125 28.949219 C 56.105469 28.71875 55.800781 28.640625 55.503906 28.9375 Z M 55.503906 28.9375 " fill-opacity="1" fill-rule="nonzero"></path><path fill="#f5c832" d="M 54.277344 29.933594 C 53.929688 30.175781 53.941406 30.484375 54.113281 30.746094 C 54.355469 31.109375 55.953125 32.445312 55.953125 32.445312 C 55.953125 32.445312 55.316406 30.460938 55.089844 30.109375 C 54.910156 29.835938 54.628906 29.703125 54.277344 29.933594 Z M 54.277344 29.933594 " fill-opacity="1" fill-rule="nonzero"></path><path fill="#f5c832" d="M 52.875 30.691406 C 52.488281 30.867188 52.449219 31.152344 52.558594 31.449219 C 52.722656 31.84375 54.035156 33.476562 54.035156 33.476562 C 54.035156 33.476562 53.800781 31.40625 53.640625 31.011719 C 53.519531 30.726562 53.265625 30.527344 52.878906 30.691406 Z M 52.875 30.691406 " fill-opacity="1" fill-rule="nonzero"></path><path fill="#f5c832" d="M 45.285156 29.933594 C 44.929688 29.714844 44.648438 29.835938 44.472656 30.109375 C 44.234375 30.460938 43.597656 32.445312 43.597656 32.445312 C 43.597656 32.445312 45.203125 31.109375 45.4375 30.746094 C 45.621094 30.484375 45.640625 30.175781 45.285156 29.933594 Z M 45.285156 29.933594 " fill-opacity="1" fill-rule="nonzero"></path><path fill="#f5c832" d="M 44.058594 28.9375 C 43.753906 28.640625 43.457031 28.71875 43.234375 28.949219 C 42.929688 29.234375 41.917969 31.074219 41.917969 31.074219 C 41.917969 31.074219 43.753906 30.054688 44.050781 29.769531 C 44.273438 29.539062 44.355469 29.234375 44.058594 28.9375 Z M 44.058594 28.9375 " fill-opacity="1" fill-rule="nonzero"></path><path fill="#f5c832" d="M 43.050781 27.71875 C 42.8125 27.367188 42.503906 27.390625 42.242188 27.554688 C 41.882812 27.796875 40.53125 29.398438 40.53125 29.398438 C 40.53125 29.398438 42.53125 28.75 42.882812 28.53125 C 43.148438 28.34375 43.285156 28.058594 43.050781 27.71875 Z M 43.050781 27.71875 " fill-opacity="1" fill-rule="nonzero"></path><path fill="#f5c832" d="M 42.300781 26.316406 C 42.136719 25.921875 41.828125 25.886719 41.53125 25.996094 C 41.144531 26.164062 39.5 27.46875 39.5 27.46875 C 39.5 27.46875 41.585938 27.25 41.984375 27.074219 C 42.273438 26.953125 42.460938 26.710938 42.300781 26.316406 Z M 42.300781 26.316406 " fill-opacity="1" fill-rule="nonzero"></path><path fill="#f5c832" d="M 41.839844 24.800781 C 41.753906 24.375 41.464844 24.285156 41.140625 24.34375 C 40.742188 24.429688 38.875 25.394531 38.875 25.394531 C 38.875 25.394531 40.960938 25.570312 41.378906 25.480469 C 41.6875 25.417969 41.925781 25.21875 41.839844 24.800781 Z M 41.839844 24.800781 " fill-opacity="1" fill-rule="nonzero"></path><path fill="#f5c832" d="M 41.6875 23.222656 C 41.679688 22.796875 41.417969 22.640625 41.105469 22.640625 C 40.675781 22.640625 38.652344 23.222656 38.652344 23.222656 C 38.652344 23.222656 40.675781 23.804688 41.105469 23.804688 C 41.417969 23.804688 41.6875 23.652344 41.6875 23.222656 Z M 41.6875 23.222656 " fill-opacity="1" fill-rule="nonzero"></path><path fill="#f5c832" d="M 41.839844 21.65625 C 41.917969 21.238281 41.6875 21.03125 41.378906 20.964844 C 40.960938 20.886719 38.875 21.0625 38.875 21.0625 C 38.875 21.0625 40.742188 22.015625 41.144531 22.105469 C 41.46875 22.171875 41.753906 22.074219 41.839844 21.65625 Z M 41.839844 21.65625 " fill-opacity="1" fill-rule="nonzero"></path><path fill="#f5c832" d="M 42.300781 20.128906 C 42.460938 19.746094 42.273438 19.496094 41.984375 19.375 C 41.585938 19.21875 39.5 18.980469 39.5 18.980469 C 39.5 18.980469 41.144531 20.285156 41.53125 20.449219 C 41.828125 20.570312 42.136719 20.527344 42.300781 20.128906 Z M 42.300781 20.128906 " fill-opacity="1" fill-rule="nonzero"></path><path fill="#f5c832" d="M 43.050781 18.738281 C 43.285156 18.386719 43.148438 18.101562 42.882812 17.925781 C 42.53125 17.695312 40.53125 17.058594 40.53125 17.058594 C 40.53125 17.058594 41.882812 18.648438 42.242188 18.890625 C 42.503906 19.078125 42.820312 19.101562 43.050781 18.738281 Z M 43.050781 18.738281 " fill-opacity="1" fill-rule="nonzero"></path><path fill="#f5c832" d="M 44.058594 17.507812 C 44.351562 17.214844 44.273438 16.917969 44.050781 16.6875 C 43.753906 16.390625 41.917969 15.382812 41.917969 15.382812 C 41.917969 15.382812 42.929688 17.214844 43.234375 17.5 C 43.457031 17.730469 43.757812 17.816406 44.058594 17.507812 Z M 44.058594 17.507812 " fill-opacity="1" fill-rule="nonzero"></path><path fill="#f5c832" d="M 49.773438 16.128906 C 50.242188 16.128906 50.703125 16.175781 51.164062 16.265625 C 51.621094 16.355469 52.066406 16.492188 52.5 16.671875 C 52.929688 16.851562 53.34375 17.070312 53.730469 17.328125 C 54.121094 17.589844 54.480469 17.882812 54.808594 18.214844 C 55.140625 18.546875 55.433594 18.90625 55.695312 19.292969 C 55.953125 19.679688 56.175781 20.089844 56.351562 20.523438 C 56.53125 20.953125 56.667969 21.398438 56.757812 21.859375 C 56.847656 22.316406 56.894531 22.777344 56.894531 23.246094 C 56.890625 23.710938 56.847656 24.175781 56.753906 24.632812 C 56.664062 25.089844 56.527344 25.535156 56.347656 25.964844 C 56.167969 26.398438 55.949219 26.808594 55.6875 27.195312 C 55.429688 27.582031 55.132812 27.941406 54.800781 28.273438 C 54.472656 28.601562 54.109375 28.898438 53.722656 29.15625 C 53.332031 29.414062 52.921875 29.632812 52.488281 29.8125 C 52.058594 29.992188 51.613281 30.125 51.152344 30.214844 C 50.695312 30.308594 50.230469 30.351562 49.761719 30.351562 C 49.292969 30.351562 48.832031 30.304688 48.371094 30.214844 C 47.914062 30.121094 47.46875 29.988281 47.035156 29.808594 C 46.605469 29.628906 46.195312 29.410156 45.804688 29.148438 C 45.414062 28.890625 45.054688 28.59375 44.726562 28.265625 C 44.394531 27.933594 44.101562 27.574219 43.839844 27.1875 C 43.582031 26.796875 43.363281 26.386719 43.183594 25.957031 C 43.003906 25.523438 42.871094 25.078125 42.777344 24.621094 C 42.6875 24.164062 42.640625 23.703125 42.640625 23.234375 C 42.640625 22.765625 42.6875 22.304688 42.78125 21.847656 C 42.871094 21.386719 43.007812 20.945312 43.183594 20.511719 C 43.363281 20.082031 43.585938 19.671875 43.84375 19.28125 C 44.105469 18.894531 44.398438 18.535156 44.730469 18.203125 C 45.0625 17.875 45.421875 17.582031 45.8125 17.320312 C 46.203125 17.0625 46.613281 16.84375 47.046875 16.664062 C 47.476562 16.488281 47.921875 16.351562 48.382812 16.261719 C 48.839844 16.171875 49.304688 16.128906 49.773438 16.128906 Z M 49.773438 16.128906 " fill-opacity="1" fill-rule="nonzero"></path><path fill="#f5c832" d="M 49.773438 15.152344 C 50.203125 15.140625 50.359375 14.878906 50.359375 14.558594 C 50.359375 14.144531 49.773438 12.125 49.773438 12.125 C 49.773438 12.125 49.203125 14.144531 49.203125 14.558594 C 49.203125 14.878906 49.355469 15.152344 49.773438 15.152344 Z M 49.773438 15.152344 " fill-opacity="1" fill-rule="nonzero"></path><path fill="#f5c832" d="M 51.355469 31.140625 C 50.941406 31.238281 50.839844 31.523438 50.90625 31.84375 C 50.980469 32.25 51.949219 34.113281 51.949219 34.113281 C 51.949219 34.113281 52.128906 32.019531 52.042969 31.613281 C 51.976562 31.296875 51.773438 31.074219 51.355469 31.140625 Z M 51.355469 31.140625 " fill-opacity="1" fill-rule="nonzero"></path><path fill="#f5c832" d="M 49.773438 31.292969 C 49.355469 31.304688 49.203125 31.570312 49.203125 31.886719 C 49.203125 32.316406 49.773438 34.320312 49.773438 34.320312 C 49.773438 34.320312 50.359375 32.3125 50.359375 31.886719 C 50.359375 31.570312 50.203125 31.292969 49.773438 31.292969 Z M 49.773438 31.292969 " fill-opacity="1" fill-rule="nonzero"></path><path fill="#f5c832" d="M 48.203125 31.140625 C 47.785156 31.074219 47.574219 31.292969 47.515625 31.613281 C 47.433594 32.019531 47.609375 34.113281 47.609375 34.113281 C 47.609375 34.113281 48.5625 32.25 48.652344 31.84375 C 48.71875 31.523438 48.613281 31.230469 48.203125 31.140625 Z M 48.203125 31.140625 " fill-opacity="1" fill-rule="nonzero"></path><path fill="#f5c832" d="M 46.679688 30.691406 C 46.289062 30.527344 46.039062 30.726562 45.917969 31.011719 C 45.75 31.40625 45.519531 33.476562 45.519531 33.476562 C 45.519531 33.476562 46.835938 31.84375 47 31.449219 C 47.113281 31.152344 47.070312 30.855469 46.679688 30.691406 Z M 46.679688 30.691406 " fill-opacity="1" fill-rule="nonzero"></path><path fill="#f5c832" d="M 45.285156 16.511719 C 45.632812 16.269531 45.621094 15.964844 45.4375 15.699219 C 45.203125 15.347656 43.597656 14 43.597656 14 C 43.597656 14 44.234375 15.996094 44.472656 16.335938 C 44.648438 16.597656 44.929688 16.742188 45.285156 16.511719 Z M 45.285156 16.511719 " fill-opacity="1" fill-rule="nonzero"></path><path fill="#f5c832" d="M 46.679688 15.753906 C 47.070312 15.589844 47.113281 15.292969 47 15 C 46.835938 14.601562 45.519531 12.96875 45.519531 12.96875 C 45.519531 12.96875 45.75 15.054688 45.917969 15.4375 C 46.035156 15.734375 46.289062 15.917969 46.679688 15.753906 Z M 46.679688 15.753906 " fill-opacity="1" fill-rule="nonzero"></path><path fill="#f5c832" d="M 48.203125 15.292969 C 48.613281 15.207031 48.71875 14.933594 48.652344 14.601562 C 48.5625 14.199219 47.609375 12.332031 47.609375 12.332031 C 47.609375 12.332031 47.433594 14.429688 47.515625 14.84375 C 47.574219 15.152344 47.785156 15.394531 48.203125 15.292969 Z M 48.203125 15.292969 " fill-opacity="1" fill-rule="nonzero"></path></svg> 