<?xml version="1.0" encoding="UTF-8"?> <svg xmlns="http://www.w3.org/2000/svg" xmlns:xlink="http://www.w3.org/1999/xlink" width="112" zoomAndPan="magnify" viewBox="0 0 84 55.5" height="74" preserveAspectRatio="xMidYMid meet" version="1.0"><defs><clipPath id="853d1adb94"><path d="M 0.375 0 L 83.625 0 L 83.625 55.003906 L 0.375 55.003906 Z M 0.375 0 " clip-rule="nonzero"></path></clipPath><clipPath id="d58f3dee43"><path d="M 0.375 33 L 83.625 33 L 83.625 55.003906 L 0.375 55.003906 Z M 0.375 33 " clip-rule="nonzero"></path></clipPath><clipPath id="10f59af2dc"><path d="M 0.375 22 L 83.625 22 L 83.625 34 L 0.375 34 Z M 0.375 22 " clip-rule="nonzero"></path></clipPath><clipPath id="741afdb942"><path d="M 0.375 0 L 83.625 0 L 83.625 23 L 0.375 23 Z M 0.375 0 " clip-rule="nonzero"></path></clipPath></defs><g clip-path="url(#853d1adb94)"><path fill="#ffffff" d="M 0.375 0 L 83.625 0 L 83.625 55.003906 L 0.375 55.003906 Z M 0.375 0 " fill-opacity="1" fill-rule="nonzero"></path><path fill="#ffffff" d="M 0.375 0 L 83.625 0 L 83.625 55.003906 L 0.375 55.003906 Z M 0.375 0 " fill-opacity="1" fill-rule="nonzero"></path></g><g clip-path="url(#d58f3dee43)"><path fill="#870e1e" d="M 0.375 33.445312 L 0.375 55.714844 L 83.625 55.714844 L 83.625 33.445312 Z M 0.375 33.445312 " fill-opacity="1" fill-rule="nonzero"></path></g><g clip-path="url(#10f59af2dc)"><path fill="#ededed" d="M 0.375 22.300781 L 83.625 22.300781 L 83.625 33.4375 L 0.375 33.4375 Z M 0.375 22.300781 " fill-opacity="1" fill-rule="nonzero"></path></g><g clip-path="url(#741afdb942)"><path fill="#870e1e" d="M 0.375 0.03125 L 0.375 22.300781 L 83.625 22.300781 L 83.625 0.03125 Z M 0.375 0.03125 " fill-opacity="1" fill-rule="nonzero"></path></g></svg> 