<?xml version="1.0" encoding="UTF-8"?> <svg xmlns="http://www.w3.org/2000/svg" xmlns:xlink="http://www.w3.org/1999/xlink" width="112" zoomAndPan="magnify" viewBox="0 0 84 55.5" height="74" preserveAspectRatio="xMidYMid meet" version="1.0"><defs><clipPath id="35e921bad7"><path d="M 0.375 0 L 83.625 0 L 83.625 55.003906 L 0.375 55.003906 Z M 0.375 0 " clip-rule="nonzero"></path></clipPath><clipPath id="71181726e5"><path d="M 0.375 0 L 29 0 L 29 55.003906 L 0.375 55.003906 Z M 0.375 0 " clip-rule="nonzero"></path></clipPath><clipPath id="ff331c39b4"><path d="M 55 0 L 83.625 0 L 83.625 55.003906 L 55 55.003906 Z M 55 0 " clip-rule="nonzero"></path></clipPath></defs><g clip-path="url(#35e921bad7)"><path fill="#ffffff" d="M 0.375 0 L 83.625 0 L 83.625 55.003906 L 0.375 55.003906 Z M 0.375 0 " fill-opacity="1" fill-rule="nonzero"></path><path fill="#ffffff" d="M 0.375 0 L 83.625 0 L 83.625 55.003906 L 0.375 55.003906 Z M 0.375 0 " fill-opacity="1" fill-rule="nonzero"></path><path fill="#f7d900" d="M 0.375 0.0117188 L 83.625 0.0117188 L 83.625 55.679688 L 0.375 55.679688 Z M 0.375 0.0117188 " fill-opacity="1" fill-rule="evenodd"></path></g><g clip-path="url(#71181726e5)"><path fill="#0000b3" d="M 0.375 0.0117188 L 28.125 0.0117188 L 28.125 55.679688 L 0.375 55.679688 Z M 0.375 0.0117188 " fill-opacity="1" fill-rule="evenodd"></path></g><g clip-path="url(#ff331c39b4)"><path fill="#e32110" d="M 55.875 0.0117188 L 83.625 0.0117188 L 83.625 55.679688 L 55.875 55.679688 Z M 55.875 0.0117188 " fill-opacity="1" fill-rule="evenodd"></path></g><path fill="#000000" d="M 39.824219 13.828125 C 39.691406 13.828125 39.574219 13.875 39.503906 13.945312 C 39.613281 13.988281 39.691406 14.121094 39.691406 14.285156 L 39.691406 14.695312 L 39.382812 14.695312 C 39.261719 14.695312 39.164062 14.59375 39.128906 14.449219 C 39.078125 14.539062 39.042969 14.695312 39.042969 14.875 C 39.042969 15.054688 39.078125 15.210938 39.128906 15.304688 C 39.160156 15.15625 39.261719 15.050781 39.382812 15.050781 L 39.691406 15.050781 L 39.691406 17.039062 C 39.691406 17.195312 39.621094 17.324219 39.519531 17.371094 C 39.664062 17.398438 39.792969 17.660156 39.828125 17.804688 C 39.863281 17.664062 39.988281 17.398438 40.136719 17.371094 C 40.03125 17.324219 39.957031 17.195312 39.957031 17.039062 L 39.957031 15.050781 L 40.265625 15.050781 C 40.386719 15.050781 40.488281 15.15625 40.519531 15.300781 C 40.574219 15.207031 40.609375 15.050781 40.609375 14.875 C 40.609375 14.695312 40.574219 14.539062 40.519531 14.445312 C 40.488281 14.589844 40.390625 14.695312 40.265625 14.695312 L 39.957031 14.695312 L 39.957031 14.285156 C 39.957031 14.121094 40.035156 13.988281 40.144531 13.945312 C 40.074219 13.875 39.957031 13.828125 39.824219 13.828125 Z M 39.824219 13.828125 " fill-opacity="1" fill-rule="evenodd"></path><path fill="#fdf700" d="M 39.824219 13.914062 C 39.753906 13.914062 39.691406 13.929688 39.640625 13.953125 C 39.710938 14.035156 39.757812 14.148438 39.757812 14.285156 L 39.757812 14.695312 C 39.757812 14.703125 39.753906 14.707031 39.753906 14.714844 L 39.753906 14.777344 L 39.707031 14.777344 C 39.699219 14.78125 39.695312 14.78125 39.691406 14.78125 L 39.382812 14.78125 C 39.285156 14.78125 39.199219 14.722656 39.140625 14.632812 C 39.121094 14.699219 39.105469 14.78125 39.105469 14.875 C 39.105469 14.96875 39.121094 15.050781 39.136719 15.121094 C 39.195312 15.027344 39.285156 14.96875 39.382812 14.96875 L 39.757812 14.96875 C 39.757812 14.976562 39.753906 14.984375 39.753906 14.992188 L 39.753906 15.035156 C 39.753906 15.039062 39.757812 15.046875 39.757812 15.050781 L 39.757812 17.039062 C 39.757812 17.167969 39.707031 17.269531 39.640625 17.347656 C 39.6875 17.386719 39.726562 17.433594 39.761719 17.492188 C 39.792969 17.539062 39.804688 17.585938 39.828125 17.636719 C 39.847656 17.585938 39.859375 17.539062 39.890625 17.492188 C 39.925781 17.4375 39.964844 17.390625 40.007812 17.351562 C 39.945312 17.269531 39.894531 17.167969 39.894531 17.039062 L 39.894531 14.96875 L 39.945312 14.96875 C 39.949219 14.96875 39.953125 14.96875 39.957031 14.96875 L 40.265625 14.96875 C 40.367188 14.96875 40.453125 15.027344 40.511719 15.117188 C 40.53125 15.046875 40.542969 14.96875 40.542969 14.871094 C 40.542969 14.78125 40.53125 14.699219 40.515625 14.628906 C 40.453125 14.71875 40.367188 14.78125 40.265625 14.78125 L 39.957031 14.78125 C 39.953125 14.78125 39.949219 14.78125 39.945312 14.777344 L 39.898438 14.777344 L 39.898438 14.714844 C 39.894531 14.707031 39.894531 14.703125 39.894531 14.695312 L 39.894531 14.285156 C 39.894531 14.152344 39.941406 14.035156 40.007812 13.957031 C 39.957031 13.933594 39.894531 13.914062 39.824219 13.914062 Z M 39.824219 13.914062 " fill-opacity="1" fill-rule="evenodd"></path><path fill="#86632b" d="M 37.75 18.410156 L 36.453125 17.015625 L 35.128906 18.925781 L 34.941406 19.488281 L 35 36.875 L 35.859375 35.488281 L 36.039062 35.546875 L 36.921875 34.265625 L 37.675781 31.730469 L 37.894531 30.679688 L 38.910156 32.28125 L 38.527344 33.226562 L 38.875 33.191406 L 38.90625 33.589844 L 39.222656 33.40625 L 39.3125 33.953125 L 40.015625 33 L 40.996094 33.644531 L 39.136719 38.078125 L 38.472656 38.734375 L 39.667969 39.332031 L 40.894531 37.421875 L 40.714844 38.679688 L 40.351562 39.894531 L 41.84375 41.046875 L 43.464844 39.765625 L 42.667969 37.53125 L 42.925781 37.371094 L 43.980469 39.40625 L 45.121094 38.648438 L 43.636719 36.320312 L 42.65625 33.523438 L 43.6875 33.066406 L 44.390625 33.96875 L 44.496094 33.382812 L 44.867188 33.625 L 44.820312 33.132812 L 45.195312 33.242188 L 44.738281 32.277344 L 45.894531 30.980469 L 46.625 34.035156 L 47.703125 35.679688 L 47.929688 35.644531 L 48.714844 36.9375 L 48.707031 19.023438 L 47.261719 16.988281 L 45.859375 18.519531 L 45.917969 20.167969 L 45.285156 20.199219 L 44.347656 20.84375 L 43.820312 21.074219 L 43.574219 21.140625 L 43.253906 20.671875 L 42.820312 19.515625 L 42.792969 18.375 L 43.058594 17.632812 L 43.007812 16.929688 L 43.246094 16.9375 L 43.097656 16.460938 L 43.304688 16.347656 L 42.992188 15.976562 L 43.101562 15.804688 L 41.910156 15.121094 L 41 15.042969 L 40.757812 15.183594 L 40.636719 15.480469 L 40.878906 16.390625 L 40.621094 16.734375 L 40.875 17.398438 L 40.882812 18.855469 L 40.683594 20.085938 L 40.273438 21.019531 L 40.058594 21.128906 L 39.546875 20.96875 L 38.476562 20.214844 L 37.796875 20.164062 Z M 37.75 18.410156 " fill-opacity="1" fill-rule="evenodd"></path><path fill="#d32620" d="M 36.753906 36.011719 L 36.820312 36.3125 L 37.308594 37.019531 L 37.703125 36.71875 L 38.019531 36.257812 L 38.101562 35.851562 L 39.238281 33.875 L 39.183594 33.378906 L 38.933594 33.59375 L 38.839844 33.1875 L 38.683594 33.257812 L 37.785156 35.09375 L 37.347656 35.074219 L 36.898438 35.359375 Z M 36.753906 36.011719 " fill-opacity="1" fill-rule="evenodd"></path><path fill="#d32620" d="M 46.433594 36.984375 L 47.015625 36.082031 L 46.882812 35.464844 L 46.34375 35.023438 L 45.933594 35.074219 L 45.023438 33.257812 L 44.863281 33.167969 L 44.796875 33.519531 L 44.53125 33.414062 L 44.425781 33.804688 L 45.628906 35.976562 L 45.75 36.398438 L 46.277344 37.035156 Z M 46.433594 36.984375 " fill-opacity="1" fill-rule="evenodd"></path><path fill="#000000" d="M 41.28125 14.945312 C 41.132812 14.945312 40.914062 14.953125 40.785156 15.066406 C 40.667969 15.171875 40.675781 15.304688 40.636719 15.355469 C 40.539062 15.464844 40.371094 15.460938 40.292969 15.460938 C 39.773438 15.460938 39.757812 16.203125 39.757812 16.203125 C 39.757812 16.203125 39.886719 15.933594 40.121094 15.933594 C 40.511719 15.933594 40.804688 16.21875 40.804688 16.324219 C 40.804688 16.367188 40.765625 16.375 40.761719 16.375 C 40.507812 16.375 40.125 16.179688 39.921875 16.171875 L 39.921875 16.28125 C 39.925781 16.28125 39.925781 16.285156 39.929688 16.289062 C 39.925781 16.289062 39.925781 16.285156 39.921875 16.285156 L 39.921875 16.304688 C 40.375 16.515625 40.835938 16.816406 40.835938 18.136719 C 40.835938 18.96875 40.761719 19.816406 40.453125 20.484375 C 40.34375 20.71875 40.183594 20.921875 39.996094 21.101562 C 39.914062 21.066406 39.515625 20.902344 39.242188 20.695312 C 38.753906 20.332031 38.5 19.972656 37.921875 19.9375 L 37.921875 19.347656 C 37.921875 19.03125 38.003906 18.746094 38.003906 18.445312 C 37.761719 18.359375 37.082031 17.25 36.457031 16.757812 C 35.535156 17.554688 34.824219 18.863281 34.824219 19.464844 C 34.824219 19.464844 34.851562 32.402344 34.824219 36.90625 C 34.824219 37.164062 34.707031 37.53125 34.707031 37.53125 C 35.042969 37.34375 35.660156 36.214844 35.789062 35.785156 L 35.789062 35.992188 C 36.296875 35.683594 36.667969 34.871094 36.835938 34.449219 C 36.835938 34.507812 36.84375 34.664062 36.84375 34.664062 C 37.296875 34.128906 37.875 30.988281 37.875 30.988281 L 37.84375 30.328125 C 37.84375 30.328125 37.445312 32.894531 36.992188 33.421875 L 36.992188 22.375 L 37.351562 22.820312 L 37.898438 22.140625 L 37.898438 21.621094 L 37.414062 22.226562 L 37.414062 20.660156 C 37.484375 20.515625 37.535156 20.40625 37.570312 20.316406 C 37.648438 20.5 37.902344 21.058594 38.199219 21.402344 C 38.25 21.136719 38.570312 20.882812 38.570312 20.882812 C 38.570312 20.882812 38.683594 21.300781 38.863281 21.40625 C 38.921875 21.257812 39.292969 20.933594 39.292969 20.933594 C 39.292969 20.933594 38.976562 21 38.847656 21.160156 C 38.738281 21.128906 38.710938 20.546875 38.710938 20.546875 C 38.710938 20.546875 38.242188 20.847656 38.164062 21.066406 C 38.074219 21.035156 37.9375 20.566406 37.882812 20.375 C 37.964844 20.363281 38.078125 20.347656 38.230469 20.347656 C 38.363281 20.347656 38.53125 20.433594 38.710938 20.546875 C 38.90625 20.667969 39.109375 20.824219 39.292969 20.933594 C 39.527344 21.078125 39.882812 21.105469 39.984375 21.113281 C 39.867188 21.222656 39.738281 21.324219 39.597656 21.417969 C 39.597656 21.417969 40.152344 21.414062 40.546875 21.152344 C 40.6875 21.03125 40.832031 20.910156 40.953125 20.769531 C 40.902344 20.96875 40.816406 21.207031 40.6875 21.40625 C 41.261719 21.34375 41.546875 20.902344 41.628906 20.757812 C 41.667969 20.886719 41.734375 21.101562 41.84375 21.28125 C 41.949219 21.101562 42.019531 20.886719 42.058594 20.757812 C 42.140625 20.902344 42.425781 21.34375 43 21.40625 C 42.871094 21.207031 42.785156 20.96875 42.734375 20.769531 C 42.855469 20.910156 43.003906 21.03125 43.140625 21.152344 C 43.535156 21.414062 44.089844 21.417969 44.089844 21.417969 C 43.949219 21.324219 43.816406 21.222656 43.699219 21.113281 C 43.800781 21.105469 44.15625 21.078125 44.394531 20.933594 C 44.578125 20.824219 44.78125 20.667969 44.976562 20.546875 C 45.15625 20.433594 45.324219 20.347656 45.457031 20.347656 C 45.609375 20.347656 45.722656 20.363281 45.804688 20.375 C 45.753906 20.566406 45.613281 21.035156 45.523438 21.066406 C 45.445312 20.847656 44.976562 20.546875 44.976562 20.546875 C 44.976562 20.546875 44.949219 21.128906 44.839844 21.160156 C 44.710938 21 44.394531 20.933594 44.394531 20.933594 C 44.394531 20.933594 44.765625 21.257812 44.828125 21.40625 C 45.003906 21.300781 45.117188 20.882812 45.117188 20.882812 C 45.117188 20.882812 45.441406 21.136719 45.488281 21.402344 C 45.785156 21.058594 46.039062 20.5 46.117188 20.316406 C 46.15625 20.40625 46.207031 20.523438 46.273438 20.660156 L 46.273438 22.226562 L 45.789062 21.621094 L 45.789062 22.140625 L 46.335938 22.820312 L 46.695312 22.375 L 46.695312 33.421875 C 46.242188 32.894531 45.84375 30.328125 45.84375 30.328125 L 45.8125 30.988281 C 45.8125 30.988281 46.390625 34.128906 46.84375 34.664062 C 46.84375 34.664062 46.851562 34.507812 46.855469 34.449219 C 47.019531 34.871094 47.390625 35.683594 47.898438 35.992188 L 47.898438 35.785156 C 48.027344 36.214844 48.644531 37.34375 48.980469 37.53125 C 48.980469 37.53125 48.863281 37.164062 48.863281 36.90625 C 48.835938 32.398438 48.863281 19.464844 48.863281 19.464844 C 48.863281 18.863281 48.152344 17.554688 47.230469 16.757812 C 46.605469 17.25 45.925781 18.359375 45.683594 18.445312 C 45.683594 18.746094 45.769531 19.03125 45.769531 19.347656 L 45.769531 19.933594 C 45.1875 19.96875 44.933594 20.332031 44.449219 20.695312 C 44.167969 20.902344 43.769531 21.070312 43.6875 21.101562 C 43.5 20.921875 43.347656 20.71875 43.234375 20.484375 C 42.96875 19.914062 42.859375 19.214844 42.859375 18.507812 C 42.859375 18.207031 43.109375 17.867188 43.109375 17.625 C 43.109375 17.261719 43.085938 17.039062 43.085938 17.039062 C 43.171875 17.054688 43.328125 17.269531 43.328125 17.269531 C 43.328125 17.269531 43.324219 16.660156 43.179688 16.554688 C 43.179688 16.554688 43.238281 16.472656 43.449219 16.464844 C 43.390625 16.265625 43.097656 16.019531 43.097656 16.019531 C 43.113281 15.984375 43.140625 15.957031 43.175781 15.929688 C 43.246094 15.875 43.351562 15.839844 43.429688 15.816406 C 43.34375 15.792969 43.25 15.757812 43.140625 15.710938 C 42.898438 15.605469 42.613281 15.453125 42.34375 15.28125 C 41.859375 14.96875 41.484375 14.945312 41.28125 14.945312 Z M 41.292969 15.125 C 41.335938 15.125 41.378906 15.128906 41.414062 15.128906 C 41.890625 15.128906 42.226562 15.417969 42.675781 15.6875 C 42.796875 15.757812 42.902344 15.8125 43 15.859375 C 42.941406 15.929688 42.894531 16.003906 42.878906 16.0625 C 42.878906 16.0625 43.082031 16.113281 43.171875 16.339844 C 43.171875 16.339844 42.980469 16.367188 42.949219 16.519531 C 43.058594 16.53125 43.164062 16.710938 43.164062 16.886719 L 42.894531 16.773438 C 42.894531 16.773438 42.957031 17.179688 42.957031 17.625 C 42.957031 17.855469 42.714844 18.121094 42.714844 18.507812 C 42.714844 19.714844 42.941406 20.179688 43.101562 20.554688 C 43.167969 20.699219 43.21875 20.867188 43.324219 20.996094 C 42.859375 20.664062 42.511719 20.246094 42.511719 19.863281 L 42.511719 18.402344 L 42.390625 18.402344 L 42.390625 19.863281 C 42.390625 20.140625 42.441406 20.273438 42.441406 20.273438 C 42.515625 20.582031 42.664062 21.058594 42.753906 21.25 C 42.324219 20.941406 42.105469 20.554688 42.105469 20.410156 L 42.105469 18.402344 L 41.984375 18.402344 L 41.984375 20.4375 L 42.007812 20.578125 C 41.957031 20.679688 41.890625 20.804688 41.84375 20.847656 C 41.796875 20.804688 41.730469 20.679688 41.679688 20.578125 L 41.703125 20.4375 L 41.703125 18.402344 L 41.582031 18.402344 L 41.582031 20.410156 C 41.582031 20.554688 41.363281 20.941406 40.933594 21.25 C 41.023438 21.058594 41.171875 20.582031 41.246094 20.273438 C 41.246094 20.273438 41.296875 20.140625 41.296875 19.863281 L 41.296875 18.402344 L 41.175781 18.402344 L 41.175781 19.863281 C 41.175781 20.246094 40.832031 20.664062 40.363281 20.996094 C 40.46875 20.867188 40.519531 20.699219 40.585938 20.554688 C 40.761719 20.144531 40.980469 19.625 40.980469 18.148438 C 40.980469 17.59375 40.917969 17.214844 40.8125 16.953125 C 40.78125 16.863281 40.734375 16.632812 40.984375 16.632812 C 41.113281 16.632812 41.410156 16.9375 41.410156 16.9375 C 41.410156 16.9375 41.394531 16.695312 41.246094 16.554688 C 41.222656 16.53125 41.179688 16.460938 41.179688 16.394531 C 41.179688 16.34375 41.246094 16.21875 41.296875 16.1875 C 41.332031 16.167969 40.789062 16.042969 40.789062 15.710938 C 40.789062 15.644531 40.820312 15.597656 40.933594 15.597656 C 41.082031 15.597656 41.320312 15.835938 41.535156 15.835938 C 41.691406 15.835938 41.753906 15.785156 41.914062 15.785156 C 42.113281 15.785156 42.523438 16.285156 42.664062 16.265625 C 42.507812 16.132812 42.253906 15.632812 41.867188 15.632812 C 41.734375 15.632812 41.613281 15.671875 41.488281 15.671875 C 41.328125 15.671875 41.171875 15.476562 41 15.476562 C 40.882812 15.476562 40.753906 15.484375 40.734375 15.445312 C 40.703125 15.375 40.730469 15.335938 40.761719 15.277344 C 40.820312 15.167969 40.984375 15.136719 41.148438 15.128906 C 41.195312 15.125 41.246094 15.125 41.292969 15.125 Z M 36.457031 17.320312 C 36.457031 17.320312 37.3125 18.371094 37.601562 18.503906 L 37.613281 18.855469 L 37.613281 19.894531 C 37.402344 19.800781 37.140625 19.339844 37.011719 19.097656 L 37.011719 18.957031 C 37.011719 18.824219 37.070312 18.726562 37.113281 18.671875 L 36.988281 18.613281 C 36.941406 18.683594 36.890625 18.792969 36.890625 18.933594 L 36.890625 19.015625 L 36.847656 19.074219 L 36.828125 19.105469 L 36.515625 19.554688 L 36.144531 18.808594 L 36.144531 18.625 C 36.144531 18.503906 36.21875 18.367188 36.277344 18.273438 L 36.152344 18.214844 C 36.089844 18.320312 36.023438 18.46875 36.023438 18.601562 L 36.023438 18.75 C 35.9375 18.871094 35.601562 19.335938 35.601562 19.335938 C 35.601562 19.335938 35.433594 18.847656 35.386719 18.71875 C 35.644531 18.238281 36.0625 17.703125 36.457031 17.320312 Z M 47.230469 17.320312 C 47.625 17.703125 48.042969 18.238281 48.300781 18.71875 C 48.253906 18.847656 48.085938 19.335938 48.085938 19.335938 C 48.085938 19.335938 47.75 18.871094 47.664062 18.75 L 47.664062 18.601562 C 47.664062 18.46875 47.597656 18.320312 47.535156 18.214844 L 47.410156 18.273438 C 47.46875 18.367188 47.542969 18.503906 47.542969 18.625 L 47.542969 18.808594 L 47.171875 19.554688 L 46.859375 19.105469 L 46.839844 19.074219 L 46.796875 19.015625 L 46.796875 18.933594 C 46.796875 18.792969 46.746094 18.683594 46.699219 18.613281 L 46.574219 18.671875 C 46.617188 18.726562 46.675781 18.824219 46.675781 18.957031 L 46.675781 19.097656 C 46.546875 19.339844 46.285156 19.800781 46.078125 19.894531 L 46.078125 18.855469 L 46.085938 18.503906 C 46.375 18.371094 47.230469 17.320312 47.230469 17.320312 Z M 35.238281 19.035156 L 35.433594 19.511719 L 35.433594 20.371094 L 35.132812 20.738281 L 35.132812 19.464844 C 35.132812 19.34375 35.171875 19.199219 35.238281 19.035156 Z M 48.449219 19.035156 C 48.515625 19.199219 48.554688 19.34375 48.554688 19.464844 L 48.554688 20.738281 L 48.253906 20.371094 L 48.253906 19.511719 Z M 36.019531 19.144531 L 36.363281 19.84375 L 36.363281 20.371094 L 36.019531 20.800781 Z M 47.667969 19.144531 L 47.667969 20.800781 L 47.328125 20.371094 L 47.328125 19.84375 Z M 35.898438 19.269531 L 35.898438 20.800781 L 35.554688 20.371094 L 35.554688 19.75 Z M 47.789062 19.269531 L 48.132812 19.75 L 48.132812 20.371094 L 47.789062 20.800781 Z M 36.949219 19.382812 C 37 19.496094 37.238281 20.007812 37.464844 20.15625 C 37.382812 20.304688 37.175781 20.675781 36.949219 20.835938 Z M 46.738281 19.382812 L 46.738281 20.835938 C 46.515625 20.675781 46.304688 20.304688 46.226562 20.15625 C 46.449219 20.007812 46.6875 19.496094 46.738281 19.382812 Z M 36.828125 19.453125 L 36.828125 20.800781 L 36.484375 20.371094 L 36.484375 19.894531 Z M 46.859375 19.453125 L 47.203125 19.894531 L 47.203125 20.371094 L 46.859375 20.800781 Z M 35.433594 20.886719 L 35.433594 22.230469 L 35.136719 21.855469 L 35.136719 21.261719 Z M 48.253906 20.886719 L 48.554688 21.261719 L 48.554688 21.855469 L 48.253906 22.230469 Z M 35.554688 20.890625 L 35.75 21.136719 L 35.898438 21.316406 L 35.898438 21.796875 L 35.75 21.980469 L 35.554688 22.226562 Z M 36.363281 20.890625 L 36.363281 22.226562 L 36.164062 21.980469 L 36.019531 21.796875 L 36.019531 21.320312 L 36.164062 21.136719 Z M 36.484375 20.890625 L 36.828125 21.320312 L 36.828125 21.796875 L 36.679688 21.984375 L 36.484375 22.226562 Z M 37.292969 20.890625 L 37.292969 22.230469 L 37.097656 21.984375 L 36.949219 21.796875 L 36.949219 21.351562 C 37.066406 21.253906 37.1875 21.078125 37.292969 20.890625 Z M 46.394531 20.890625 C 46.503906 21.078125 46.621094 21.253906 46.738281 21.351562 L 46.738281 21.796875 L 46.59375 21.984375 L 46.394531 22.230469 Z M 47.203125 20.890625 L 47.203125 22.226562 L 47.007812 21.984375 L 46.859375 21.796875 L 46.859375 21.320312 Z M 47.328125 20.890625 L 47.523438 21.136719 L 47.667969 21.320312 L 47.667969 21.796875 L 47.523438 21.980469 L 47.328125 22.226562 Z M 48.132812 20.890625 L 48.132812 22.226562 L 47.9375 21.980469 L 47.792969 21.796875 L 47.792969 21.316406 L 47.9375 21.136719 Z M 36.0625 22.367188 L 36.421875 22.820312 L 36.785156 22.371094 L 36.785156 33.421875 C 36.785156 33.421875 36.8125 33.96875 36.828125 34.328125 C 36.667969 34.542969 36.0625 35.363281 36.0625 35.363281 Z M 47.625 22.367188 L 47.625 35.363281 C 47.625 35.363281 47.019531 34.542969 46.859375 34.328125 C 46.878906 33.96875 46.902344 33.421875 46.902344 33.421875 L 46.902344 22.371094 L 47.265625 22.820312 Z M 35.855469 22.371094 L 35.855469 34.949219 C 35.855469 35.304688 35.371094 36.132812 35.136719 36.324219 L 35.136719 22.375 L 35.492188 22.820312 Z M 47.832031 22.371094 L 48.195312 22.820312 L 48.554688 22.375 L 48.554688 36.324219 C 48.316406 36.132812 47.832031 35.304688 47.832031 34.949219 Z M 38.835938 32.253906 C 38.835938 32.253906 38.488281 33.199219 38.355469 33.367188 C 38.355469 33.367188 38.445312 33.382812 38.546875 33.382812 C 38.484375 33.503906 38 34.433594 37.847656 34.785156 C 37.707031 35.113281 37.609375 34.96875 37.390625 34.96875 C 37.207031 34.96875 36.800781 35.351562 36.730469 35.507812 C 36.660156 35.671875 36.609375 35.871094 36.609375 36.035156 C 36.609375 36.214844 36.75 36.464844 36.75 36.464844 C 36.765625 36.375 36.792969 36.347656 36.792969 36.347656 C 36.792969 36.347656 37.167969 36.972656 37.222656 37.050781 C 37.265625 37.117188 37.457031 37.15625 37.527344 37.074219 C 37.695312 36.871094 37.859375 36.726562 38.007812 36.429688 C 38.085938 36.277344 38.09375 36.101562 38.183594 35.9375 C 38.480469 35.386719 39.074219 34.332031 39.207031 34.09375 C 39.21875 34.160156 39.226562 34.214844 39.234375 34.285156 C 39.386719 33.871094 40.125 33.078125 40.125 33.078125 L 39.921875 32.898438 C 39.921875 32.898438 39.476562 33.589844 39.332031 33.71875 C 39.332031 33.71875 39.269531 33.375 39.234375 33.253906 C 39.234375 33.253906 39.0625 33.425781 38.96875 33.429688 C 38.96875 33.429688 38.941406 33.195312 38.921875 33.042969 C 38.804688 33.148438 38.609375 33.125 38.609375 33.125 C 38.78125 33.015625 38.984375 32.351562 38.984375 32.351562 Z M 44.847656 32.253906 L 44.703125 32.351562 C 44.703125 32.351562 44.90625 33.015625 45.078125 33.125 C 45.078125 33.125 44.882812 33.148438 44.765625 33.042969 C 44.746094 33.195312 44.71875 33.429688 44.71875 33.429688 C 44.625 33.425781 44.453125 33.253906 44.453125 33.253906 C 44.417969 33.375 44.355469 33.71875 44.355469 33.71875 C 44.210938 33.589844 43.765625 32.898438 43.765625 32.898438 L 43.5625 33.078125 C 43.5625 33.078125 44.300781 33.871094 44.453125 34.285156 C 44.460938 34.214844 44.46875 34.160156 44.480469 34.09375 C 44.613281 34.332031 45.207031 35.386719 45.503906 35.9375 C 45.59375 36.101562 45.601562 36.277344 45.679688 36.429688 C 45.828125 36.726562 45.992188 36.871094 46.160156 37.074219 C 46.230469 37.15625 46.421875 37.117188 46.464844 37.050781 C 46.519531 36.972656 46.894531 36.347656 46.894531 36.347656 C 46.894531 36.347656 46.921875 36.375 46.9375 36.464844 C 46.9375 36.464844 47.078125 36.214844 47.078125 36.035156 C 47.078125 35.871094 47.027344 35.671875 46.957031 35.507812 C 46.886719 35.351562 46.476562 34.96875 46.296875 34.96875 C 46.078125 34.96875 45.980469 35.113281 45.835938 34.785156 C 45.6875 34.433594 45.203125 33.503906 45.140625 33.382812 C 45.242188 33.382812 45.332031 33.367188 45.332031 33.367188 C 45.199219 33.199219 44.847656 32.253906 44.847656 32.253906 Z M 38.789062 33.320312 C 38.789062 33.320312 38.785156 33.640625 38.859375 33.75 L 39.125 33.507812 C 39.125 33.507812 39.144531 33.625 39.164062 33.785156 C 39.050781 33.992188 38.402344 35.179688 38.082031 35.757812 C 38 35.902344 37.933594 36.265625 37.933594 36.265625 C 37.933594 36.265625 37.816406 36.191406 37.816406 36.058594 C 37.816406 35.925781 37.832031 35.769531 37.832031 35.769531 C 37.832031 35.769531 37.742188 35.90625 37.59375 35.90625 C 37.59375 35.742188 37.824219 35.566406 37.835938 35.339844 C 37.65625 35.515625 37.503906 35.425781 37.296875 35.507812 C 37.070312 35.601562 37.007812 35.726562 36.941406 35.722656 C 36.898438 35.71875 36.863281 35.625 36.878906 35.570312 C 36.90625 35.46875 37.183594 35.195312 37.375 35.144531 C 37.421875 35.132812 37.789062 35.25 37.863281 35.097656 C 38.164062 34.472656 38.660156 33.457031 38.707031 33.359375 C 38.738281 33.347656 38.765625 33.339844 38.789062 33.320312 Z M 44.898438 33.320312 C 44.921875 33.339844 44.949219 33.347656 44.980469 33.359375 C 45.027344 33.457031 45.519531 34.472656 45.824219 35.097656 C 45.898438 35.25 46.265625 35.132812 46.308594 35.144531 C 46.503906 35.195312 46.78125 35.46875 46.808594 35.570312 C 46.824219 35.625 46.789062 35.71875 46.746094 35.722656 C 46.679688 35.726562 46.617188 35.601562 46.390625 35.507812 C 46.183594 35.425781 46.03125 35.515625 45.851562 35.339844 C 45.863281 35.566406 46.09375 35.742188 46.09375 35.90625 C 45.945312 35.90625 45.855469 35.769531 45.855469 35.769531 C 45.855469 35.769531 45.871094 35.925781 45.871094 36.058594 C 45.871094 36.191406 45.753906 36.265625 45.753906 36.265625 C 45.753906 36.265625 45.683594 35.902344 45.605469 35.757812 C 45.285156 35.179688 44.632812 33.992188 44.523438 33.785156 C 44.542969 33.625 44.5625 33.507812 44.5625 33.507812 L 44.824219 33.75 C 44.902344 33.640625 44.898438 33.320312 44.898438 33.320312 Z M 40.898438 33.550781 C 40.898438 33.550781 39.457031 37.988281 38.175781 38.671875 C 38.175781 38.671875 38.734375 38.988281 39.417969 39.460938 C 39.515625 39.53125 39.621094 39.605469 39.722656 39.679688 C 39.808594 39.542969 39.902344 39.386719 39.988281 39.226562 C 40.398438 38.496094 40.800781 37.648438 40.800781 37.648438 C 40.828125 37.867188 40.609375 38.546875 40.246094 39.386719 C 40.171875 39.550781 40.097656 39.726562 40.015625 39.898438 C 40.109375 39.972656 40.199219 40.042969 40.292969 40.117188 C 40.96875 40.664062 41.605469 41.289062 41.84375 41.867188 C 42.078125 41.289062 42.714844 40.664062 43.394531 40.117188 C 43.484375 40.042969 43.578125 39.972656 43.667969 39.898438 C 43.585938 39.726562 43.511719 39.550781 43.441406 39.386719 C 43.074219 38.546875 42.859375 37.867188 42.886719 37.648438 C 42.886719 37.648438 43.285156 38.496094 43.695312 39.226562 C 43.785156 39.386719 43.875 39.542969 43.960938 39.679688 C 44.066406 39.605469 44.167969 39.53125 44.269531 39.460938 C 44.953125 38.988281 45.507812 38.671875 45.507812 38.671875 C 44.230469 37.988281 42.785156 33.550781 42.785156 33.550781 L 42.574219 33.636719 C 42.574219 33.636719 43.722656 37.46875 44.847656 38.628906 C 44.59375 38.730469 44.292969 38.878906 43.984375 39.054688 C 43.609375 38.464844 43.21875 37.671875 42.90625 36.96875 C 42.5625 36.207031 42.285156 34.867188 42.285156 34.867188 C 42.128906 35.382812 42.464844 37.960938 43.144531 39.589844 C 42.582031 39.980469 42.082031 40.40625 41.84375 40.75 C 41.601562 40.40625 41.101562 39.980469 40.542969 39.589844 C 41.222656 37.960938 41.558594 35.382812 41.398438 34.867188 C 41.398438 34.867188 41.121094 36.207031 40.78125 36.96875 C 40.464844 37.671875 40.074219 38.464844 39.699219 39.054688 C 39.390625 38.878906 39.089844 38.730469 38.835938 38.628906 C 39.960938 37.46875 41.113281 33.636719 41.113281 33.636719 Z M 37.128906 35.683594 C 37.140625 35.683594 37.148438 35.691406 37.15625 35.703125 C 37.171875 35.726562 37.171875 35.757812 37.15625 35.777344 L 37.035156 35.917969 C 37.019531 35.933594 36.996094 35.929688 36.980469 35.90625 C 36.964844 35.886719 36.96875 35.851562 36.984375 35.832031 L 37.101562 35.695312 C 37.109375 35.683594 37.121094 35.679688 37.128906 35.683594 Z M 46.558594 35.683594 C 46.566406 35.679688 46.578125 35.683594 46.585938 35.695312 L 46.703125 35.832031 C 46.71875 35.851562 46.722656 35.886719 46.707031 35.90625 C 46.691406 35.929688 46.667969 35.933594 46.652344 35.917969 L 46.53125 35.777344 C 46.515625 35.757812 46.515625 35.726562 46.53125 35.703125 C 46.535156 35.691406 46.546875 35.683594 46.558594 35.683594 Z M 37.253906 35.820312 C 37.285156 35.820312 37.316406 35.835938 37.339844 35.871094 C 37.375 35.925781 37.371094 36.003906 37.335938 36.046875 L 37.042969 36.386719 C 37.007812 36.429688 36.945312 36.421875 36.910156 36.367188 C 36.875 36.3125 36.878906 36.230469 36.914062 36.1875 L 37.203125 35.851562 C 37.21875 35.835938 37.238281 35.824219 37.253906 35.820312 Z M 46.40625 35.820312 C 46.414062 35.820312 46.425781 35.820312 46.429688 35.820312 C 46.449219 35.824219 46.46875 35.835938 46.484375 35.851562 L 46.773438 36.1875 C 46.808594 36.230469 46.8125 36.3125 46.777344 36.367188 C 46.742188 36.421875 46.679688 36.429688 46.640625 36.386719 L 46.351562 36.046875 C 46.316406 36.003906 46.3125 35.925781 46.347656 35.871094 C 46.363281 35.84375 46.386719 35.828125 46.40625 35.820312 Z M 37.417969 36.085938 C 37.449219 36.082031 37.480469 36.097656 37.503906 36.132812 C 37.539062 36.1875 37.539062 36.265625 37.5 36.308594 L 37.207031 36.648438 C 37.171875 36.691406 37.113281 36.683594 37.078125 36.628906 C 37.039062 36.574219 37.042969 36.492188 37.082031 36.449219 L 37.371094 36.113281 C 37.382812 36.097656 37.402344 36.085938 37.417969 36.085938 Z M 46.242188 36.085938 C 46.25 36.082031 46.257812 36.082031 46.265625 36.085938 C 46.285156 36.085938 46.300781 36.097656 46.316406 36.113281 L 46.605469 36.449219 C 46.644531 36.492188 46.644531 36.574219 46.609375 36.628906 C 46.574219 36.683594 46.515625 36.691406 46.476562 36.648438 L 46.1875 36.308594 C 46.148438 36.265625 46.144531 36.1875 46.183594 36.132812 C 46.199219 36.105469 46.222656 36.089844 46.242188 36.085938 Z M 37.605469 36.339844 C 37.632812 36.335938 37.664062 36.351562 37.6875 36.386719 C 37.722656 36.441406 37.722656 36.523438 37.683594 36.566406 L 37.394531 36.902344 C 37.355469 36.945312 37.296875 36.9375 37.261719 36.882812 C 37.226562 36.828125 37.226562 36.75 37.261719 36.703125 L 37.554688 36.367188 C 37.570312 36.351562 37.585938 36.34375 37.605469 36.339844 Z M 46.058594 36.339844 C 46.066406 36.339844 46.074219 36.339844 46.082031 36.339844 C 46.097656 36.34375 46.117188 36.351562 46.128906 36.367188 L 46.421875 36.703125 C 46.460938 36.75 46.460938 36.828125 46.425781 36.882812 C 46.390625 36.9375 46.332031 36.945312 46.292969 36.902344 L 46.003906 36.566406 C 45.964844 36.523438 45.964844 36.441406 46 36.386719 C 46.015625 36.359375 46.035156 36.34375 46.058594 36.339844 Z M 46.058594 36.339844 " fill-opacity="1" fill-rule="evenodd"></path><path fill="#000000" d="M 37.894531 36.546875 L 38.570312 37.039062 L 38.40625 38.042969 L 37.730469 37.550781 Z M 37.894531 36.546875 " fill-opacity="1" fill-rule="evenodd"></path><path fill="#000000" d="M 34.757812 26.929688 L 34.515625 27.074219 L 37.257812 35.109375 L 37.550781 35.109375 Z M 37.992188 36.402344 L 37.792969 36.675781 L 37.917969 37.039062 L 38.160156 36.894531 Z M 37.992188 36.402344 " fill-opacity="1" fill-rule="evenodd"></path><path fill="#fdf700" d="M 37.992188 36.832031 L 38.410156 37.136719 L 38.308594 37.757812 L 37.890625 37.453125 Z M 37.992188 36.832031 " fill-opacity="1" fill-rule="evenodd"></path><path fill="#000000" d="M 35.609375 33.261719 C 35.609375 33.261719 35.839844 33.898438 36.015625 33.988281 C 35.925781 33.953125 35.628906 34.097656 35.628906 34.097656 C 35.628906 34.097656 36.152344 34.71875 36.589844 34.761719 C 36.964844 34.796875 37.148438 34.546875 37.148438 34.546875 L 37.074219 34.015625 C 37.074219 34.015625 36.84375 33.644531 36.476562 33.476562 C 36.105469 33.304688 35.609375 33.261719 35.609375 33.261719 Z M 35.609375 33.261719 " fill-opacity="1" fill-rule="evenodd"></path><path fill="#000000" d="M 37.351562 32.117188 C 37.351562 32.117188 37.03125 32.484375 36.945312 32.90625 C 36.859375 33.328125 37.003906 33.8125 37.003906 33.8125 L 37.269531 34.480469 C 37.269531 34.480469 37.640625 34.214844 37.800781 33.820312 C 37.957031 33.425781 37.898438 32.890625 37.898438 32.890625 C 37.898438 32.890625 37.605469 33.039062 37.570312 33.101562 C 37.628906 32.664062 37.351562 32.117188 37.351562 32.117188 Z M 37.351562 32.117188 " fill-opacity="1" fill-rule="evenodd"></path><path fill="#000000" d="M 36.328125 31.949219 C 36.328125 31.949219 35.964844 32.113281 35.609375 32.082031 C 35.277344 32.054688 34.996094 31.679688 34.996094 31.679688 C 34.996094 31.679688 35.273438 31.429688 35.414062 31.460938 C 35.261719 31.386719 35.042969 30.882812 35.042969 30.882812 C 35.042969 30.882812 35.351562 30.753906 35.628906 30.894531 C 35.90625 31.035156 36.144531 31.4375 36.144531 31.4375 Z M 36.328125 31.949219 " fill-opacity="1" fill-rule="evenodd"></path><path fill="#000000" d="M 36.453125 29.578125 C 36.453125 29.578125 36.632812 30.082031 36.589844 30.253906 C 36.644531 30.140625 36.859375 29.957031 36.859375 29.957031 C 36.859375 29.957031 36.988281 30.773438 36.863281 31.273438 C 36.742188 31.777344 36.367188 31.96875 36.367188 31.96875 L 35.953125 30.890625 C 35.953125 30.890625 35.890625 30.492188 36.019531 30.179688 C 36.148438 29.863281 36.453125 29.578125 36.453125 29.578125 Z M 36.453125 29.578125 " fill-opacity="1" fill-rule="evenodd"></path><path fill="#000000" d="M 34.089844 28.25 C 34.089844 28.25 34.484375 28.191406 34.839844 28.390625 C 35.140625 28.558594 35.234375 28.859375 35.234375 28.859375 L 35.382812 29.390625 C 35.382812 29.390625 34.953125 29.605469 34.617188 29.441406 C 34.28125 29.277344 34.03125 28.734375 34.03125 28.734375 C 34.03125 28.734375 34.265625 28.617188 34.355469 28.660156 C 34.226562 28.582031 34.089844 28.25 34.089844 28.25 Z M 34.089844 28.25 " fill-opacity="1" fill-rule="evenodd"></path><path fill="#000000" d="M 35.324219 27.265625 C 35.324219 27.265625 35.496094 27.558594 35.5 27.898438 C 35.546875 27.71875 35.761719 27.519531 35.761719 27.519531 C 35.761719 27.519531 35.984375 28.234375 35.933594 28.742188 C 35.886719 29.25 35.566406 29.550781 35.566406 29.550781 L 35.171875 28.542969 C 35.171875 28.542969 35.042969 28.132812 35.082031 27.8125 C 35.117188 27.492188 35.324219 27.265625 35.324219 27.265625 Z M 35.324219 27.265625 " fill-opacity="1" fill-rule="evenodd"></path><path fill="#000000" d="M 33.964844 25.339844 C 33.964844 25.339844 33.894531 25.886719 34.015625 26.203125 C 34.125 26.484375 34.191406 26.546875 34.191406 26.546875 C 33.988281 26.367188 33.675781 26.351562 33.675781 26.351562 C 33.675781 26.351562 33.785156 26.945312 34.050781 27.21875 C 34.316406 27.492188 34.722656 27.425781 34.722656 27.425781 C 34.722656 27.425781 34.992188 26.949219 34.972656 26.433594 C 34.957031 25.917969 34.648438 25.367188 34.648438 25.367188 C 34.648438 25.367188 34.527344 25.699219 34.519531 25.949219 C 34.441406 25.691406 33.964844 25.339844 33.964844 25.339844 Z M 33.964844 25.339844 " fill-opacity="1" fill-rule="evenodd"></path><path fill="#035d34" d="M 34.085938 25.675781 C 34.085938 25.675781 34.074219 26.074219 34.175781 26.300781 C 34.273438 26.53125 34.496094 26.621094 34.496094 26.621094 C 34.496094 26.621094 34.507812 26.21875 34.40625 25.992188 C 34.308594 25.765625 34.085938 25.675781 34.085938 25.675781 Z M 34.085938 25.675781 " fill-opacity="1" fill-rule="evenodd"></path><path fill="#035d34" d="M 33.878906 26.578125 C 33.878906 26.578125 34.140625 26.601562 34.289062 26.753906 C 34.441406 26.910156 34.496094 27.230469 34.496094 27.230469 C 34.496094 27.230469 34.324219 27.253906 34.175781 27.097656 C 34.023438 26.945312 33.878906 26.578125 33.878906 26.578125 Z M 33.878906 26.578125 " fill-opacity="1" fill-rule="evenodd"></path><path fill="#035d34" d="M 34.695312 25.773438 C 34.695312 25.773438 34.609375 26.039062 34.617188 26.324219 C 34.628906 26.609375 34.753906 26.933594 34.753906 26.933594 C 34.753906 26.933594 34.867188 26.589844 34.855469 26.300781 C 34.847656 26.015625 34.726562 25.851562 34.695312 25.773438 Z M 34.695312 25.773438 " fill-opacity="1" fill-rule="evenodd"></path><path fill="#035d34" d="M 34.257812 28.351562 C 34.257812 28.351562 34.386719 28.589844 34.582031 28.71875 C 34.777344 28.847656 35.070312 28.855469 35.070312 28.855469 C 35.070312 28.855469 34.925781 28.601562 34.730469 28.46875 C 34.53125 28.339844 34.257812 28.351562 34.257812 28.351562 Z M 34.257812 28.351562 " fill-opacity="1" fill-rule="evenodd"></path><path fill="#035d34" d="M 34.320312 28.902344 C 34.320312 28.902344 34.414062 29.148438 34.585938 29.253906 C 34.757812 29.359375 35.109375 29.351562 35.109375 29.351562 C 35.109375 29.351562 34.976562 29.121094 34.804688 29.015625 C 34.632812 28.910156 34.320312 28.902344 34.320312 28.902344 Z M 34.320312 28.902344 " fill-opacity="1" fill-rule="evenodd"></path><path fill="#035d34" d="M 35.308594 27.59375 C 35.308594 27.59375 35.207031 27.820312 35.214844 28.074219 C 35.226562 28.328125 35.351562 28.601562 35.351562 28.601562 C 35.351562 28.601562 35.4375 28.285156 35.429688 28.035156 C 35.417969 27.78125 35.308594 27.59375 35.308594 27.59375 Z M 35.308594 27.59375 " fill-opacity="1" fill-rule="evenodd"></path><path fill="#035d34" d="M 35.691406 27.917969 C 35.691406 27.917969 35.515625 28.234375 35.488281 28.5625 C 35.464844 28.890625 35.589844 29.226562 35.589844 29.226562 C 35.589844 29.226562 35.804688 28.941406 35.832031 28.613281 C 35.855469 28.285156 35.691406 27.917969 35.691406 27.917969 Z M 35.691406 27.917969 " fill-opacity="1" fill-rule="evenodd"></path><path fill="#035d34" d="M 35.203125 30.941406 C 35.203125 30.941406 35.222656 31.0625 35.296875 31.1875 C 35.371094 31.3125 35.5 31.445312 35.5 31.445312 C 35.5 31.445312 35.621094 31.390625 35.773438 31.433594 C 35.925781 31.480469 36.128906 31.660156 36.128906 31.660156 C 36.128906 31.660156 35.910156 31.226562 35.683594 31.054688 C 35.457031 30.886719 35.203125 30.941406 35.203125 30.941406 Z M 35.203125 30.941406 " fill-opacity="1" fill-rule="evenodd"></path><path fill="#035d34" d="M 35.179688 31.691406 C 35.179688 31.691406 35.460938 31.53125 35.695312 31.570312 C 35.925781 31.613281 36.136719 31.859375 36.136719 31.859375 C 36.136719 31.859375 35.824219 32.003906 35.589844 31.964844 C 35.359375 31.921875 35.179688 31.691406 35.179688 31.691406 Z M 35.179688 31.691406 " fill-opacity="1" fill-rule="evenodd"></path><path fill="#035d34" d="M 36.375 29.9375 C 36.375 29.9375 36.125 30.289062 36.105469 30.597656 C 36.082031 30.902344 36.304688 31.191406 36.304688 31.191406 C 36.304688 31.191406 36.296875 30.992188 36.332031 30.863281 C 36.371094 30.734375 36.453125 30.59375 36.453125 30.59375 C 36.453125 30.59375 36.488281 30.4375 36.476562 30.308594 C 36.457031 30.132812 36.375 29.9375 36.375 29.9375 Z M 36.375 29.9375 " fill-opacity="1" fill-rule="evenodd"></path><path fill="#035d34" d="M 36.734375 30.34375 C 36.734375 30.34375 36.496094 30.664062 36.433594 31.003906 C 36.371094 31.347656 36.484375 31.710938 36.484375 31.710938 C 36.484375 31.710938 36.699219 31.484375 36.761719 31.144531 C 36.824219 30.800781 36.734375 30.34375 36.734375 30.34375 Z M 36.734375 30.34375 " fill-opacity="1" fill-rule="evenodd"></path><path fill="#035d34" d="M 37.324219 32.402344 C 37.324219 32.402344 37.429688 32.699219 37.457031 32.949219 C 37.484375 33.199219 37.457031 33.285156 37.457031 33.285156 C 37.457031 33.285156 37.347656 33.429688 37.296875 33.515625 C 37.234375 33.625 37.226562 33.824219 37.226562 33.824219 C 37.226562 33.824219 37.003906 33.386719 37.039062 33.0625 C 37.074219 32.742188 37.324219 32.402344 37.324219 32.402344 Z M 37.324219 32.402344 " fill-opacity="1" fill-rule="evenodd"></path><path fill="#035d34" d="M 37.789062 33.089844 C 37.789062 33.089844 37.507812 33.339844 37.394531 33.597656 C 37.28125 33.855469 37.339844 34.117188 37.339844 34.117188 C 37.339844 34.117188 37.542969 34.09375 37.652344 33.839844 C 37.765625 33.582031 37.789062 33.089844 37.789062 33.089844 Z M 37.789062 33.089844 " fill-opacity="1" fill-rule="evenodd"></path><path fill="#035d34" d="M 35.925781 34.148438 C 35.925781 34.148438 36.335938 34.132812 36.585938 34.21875 C 36.835938 34.300781 36.925781 34.476562 36.925781 34.476562 C 36.925781 34.476562 36.644531 34.652344 36.394531 34.570312 C 36.144531 34.488281 35.925781 34.148438 35.925781 34.148438 Z M 35.925781 34.148438 " fill-opacity="1" fill-rule="evenodd"></path><path fill="#035d34" d="M 35.855469 33.5 C 35.855469 33.5 36.042969 33.882812 36.28125 34.023438 C 36.609375 34.214844 36.988281 34.121094 36.988281 34.121094 C 36.988281 34.121094 36.78125 33.78125 36.496094 33.632812 C 36.214844 33.484375 35.855469 33.5 35.855469 33.5 Z M 35.855469 33.5 " fill-opacity="1" fill-rule="evenodd"></path><path fill="#000000" d="M 37.167969 34.523438 L 37.179688 34.71875 C 37.425781 34.722656 37.460938 34.691406 37.523438 34.792969 C 37.566406 34.863281 37.664062 34.921875 37.765625 34.859375 C 37.863281 34.800781 37.910156 34.640625 37.863281 34.507812 C 37.816406 34.375 37.722656 34.34375 37.636719 34.367188 C 37.582031 34.382812 37.542969 34.441406 37.496094 34.472656 C 37.410156 34.535156 37.167969 34.523438 37.167969 34.523438 Z M 37.167969 34.523438 " fill-opacity="1" fill-rule="evenodd"></path><path fill="#000000" d="M 37.148438 34.375 L 37.265625 34.488281 C 37.140625 34.769531 37.097656 34.792969 37.132812 34.917969 C 37.152344 35.003906 37.136719 35.144531 37.046875 35.226562 C 36.957031 35.308594 36.832031 35.273438 36.769531 35.152344 C 36.710938 35.03125 36.738281 34.910156 36.800781 34.820312 C 36.839844 34.765625 36.898438 34.753906 36.941406 34.71875 C 37.027344 34.652344 37.148438 34.375 37.148438 34.375 Z M 37.148438 34.375 " fill-opacity="1" fill-rule="evenodd"></path><path fill="#000000" d="M 36.320312 32.035156 L 36.332031 32.234375 C 36.574219 32.234375 36.613281 32.203125 36.675781 32.304688 C 36.714844 32.375 36.816406 32.433594 36.914062 32.375 C 37.015625 32.3125 37.058594 32.152344 37.015625 32.019531 C 36.96875 31.886719 36.875 31.855469 36.785156 31.878906 C 36.730469 31.894531 36.695312 31.953125 36.648438 31.984375 C 36.558594 32.046875 36.320312 32.035156 36.320312 32.035156 Z M 36.320312 32.035156 " fill-opacity="1" fill-rule="evenodd"></path><path fill="#000000" d="M 36.371094 32.105469 L 36.472656 32.246094 C 36.316406 32.496094 36.273438 32.511719 36.289062 32.640625 C 36.300781 32.730469 36.269531 32.867188 36.171875 32.929688 C 36.070312 32.992188 35.949219 32.929688 35.90625 32.796875 C 35.859375 32.664062 35.902344 32.550781 35.976562 32.476562 C 36.019531 32.429688 36.078125 32.433594 36.125 32.40625 C 36.21875 32.355469 36.371094 32.105469 36.371094 32.105469 Z M 36.371094 32.105469 " fill-opacity="1" fill-rule="evenodd"></path><path fill="#000000" d="M 35.496094 29.707031 L 35.507812 29.90625 C 35.753906 29.90625 35.789062 29.875 35.851562 29.980469 C 35.894531 30.046875 35.992188 30.105469 36.09375 30.046875 C 36.191406 29.984375 36.238281 29.824219 36.191406 29.691406 C 36.144531 29.558594 36.050781 29.527344 35.964844 29.550781 C 35.910156 29.566406 35.871094 29.625 35.824219 29.65625 C 35.738281 29.71875 35.496094 29.707031 35.496094 29.707031 Z M 35.496094 29.707031 " fill-opacity="1" fill-rule="evenodd"></path><path fill="#000000" d="M 35.566406 29.667969 L 35.667969 29.808594 C 35.511719 30.054688 35.46875 30.070312 35.484375 30.203125 C 35.496094 30.289062 35.464844 30.429688 35.367188 30.492188 C 35.265625 30.550781 35.144531 30.492188 35.101562 30.359375 C 35.054688 30.222656 35.097656 30.113281 35.171875 30.035156 C 35.214844 29.992188 35.273438 29.992188 35.320312 29.96875 C 35.414062 29.917969 35.566406 29.667969 35.566406 29.667969 Z M 35.566406 29.667969 " fill-opacity="1" fill-rule="evenodd"></path><path fill="#000000" d="M 34.621094 27.25 L 34.632812 27.449219 C 34.875 27.449219 34.914062 27.417969 34.976562 27.519531 C 35.015625 27.589844 35.117188 27.648438 35.214844 27.589844 C 35.316406 27.527344 35.359375 27.367188 35.316406 27.234375 C 35.269531 27.101562 35.175781 27.070312 35.085938 27.09375 C 35.03125 27.109375 34.996094 27.167969 34.949219 27.199219 C 34.859375 27.261719 34.621094 27.25 34.621094 27.25 Z M 34.621094 27.25 " fill-opacity="1" fill-rule="evenodd"></path><path fill="#000000" d="M 34.6875 27.210938 L 34.792969 27.351562 C 34.632812 27.597656 34.59375 27.613281 34.609375 27.746094 C 34.621094 27.832031 34.589844 27.972656 34.488281 28.03125 C 34.390625 28.09375 34.269531 28.035156 34.222656 27.898438 C 34.179688 27.765625 34.222656 27.652344 34.296875 27.578125 C 34.339844 27.535156 34.394531 27.535156 34.445312 27.507812 C 34.539062 27.460938 34.6875 27.210938 34.6875 27.210938 Z M 34.6875 27.210938 " fill-opacity="1" fill-rule="evenodd"></path><path fill="#fdf700" d="M 36.164062 31.453125 C 36.078125 31.503906 35.949219 30.992188 35.851562 30.710938 C 35.753906 30.425781 35.554688 29.984375 35.613281 29.949219 C 35.671875 29.910156 35.753906 30.144531 35.855469 30.4375 C 35.957031 30.730469 36.246094 31.40625 36.164062 31.453125 Z M 36.164062 31.453125 " fill-opacity="1" fill-rule="evenodd"></path><path fill="#fdf700" d="M 35.265625 28.765625 C 35.175781 28.816406 35.082031 28.480469 34.984375 28.203125 C 34.886719 27.914062 34.792969 27.710938 34.847656 27.679688 C 34.910156 27.640625 35.003906 27.890625 35.082031 28.125 C 35.160156 28.355469 35.347656 28.722656 35.265625 28.765625 Z M 35.265625 28.765625 " fill-opacity="1" fill-rule="evenodd"></path><path fill="#fdf700" d="M 37.347656 34.859375 C 37.277344 34.882812 36.976562 34.042969 36.734375 33.332031 C 36.492188 32.621094 36.3125 32.046875 36.367188 32.011719 C 36.429688 31.972656 36.625 32.644531 36.867188 33.355469 C 37.113281 34.066406 37.398438 34.839844 37.347656 34.859375 Z M 37.347656 34.859375 " fill-opacity="1" fill-rule="evenodd"></path><path fill="#005ba4" d="M 41.5625 33.945312 L 41.8125 34.296875 L 43.476562 33.078125 L 45.429688 31.84375 L 45.800781 31.082031 L 45.800781 26.828125 L 37.875 26.808594 L 37.890625 31.136719 L 38.128906 31.648438 L 39.632812 32.761719 Z M 41.5625 33.945312 " fill-opacity="1" fill-rule="evenodd"></path><path fill="#d32620" d="M 37.785156 21.601562 L 37.882812 21.988281 C 37.882812 21.988281 37.859375 26.960938 37.859375 26.960938 C 37.859375 26.960938 38 27.164062 38 27.164062 L 39.144531 27.347656 C 39.144531 27.347656 40.378906 27.105469 40.378906 27.105469 C 40.378906 27.105469 41.097656 27.253906 41.59375 27.355469 C 41.59375 27.359375 41.609375 27.453125 41.609375 27.453125 C 41.609375 27.453125 41.789062 27.417969 41.84375 27.40625 C 41.902344 27.417969 42.078125 27.453125 42.078125 27.453125 C 42.078125 27.453125 42.09375 27.359375 42.09375 27.355469 C 42.589844 27.253906 43.308594 27.105469 43.308594 27.105469 C 43.308594 27.105469 44.546875 27.347656 44.546875 27.347656 L 45.6875 27.164062 C 45.6875 27.164062 45.828125 26.960938 45.828125 26.960938 L 45.804688 21.988281 C 45.804688 21.988281 45.902344 21.601562 45.902344 21.601562 L 44.535156 21.613281 C 44.535156 21.613281 42.96875 21.636719 41.84375 21.652344 C 40.722656 21.636719 39.152344 21.613281 39.152344 21.613281 Z M 37.785156 21.601562 " fill-opacity="1" fill-rule="evenodd"></path><path fill="#fdf700" d="M 40.125 27.113281 L 39.636719 27.488281 L 39.207031 27.988281 L 38.835938 27.613281 L 38.179688 27.136719 L 38.796875 26.8125 L 39.226562 26.363281 L 39.527344 26.789062 Z M 40.125 27.113281 " fill-opacity="1" fill-rule="evenodd"></path><path fill="#fdf700" d="M 44.496094 28.011719 L 44.886719 27.585938 L 45.519531 27.164062 L 44.867188 26.8125 L 44.457031 26.386719 L 44.175781 26.789062 L 43.578125 27.113281 L 44.140625 27.585938 Z M 44.496094 28.011719 " fill-opacity="1" fill-rule="evenodd"></path><path fill="#fdf700" d="M 40.832031 23.691406 L 41.355469 23.941406 L 41.132812 24.664062 L 41.636719 24.316406 L 41.84375 25.066406 L 42.046875 24.316406 L 42.550781 24.613281 L 42.328125 23.941406 L 42.851562 23.691406 L 42.347656 23.390625 L 42.570312 22.667969 L 42.046875 23.015625 L 41.84375 22.292969 L 41.65625 23.042969 L 41.113281 22.691406 L 41.355469 23.414062 Z M 40.832031 23.691406 " fill-opacity="1" fill-rule="evenodd"></path><path fill="#fdf700" d="M 43.449219 25.664062 L 42.90625 25.964844 L 42.609375 26.089844 L 42.253906 25.839844 L 41.859375 26.164062 L 41.429688 25.8125 L 41.074219 26.136719 L 40.851562 25.9375 L 40.460938 25.863281 L 40.011719 25.238281 L 39.917969 24.113281 L 40.460938 22.117188 L 39.785156 22.839844 L 39.207031 23.890625 L 39.207031 25.265625 L 39.617188 26.1875 L 40.367188 26.835938 L 40.570312 26.914062 L 40.21875 27.785156 L 40.832031 28.039062 L 41.152344 28.460938 L 41.320312 29.3125 L 41.28125 31.132812 L 41.09375 31.558594 L 40.683594 31.933594 L 40.664062 32.285156 L 41.113281 32.660156 L 41.507812 33.082031 L 42.085938 33.109375 L 42.589844 32.632812 L 43.019531 32.308594 L 42.90625 31.808594 L 42.457031 31.335938 L 42.363281 29.886719 L 42.496094 28.4375 L 43.148438 27.886719 L 43.484375 27.738281 L 43.128906 26.835938 L 43.671875 26.589844 L 44.269531 25.890625 L 44.550781 24.488281 L 44.382812 23.640625 L 43.972656 22.941406 L 43.28125 22.167969 L 43.449219 22.964844 L 43.710938 23.992188 L 43.746094 24.964844 Z M 43.449219 25.664062 " fill-opacity="1" fill-rule="evenodd"></path><path fill="#fdf700" d="M 40.722656 28.425781 L 40.984375 28.773438 L 40.738281 29.097656 L 40.488281 28.761719 Z M 40.722656 28.425781 " fill-opacity="1" fill-rule="evenodd"></path><path fill="#fdf700" d="M 42.972656 28.386719 L 42.710938 28.75 L 42.945312 29.085938 L 43.222656 28.761719 Z M 42.972656 28.386719 " fill-opacity="1" fill-rule="evenodd"></path><path fill="#fdf700" d="M 42.757812 31.386719 L 43.019531 31.535156 L 42.980469 30.222656 L 43.160156 29.3125 L 42.691406 29.460938 L 42.570312 29.824219 L 42.5625 30.824219 Z M 42.757812 31.386719 " fill-opacity="1" fill-rule="evenodd"></path><path fill="#fdf700" d="M 41.09375 30.796875 L 41.125 29.949219 L 41 29.4375 L 40.535156 29.324219 L 40.703125 30.433594 L 40.703125 31.507812 L 40.9375 31.285156 Z M 41.09375 30.796875 " fill-opacity="1" fill-rule="evenodd"></path><path fill="#fdf700" d="M 43.457031 31.121094 L 43.839844 31.722656 L 43.933594 31.757812 L 43.925781 31.109375 L 44.335938 30.359375 L 44.820312 30.210938 L 44.28125 29.859375 L 43.757812 30.011719 L 43.484375 30.433594 Z M 43.457031 31.121094 " fill-opacity="1" fill-rule="evenodd"></path><path fill="#fdf700" d="M 38.957031 29.910156 L 39.023438 30.210938 L 38.769531 30.171875 L 38.5625 30.433594 L 38.535156 30.785156 L 38.675781 31.011719 L 38.871094 31.097656 L 38.984375 31.085938 L 38.890625 31.398438 L 38.964844 31.710938 L 39.199219 31.882812 L 39.460938 31.796875 L 39.601562 31.445312 L 39.824219 31.644531 L 40.09375 31.570312 L 40.273438 31.210938 L 40.152344 30.871094 L 40.019531 30.734375 L 40.207031 30.597656 L 40.28125 30.183594 L 40.03125 29.796875 L 39.785156 29.847656 L 39.667969 29.972656 L 39.609375 29.671875 L 39.320312 29.449219 L 39.078125 29.574219 Z M 38.957031 29.910156 " fill-opacity="1" fill-rule="evenodd"></path><path fill="#000000" d="M 40.480469 21.878906 C 40.441406 22.246094 39.0625 23.003906 39.0625 24.539062 C 39.0625 26.503906 40.4375 26.964844 40.4375 26.964844 L 40.378906 27.105469 L 40.046875 27.917969 C 40.046875 27.917969 40.613281 27.957031 40.914062 28.300781 C 41.277344 28.714844 41.242188 29.59375 41.242188 30.230469 C 41.242188 30.734375 41.195312 31.265625 41 31.484375 C 40.742188 31.777344 40.566406 31.800781 40.566406 32.144531 C 40.566406 32.433594 40.734375 32.492188 41 32.679688 C 41.347656 32.925781 41.332031 33.25 41.84375 33.25 C 42.355469 33.25 42.339844 32.925781 42.6875 32.679688 C 42.957031 32.492188 43.121094 32.433594 43.121094 32.144531 C 43.121094 31.800781 42.945312 31.777344 42.6875 31.484375 C 42.492188 31.265625 42.445312 30.734375 42.445312 30.230469 C 42.445312 29.59375 42.410156 28.714844 42.773438 28.300781 C 43.074219 27.957031 43.640625 27.917969 43.640625 27.917969 L 43.308594 27.105469 L 43.25 26.964844 C 43.25 26.964844 44.625 26.503906 44.625 24.539062 C 44.625 23.003906 43.246094 22.246094 43.207031 21.878906 C 43.074219 22.511719 43.667969 23.386719 43.667969 24.421875 C 43.667969 25.761719 42.929688 25.824219 42.929688 25.824219 C 42.757812 25.824219 42.6875 25.992188 42.617188 25.992188 C 42.472656 25.972656 42.402344 25.722656 42.261719 25.722656 C 42.125 25.722656 42.023438 26.003906 41.84375 26.003906 C 41.664062 26.003906 41.5625 25.722656 41.429688 25.722656 C 41.285156 25.722656 41.214844 25.972656 41.070312 25.992188 C 41.003906 25.992188 40.933594 25.824219 40.757812 25.824219 C 40.757812 25.824219 40.019531 25.761719 40.019531 24.421875 C 40.019531 23.386719 40.613281 22.511719 40.480469 21.878906 Z M 43.308594 27.105469 C 43.308594 27.105469 44.230469 27.648438 44.472656 28.113281 C 44.996094 27.582031 45.6875 27.164062 45.6875 27.164062 C 45.6875 27.164062 45.027344 26.933594 44.472656 26.269531 C 44.15625 26.828125 43.308594 27.105469 43.308594 27.105469 Z M 40.378906 27.105469 C 40.378906 27.105469 39.53125 26.828125 39.214844 26.265625 C 38.660156 26.933594 38 27.164062 38 27.164062 C 38 27.164062 38.691406 27.582031 39.214844 28.113281 C 39.457031 27.648438 40.378906 27.105469 40.378906 27.105469 Z M 41.84375 22.015625 L 41.605469 22.921875 L 40.953125 22.507812 L 41.261719 23.375 L 40.585938 23.699219 L 41.261719 24.019531 L 40.953125 24.886719 L 41.605469 24.472656 L 41.84375 25.378906 L 42.082031 24.472656 L 42.734375 24.886719 L 42.425781 24.019531 L 43.101562 23.699219 L 42.425781 23.375 L 42.734375 22.507812 L 42.082031 22.921875 Z M 40.28125 22.433594 C 40.335938 22.597656 39.820312 23.601562 39.820312 24.421875 C 39.820312 25.429688 40.222656 26.027344 40.757812 26.027344 C 40.863281 26.027344 40.972656 26.210938 41.070312 26.210938 C 41.226562 26.210938 41.332031 25.976562 41.425781 25.976562 C 41.550781 25.976562 41.632812 26.234375 41.84375 26.234375 C 42.054688 26.234375 42.136719 25.976562 42.261719 25.976562 C 42.355469 25.976562 42.460938 26.210938 42.617188 26.210938 C 42.714844 26.210938 42.828125 26.027344 42.929688 26.027344 C 43.464844 26.027344 43.867188 25.429688 43.867188 24.421875 C 43.867188 23.601562 43.351562 22.597656 43.40625 22.433594 C 43.40625 22.433594 44.414062 23.402344 44.414062 24.539062 C 44.414062 26.371094 43.023438 26.824219 43.023438 26.824219 L 43.335938 27.769531 C 43.335938 27.769531 42.90625 27.855469 42.644531 28.136719 C 42.292969 28.515625 42.289062 29.539062 42.289062 30.230469 C 42.289062 31.046875 42.3125 31.390625 42.53125 31.613281 C 42.761719 31.847656 42.9375 31.894531 42.9375 32.132812 C 42.9375 32.339844 42.757812 32.425781 42.523438 32.5625 C 42.253906 32.722656 42.230469 32.996094 41.84375 32.996094 C 41.457031 32.996094 41.433594 32.722656 41.164062 32.5625 C 40.929688 32.425781 40.75 32.339844 40.75 32.132812 C 40.75 31.894531 40.925781 31.847656 41.15625 31.613281 C 41.378906 31.390625 41.398438 31.046875 41.398438 30.230469 C 41.398438 29.539062 41.394531 28.515625 41.042969 28.136719 C 40.78125 27.855469 40.351562 27.769531 40.351562 27.769531 L 40.664062 26.824219 C 40.664062 26.824219 39.273438 26.371094 39.273438 24.539062 C 39.273438 23.402344 40.28125 22.433594 40.28125 22.433594 Z M 41.84375 22.625 L 42 23.203125 L 42.410156 22.9375 L 42.214844 23.492188 L 42.644531 23.699219 L 42.214844 23.902344 L 42.410156 24.457031 L 42 24.195312 L 41.84375 24.769531 L 41.6875 24.195312 L 41.277344 24.457031 L 41.472656 23.902344 L 41.042969 23.699219 L 41.472656 23.492188 L 41.277344 22.9375 L 41.6875 23.203125 Z M 39.203125 26.546875 C 39.480469 26.976562 39.925781 27.140625 39.925781 27.140625 C 39.925781 27.140625 39.464844 27.464844 39.214844 27.84375 L 39.214844 27.867188 C 39.210938 27.863281 39.207031 27.863281 39.207031 27.859375 C 39.203125 27.867188 39.195312 27.875 39.191406 27.882812 C 39.191406 27.882812 39.191406 27.84375 39.191406 27.84375 C 38.929688 27.53125 38.402344 27.183594 38.402344 27.183594 C 38.402344 27.183594 38.90625 26.949219 39.203125 26.546875 Z M 44.484375 26.546875 C 44.78125 26.949219 45.285156 27.183594 45.285156 27.183594 C 45.285156 27.183594 44.757812 27.53125 44.496094 27.84375 L 44.496094 27.882812 C 44.492188 27.875 44.484375 27.867188 44.480469 27.859375 C 44.480469 27.863281 44.476562 27.863281 44.472656 27.867188 L 44.472656 27.84375 C 44.222656 27.464844 43.761719 27.140625 43.761719 27.140625 C 43.761719 27.140625 44.207031 26.976562 44.484375 26.546875 Z M 40.726562 28.3125 L 40.398438 28.753906 L 40.726562 29.195312 L 41.058594 28.753906 Z M 42.960938 28.3125 L 42.628906 28.753906 L 42.960938 29.195312 L 43.289062 28.753906 Z M 40.726562 28.523438 L 40.898438 28.753906 L 40.726562 28.988281 L 40.550781 28.753906 Z M 42.960938 28.523438 L 43.136719 28.753906 L 42.960938 28.988281 L 42.789062 28.753906 Z M 40.421875 29.195312 C 40.488281 29.410156 40.644531 30.082031 40.644531 30.890625 C 40.644531 31.449219 40.601562 31.742188 40.601562 31.742188 C 40.601562 31.742188 41.070312 31.558594 41.160156 30.925781 C 41.203125 30.628906 41.253906 29.539062 41.027344 29.355469 Z M 43.265625 29.195312 L 42.660156 29.355469 C 42.433594 29.539062 42.484375 30.628906 42.527344 30.925781 C 42.617188 31.558594 43.085938 31.742188 43.085938 31.742188 C 43.085938 31.742188 43.042969 31.449219 43.042969 30.890625 C 43.042969 30.082031 43.199219 29.410156 43.265625 29.195312 Z M 39.292969 29.371094 C 39.265625 29.375 39.238281 29.378906 39.210938 29.386719 C 39.003906 29.457031 38.878906 29.742188 38.929688 30.019531 C 38.9375 30.0625 38.949219 30.101562 38.964844 30.140625 C 38.933594 30.128906 38.902344 30.117188 38.871094 30.113281 C 38.855469 30.113281 38.84375 30.113281 38.828125 30.113281 C 38.632812 30.125 38.464844 30.332031 38.453125 30.601562 C 38.4375 30.890625 38.601562 31.136719 38.816406 31.15625 C 38.847656 31.160156 38.878906 31.160156 38.910156 31.152344 C 38.890625 31.1875 38.875 31.222656 38.863281 31.261719 C 38.78125 31.53125 38.878906 31.839844 39.082031 31.945312 C 39.28125 32.054688 39.507812 31.921875 39.589844 31.652344 C 39.601562 31.613281 39.609375 31.570312 39.613281 31.53125 C 39.632812 31.566406 39.652344 31.597656 39.679688 31.625 C 39.84375 31.808594 40.09375 31.78125 40.230469 31.558594 C 40.367188 31.335938 40.347656 31.007812 40.183594 30.824219 C 40.15625 30.796875 40.128906 30.773438 40.101562 30.753906 C 40.132812 30.742188 40.160156 30.726562 40.1875 30.703125 C 40.371094 30.546875 40.425781 30.222656 40.3125 29.976562 C 40.234375 29.808594 40.09375 29.722656 39.957031 29.734375 C 39.894531 29.742188 39.828125 29.769531 39.773438 29.816406 C 39.746094 29.839844 39.71875 29.867188 39.699219 29.894531 C 39.699219 29.855469 39.695312 29.808594 39.6875 29.765625 C 39.640625 29.523438 39.472656 29.359375 39.292969 29.371094 Z M 40.636719 29.441406 C 40.636719 29.441406 40.960938 29.53125 40.960938 29.53125 C 41.082031 29.753906 41.0625 30.113281 41.0625 30.613281 C 41.0625 31.117188 40.777344 31.3125 40.777344 31.3125 C 40.777344 30.097656 40.683594 29.808594 40.636719 29.441406 Z M 43.050781 29.441406 C 43.003906 29.808594 42.910156 30.097656 42.910156 31.3125 C 42.910156 31.3125 42.625 31.117188 42.625 30.613281 C 42.625 30.113281 42.605469 29.753906 42.726562 29.53125 C 42.726562 29.53125 43.050781 29.441406 43.050781 29.441406 Z M 39.316406 29.589844 C 39.457031 29.582031 39.585938 29.707031 39.621094 29.898438 C 39.628906 29.945312 39.632812 29.988281 39.628906 30.03125 C 39.625 30.070312 39.617188 30.101562 39.609375 30.136719 C 39.5625 30.113281 39.511719 30.101562 39.457031 30.101562 C 39.328125 30.101562 39.207031 30.179688 39.128906 30.300781 C 39.105469 30.273438 39.085938 30.246094 39.070312 30.214844 C 39.054688 30.179688 39.039062 30.140625 39.03125 30.09375 C 38.992188 29.878906 39.089844 29.65625 39.253906 29.601562 C 39.273438 29.59375 39.292969 29.59375 39.316406 29.589844 Z M 44.179688 29.757812 C 43.679688 29.757812 43.316406 30.273438 43.363281 30.90625 C 43.40625 31.441406 43.730469 31.886719 44.132812 32.015625 C 44.0625 31.863281 44.019531 31.699219 44.003906 31.523438 C 43.953125 30.890625 44.320312 30.375 44.820312 30.375 C 44.898438 30.375 44.976562 30.390625 45.050781 30.414062 C 44.875 30.027344 44.542969 29.757812 44.179688 29.757812 Z M 39.925781 29.902344 C 40.023438 29.910156 40.117188 29.976562 40.171875 30.09375 C 40.261719 30.285156 40.21875 30.535156 40.074219 30.65625 C 40.046875 30.679688 40.015625 30.699219 39.980469 30.707031 C 39.953125 30.714844 39.925781 30.714844 39.902344 30.714844 C 39.902344 30.707031 39.902344 30.703125 39.902344 30.695312 C 39.902344 30.453125 39.792969 30.246094 39.636719 30.152344 C 39.648438 30.117188 39.660156 30.082031 39.679688 30.050781 C 39.699219 30.019531 39.722656 29.992188 39.75 29.96875 C 39.804688 29.921875 39.867188 29.902344 39.925781 29.902344 Z M 44.179688 29.996094 C 44.335938 29.996094 44.488281 30.058594 44.617188 30.167969 C 44.128906 30.292969 43.777344 30.867188 43.828125 31.542969 C 43.675781 31.371094 43.558594 31.136719 43.539062 30.882812 C 43.5 30.382812 43.773438 29.996094 44.179688 29.996094 Z M 38.941406 30.242188 C 38.976562 30.242188 39.007812 30.257812 39.039062 30.273438 C 39.066406 30.289062 39.085938 30.308594 39.109375 30.328125 C 39.050781 30.429688 39.015625 30.558594 39.015625 30.695312 C 39.015625 30.804688 39.035156 30.90625 39.074219 30.992188 C 39.046875 31.011719 39.023438 31.03125 38.992188 31.039062 C 38.960938 31.050781 38.929688 31.054688 38.898438 31.050781 C 38.730469 31.035156 38.605469 30.84375 38.617188 30.617188 C 38.628906 30.394531 38.773438 30.226562 38.941406 30.242188 Z M 39.457031 30.300781 C 39.621094 30.300781 39.75 30.480469 39.75 30.695312 C 39.75 30.914062 39.621094 31.089844 39.457031 31.089844 C 39.296875 31.089844 39.164062 30.914062 39.164062 30.695312 C 39.164062 30.480469 39.296875 30.300781 39.457031 30.300781 Z M 39.898438 30.753906 C 39.925781 30.757812 39.957031 30.765625 39.984375 30.78125 C 40.011719 30.796875 40.042969 30.816406 40.066406 30.84375 C 40.195312 30.988281 40.210938 31.246094 40.101562 31.417969 C 39.996094 31.589844 39.804688 31.613281 39.675781 31.46875 C 39.648438 31.4375 39.628906 31.402344 39.609375 31.363281 C 39.597656 31.332031 39.589844 31.300781 39.582031 31.265625 C 39.753906 31.199219 39.878906 30.996094 39.898438 30.753906 Z M 39.089844 31.027344 C 39.167969 31.183594 39.304688 31.289062 39.457031 31.289062 C 39.488281 31.289062 39.519531 31.28125 39.550781 31.273438 C 39.558594 31.3125 39.5625 31.347656 39.558594 31.386719 C 39.558594 31.429688 39.554688 31.472656 39.539062 31.511719 C 39.476562 31.722656 39.300781 31.820312 39.144531 31.738281 C 38.988281 31.65625 38.910156 31.417969 38.972656 31.207031 C 38.988281 31.167969 39.003906 31.128906 39.023438 31.097656 C 39.042969 31.070312 39.066406 31.046875 39.089844 31.027344 Z M 41.316406 31.996094 C 41.042969 31.996094 40.871094 32.070312 40.871094 32.183594 C 40.871094 32.292969 41.042969 32.367188 41.316406 32.367188 C 41.390625 32.367188 41.472656 32.3125 41.472656 32.183594 C 41.472656 32.054688 41.390625 31.996094 41.316406 31.996094 Z M 42.371094 31.996094 C 42.296875 31.996094 42.214844 32.054688 42.214844 32.183594 C 42.214844 32.3125 42.296875 32.367188 42.371094 32.367188 C 42.644531 32.367188 42.816406 32.292969 42.816406 32.183594 C 42.816406 32.070312 42.644531 31.996094 42.371094 31.996094 Z M 42.371094 31.996094 " fill-opacity="1" fill-rule="evenodd"></path><path fill="#fdf700" d="M 37.429688 21.460938 C 37.429688 21.460938 37.789062 21.824219 37.789062 22.191406 L 37.789062 30.980469 C 37.789062 31.210938 37.84375 31.363281 37.929688 31.507812 C 38.011719 31.667969 38.195312 31.886719 38.382812 32.050781 C 38.960938 32.554688 39.933594 33.085938 40.664062 33.53125 C 41.277344 33.902344 41.523438 34.054688 41.84375 34.578125 C 42.160156 34.054688 42.410156 33.902344 43.023438 33.53125 C 43.757812 33.085938 44.726562 32.554688 45.304688 32.050781 C 45.492188 31.886719 45.675781 31.667969 45.757812 31.507812 C 45.84375 31.363281 45.894531 31.210938 45.894531 30.980469 L 45.894531 22.191406 C 45.894531 21.824219 46.257812 21.460938 46.257812 21.460938 Z M 37.890625 21.738281 L 45.792969 21.738281 C 45.792969 21.738281 45.6875 21.910156 45.6875 22.191406 L 45.6875 30.980469 C 45.6875 31.171875 45.539062 31.621094 44.679688 32.191406 C 43.261719 33.140625 42.167969 33.582031 41.84375 34.117188 C 41.515625 33.582031 40.425781 33.140625 39.007812 32.191406 C 38.148438 31.621094 38 31.171875 38 30.980469 L 38 22.191406 C 38 21.910156 37.890625 21.738281 37.890625 21.738281 Z M 37.890625 21.738281 " fill-opacity="1" fill-rule="evenodd"></path><path fill="#000000" d="M 17.933594 17.722656 C 17.933594 17.789062 17.894531 17.84375 17.84375 17.84375 C 17.792969 17.84375 17.753906 17.789062 17.753906 17.722656 C 17.753906 17.652344 17.792969 17.597656 17.84375 17.597656 C 17.894531 17.597656 17.933594 17.652344 17.933594 17.722656 Z M 17.933594 17.722656 " fill-opacity="1" fill-rule="evenodd"></path><path fill="#d32620" d="M 39.867188 15.910156 C 39.867188 15.910156 39.96875 15.65625 40.222656 15.65625 C 40.328125 15.65625 40.679688 15.644531 40.679688 15.644531 C 40.726562 15.808594 40.941406 16.082031 40.941406 16.363281 C 40.941406 16.363281 40.722656 15.839844 40.121094 15.839844 C 39.96875 15.839844 39.867188 15.910156 39.867188 15.910156 Z M 39.867188 15.910156 " fill-opacity="1" fill-rule="evenodd"></path><path fill="#000000" d="M 40.644531 15.980469 C 40.644531 15.980469 40.496094 15.917969 40.496094 15.851562 C 40.496094 15.765625 40.570312 15.765625 40.613281 15.832031 C 40.640625 15.878906 40.644531 15.980469 40.644531 15.980469 Z M 40.644531 15.980469 " fill-opacity="1" fill-rule="evenodd"></path><path fill="#d32620" d="M 40.847656 16.460938 C 40.847656 16.460938 40.71875 16.644531 40.691406 16.742188 C 40.566406 16.675781 40.34375 16.371094 40.34375 16.371094 C 40.34375 16.371094 40.53125 16.515625 40.847656 16.460938 Z M 40.847656 16.460938 " fill-opacity="1" fill-rule="evenodd"></path><path fill="#000000" d="M 50.324219 25.53125 L 49.851562 25.992188 L 49.90625 26.144531 C 49.90625 26.144531 49.820312 26.183594 49.78125 26.289062 C 49.742188 26.390625 49.804688 26.535156 49.804688 26.535156 C 49.804688 26.535156 49.355469 26.484375 49.285156 26.542969 C 49.222656 26.597656 49.3125 27.015625 49.269531 27.367188 C 49.210938 27.855469 49.066406 27.816406 49.0625 27.910156 C 49.054688 28.003906 49.117188 28.148438 49.117188 28.148438 C 49.117188 28.148438 49.035156 28.183594 49.015625 28.230469 C 48.988281 28.304688 49.035156 28.445312 49 28.535156 C 48.804688 29.050781 48.515625 29.808594 48.324219 30.308594 C 48.296875 30.378906 48.226562 30.40625 48.191406 30.5 C 48.15625 30.585938 48.183594 30.710938 48.183594 30.710938 C 48.183594 30.710938 48.058594 30.722656 48.015625 30.839844 C 47.96875 30.960938 47.996094 31.125 47.996094 31.125 C 47.996094 31.125 47.914062 31.140625 47.875 31.242188 C 47.835938 31.351562 47.90625 31.410156 47.886719 31.457031 C 47.628906 32.132812 47.328125 32.925781 47.144531 33.410156 C 47.074219 33.585938 46.839844 33.625 46.699219 33.984375 C 46.566406 34.335938 46.757812 34.59375 46.757812 34.59375 C 46.757812 34.59375 46.558594 34.617188 46.507812 34.757812 C 46.453125 34.898438 46.496094 35.113281 46.640625 35.210938 C 46.78125 35.308594 46.9375 35.226562 46.992188 35.085938 C 47.046875 34.949219 46.9375 34.71875 46.9375 34.71875 C 46.9375 34.71875 47.207031 34.769531 47.339844 34.421875 C 47.480469 34.058594 47.363281 33.785156 47.429688 33.605469 C 47.617188 33.121094 47.917969 32.328125 48.175781 31.65625 C 48.191406 31.605469 48.269531 31.648438 48.308594 31.539062 C 48.351562 31.433594 48.308594 31.34375 48.308594 31.34375 C 48.308594 31.34375 48.429688 31.273438 48.472656 31.152344 C 48.519531 31.035156 48.449219 30.890625 48.449219 30.890625 C 48.449219 30.890625 48.542969 30.847656 48.578125 30.761719 C 48.613281 30.667969 48.585938 30.574219 48.613281 30.503906 C 48.804688 30.003906 49.09375 29.246094 49.289062 28.734375 C 49.324219 28.640625 49.4375 28.609375 49.464844 28.535156 C 49.484375 28.488281 49.453125 28.375 49.453125 28.375 C 49.453125 28.375 49.578125 28.359375 49.628906 28.296875 C 49.683594 28.234375 49.574219 28.101562 49.835938 27.75 C 50.027344 27.5 50.328125 27.351562 50.324219 27.25 C 50.320312 27.136719 50.023438 26.683594 50.023438 26.683594 C 50.023438 26.683594 50.148438 26.667969 50.1875 26.566406 C 50.226562 26.464844 50.203125 26.34375 50.203125 26.34375 L 50.324219 26.316406 Z M 45.878906 36.8125 C 45.820312 36.820312 45.78125 36.871094 45.769531 36.902344 C 45.75 36.949219 45.746094 37.015625 45.769531 37.074219 C 45.769531 37.074219 45.621094 37.011719 45.570312 37.046875 C 45.523438 37.078125 45.570312 38.019531 45.570312 38.019531 C 45.570312 38.019531 46.164062 37.515625 46.15625 37.445312 C 46.144531 37.371094 46.019531 37.242188 46.019531 37.242188 C 46.070312 37.234375 46.105469 37.191406 46.125 37.144531 C 46.144531 37.09375 46.148438 36.945312 46.011719 36.851562 C 45.960938 36.820312 45.917969 36.808594 45.878906 36.8125 Z M 45.878906 36.8125 " fill-opacity="1" fill-rule="evenodd"></path><path fill="#fdf700" d="M 50.238281 25.761719 L 49.960938 26.027344 L 50.242188 26.214844 Z M 49.96875 26.199219 C 49.917969 26.203125 49.875 26.238281 49.851562 26.300781 C 49.816406 26.394531 49.851562 26.515625 49.929688 26.570312 C 50.011719 26.625 50.101562 26.589844 50.140625 26.496094 C 50.175781 26.402344 50.140625 26.277344 50.0625 26.226562 C 50.03125 26.203125 50 26.195312 49.96875 26.199219 Z M 49.449219 26.636719 C 49.40625 26.636719 49.375 26.636719 49.367188 26.644531 C 49.339844 26.667969 49.378906 27.007812 49.371094 27.296875 C 49.363281 27.566406 49.296875 27.644531 49.261719 27.738281 C 49.230469 27.824219 49.109375 27.925781 49.109375 27.925781 L 49.210938 28.054688 C 49.210938 28.054688 49.273438 27.921875 49.371094 27.660156 C 49.492188 27.351562 49.488281 26.789062 49.523438 26.757812 C 49.550781 26.730469 49.800781 26.648438 49.800781 26.648438 C 49.800781 26.648438 49.574219 26.632812 49.449219 26.636719 Z M 49.878906 26.710938 C 49.878906 26.710938 49.617188 26.777344 49.582031 26.824219 C 49.546875 26.871094 49.5625 27.339844 49.425781 27.703125 C 49.308594 28.003906 49.253906 28.113281 49.253906 28.113281 L 49.394531 28.207031 C 49.394531 28.207031 49.425781 28.085938 49.542969 27.785156 C 49.679688 27.425781 49.972656 27.160156 49.980469 27.097656 C 49.988281 27.027344 49.878906 26.710938 49.878906 26.710938 Z M 49.960938 26.757812 C 49.960938 26.757812 50.054688 27.074219 50.054688 27.121094 C 50.058594 27.175781 49.71875 27.503906 49.597656 27.8125 C 49.5 28.078125 49.457031 28.222656 49.457031 28.222656 C 49.457031 28.222656 49.59375 28.253906 49.59375 28.253906 C 49.59375 28.253906 49.582031 28.066406 49.617188 27.980469 C 49.652344 27.886719 49.660156 27.773438 49.820312 27.601562 C 49.988281 27.425781 50.21875 27.269531 50.214844 27.222656 C 50.214844 27.179688 49.960938 26.757812 49.960938 26.757812 Z M 49.191406 28.25 C 49.148438 28.257812 49.117188 28.292969 49.097656 28.339844 C 49.074219 28.40625 49.085938 28.496094 48.882812 29.035156 C 48.792969 29.273438 48.753906 29.367188 48.65625 29.621094 C 48.558594 29.882812 48.414062 30.257812 48.414062 30.257812 C 48.414062 30.257812 48.367188 30.378906 48.457031 30.441406 C 48.546875 30.503906 48.589844 30.378906 48.589844 30.378906 C 48.589844 30.378906 48.734375 30 48.832031 29.742188 C 48.929688 29.488281 48.964844 29.390625 49.054688 29.152344 C 49.261719 28.613281 49.324219 28.578125 49.347656 28.507812 C 49.378906 28.4375 49.371094 28.335938 49.277344 28.273438 C 49.246094 28.25 49.214844 28.246094 49.191406 28.25 Z M 48.304688 30.496094 C 48.273438 30.5 48.246094 30.519531 48.230469 30.554688 C 48.207031 30.621094 48.25 30.71875 48.328125 30.773438 C 48.410156 30.828125 48.496094 30.816406 48.519531 30.75 C 48.546875 30.683594 48.5 30.585938 48.421875 30.53125 C 48.382812 30.503906 48.339844 30.492188 48.304688 30.496094 Z M 48.1875 30.824219 C 48.128906 30.820312 48.078125 30.847656 48.058594 30.902344 C 48.027344 30.988281 48.078125 31.113281 48.175781 31.175781 C 48.269531 31.242188 48.375 31.226562 48.410156 31.140625 C 48.441406 31.054688 48.390625 30.929688 48.292969 30.863281 C 48.257812 30.839844 48.222656 30.828125 48.1875 30.824219 Z M 48.023438 31.230469 C 47.992188 31.234375 47.964844 31.253906 47.949219 31.289062 C 47.925781 31.355469 47.96875 31.453125 48.046875 31.507812 C 48.128906 31.5625 48.214844 31.550781 48.238281 31.484375 C 48.265625 31.417969 48.222656 31.320312 48.140625 31.265625 C 48.101562 31.238281 48.058594 31.226562 48.023438 31.230469 Z M 47.953125 31.582031 C 47.902344 31.589844 47.878906 31.660156 47.878906 31.660156 C 47.878906 31.660156 47.363281 33.023438 47.179688 33.5 C 47.121094 33.65625 46.875 33.75 46.777344 34.003906 C 46.683594 34.257812 46.75 34.496094 46.878906 34.582031 C 47.003906 34.667969 47.1875 34.605469 47.285156 34.351562 C 47.382812 34.097656 47.296875 33.773438 47.355469 33.621094 C 47.535156 33.140625 48.054688 31.777344 48.054688 31.777344 C 48.054688 31.777344 48.105469 31.660156 48.015625 31.597656 C 47.992188 31.582031 47.972656 31.578125 47.953125 31.582031 Z M 46.703125 34.71875 C 46.648438 34.722656 46.59375 34.757812 46.570312 34.824219 C 46.53125 34.925781 46.574219 35.058594 46.671875 35.125 C 46.765625 35.1875 46.875 35.15625 46.914062 35.054688 C 46.953125 34.953125 46.90625 34.820312 46.8125 34.753906 C 46.777344 34.730469 46.738281 34.71875 46.703125 34.71875 Z M 45.878906 36.90625 C 45.851562 36.90625 45.828125 36.917969 45.816406 36.945312 C 45.796875 36.996094 45.835938 37.078125 45.910156 37.125 C 45.980469 37.175781 46.050781 37.171875 46.070312 37.117188 C 46.09375 37.066406 46.050781 36.984375 45.980469 36.9375 C 45.945312 36.910156 45.910156 36.902344 45.878906 36.90625 Z M 45.636719 37.160156 L 45.636719 37.832031 L 46.046875 37.441406 C 46.046875 37.441406 45.992188 37.308594 45.871094 37.226562 C 45.75 37.144531 45.636719 37.160156 45.636719 37.160156 Z M 45.636719 37.160156 " fill-opacity="1" fill-rule="evenodd"></path><path fill="#fdf700" d="M 17.933594 17.722656 C 17.933594 17.789062 17.894531 17.84375 17.84375 17.84375 C 17.792969 17.84375 17.753906 17.789062 17.753906 17.722656 C 17.753906 17.652344 17.792969 17.597656 17.84375 17.597656 C 17.894531 17.597656 17.933594 17.652344 17.933594 17.722656 Z M 17.933594 17.722656 " fill-opacity="1" fill-rule="evenodd"></path><path fill="#000000" d="M 17.933594 17.722656 C 17.933594 17.789062 17.894531 17.84375 17.84375 17.84375 C 17.792969 17.84375 17.753906 17.789062 17.753906 17.722656 C 17.753906 17.652344 17.792969 17.597656 17.84375 17.597656 C 17.894531 17.597656 17.933594 17.652344 17.933594 17.722656 Z M 17.933594 17.722656 " fill-opacity="1" fill-rule="evenodd"></path></svg> 