<?xml version="1.0" encoding="UTF-8"?> <svg xmlns="http://www.w3.org/2000/svg" xmlns:xlink="http://www.w3.org/1999/xlink" width="112" zoomAndPan="magnify" viewBox="0 0 84 55.5" height="74" preserveAspectRatio="xMidYMid meet" version="1.0"><defs><clipPath id="c3ae99f7a4"><path d="M 0.375 0 L 83.625 0 L 83.625 55.003906 L 0.375 55.003906 Z M 0.375 0 " clip-rule="nonzero"></path></clipPath><clipPath id="4091f55251"><path d="M 0.441406 0 L 83.558594 0 L 83.558594 55.003906 L 0.441406 55.003906 Z M 0.441406 0 " clip-rule="nonzero"></path></clipPath><clipPath id="dd86e9179a"><path d="M 23.09375 0 L 38.292969 0 L 38.292969 55.003906 L 23.09375 55.003906 Z M 23.09375 0 " clip-rule="nonzero"></path></clipPath><clipPath id="1133bd0bce"><path d="M 0.441406 19.824219 L 83.558594 19.824219 L 83.558594 34.964844 L 0.441406 34.964844 Z M 0.441406 19.824219 " clip-rule="nonzero"></path></clipPath><clipPath id="b3778b3e95"><path d="M 26.816406 0 L 34.492188 0 L 34.492188 55.003906 L 26.816406 55.003906 Z M 26.816406 0 " clip-rule="nonzero"></path></clipPath><clipPath id="4aa5010756"><path d="M 0.441406 23.53125 L 83.558594 23.53125 L 83.558594 31.179688 L 0.441406 31.179688 Z M 0.441406 23.53125 " clip-rule="nonzero"></path></clipPath></defs><g clip-path="url(#c3ae99f7a4)"><path fill="#ffffff" d="M 0.375 0 L 83.625 0 L 83.625 55.003906 L 0.375 55.003906 Z M 0.375 0 " fill-opacity="1" fill-rule="nonzero"></path><path fill="#ffffff" d="M 0.375 0 L 83.625 0 L 83.625 55.003906 L 0.375 55.003906 Z M 0.375 0 " fill-opacity="1" fill-rule="nonzero"></path></g><g clip-path="url(#4091f55251)"><path fill="#ee222d" d="M 0.441406 -2.738281 L 83.558594 -2.738281 L 83.558594 57.46875 L 0.441406 57.46875 L 0.441406 -2.738281 " fill-opacity="1" fill-rule="nonzero"></path></g><g clip-path="url(#dd86e9179a)"><path fill="#ffffff" d="M 23.109375 -2.738281 L 38.222656 -2.738281 L 38.222656 57.46875 L 23.109375 57.46875 L 23.109375 -2.738281 " fill-opacity="1" fill-rule="nonzero"></path></g><g clip-path="url(#1133bd0bce)"><path fill="#ffffff" d="M 0.441406 19.839844 L 83.558594 19.839844 L 83.558594 34.890625 L 0.441406 34.890625 L 0.441406 19.839844 " fill-opacity="1" fill-rule="nonzero"></path></g><g clip-path="url(#b3778b3e95)"><path fill="#222f61" d="M 26.886719 -2.738281 L 34.445312 -2.738281 L 34.445312 57.46875 L 26.886719 57.46875 L 26.886719 -2.738281 " fill-opacity="1" fill-rule="nonzero"></path></g><g clip-path="url(#4aa5010756)"><path fill="#222f61" d="M 0.441406 23.601562 L 83.558594 23.601562 L 83.558594 31.128906 L 0.441406 31.128906 L 0.441406 23.601562 " fill-opacity="1" fill-rule="nonzero"></path></g></svg> 