<?xml version="1.0" encoding="UTF-8"?> <svg xmlns="http://www.w3.org/2000/svg" xmlns:xlink="http://www.w3.org/1999/xlink" width="112" zoomAndPan="magnify" viewBox="0 0 84 55.5" height="74" preserveAspectRatio="xMidYMid meet" version="1.0"><defs><clipPath id="60cf2c7315"><path d="M 0.375 0 L 83.625 0 L 83.625 55.003906 L 0.375 55.003906 Z M 0.375 0 " clip-rule="nonzero"></path></clipPath><clipPath id="f7ea3635ba"><path d="M 0.375 27 L 83.625 27 L 83.625 55.003906 L 0.375 55.003906 Z M 0.375 27 " clip-rule="nonzero"></path></clipPath><clipPath id="03bf1dbc16"><path d="M 0.375 0 L 83.625 0 L 83.625 28 L 0.375 28 Z M 0.375 0 " clip-rule="nonzero"></path></clipPath></defs><g clip-path="url(#60cf2c7315)"><path fill="#ffffff" d="M 0.375 0 L 83.625 0 L 83.625 55.003906 L 0.375 55.003906 Z M 0.375 0 " fill-opacity="1" fill-rule="nonzero"></path><path fill="#ffffff" d="M 0.375 0 L 83.625 0 L 83.625 55.003906 L 0.375 55.003906 Z M 0.375 0 " fill-opacity="1" fill-rule="nonzero"></path></g><g clip-path="url(#f7ea3635ba)"><path fill="#d7210a" d="M 0.414062 27.875 L 83.585938 27.875 L 83.585938 55.746094 L 0.414062 55.746094 Z M 0.414062 27.875 " fill-opacity="1" fill-rule="nonzero"></path></g><g clip-path="url(#03bf1dbc16)"><path fill="#ededed" d="M 0.414062 0 L 83.585938 0 L 83.585938 27.875 L 0.414062 27.875 Z M 0.414062 0 " fill-opacity="1" fill-rule="nonzero"></path></g></svg> 