<?xml version="1.0" encoding="UTF-8"?> <svg xmlns="http://www.w3.org/2000/svg" xmlns:xlink="http://www.w3.org/1999/xlink" width="112" zoomAndPan="magnify" viewBox="0 0 84 55.5" height="74" preserveAspectRatio="xMidYMid meet" version="1.0"><defs><clipPath id="711c2c08bd"><path d="M 0.375 0 L 83.625 0 L 83.625 55.003906 L 0.375 55.003906 Z M 0.375 0 " clip-rule="nonzero"></path></clipPath><clipPath id="908ccd334e"><path d="M 0.375 0 L 29 0 L 29 55.003906 L 0.375 55.003906 Z M 0.375 0 " clip-rule="nonzero"></path></clipPath><clipPath id="71b6ca2319"><path d="M 28 0 L 56 0 L 56 55.003906 L 28 55.003906 Z M 28 0 " clip-rule="nonzero"></path></clipPath><clipPath id="9adc4c60ed"><path d="M 55 0 L 83.625 0 L 83.625 55.003906 L 55 55.003906 Z M 55 0 " clip-rule="nonzero"></path></clipPath></defs><g clip-path="url(#711c2c08bd)"><path fill="#ffffff" d="M 0.375 0 L 83.625 0 L 83.625 55.003906 L 0.375 55.003906 Z M 0.375 0 " fill-opacity="1" fill-rule="nonzero"></path><path fill="#ffffff" d="M 0.375 0 L 83.625 0 L 83.625 55.003906 L 0.375 55.003906 Z M 0.375 0 " fill-opacity="1" fill-rule="nonzero"></path></g><g clip-path="url(#908ccd334e)"><path fill="#002b7f" d="M 0.460938 0 L 28.152344 0 L 28.152344 55.746094 L 0.460938 55.746094 Z M 0.460938 0 " fill-opacity="1" fill-rule="nonzero"></path></g><g clip-path="url(#71b6ca2319)"><path fill="#fcd116" d="M 28.152344 0 L 55.847656 0 L 55.847656 55.746094 L 28.152344 55.746094 Z M 28.152344 0 " fill-opacity="1" fill-rule="nonzero"></path></g><g clip-path="url(#9adc4c60ed)"><path fill="#ce1126" d="M 55.847656 0 L 83.539062 0 L 83.539062 55.746094 L 55.847656 55.746094 Z M 55.847656 0 " fill-opacity="1" fill-rule="nonzero"></path></g></svg> 