<?xml version="1.0" encoding="UTF-8"?> <svg xmlns="http://www.w3.org/2000/svg" xmlns:xlink="http://www.w3.org/1999/xlink" width="112" zoomAndPan="magnify" viewBox="0 0 84 55.5" height="74" preserveAspectRatio="xMidYMid meet" version="1.0"><defs><clipPath id="c7a3b2b9c3"><path d="M 0.375 0 L 83.625 0 L 83.625 55.003906 L 0.375 55.003906 Z M 0.375 0 " clip-rule="nonzero"></path></clipPath><clipPath id="6944ca9d15"><path d="M 0.375 0 L 83.625 0 L 83.625 28 L 0.375 28 Z M 0.375 0 " clip-rule="nonzero"></path></clipPath><clipPath id="97c72641d7"><path d="M 0.375 27 L 83.625 27 L 83.625 55.003906 L 0.375 55.003906 Z M 0.375 27 " clip-rule="nonzero"></path></clipPath></defs><g clip-path="url(#c7a3b2b9c3)"><path fill="#ffffff" d="M 0.375 0 L 83.625 0 L 83.625 55.003906 L 0.375 55.003906 Z M 0.375 0 " fill-opacity="1" fill-rule="nonzero"></path><path fill="#ffffff" d="M 0.375 0 L 83.625 0 L 83.625 55.003906 L 0.375 55.003906 Z M 0.375 0 " fill-opacity="1" fill-rule="nonzero"></path></g><g clip-path="url(#6944ca9d15)"><path fill="#ed2939" d="M 0.378906 0 L 83.621094 0 L 83.621094 27.875 L 0.378906 27.875 Z M 0.378906 0 " fill-opacity="1" fill-rule="nonzero"></path></g><g clip-path="url(#97c72641d7)"><path fill="#ffffff" d="M 0.378906 27.875 L 83.621094 27.875 L 83.621094 55.746094 L 0.378906 55.746094 Z M 0.378906 27.875 " fill-opacity="1" fill-rule="nonzero"></path></g><path fill="#ffffff" d="M 28.929688 13.9375 C 28.929688 14.625 28.863281 15.304688 28.730469 15.980469 C 28.59375 16.65625 28.398438 17.3125 28.132812 17.945312 C 27.871094 18.582031 27.550781 19.1875 27.171875 19.757812 C 26.789062 20.332031 26.355469 20.859375 25.871094 21.347656 C 25.386719 21.832031 24.859375 22.265625 24.292969 22.648438 C 23.722656 23.03125 23.121094 23.355469 22.488281 23.617188 C 21.855469 23.882812 21.203125 24.078125 20.53125 24.214844 C 19.859375 24.347656 19.179688 24.414062 18.496094 24.414062 C 17.8125 24.414062 17.132812 24.347656 16.460938 24.214844 C 15.789062 24.078125 15.136719 23.882812 14.503906 23.617188 C 13.871094 23.355469 13.269531 23.03125 12.699219 22.648438 C 12.128906 22.265625 11.605469 21.832031 11.121094 21.347656 C 10.632812 20.859375 10.203125 20.332031 9.820312 19.757812 C 9.441406 19.1875 9.121094 18.582031 8.855469 17.945312 C 8.59375 17.3125 8.398438 16.65625 8.261719 15.980469 C 8.128906 15.304688 8.0625 14.625 8.0625 13.9375 C 8.0625 13.25 8.128906 12.566406 8.261719 11.890625 C 8.394531 11.214844 8.59375 10.5625 8.855469 9.925781 C 9.117188 9.289062 9.4375 8.683594 9.820312 8.113281 C 10.199219 7.539062 10.632812 7.007812 11.117188 6.523438 C 11.601562 6.035156 12.128906 5.601562 12.699219 5.21875 C 13.269531 4.835938 13.867188 4.511719 14.503906 4.25 C 15.136719 3.984375 15.789062 3.789062 16.460938 3.652344 C 17.132812 3.519531 17.808594 3.453125 18.496094 3.453125 C 19.179688 3.453125 19.859375 3.519531 20.53125 3.652344 C 21.203125 3.789062 21.855469 3.984375 22.488281 4.25 C 23.121094 4.511719 23.722656 4.835938 24.292969 5.21875 C 24.863281 5.601562 25.390625 6.035156 25.875 6.523438 C 26.359375 7.007812 26.792969 7.539062 27.171875 8.113281 C 27.554688 8.683594 27.875 9.289062 28.136719 9.925781 C 28.398438 10.5625 28.597656 11.214844 28.730469 11.890625 C 28.863281 12.566406 28.929688 13.25 28.929688 13.9375 Z M 28.929688 13.9375 " fill-opacity="1" fill-rule="nonzero"></path><path fill="#ed2939" d="M 32.207031 13.9375 C 32.207031 14.585938 32.144531 15.230469 32.019531 15.871094 C 31.894531 16.507812 31.707031 17.125 31.457031 17.726562 C 31.210938 18.328125 30.90625 18.898438 30.546875 19.441406 C 30.1875 19.980469 29.777344 20.480469 29.320312 20.941406 C 28.863281 21.402344 28.363281 21.8125 27.828125 22.171875 C 27.289062 22.535156 26.71875 22.839844 26.121094 23.089844 C 25.523438 23.335938 24.90625 23.523438 24.273438 23.652344 C 23.636719 23.777344 22.996094 23.84375 22.347656 23.84375 C 21.699219 23.84375 21.058594 23.777344 20.425781 23.652344 C 19.789062 23.523438 19.171875 23.335938 18.574219 23.089844 C 17.976562 22.839844 17.410156 22.535156 16.871094 22.171875 C 16.332031 21.8125 15.835938 21.402344 15.375 20.941406 C 14.917969 20.480469 14.507812 19.980469 14.148438 19.441406 C 13.789062 18.898438 13.488281 18.328125 13.238281 17.726562 C 12.992188 17.125 12.804688 16.507812 12.679688 15.871094 C 12.550781 15.230469 12.488281 14.585938 12.488281 13.9375 C 12.488281 13.285156 12.550781 12.640625 12.679688 12.003906 C 12.804688 11.367188 12.992188 10.746094 13.238281 10.144531 C 13.488281 9.546875 13.789062 8.972656 14.148438 8.433594 C 14.507812 7.894531 14.917969 7.394531 15.375 6.933594 C 15.835938 6.472656 16.332031 6.0625 16.871094 5.699219 C 17.410156 5.339844 17.976562 5.035156 18.574219 4.785156 C 19.171875 4.535156 19.789062 4.347656 20.425781 4.222656 C 21.058594 4.09375 21.699219 4.03125 22.347656 4.03125 C 22.996094 4.03125 23.636719 4.09375 24.273438 4.222656 C 24.90625 4.347656 25.523438 4.535156 26.121094 4.785156 C 26.71875 5.035156 27.289062 5.339844 27.828125 5.699219 C 28.363281 6.0625 28.863281 6.472656 29.320312 6.933594 C 29.777344 7.394531 30.1875 7.894531 30.546875 8.433594 C 30.90625 8.972656 31.210938 9.546875 31.457031 10.144531 C 31.707031 10.746094 31.894531 11.367188 32.019531 12.003906 C 32.144531 12.640625 32.207031 13.285156 32.207031 13.9375 Z M 32.207031 13.9375 " fill-opacity="1" fill-rule="nonzero"></path><path fill="#ffffff" d="M 19.789062 14.191406 L 18.371094 13.097656 L 16.953125 14.191406 L 17.5 12.429688 L 16.078125 11.34375 L 17.832031 11.347656 L 18.371094 9.582031 L 18.910156 11.347656 L 20.664062 11.34375 L 19.242188 12.429688 Z M 19.789062 14.191406 " fill-opacity="1" fill-rule="nonzero"></path><path fill="#ffffff" d="M 30.910156 14.191406 L 29.492188 13.097656 L 28.074219 14.191406 L 28.621094 12.429688 L 27.199219 11.34375 L 28.953125 11.347656 L 29.492188 9.582031 L 30.03125 11.347656 L 31.785156 11.34375 L 30.363281 12.429688 Z M 30.910156 14.191406 " fill-opacity="1" fill-rule="nonzero"></path><path fill="#ffffff" d="M 25.355469 10.042969 L 23.9375 8.949219 L 22.519531 10.042969 L 23.066406 8.28125 L 21.644531 7.195312 L 23.398438 7.199219 L 23.9375 5.4375 L 24.476562 7.199219 L 26.230469 7.195312 L 24.808594 8.28125 Z M 25.355469 10.042969 " fill-opacity="1" fill-rule="nonzero"></path><path fill="#ffffff" d="M 21.867188 20.824219 L 20.449219 19.730469 L 19.035156 20.824219 L 19.578125 19.0625 L 18.15625 17.976562 L 19.914062 17.980469 L 20.449219 16.21875 L 20.988281 17.980469 L 22.742188 17.976562 L 21.324219 19.0625 Z M 21.867188 20.824219 " fill-opacity="1" fill-rule="nonzero"></path><path fill="#ffffff" d="M 28.828125 20.824219 L 27.410156 19.730469 L 25.992188 20.824219 L 26.539062 19.0625 L 25.117188 17.976562 L 26.871094 17.980469 L 27.410156 16.21875 L 27.949219 17.980469 L 29.703125 17.976562 L 28.28125 19.0625 Z M 28.828125 20.824219 " fill-opacity="1" fill-rule="nonzero"></path></svg> 