<?xml version="1.0" encoding="UTF-8"?> <svg xmlns="http://www.w3.org/2000/svg" xmlns:xlink="http://www.w3.org/1999/xlink" width="112" zoomAndPan="magnify" viewBox="0 0 84 55.5" height="74" preserveAspectRatio="xMidYMid meet" version="1.0"><defs><clipPath id="6e4875536c"><path d="M 0.375 0 L 83.625 0 L 83.625 55.003906 L 0.375 55.003906 Z M 0.375 0 " clip-rule="nonzero"></path></clipPath><clipPath id="12754af9fc"><path d="M 0.375 22 L 83.625 22 L 83.625 34 L 0.375 34 Z M 0.375 22 " clip-rule="nonzero"></path></clipPath><clipPath id="2b07c28a1e"><path d="M 25 0 L 37 0 L 37 55.003906 L 25 55.003906 Z M 25 0 " clip-rule="nonzero"></path></clipPath><clipPath id="9615b0d419"><path d="M 0.375 22 L 83.625 22 L 83.625 34 L 0.375 34 Z M 0.375 22 " clip-rule="nonzero"></path></clipPath></defs><g clip-path="url(#6e4875536c)"><path fill="#ffffff" d="M 0.375 0 L 83.625 0 L 83.625 55.003906 L 0.375 55.003906 Z M 0.375 0 " fill-opacity="1" fill-rule="nonzero"></path><path fill="#ffffff" d="M 0.375 0 L 83.625 0 L 83.625 55.003906 L 0.375 55.003906 Z M 0.375 0 " fill-opacity="1" fill-rule="nonzero"></path><path fill="#005aad" d="M -1.996094 0 L 86.265625 0 L 86.265625 55.003906 L -1.996094 55.003906 Z M -1.996094 0 " fill-opacity="1" fill-rule="evenodd"></path></g><g clip-path="url(#12754af9fc)"><path fill="#ffc200" d="M -1.996094 22 L 86.265625 22 L 86.265625 33.003906 L -1.996094 33.003906 Z M -1.996094 22 " fill-opacity="0.5" fill-rule="evenodd"></path></g><g clip-path="url(#2b07c28a1e)"><path fill="#ffc200" d="M 25.585938 0 L 36.617188 0 L 36.617188 55.003906 L 25.585938 55.003906 Z M 25.585938 0 " fill-opacity="0.5" fill-rule="evenodd"></path><path fill="#ffc200" d="M 25.585938 0 L 36.617188 0 L 36.617188 55.003906 L 25.585938 55.003906 Z M 25.585938 0 " fill-opacity="1" fill-rule="evenodd"></path></g><g clip-path="url(#9615b0d419)"><path fill="#ffc200" d="M -1.996094 22 L 86.265625 22 L 86.265625 33.003906 L -1.996094 33.003906 Z M -1.996094 22 " fill-opacity="1" fill-rule="evenodd"></path></g></svg> 