<?xml version="1.0" encoding="UTF-8"?> <svg xmlns="http://www.w3.org/2000/svg" xmlns:xlink="http://www.w3.org/1999/xlink" width="40" zoomAndPan="magnify" viewBox="0 0 30 30.000001" height="40" preserveAspectRatio="xMidYMid meet" version="1.0"><defs><clipPath id="5fa6bd4fcd"><path d="M 3 15 L 27 15 L 27 22.671875 L 3 22.671875 Z M 3 15 " clip-rule="nonzero"></path></clipPath><clipPath id="6cb303e52a"><path d="M 1.679688 7 L 11 7 L 11 22 L 1.679688 22 Z M 1.679688 7 " clip-rule="nonzero"></path></clipPath><clipPath id="98278e2e18"><path d="M 19 7 L 27.808594 7 L 27.808594 22 L 19 22 Z M 19 7 " clip-rule="nonzero"></path></clipPath></defs><g clip-path="url(#5fa6bd4fcd)"><path fill="#ffffff" d="M 26.367188 22.371094 L 18.167969 15.582031 C 17.925781 15.386719 17.582031 15.386719 17.339844 15.582031 L 15.132812 17.410156 C 14.910156 17.597656 14.585938 17.597656 14.363281 17.410156 L 12.15625 15.582031 C 11.914062 15.386719 11.566406 15.386719 11.328125 15.582031 L 3.128906 22.371094 C 3.015625 22.460938 3.082031 22.644531 3.226562 22.644531 L 26.265625 22.644531 C 26.414062 22.644531 26.480469 22.460938 26.367188 22.371094 " fill-opacity="1" fill-rule="nonzero"></path></g><g clip-path="url(#6cb303e52a)"><path fill="#ffffff" d="M 10.304688 14.050781 L 1.941406 7.132812 C 1.839844 7.046875 1.683594 7.121094 1.683594 7.25 L 1.683594 21.394531 C 1.683594 21.527344 1.839844 21.597656 1.941406 21.515625 L 10.304688 14.59375 C 10.472656 14.453125 10.472656 14.191406 10.304688 14.050781 " fill-opacity="1" fill-rule="nonzero"></path></g><path fill="#ffffff" d="M 3.128906 6.277344 L 14.433594 15.632812 C 14.617188 15.78125 14.878906 15.78125 15.0625 15.632812 L 26.367188 6.277344 C 26.480469 6.183594 26.414062 6 26.265625 6 L 3.226562 6 C 3.082031 6 3.015625 6.183594 3.128906 6.277344 " fill-opacity="1" fill-rule="nonzero"></path><g clip-path="url(#98278e2e18)"><path fill="#ffffff" d="M 27.554688 7.132812 L 19.191406 14.050781 C 19.019531 14.191406 19.019531 14.453125 19.191406 14.59375 L 27.554688 21.515625 C 27.65625 21.597656 27.8125 21.527344 27.8125 21.394531 L 27.8125 7.25 C 27.8125 7.121094 27.65625 7.046875 27.554688 7.132812 " fill-opacity="1" fill-rule="nonzero"></path></g></svg> 