<?xml version="1.0" encoding="UTF-8"?> <svg xmlns="http://www.w3.org/2000/svg" xmlns:xlink="http://www.w3.org/1999/xlink" width="112" zoomAndPan="magnify" viewBox="0 0 84 55.5" height="74" preserveAspectRatio="xMidYMid meet" version="1.0"><defs><clipPath id="23bf1fb77c"><path d="M 0.375 0 L 83.625 0 L 83.625 55.003906 L 0.375 55.003906 Z M 0.375 0 " clip-rule="nonzero"></path></clipPath><clipPath id="8412fa0c88"><path d="M 0.375 33 L 83.625 33 L 83.625 39 L 0.375 39 Z M 0.375 33 " clip-rule="nonzero"></path></clipPath><clipPath id="aa5ad8c17f"><path d="M 42 25 L 83.625 25 L 83.625 30 L 42 30 Z M 42 25 " clip-rule="nonzero"></path></clipPath><clipPath id="08ff21e464"><path d="M 42 16 L 83.625 16 L 83.625 22 L 42 22 Z M 42 16 " clip-rule="nonzero"></path></clipPath><clipPath id="46972f2442"><path d="M 42 8 L 83.625 8 L 83.625 13 L 42 13 Z M 42 8 " clip-rule="nonzero"></path></clipPath><clipPath id="bfada3ab45"><path d="M 42 0 L 83.625 0 L 83.625 5 L 42 5 Z M 42 0 " clip-rule="nonzero"></path></clipPath><clipPath id="41a6c91cb5"><path d="M 0.375 42 L 83.625 42 L 83.625 47 L 0.375 47 Z M 0.375 42 " clip-rule="nonzero"></path></clipPath><clipPath id="c0ffcfc220"><path d="M 0.375 50 L 83.625 50 L 83.625 55.003906 L 0.375 55.003906 Z M 0.375 50 " clip-rule="nonzero"></path></clipPath><clipPath id="96f765b583"><path d="M 0.375 0 L 43 0 L 43 30 L 0.375 30 Z M 0.375 0 " clip-rule="nonzero"></path></clipPath></defs><g clip-path="url(#23bf1fb77c)"><path fill="#ffffff" d="M 0.375 0 L 83.625 0 L 83.625 55.003906 L 0.375 55.003906 Z M 0.375 0 " fill-opacity="1" fill-rule="nonzero"></path><path fill="#ffffff" d="M 0.375 0 L 83.625 0 L 83.625 55.003906 L 0.375 55.003906 Z M 0.375 0 " fill-opacity="1" fill-rule="nonzero"></path><path fill="#ffffff" d="M 83.507812 55.011719 L 0.488281 55.011719 L 0.488281 0.0078125 L 83.507812 0.0078125 L 83.507812 55.011719 " fill-opacity="1" fill-rule="nonzero"></path></g><g clip-path="url(#8412fa0c88)"><path fill="#d21c31" d="M 83.507812 38.09375 L 0.488281 38.09375 L 0.488281 33.859375 L 83.507812 33.859375 L 83.507812 38.09375 " fill-opacity="1" fill-rule="nonzero"></path></g><g clip-path="url(#aa5ad8c17f)"><path fill="#d21c31" d="M 83.507812 29.644531 L 42.546875 29.644531 L 42.546875 25.390625 L 83.507812 25.390625 L 83.507812 29.644531 " fill-opacity="1" fill-rule="nonzero"></path></g><g clip-path="url(#08ff21e464)"><path fill="#d21c31" d="M 83.507812 21.164062 L 42.546875 21.164062 L 42.546875 16.910156 L 83.507812 16.910156 L 83.507812 21.164062 " fill-opacity="1" fill-rule="nonzero"></path></g><g clip-path="url(#46972f2442)"><path fill="#d21c31" d="M 83.507812 12.714844 L 42.546875 12.714844 L 42.546875 8.460938 L 83.507812 8.460938 L 83.507812 12.714844 " fill-opacity="1" fill-rule="nonzero"></path></g><g clip-path="url(#bfada3ab45)"><path fill="#d21c31" d="M 83.507812 4.242188 L 42.550781 4.242188 L 42.550781 0.0078125 L 83.507812 0.0078125 L 83.507812 4.242188 " fill-opacity="1" fill-rule="nonzero"></path></g><g clip-path="url(#41a6c91cb5)"><path fill="#d21c31" d="M 83.507812 46.554688 L 0.488281 46.554688 L 0.488281 42.320312 L 83.507812 42.320312 L 83.507812 46.554688 " fill-opacity="1" fill-rule="nonzero"></path></g><g clip-path="url(#c0ffcfc220)"><path fill="#d21c31" d="M 83.507812 55.011719 L 0.488281 55.011719 L 0.488281 50.777344 L 83.507812 50.777344 L 83.507812 55.011719 " fill-opacity="1" fill-rule="nonzero"></path></g><g clip-path="url(#96f765b583)"><path fill="#363570" d="M 42.648438 29.644531 L 0.488281 29.644531 L 0.488281 0.0078125 L 42.648438 0.0078125 L 42.648438 29.644531 " fill-opacity="1" fill-rule="nonzero"></path></g><path fill="#ffffff" d="M 4.089844 1.1875 L 4.484375 2.390625 L 5.753906 2.390625 L 4.726562 3.132812 L 5.117188 4.335938 L 4.089844 3.59375 L 3.058594 4.335938 L 3.453125 3.132812 L 2.421875 2.390625 L 3.695312 2.390625 L 4.089844 1.1875 " fill-opacity="1" fill-rule="nonzero"></path><path fill="#ffffff" d="M 11.058594 1.1875 L 11.453125 2.390625 L 12.722656 2.390625 L 11.695312 3.132812 L 12.085938 4.335938 L 11.058594 3.59375 L 10.027344 4.335938 L 10.421875 3.132812 L 9.390625 2.390625 L 10.664062 2.390625 L 11.058594 1.1875 " fill-opacity="1" fill-rule="nonzero"></path><path fill="#ffffff" d="M 18.027344 1.1875 L 18.417969 2.390625 L 19.691406 2.390625 L 18.664062 3.132812 L 19.054688 4.335938 L 18.027344 3.59375 L 16.996094 4.335938 L 17.390625 3.132812 L 16.359375 2.390625 L 17.632812 2.390625 L 18.027344 1.1875 " fill-opacity="1" fill-rule="nonzero"></path><path fill="#ffffff" d="M 24.996094 1.1875 L 25.386719 2.390625 L 26.660156 2.390625 L 25.632812 3.132812 L 26.023438 4.335938 L 24.996094 3.59375 L 23.964844 4.335938 L 24.359375 3.132812 L 23.328125 2.390625 L 24.601562 2.390625 L 24.996094 1.1875 " fill-opacity="1" fill-rule="nonzero"></path><path fill="#ffffff" d="M 31.964844 1.1875 L 32.355469 2.390625 L 33.628906 2.390625 L 32.601562 3.132812 L 32.992188 4.335938 L 31.964844 3.59375 L 30.933594 4.335938 L 31.328125 3.132812 L 30.296875 2.390625 L 31.570312 2.390625 L 31.964844 1.1875 " fill-opacity="1" fill-rule="nonzero"></path><path fill="#ffffff" d="M 38.933594 1.1875 L 39.324219 2.390625 L 40.597656 2.390625 L 39.570312 3.132812 L 39.960938 4.335938 L 38.933594 3.59375 L 37.902344 4.335938 L 38.296875 3.132812 L 37.265625 2.390625 L 38.539062 2.390625 L 38.933594 1.1875 " fill-opacity="1" fill-rule="nonzero"></path><path fill="#ffffff" d="M 7.578125 4.148438 L 7.972656 5.351562 L 9.242188 5.351562 L 8.214844 6.09375 L 8.609375 7.296875 L 7.578125 6.554688 L 6.546875 7.296875 L 6.941406 6.09375 L 5.910156 5.351562 L 7.183594 5.351562 L 7.578125 4.148438 " fill-opacity="1" fill-rule="nonzero"></path><path fill="#ffffff" d="M 14.546875 4.148438 L 14.941406 5.351562 L 16.210938 5.351562 L 15.183594 6.09375 L 15.574219 7.296875 L 14.546875 6.554688 L 13.515625 7.296875 L 13.910156 6.09375 L 12.878906 5.351562 L 14.152344 5.351562 L 14.546875 4.148438 " fill-opacity="1" fill-rule="nonzero"></path><path fill="#ffffff" d="M 21.515625 4.148438 L 21.910156 5.351562 L 23.179688 5.351562 L 22.152344 6.09375 L 22.542969 7.296875 L 21.515625 6.554688 L 20.484375 7.296875 L 20.878906 6.09375 L 19.847656 5.351562 L 21.121094 5.351562 L 21.515625 4.148438 " fill-opacity="1" fill-rule="nonzero"></path><path fill="#ffffff" d="M 28.484375 4.148438 L 28.875 5.351562 L 30.148438 5.351562 L 29.121094 6.09375 L 29.511719 7.296875 L 28.484375 6.554688 L 27.453125 7.296875 L 27.847656 6.09375 L 26.816406 5.351562 L 28.089844 5.351562 L 28.484375 4.148438 " fill-opacity="1" fill-rule="nonzero"></path><path fill="#ffffff" d="M 35.453125 4.148438 L 35.84375 5.351562 L 37.117188 5.351562 L 36.089844 6.09375 L 36.480469 7.296875 L 35.453125 6.554688 L 34.421875 7.296875 L 34.816406 6.09375 L 33.785156 5.351562 L 35.058594 5.351562 L 35.453125 4.148438 " fill-opacity="1" fill-rule="nonzero"></path><path fill="#ffffff" d="M 7.578125 10.101562 L 7.972656 11.304688 L 9.242188 11.304688 L 8.214844 12.046875 L 8.609375 13.25 L 7.578125 12.507812 L 6.546875 13.25 L 6.941406 12.046875 L 5.910156 11.304688 L 7.183594 11.304688 L 7.578125 10.101562 " fill-opacity="1" fill-rule="nonzero"></path><path fill="#ffffff" d="M 14.546875 10.101562 L 14.941406 11.304688 L 16.210938 11.304688 L 15.183594 12.046875 L 15.574219 13.25 L 14.546875 12.507812 L 13.515625 13.25 L 13.910156 12.046875 L 12.878906 11.304688 L 14.152344 11.304688 L 14.546875 10.101562 " fill-opacity="1" fill-rule="nonzero"></path><path fill="#ffffff" d="M 21.515625 10.101562 L 21.910156 11.304688 L 23.179688 11.304688 L 22.152344 12.046875 L 22.542969 13.25 L 21.515625 12.507812 L 20.484375 13.25 L 20.878906 12.046875 L 19.847656 11.304688 L 21.121094 11.304688 L 21.515625 10.101562 " fill-opacity="1" fill-rule="nonzero"></path><path fill="#ffffff" d="M 28.484375 10.101562 L 28.875 11.304688 L 30.148438 11.304688 L 29.121094 12.046875 L 29.511719 13.25 L 28.484375 12.507812 L 27.453125 13.25 L 27.847656 12.046875 L 26.816406 11.304688 L 28.089844 11.304688 L 28.484375 10.101562 " fill-opacity="1" fill-rule="nonzero"></path><path fill="#ffffff" d="M 35.453125 10.101562 L 35.84375 11.304688 L 37.117188 11.304688 L 36.089844 12.046875 L 36.480469 13.25 L 35.453125 12.507812 L 34.421875 13.25 L 34.816406 12.046875 L 33.785156 11.304688 L 35.058594 11.304688 L 35.453125 10.101562 " fill-opacity="1" fill-rule="nonzero"></path><path fill="#ffffff" d="M 7.578125 16.054688 L 7.972656 17.257812 L 9.242188 17.257812 L 8.214844 18 L 8.609375 19.203125 L 7.578125 18.460938 L 6.546875 19.203125 L 6.941406 18 L 5.910156 17.257812 L 7.183594 17.257812 L 7.578125 16.054688 " fill-opacity="1" fill-rule="nonzero"></path><path fill="#ffffff" d="M 14.546875 16.054688 L 14.941406 17.257812 L 16.210938 17.257812 L 15.183594 18 L 15.574219 19.203125 L 14.546875 18.460938 L 13.515625 19.203125 L 13.910156 18 L 12.878906 17.257812 L 14.152344 17.257812 L 14.546875 16.054688 " fill-opacity="1" fill-rule="nonzero"></path><path fill="#ffffff" d="M 21.515625 16.054688 L 21.910156 17.257812 L 23.179688 17.257812 L 22.152344 18 L 22.542969 19.203125 L 21.515625 18.460938 L 20.484375 19.203125 L 20.878906 18 L 19.847656 17.257812 L 21.121094 17.257812 L 21.515625 16.054688 " fill-opacity="1" fill-rule="nonzero"></path><path fill="#ffffff" d="M 28.484375 16.054688 L 28.875 17.257812 L 30.148438 17.257812 L 29.121094 18 L 29.511719 19.203125 L 28.484375 18.460938 L 27.453125 19.203125 L 27.847656 18 L 26.816406 17.257812 L 28.089844 17.257812 L 28.484375 16.054688 " fill-opacity="1" fill-rule="nonzero"></path><path fill="#ffffff" d="M 35.453125 16.054688 L 35.84375 17.257812 L 37.117188 17.257812 L 36.089844 18 L 36.480469 19.203125 L 35.453125 18.460938 L 34.421875 19.203125 L 34.816406 18 L 33.785156 17.257812 L 35.058594 17.257812 L 35.453125 16.054688 " fill-opacity="1" fill-rule="nonzero"></path><path fill="#ffffff" d="M 7.578125 22.007812 L 7.972656 23.210938 L 9.242188 23.210938 L 8.214844 23.953125 L 8.609375 25.15625 L 7.578125 24.414062 L 6.546875 25.15625 L 6.941406 23.953125 L 5.910156 23.210938 L 7.183594 23.210938 L 7.578125 22.007812 " fill-opacity="1" fill-rule="nonzero"></path><path fill="#ffffff" d="M 14.546875 22.007812 L 14.941406 23.210938 L 16.210938 23.210938 L 15.183594 23.953125 L 15.574219 25.15625 L 14.546875 24.414062 L 13.515625 25.15625 L 13.910156 23.953125 L 12.878906 23.210938 L 14.152344 23.210938 L 14.546875 22.007812 " fill-opacity="1" fill-rule="nonzero"></path><path fill="#ffffff" d="M 21.515625 22.007812 L 21.910156 23.210938 L 23.179688 23.210938 L 22.152344 23.953125 L 22.542969 25.15625 L 21.515625 24.414062 L 20.484375 25.15625 L 20.878906 23.953125 L 19.847656 23.210938 L 21.121094 23.210938 L 21.515625 22.007812 " fill-opacity="1" fill-rule="nonzero"></path><path fill="#ffffff" d="M 28.484375 22.007812 L 28.875 23.210938 L 30.148438 23.210938 L 29.121094 23.953125 L 29.511719 25.15625 L 28.484375 24.414062 L 27.453125 25.15625 L 27.847656 23.953125 L 26.816406 23.210938 L 28.089844 23.210938 L 28.484375 22.007812 " fill-opacity="1" fill-rule="nonzero"></path><path fill="#ffffff" d="M 35.453125 22.007812 L 35.84375 23.210938 L 37.117188 23.210938 L 36.089844 23.953125 L 36.480469 25.15625 L 35.453125 24.414062 L 34.421875 25.15625 L 34.816406 23.953125 L 33.785156 23.210938 L 35.058594 23.210938 L 35.453125 22.007812 " fill-opacity="1" fill-rule="nonzero"></path><path fill="#ffffff" d="M 4.089844 7.128906 L 4.484375 8.332031 L 5.753906 8.332031 L 4.726562 9.074219 L 5.117188 10.277344 L 4.089844 9.535156 L 3.058594 10.277344 L 3.453125 9.074219 L 2.421875 8.332031 L 3.695312 8.332031 L 4.089844 7.128906 " fill-opacity="1" fill-rule="nonzero"></path><path fill="#ffffff" d="M 11.058594 7.128906 L 11.453125 8.332031 L 12.722656 8.332031 L 11.695312 9.074219 L 12.085938 10.277344 L 11.058594 9.535156 L 10.027344 10.277344 L 10.421875 9.074219 L 9.390625 8.332031 L 10.664062 8.332031 L 11.058594 7.128906 " fill-opacity="1" fill-rule="nonzero"></path><path fill="#ffffff" d="M 18.027344 7.128906 L 18.417969 8.332031 L 19.691406 8.332031 L 18.664062 9.074219 L 19.054688 10.277344 L 18.027344 9.535156 L 16.996094 10.277344 L 17.390625 9.074219 L 16.359375 8.332031 L 17.632812 8.332031 L 18.027344 7.128906 " fill-opacity="1" fill-rule="nonzero"></path><path fill="#ffffff" d="M 24.996094 7.128906 L 25.386719 8.332031 L 26.660156 8.332031 L 25.632812 9.074219 L 26.023438 10.277344 L 24.996094 9.535156 L 23.964844 10.277344 L 24.359375 9.074219 L 23.328125 8.332031 L 24.601562 8.332031 L 24.996094 7.128906 " fill-opacity="1" fill-rule="nonzero"></path><path fill="#ffffff" d="M 31.964844 7.128906 L 32.355469 8.332031 L 33.628906 8.332031 L 32.601562 9.074219 L 32.992188 10.277344 L 31.964844 9.535156 L 30.933594 10.277344 L 31.328125 9.074219 L 30.296875 8.332031 L 31.570312 8.332031 L 31.964844 7.128906 " fill-opacity="1" fill-rule="nonzero"></path><path fill="#ffffff" d="M 38.933594 7.128906 L 39.324219 8.332031 L 40.597656 8.332031 L 39.570312 9.074219 L 39.960938 10.277344 L 38.933594 9.535156 L 37.902344 10.277344 L 38.296875 9.074219 L 37.265625 8.332031 L 38.539062 8.332031 L 38.933594 7.128906 " fill-opacity="1" fill-rule="nonzero"></path><path fill="#ffffff" d="M 4.089844 13.070312 L 4.484375 14.273438 L 5.753906 14.273438 L 4.726562 15.015625 L 5.117188 16.21875 L 4.089844 15.476562 L 3.058594 16.21875 L 3.453125 15.015625 L 2.421875 14.273438 L 3.695312 14.273438 L 4.089844 13.070312 " fill-opacity="1" fill-rule="nonzero"></path><path fill="#ffffff" d="M 11.058594 13.070312 L 11.453125 14.273438 L 12.722656 14.273438 L 11.695312 15.015625 L 12.085938 16.21875 L 11.058594 15.476562 L 10.027344 16.21875 L 10.421875 15.015625 L 9.390625 14.273438 L 10.664062 14.273438 L 11.058594 13.070312 " fill-opacity="1" fill-rule="nonzero"></path><path fill="#ffffff" d="M 18.027344 13.070312 L 18.417969 14.273438 L 19.691406 14.273438 L 18.664062 15.015625 L 19.054688 16.21875 L 18.027344 15.476562 L 16.996094 16.21875 L 17.390625 15.015625 L 16.359375 14.273438 L 17.632812 14.273438 L 18.027344 13.070312 " fill-opacity="1" fill-rule="nonzero"></path><path fill="#ffffff" d="M 24.996094 13.070312 L 25.386719 14.273438 L 26.660156 14.273438 L 25.632812 15.015625 L 26.023438 16.21875 L 24.996094 15.476562 L 23.964844 16.21875 L 24.359375 15.015625 L 23.328125 14.273438 L 24.601562 14.273438 L 24.996094 13.070312 " fill-opacity="1" fill-rule="nonzero"></path><path fill="#ffffff" d="M 31.964844 13.070312 L 32.355469 14.273438 L 33.628906 14.273438 L 32.601562 15.015625 L 32.992188 16.21875 L 31.964844 15.476562 L 30.933594 16.21875 L 31.328125 15.015625 L 30.296875 14.273438 L 31.570312 14.273438 L 31.964844 13.070312 " fill-opacity="1" fill-rule="nonzero"></path><path fill="#ffffff" d="M 38.933594 13.070312 L 39.324219 14.273438 L 40.597656 14.273438 L 39.570312 15.015625 L 39.960938 16.21875 L 38.933594 15.476562 L 37.902344 16.21875 L 38.296875 15.015625 L 37.265625 14.273438 L 38.539062 14.273438 L 38.933594 13.070312 " fill-opacity="1" fill-rule="nonzero"></path><path fill="#ffffff" d="M 4.089844 19.011719 L 4.484375 20.214844 L 5.753906 20.214844 L 4.726562 20.960938 L 5.117188 22.160156 L 4.089844 21.417969 L 3.058594 22.160156 L 3.453125 20.960938 L 2.421875 20.214844 L 3.695312 20.214844 L 4.089844 19.011719 " fill-opacity="1" fill-rule="nonzero"></path><path fill="#ffffff" d="M 11.058594 19.011719 L 11.453125 20.214844 L 12.722656 20.214844 L 11.695312 20.960938 L 12.085938 22.160156 L 11.058594 21.417969 L 10.027344 22.160156 L 10.421875 20.960938 L 9.390625 20.214844 L 10.664062 20.214844 L 11.058594 19.011719 " fill-opacity="1" fill-rule="nonzero"></path><path fill="#ffffff" d="M 18.027344 19.011719 L 18.417969 20.214844 L 19.691406 20.214844 L 18.664062 20.960938 L 19.054688 22.160156 L 18.027344 21.417969 L 16.996094 22.160156 L 17.390625 20.960938 L 16.359375 20.214844 L 17.632812 20.214844 L 18.027344 19.011719 " fill-opacity="1" fill-rule="nonzero"></path><path fill="#ffffff" d="M 24.996094 19.011719 L 25.386719 20.214844 L 26.660156 20.214844 L 25.632812 20.960938 L 26.023438 22.160156 L 24.996094 21.417969 L 23.964844 22.160156 L 24.359375 20.960938 L 23.328125 20.214844 L 24.601562 20.214844 L 24.996094 19.011719 " fill-opacity="1" fill-rule="nonzero"></path><path fill="#ffffff" d="M 31.964844 19.011719 L 32.355469 20.214844 L 33.628906 20.214844 L 32.601562 20.960938 L 32.992188 22.160156 L 31.964844 21.417969 L 30.933594 22.160156 L 31.328125 20.960938 L 30.296875 20.214844 L 31.570312 20.214844 L 31.964844 19.011719 " fill-opacity="1" fill-rule="nonzero"></path><path fill="#ffffff" d="M 38.933594 19.011719 L 39.324219 20.214844 L 40.597656 20.214844 L 39.570312 20.960938 L 39.960938 22.160156 L 38.933594 21.417969 L 37.902344 22.160156 L 38.296875 20.960938 L 37.265625 20.214844 L 38.539062 20.214844 L 38.933594 19.011719 " fill-opacity="1" fill-rule="nonzero"></path><path fill="#ffffff" d="M 4.089844 24.953125 L 4.484375 26.15625 L 5.753906 26.15625 L 4.726562 26.902344 L 5.117188 28.105469 L 4.089844 27.359375 L 3.058594 28.105469 L 3.453125 26.902344 L 2.421875 26.15625 L 3.695312 26.15625 L 4.089844 24.953125 " fill-opacity="1" fill-rule="nonzero"></path><path fill="#ffffff" d="M 11.058594 24.953125 L 11.453125 26.15625 L 12.722656 26.15625 L 11.695312 26.902344 L 12.085938 28.105469 L 11.058594 27.359375 L 10.027344 28.105469 L 10.421875 26.902344 L 9.390625 26.15625 L 10.664062 26.15625 L 11.058594 24.953125 " fill-opacity="1" fill-rule="nonzero"></path><path fill="#ffffff" d="M 18.027344 24.953125 L 18.417969 26.15625 L 19.691406 26.15625 L 18.664062 26.902344 L 19.054688 28.105469 L 18.027344 27.359375 L 16.996094 28.105469 L 17.390625 26.902344 L 16.359375 26.15625 L 17.632812 26.15625 L 18.027344 24.953125 " fill-opacity="1" fill-rule="nonzero"></path><path fill="#ffffff" d="M 24.996094 24.953125 L 25.386719 26.15625 L 26.660156 26.15625 L 25.632812 26.902344 L 26.023438 28.105469 L 24.996094 27.359375 L 23.964844 28.105469 L 24.359375 26.902344 L 23.328125 26.15625 L 24.601562 26.15625 L 24.996094 24.953125 " fill-opacity="1" fill-rule="nonzero"></path><path fill="#ffffff" d="M 31.964844 24.953125 L 32.355469 26.15625 L 33.628906 26.15625 L 32.601562 26.902344 L 32.992188 28.105469 L 31.964844 27.359375 L 30.933594 28.105469 L 31.328125 26.902344 L 30.296875 26.15625 L 31.570312 26.15625 L 31.964844 24.953125 " fill-opacity="1" fill-rule="nonzero"></path><path fill="#ffffff" d="M 38.933594 24.953125 L 39.324219 26.15625 L 40.597656 26.15625 L 39.570312 26.902344 L 39.960938 28.105469 L 38.933594 27.359375 L 37.902344 28.105469 L 38.296875 26.902344 L 37.265625 26.15625 L 38.539062 26.15625 L 38.933594 24.953125 " fill-opacity="1" fill-rule="nonzero"></path></svg> 