<?xml version="1.0" encoding="UTF-8"?> <svg xmlns="http://www.w3.org/2000/svg" xmlns:xlink="http://www.w3.org/1999/xlink" width="112" zoomAndPan="magnify" viewBox="0 0 84 55.5" height="74" preserveAspectRatio="xMidYMid meet" version="1.0"><defs><clipPath id="d1646bac3e"><path d="M 0.375 0 L 83.625 0 L 83.625 55.003906 L 0.375 55.003906 Z M 0.375 0 " clip-rule="nonzero"></path></clipPath><clipPath id="882d9bf1db"><path d="M 0.402344 37.089844 L 83.601562 37.089844 L 83.601562 55.003906 L 0.402344 55.003906 Z M 0.402344 37.089844 " clip-rule="nonzero"></path></clipPath><clipPath id="810bae9191"><path d="M 0.402344 18.484375 L 83.601562 18.484375 L 83.601562 37.214844 L 0.402344 37.214844 Z M 0.402344 18.484375 " clip-rule="nonzero"></path></clipPath><clipPath id="7c6ea7758e"><path d="M 0.402344 0 L 83.601562 0 L 83.601562 18.605469 L 0.402344 18.605469 Z M 0.402344 0 " clip-rule="nonzero"></path></clipPath><clipPath id="56c183c5b9"><path d="M 0.402344 19.097656 L 83.601562 19.097656 L 83.601562 36.722656 L 0.402344 36.722656 Z M 0.402344 19.097656 " clip-rule="nonzero"></path></clipPath><clipPath id="8ef7228335"><path d="M 0.402344 18.484375 L 83.601562 18.484375 L 83.601562 37.214844 L 0.402344 37.214844 Z M 0.402344 18.484375 " clip-rule="nonzero"></path></clipPath></defs><g clip-path="url(#d1646bac3e)"><path fill="#ffffff" d="M 0.375 0 L 83.625 0 L 83.625 55.003906 L 0.375 55.003906 Z M 0.375 0 " fill-opacity="1" fill-rule="nonzero"></path><path fill="#ffffff" d="M 0.375 0 L 83.625 0 L 83.625 55.003906 L 0.375 55.003906 Z M 0.375 0 " fill-opacity="1" fill-rule="nonzero"></path></g><g clip-path="url(#882d9bf1db)"><path fill="#2aaa0f" d="M 0.402344 37.160156 L 83.601562 37.160156 L 83.601562 55.742188 L 0.402344 55.742188 L 0.402344 37.160156 " fill-opacity="1" fill-rule="nonzero"></path></g><g clip-path="url(#810bae9191)"><path fill="#ffffff" d="M 83.605469 18.585938 L 83.605469 37.160156 L 0.402344 37.160156 L 0.402344 18.585938 L 83.605469 18.585938 " fill-opacity="1" fill-rule="nonzero"></path></g><g clip-path="url(#7c6ea7758e)"><path fill="#319dff" d="M 0.402344 0 L 83.601562 0 L 83.601562 18.582031 L 0.402344 18.582031 L 0.402344 0 " fill-opacity="1" fill-rule="nonzero"></path></g><g clip-path="url(#56c183c5b9)"><path fill="#ffffff" d="M 83.605469 19.117188 L 83.605469 36.628906 L 0.402344 36.628906 L 0.402344 19.117188 L 83.605469 19.117188 " fill-opacity="1" fill-rule="nonzero"></path></g><g clip-path="url(#8ef7228335)"><path fill="#ef1111" d="M 0.402344 18.585938 L 0.402344 19.644531 L 83.605469 19.644531 L 83.605469 18.585938 Z M 0.402344 37.160156 L 83.605469 37.160156 L 83.605469 36.101562 L 0.402344 36.101562 L 0.402344 37.160156 " fill-opacity="1" fill-rule="nonzero"></path></g><path fill="#fefdfe" d="M 17.355469 16.550781 C 16.878906 16.652344 16.394531 16.699219 15.886719 16.699219 C 11.421875 16.699219 7.882812 12.726562 8.597656 8.121094 C 9.152344 4.574219 12.320312 1.898438 15.902344 1.90625 C 16.390625 1.90625 16.875 1.957031 17.347656 2.054688 C 13.996094 2.753906 11.46875 5.738281 11.46875 9.308594 C 11.46875 12.878906 13.996094 15.863281 17.355469 16.550781 " fill-opacity="1" fill-rule="nonzero"></path><path fill="#ffffff" d="M 21.765625 15.640625 L 22.128906 16.761719 L 21.175781 16.070312 L 20.226562 16.761719 L 20.589844 15.640625 L 19.636719 14.945312 L 20.8125 14.945312 L 21.175781 13.824219 L 21.539062 14.945312 L 22.71875 14.945312 L 21.765625 15.640625 " fill-opacity="1" fill-rule="nonzero"></path><path fill="#ffffff" d="M 26.75 15.640625 L 27.113281 16.761719 L 26.164062 16.070312 L 25.210938 16.761719 L 25.574219 15.640625 L 24.621094 14.945312 L 25.800781 14.945312 L 26.164062 13.824219 L 26.527344 14.945312 L 27.703125 14.945312 L 26.75 15.640625 " fill-opacity="1" fill-rule="nonzero"></path><path fill="#ffffff" d="M 31.738281 15.640625 L 32.101562 16.761719 L 31.148438 16.070312 L 30.199219 16.761719 L 30.5625 15.640625 L 29.609375 14.945312 L 30.785156 14.945312 L 31.148438 13.824219 L 31.511719 14.945312 L 32.6875 14.945312 L 31.738281 15.640625 " fill-opacity="1" fill-rule="nonzero"></path><path fill="#ffffff" d="M 36.722656 15.640625 L 37.085938 16.761719 L 36.132812 16.070312 L 35.183594 16.761719 L 35.546875 15.640625 L 34.59375 14.945312 L 35.769531 14.945312 L 36.132812 13.824219 L 36.496094 14.945312 L 37.675781 14.945312 L 36.722656 15.640625 " fill-opacity="1" fill-rule="nonzero"></path><path fill="#ffffff" d="M 41.707031 15.640625 L 42.070312 16.761719 L 41.121094 16.070312 L 40.167969 16.761719 L 40.53125 15.640625 L 39.578125 14.945312 L 40.757812 14.945312 L 41.121094 13.824219 L 41.484375 14.945312 L 42.660156 14.945312 L 41.707031 15.640625 " fill-opacity="1" fill-rule="nonzero"></path><path fill="#ffffff" d="M 26.75 9.570312 L 27.113281 10.691406 L 26.164062 10 L 25.210938 10.691406 L 25.574219 9.570312 L 24.621094 8.878906 L 25.800781 8.878906 L 26.164062 7.753906 L 26.527344 8.878906 L 27.703125 8.878906 L 26.75 9.570312 " fill-opacity="1" fill-rule="nonzero"></path><path fill="#ffffff" d="M 31.738281 9.570312 L 32.101562 10.691406 L 31.148438 10 L 30.199219 10.691406 L 30.5625 9.570312 L 29.609375 8.878906 L 30.785156 8.878906 L 31.148438 7.753906 L 31.511719 8.878906 L 32.6875 8.878906 L 31.738281 9.570312 " fill-opacity="1" fill-rule="nonzero"></path><path fill="#ffffff" d="M 36.722656 9.570312 L 37.085938 10.691406 L 36.132812 10 L 35.183594 10.691406 L 35.546875 9.570312 L 34.59375 8.878906 L 35.769531 8.878906 L 36.132812 7.753906 L 36.496094 8.878906 L 37.675781 8.878906 L 36.722656 9.570312 " fill-opacity="1" fill-rule="nonzero"></path><path fill="#ffffff" d="M 41.707031 9.570312 L 42.070312 10.691406 L 41.121094 10 L 40.167969 10.691406 L 40.53125 9.570312 L 39.578125 8.878906 L 40.757812 8.878906 L 41.121094 7.753906 L 41.484375 8.878906 L 42.660156 8.878906 L 41.707031 9.570312 " fill-opacity="1" fill-rule="nonzero"></path><path fill="#ffffff" d="M 31.738281 3.5 L 32.101562 4.625 L 31.148438 3.929688 L 30.199219 4.625 L 30.5625 3.5 L 29.609375 2.808594 L 30.785156 2.808594 L 31.148438 1.683594 L 31.511719 2.808594 L 32.6875 2.808594 L 31.738281 3.5 " fill-opacity="1" fill-rule="nonzero"></path><path fill="#ffffff" d="M 36.722656 3.5 L 37.085938 4.625 L 36.132812 3.929688 L 35.183594 4.625 L 35.546875 3.5 L 34.59375 2.808594 L 35.769531 2.808594 L 36.132812 1.683594 L 36.496094 2.808594 L 37.675781 2.808594 L 36.722656 3.5 " fill-opacity="1" fill-rule="nonzero"></path><path fill="#ffffff" d="M 41.707031 3.5 L 42.070312 4.625 L 41.121094 3.929688 L 40.167969 4.625 L 40.53125 3.5 L 39.578125 2.808594 L 40.757812 2.808594 L 41.121094 1.683594 L 41.484375 2.808594 L 42.660156 2.808594 L 41.707031 3.5 " fill-opacity="1" fill-rule="nonzero"></path></svg> 